<?xml version="1.0" encoding="UTF-8" standalone="no"?>
<svg width="987px" height="262px" viewBox="0 0 987 262" version="1.1" xmlns="http://www.w3.org/2000/svg" xmlns:xlink="http://www.w3.org/1999/xlink" xmlns:sketch="http://www.bohemiancoding.com/sketch/ns">
    <!-- Generator: Sketch 3.3.2 (12043) - http://www.bohemiancoding.com/sketch -->
    <title>about-DEM-infographic</title>
    <desc>Created with Sketch.</desc>
    <defs></defs>
    <g id="Page-1" stroke="none" stroke-width="1" fill="none" fill-rule="evenodd" sketch:type="MSPage">
        <g id="about-DEM-infographic" sketch:type="MSLayerGroup">
            <path d="M384.8,217.8 L11.2,217.8 C5,217.8 0,212.8 0,206.6 L0,144.1 C0,137.9 5,132.9 11.2,132.9 L384.8,132.9 C391,132.9 396,137.9 396,144.1 L396,206.6 C396.1,212.8 391,217.8 384.8,217.8 L384.8,217.8 Z" id="Shape" fill="#F86E00" sketch:type="MSShapeGroup"></path>
            <path d="M384.8,122.7 L11.2,122.7 C5,122.7 0,117.7 0,111.5 L0,49 C0,42.8 5,37.8 11.2,37.8 L384.8,37.8 C391,37.8 396,42.8 396,49 L396,111.5 C396.1,117.7 391,122.7 384.8,122.7 L384.8,122.7 Z" id="Shape" fill="#F86E00" sketch:type="MSShapeGroup"></path>
            <path d="M975.8,122.7 L602.2,122.7 C596,122.7 591,117.7 591,111.5 L591,49 C591,42.8 596,37.8 602.2,37.8 L975.8,37.8 C982,37.8 987,42.8 987,49 L987,111.5 C987.1,117.7 982,122.7 975.8,122.7 L975.8,122.7 Z" id="Shape" fill="#F86E00" sketch:type="MSShapeGroup"></path>
            <g id="Group" transform="translate(94.404000, 59.497900)" font-size="17" font-family="Helvetica" fill="#FFFFFF" sketch:type="MSTextLayer" font-weight="normal">
                <text id="DIGITAL">
                    <tspan x="0" y="16" fill="#000000">DIGITAL</tspan>
                </text>
                <text id="ENTERPRISE-ASSURANCE">
                    <tspan x="0" y="37" fill="#000000">ENTERPRISE ASSURANCE</tspan>
                </text>
            </g>
            <path d="M76,78.7 L76,78.7 C76.9,78.7 77.6,79.4 77.6,80.3 C77.6,81.1 76.9,81.8 76,81.8 L68.7,81.8 C67.9,81.8 67.2,81.1 67.2,80.3 C67.2,79.4 67.9,78.7 68.7,78.7 L76,78.7 L76,78.7 Z M72.8,69.6 L72.8,69.6 L66.5,73.3 C65.8,73.7 65.5,74.6 66,75.4 C66.4,76.1 67.4,76.4 68.1,75.9 L74.4,72.3 C75.1,71.9 75.4,70.9 74.9,70.2 C74.4,69.4 73.5,69.2 72.8,69.6 L72.8,69.6 Z M65.4,63.4 L65.4,63.4 C65.8,62.7 66.8,62.4 67.5,62.9 C68.3,63.3 68.5,64.2 68.1,65 L64.4,71.3 C64,72 63,72.3 62.3,71.8 C61.6,71.4 61.3,70.4 61.8,69.7 L65.4,63.4 L65.4,63.4 Z M56,61.8 L56,61.8 C56,60.9 56.7,60.2 57.5,60.2 C58.4,60.2 59.1,60.9 59.1,61.8 L59.1,69 C59.1,69.8 58.4,70.5 57.5,70.5 C56.7,70.5 56,69.8 56,69 L56,61.8 L56,61.8 Z M46.9,65 L46.9,65 L50.6,71.3 C50.9,72 51.9,72.3 52.7,71.8 C53.4,71.4 53.7,70.4 53.2,69.7 L49.6,63.4 C49.2,62.7 48.2,62.4 47.5,62.9 C46.7,63.3 46.5,64.3 46.9,65 L46.9,65 Z M40.7,72.3 L40.7,72.3 C40,71.9 39.7,70.9 40.2,70.2 C40.5,69.4 41.5,69.2 42.3,69.6 L47.5,72.7 C48.3,73.1 48.5,74 48.1,74.8 C47.7,75.5 46.7,75.8 46,75.3 L40.7,72.3 L40.7,72.3 Z M38.9,81.8 L38.9,81.8 C38.1,81.8 37.4,81.1 37.4,80.3 C37.4,79.4 38.1,78.7 38.9,78.7 L43.7,78.7 C44.6,78.7 45.3,79.4 45.3,80.3 C45.3,81.1 44.6,81.8 43.7,81.8 L38.9,81.8 L38.9,81.8 Z M42.3,90.8 L42.3,90.8 C41.5,91.2 40.6,91 40.2,90.2 C39.8,89.5 40,88.5 40.7,88.1 L43.8,86.4 C44.5,86 45.5,86.2 45.9,86.9 C46.3,87.7 46.1,88.6 45.4,89 L42.3,90.8 L42.3,90.8 Z M49.6,97 L49.6,97 C49.2,97.7 48.2,98 47.5,97.5 C46.7,97.2 46.5,96.2 46.9,95.4 L48,93.5 C48.4,92.7 49.4,92.5 50.1,92.9 C50.9,93.3 51.1,94.3 50.7,95 L49.6,97 L49.6,97 Z M59,98.8 L59,98.8 C59,99.6 58.3,100.3 57.4,100.3 C56.6,100.3 55.9,99.6 55.9,98.8 L55.9,97.7 C55.9,96.9 56.6,96.2 57.4,96.2 C58.3,96.2 59,96.9 59,97.7 L59,98.8 L59,98.8 Z M68,95.4 C68.4,96.2 68.2,97.1 67.5,97.5 C66.8,97.9 65.8,97.7 65.4,97 C65,96.3 65.2,95.3 65.9,94.9 C66.7,94.5 67.7,94.8 68,95.4 L68,95.4 Z" id="Shape" fill="#FFFFFF" sketch:type="MSShapeGroup"></path>
            <g id="Group" transform="translate(95.893800, 157.023300)" font-size="17" font-family="Helvetica" fill="#FFFFFF" sketch:type="MSTextLayer" font-weight="normal">
                <text id="DIGITAL">
                    <tspan x="0" y="16" fill="#000000">DIGITAL</tspan>
                </text>
                <text id="SERVICE-MANAGEMENT">
                    <tspan x="0" y="37" fill="#000000">SERVICE MANAGEMENT</tspan>
                </text>
            </g>
            <path d="M57.6,165.9 C50,165.9 43.9,172 43.9,179.6 C43.9,187.1 50,193.3 57.6,193.3 C65,193.3 71.1,187 71.1,179.6 C71.1,172 65,165.9 57.6,165.9 L57.6,165.9 Z M57.6,195.5 C48.8,195.5 41.7,188.3 41.7,179.6 C41.7,170.7 48.8,163.7 57.6,163.7 C66.3,163.7 73.4,170.7 73.4,179.6 C73.4,188.3 66.2,195.5 57.6,195.5 L57.6,195.5 Z" id="Shape" fill="#FFFFFF" sketch:type="MSShapeGroup"></path>
            <path d="M57.5,160.9 C47.2,160.9 38.8,169.3 38.8,179.6 C38.8,189.9 47.2,198.2 57.5,198.2 C67.8,198.2 76.1,189.9 76.1,179.6 C76.1,169.3 67.8,160.9 57.5,160.9 L57.5,160.9 Z M57.5,200.5 C46,200.5 36.6,191.1 36.6,179.6 C36.6,168.1 46,158.7 57.5,158.7 C69,158.7 78.4,168.1 78.4,179.6 C78.4,191.1 69,200.5 57.5,200.5 L57.5,200.5 Z" id="Shape" fill="#FFFFFF" sketch:type="MSShapeGroup"></path>
            <path d="M57.5,187.4 C53.8,187.4 50.5,185.4 50.5,183 C50.5,181.9 51.3,180.8 52.7,180 C53.8,181.7 55.5,183 57.5,183 C59.5,183 61.2,181.7 62.3,180 C63.5,180.8 64.3,181.9 64.3,183 C64.4,185.4 61.2,187.4 57.5,187.4 L57.5,187.4 Z M57.5,171.1 C59.5,171.1 61.1,173.3 61.1,176 C61.1,178.7 59.5,180.7 57.5,180.7 C55.5,180.7 53.8,178.7 53.8,176 C53.8,173.3 55.5,171.1 57.5,171.1 L57.5,171.1 Z M63.1,177.9 C63.3,177.3 63.4,176.6 63.4,176 C63.4,172.1 60.8,168.8 57.5,168.8 C54.2,168.8 51.6,172.1 51.6,176 C51.6,176.6 51.6,177.3 51.8,177.9 C49.6,179.2 48.4,181 48.4,183.1 C48.4,186.9 52.4,189.7 57.6,189.7 C62.8,189.7 66.8,186.9 66.8,183.1 C66.7,181 65.3,179.1 63.1,177.9 L63.1,177.9 Z" id="Shape" fill="#FFFFFF" sketch:type="MSShapeGroup"></path>
            <path d="M975.8,217.8 L602.2,217.8 C596,217.8 591,212.8 591,206.6 L591,144.1 C591,137.9 596,132.9 602.2,132.9 L975.8,132.9 C982,132.9 987,137.9 987,144.1 L987,206.6 C987.1,212.8 982,217.8 975.8,217.8 L975.8,217.8 Z" id="Shape" fill="#F86E00" sketch:type="MSShapeGroup"></path>
            <g id="Group" transform="translate(631.000000, 59.000000)" fill="#FFFFFF">
                <g id="Shape" sketch:type="MSShapeGroup">
                    <path d="M39.6,22.6 C39.6,22.8 39.3,23.1 38.5,23.2 L35.3,24 L34.2,24.3 L33.7,25.4 C33.5,26 33.2,26.8 32.9,27.4 L32.4,28.3 L32.9,29.4 L34.7,32.3 C35,32.9 35.2,33.4 35,33.4 L33.2,35.2 C33.2,35.4 32.9,35.4 32.9,35.4 C32.6,35.4 32.3,35.2 32.1,35.1 L32.1,35.1 L29.2,33.3 L28.1,32.7 L27,33.2 C26.4,33.7 25.8,33.8 25,34.1 L23.9,34.4 L23.6,35.6 L23,39 L22.8,39 L22.8,39 C22.8,39.5 22.3,39.9 22.2,39.9 L19.6,39.9 C19.6,39.9 19.1,39.4 19,38.8 L18.2,35.6 L17.9,34.4 L17,34 C16.2,33.8 15.6,33.5 14.8,33.1 L13.7,32.6 L12.6,33.2 L9.7,35 L9.7,35 C9.4,35.2 9.1,35.3 8.9,35.3 C8.7,35.3 8.6,35.3 8.4,35.1 L6.7,33.3 C6.5,33.3 6.5,32.8 7,32.2 L8.8,29.1 L9.4,28 L8.8,27.1 C8.5,26.5 8.3,25.9 8.2,25.3 L7.7,24.2 L6.6,23.9 L3.2,23.1 C2.6,22.9 2.3,22.6 2.3,22.5 L2.3,19.9 C2.3,19.7 2.8,19.3 3.1,19.3 L3.3,19.3 L3.3,19.3 L6.5,18.5 L7.7,18.2 L8,17.1 C8.3,16.5 8.5,15.9 8.8,15.3 L9.4,14.2 L8.8,13.3 L7,10.1 C6.5,9.6 6.5,9.2 6.7,9 L8.4,7.2 L8.9,7.2 C9.1,7.2 9.4,7.2 9.7,7.4 L9.7,7.4 L12.6,9.4 L13.7,10 L14.8,9.4 C15.4,9.1 16.2,8.8 17,8.5 L18.1,8.2 L18.4,7.1 L19.2,3.7 C19.4,3.1 19.7,2.8 19.8,2.8 L22.4,2.8 C22.6,2.8 23,3.1 23,3.6 L23,3.6 L23,3.8 L23.8,7 L24.1,8.2 L25.2,8.5 C26,8.8 26.6,9.1 27.2,9.4 L28.3,9.9 L29.4,9.3 L32.3,7.5 L32.3,7.5 C32.5,7.3 32.8,7.3 33.1,7.3 L33.4,7.3 L35.2,9.1 C35.4,9.1 35.2,9.7 34.9,10.2 L33.1,13.3 L32.6,14.2 L33.1,15.3 C33.4,15.9 33.7,16.7 34,17.3 L34.3,18.4 L35.4,18.7 L38.8,19.5 L38.8,19.5 C39.3,19.5 39.7,20 39.7,20.1 L39.7,22.6 L39.6,22.6 Z M39.1,17.4 L35.7,16.6 C35.5,15.8 35.1,15.1 34.8,14.3 L36.6,11.2 C37.2,10.1 37.5,8.6 36.6,7.7 L34.8,5.9 C34.3,5.4 33.6,5.1 33,5.1 C32.2,5.1 31.6,5.4 31.2,5.7 L28.3,7.5 C27.5,7 26.8,6.7 25.8,6.6 L25,3.2 C24.8,2 23.8,0.6 22.4,0.6 L19.8,0.6 C18.4,0.6 17.5,2 17.2,3.2 L16.4,6.4 C15.5,6.7 14.7,7.2 13.9,7.5 L10.8,5.7 C10.3,5.4 9.6,5.1 9,5.1 C8.4,5.1 7.6,5.4 7.2,5.9 L5.4,7.7 C4.5,8.6 4.8,10.2 5.4,11.2 L7.2,14.4 C6.9,15 6.6,15.8 6.3,16.6 L3.1,17.4 C1.9,17.6 0.5,18.6 0.5,20 L0.5,22.6 C0.5,24 1.9,24.9 3.1,25.2 L6.5,26 C6.7,26.8 7,27.4 7.3,28.2 L5.5,31.3 C4.9,32.4 4.6,33.9 5.5,35 L7.3,36.8 C7.8,37.3 8.5,37.4 9.1,37.4 C9.7,37.4 10.5,37.2 10.9,36.8 L14,35 C14.8,35.5 15.5,35.8 16.5,36.1 L17.3,39.3 C17.6,40.5 18.5,41.9 19.9,41.9 L22.5,41.9 C23.9,41.9 25,40.5 25.3,39.3 L25.9,36.1 C26.8,35.8 27.6,35.5 28.4,35 L31.3,36.8 C31.8,37.3 32.4,37.4 33.1,37.4 C33.7,37.4 34.5,37.2 34.9,36.8 L36.7,35 C37.6,33.9 37.3,32.4 36.7,31.3 L34.9,28.4 C35.2,27.6 35.5,26.9 35.8,26.1 L39.2,25.3 C40.4,25 41.7,24.1 41.7,22.7 L41.7,20.1 C41.6,18.6 40.4,17.5 39.1,17.4 L39.1,17.4 Z"></path>
                    <path d="M20.9,18.7 C19.7,18.7 18.5,19.8 18.5,21.1 C18.5,22.4 19.7,23.5 20.9,23.5 C22.3,23.5 23.3,22.4 23.3,21.1 C23.3,19.8 22.3,18.7 20.9,18.7 L20.9,18.7 Z M20.9,25.9 C18.5,25.9 16.3,23.8 16.3,21.2 C16.3,18.6 18.4,16.6 20.9,16.6 C23.5,16.6 25.6,18.6 25.6,21.2 C25.6,23.7 23.5,25.9 20.9,25.9 L20.9,25.9 Z"></path>
                    <path d="M21.1,32.6 C14.8,32.6 9.6,27.6 9.6,21.6 C9.6,15.6 14.8,10.7 21.1,10.7 C21.7,10.7 22.2,11.2 22.2,11.8 C22.2,12.4 21.7,12.9 21.1,12.9 C16.1,12.9 12,16.8 12,21.6 C12,26.4 16.1,30.3 21.1,30.3 C21.7,30.3 22.2,30.8 22.2,31.4 C22.2,32 21.7,32.6 21.1,32.6 L21.1,32.6 Z"></path>
                    <path d="M30.4,22.5 C29.8,22.5 29.3,22 29.3,21.4 C29.3,16.6 25.4,12.8 20.6,12.8 C15.8,12.8 11.9,16.6 11.9,21.4 C11.9,22 11.4,22.5 10.8,22.5 C10.2,22.5 9.6,22 9.6,21.4 C9.6,15.4 14.6,10.7 20.6,10.7 C26.7,10.7 31.5,15.5 31.5,21.4 C31.5,22 31,22.5 30.4,22.5 L30.4,22.5 Z"></path>
                    <path d="M21,32.6 C18.3,32.6 15.6,31.4 13.4,29 C12.9,28.5 12.9,27.6 13.4,27.3 C13.9,26.8 14.6,26.8 14.9,27.3 C18.2,30.9 23.7,30.9 26.8,27.3 C27.3,26.8 28,26.8 28.5,27.3 C29,27.6 29,28.5 28.5,29 C26.4,31.4 23.7,32.6 21,32.6 L21,32.6 Z"></path>
                    <path d="M30.2,24.2 C29.7,24.2 29.4,24.1 29.1,23.8 L26.8,21.8 C26.3,21.4 26.3,20.8 26.8,20.4 C27.3,20 27.9,20 28.3,20.4 L30.1,22 L31.9,20.4 C32.4,20 33,20 33.4,20.4 C33.9,20.8 33.9,21.4 33.4,21.8 L31.1,23.8 C31.1,24 30.7,24.2 30.2,24.2 L30.2,24.2 Z"></path>
                </g>
                <g transform="translate(58.310700, 0.497900)" font-size="17" font-family="Helvetica" sketch:type="MSTextLayer" font-weight="normal">
                    <text id="DIGITAL">
                        <tspan x="0" y="16" fill="#000000">DIGITAL</tspan>
                    </text>
                    <text id="ENTERPRISE-AUTOMATION">
                        <tspan x="0" y="37" fill="#000000">ENTERPRISE AUTOMATION</tspan>
                    </text>
                </g>
                <g transform="translate(0.000000, 97.000000)" id="Shape" sketch:type="MSShapeGroup">
                    <path d="M40.6,38 L1.4,38 C0.8,38 0.4,37.4 0.4,36.8 C0.4,36.2 0.8,35.7 1.4,35.7 L40.6,35.7 C41.2,35.7 41.6,36.2 41.6,36.8 C41.6,37.4 41.2,38 40.6,38 L40.6,38 Z"></path>
                    <path d="M36.1,2.7 C35.6,2.7 35.2,3.1 35.2,3.7 L35.2,30.4 C35.2,31 35.6,31.5 36.1,31.5 L36.4,31.5 C36.9,31.5 37.3,30.9 37.3,30.4 L37.3,3.7 C37.3,3.1 36.9,2.7 36.4,2.7 L36.1,2.7 L36.1,2.7 Z M36.4,33.4 L36.1,33.4 C34.5,33.4 33.2,32.2 33.2,30.4 L33.2,3.7 C33.2,2 34.5,0.7 36.1,0.7 L36.4,0.7 C38,0.7 39.3,2.1 39.3,3.7 L39.3,30.4 C39.3,32.2 38,33.4 36.4,33.4 L36.4,33.4 Z"></path>
                    <path d="M25.8,8 C25.2,8 24.8,8.6 24.8,9.1 L24.8,30.4 C24.8,31 25.2,31.5 25.8,31.5 L26.1,31.5 C26.7,31.5 27.1,30.9 27.1,30.4 L27.1,9.1 C27.1,8.5 26.7,8 26.1,8 L25.8,8 L25.8,8 Z M26.1,33.4 L25.8,33.4 C24,33.4 22.5,32.1 22.5,30.3 L22.5,9 C22.5,7.3 24,5.9 25.8,5.9 L26.1,5.9 C27.9,5.9 29.4,7.3 29.4,9 L29.4,30.3 C29.4,32.2 27.9,33.4 26.1,33.4 L26.1,33.4 Z"></path>
                    <path d="M15.9,14.8 C15.3,14.8 14.9,15.2 14.9,15.8 L14.9,30.4 C14.9,31 15.3,31.5 15.9,31.5 L16.2,31.5 C16.8,31.5 17.2,30.9 17.2,30.4 L17.2,15.8 C17.2,15.2 16.8,14.8 16.2,14.8 L15.9,14.8 L15.9,14.8 Z M16.2,33.4 L15.9,33.4 C14.1,33.4 12.6,32.2 12.6,30.4 L12.6,15.8 C12.6,14.1 14.1,12.9 15.9,12.9 L16.2,12.9 C18,12.9 19.5,14.1 19.5,15.8 L19.5,30.4 C19.5,32.2 18,33.4 16.2,33.4 L16.2,33.4 Z"></path>
                    <path d="M6,20.3 C5.4,20.3 5,20.7 5,21.3 L5,30.3 C5,30.9 5.4,31.4 6,31.4 L6.3,31.4 C6.9,31.4 7.3,30.8 7.3,30.3 L7.3,21.3 C7.3,20.7 6.9,20.3 6.3,20.3 L6,20.3 L6,20.3 Z M6.3,33.4 L6,33.4 C4.2,33.4 2.7,32.1 2.7,30.3 L2.7,21.3 C2.7,19.6 4.2,18.2 6,18.2 L6.3,18.2 C8.1,18.2 9.6,19.6 9.6,21.3 L9.6,30.3 C9.6,32.2 8.1,33.4 6.3,33.4 L6.3,33.4 Z"></path>
                </g>
                <g transform="translate(58.310700, 95.611200)" font-size="17" font-family="Helvetica" sketch:type="MSTextLayer" font-weight="normal">
                    <text id="DIGITAL">
                        <tspan x="0" y="16" fill="#000000">DIGITAL</tspan>
                    </text>
                    <text id="INFRASTRUCTURE-OPTIMIZATION">
                        <tspan x="0" y="37" fill="#000000">INFRASTRUCTURE OPTIMIZATION</tspan>
                    </text>
                </g>
            </g>
            <circle id="Oval" opacity="0.38" fill="#666666" sketch:type="MSShapeGroup" cx="496" cy="130.8" r="130.8"></circle>
            <circle id="Oval" fill="#FE5000" sketch:type="MSShapeGroup" cx="496" cy="130.8" r="111.3"></circle>
            <g id="Group" transform="translate(449.000000, 41.000000)" fill="#D0D2D3" sketch:type="MSShapeGroup">
                <g id="Shape">
                    <path d="M15.5,181 C8.2,181 0.8,175.3 0.8,164.4 L0.8,138.8 C0.8,128.7 7.3,117.2 15.9,112 L51.1,90.9 L16,69.9 C7.4,64.7 0.9,53.2 0.9,43.1 L0.9,17.3 C0.9,6.4 8.3,0.7 15.5,0.7 C18.6,0.7 21.8,1.6 24.8,3.5 L104.4,51.4 C109.9,54.7 113.1,59.9 113.1,65.5 C113.1,71.1 109.9,76.2 104.4,79.6 L85.3,91 L104.4,102.4 C110,105.7 113.1,110.9 113.1,116.5 C113.1,122.1 109.9,127.2 104.4,130.6 L24.8,178.3 C21.7,180.1 18.6,181 15.5,181 L15.5,181 Z M68.3,101.2 L24.8,127.3 C21.5,129.3 18.3,135 18.3,138.9 L18.3,161.7 L93.7,116.5 L68.3,101.2 L68.3,101.2 Z M18.3,20.1 L18.3,43.1 C18.3,47 21.5,52.7 24.8,54.7 L68.2,80.7 L93.7,65.4 L18.3,20.1 L18.3,20.1 Z"></path>
                </g>
            </g>
            <g id="Group" transform="translate(423.383600, 122.986200)" font-size="17.0717" font-family="Helvetica" fill="#FFFFFF" sketch:type="MSTextLayer" font-weight="normal">
                <text id="ANALYTICS">
                    <tspan x="29" y="16" fill="#000000">ANALYTICS</tspan>
                </text>
                <text id="POLICY">
                    <tspan x="43.9" y="35.2" fill="#000000">POLICY</tspan>
                </text>
                <text id="ORCHESTRATION">
                    <tspan x="0.8" y="54.4" fill="#000000">ORCHESTRATION</tspan>
                </text>
            </g>
            <path d="M515.6,103.3 L477.4,103.3 L477.4,65.1 C477.4,64.6 477,64.1 476.4,64.1 C475.9,64.1 475.4,64.5 475.4,65.1 L475.4,104.3 C475.4,104.8 475.8,105.3 476.4,105.3 L476.4,105.3 L515.6,105.3 C516.1,105.3 516.6,104.9 516.6,104.3 C516.6,103.7 516.2,103.3 515.6,103.3 L515.6,103.3 L515.6,103.3 Z M509.2,100.5 L509.2,100.5 L513.8,100.5 C514.3,100.5 514.8,100.1 514.8,99.5 L514.8,93.4 C514.8,92.9 514.4,92.4 513.8,92.4 L509.2,92.4 C508.7,92.4 508.2,92.8 508.2,93.4 L508.2,99.5 C508.2,100.1 508.7,100.5 509.2,100.5 L509.2,100.5 L509.2,100.5 Z M510.2,94.4 L510.2,94.4 L512.9,94.4 L512.9,98.6 L510.2,98.6 L510.2,94.4 L510.2,94.4 Z M500.6,100.5 L500.6,100.5 L505.2,100.5 C505.7,100.5 506.2,100.1 506.2,99.5 L506.2,75.2 C506.2,74.7 505.8,74.2 505.2,74.2 L500.6,74.2 C500.1,74.2 499.6,74.6 499.6,75.2 L499.6,99.6 C499.6,100.1 500.1,100.5 500.6,100.5 L500.6,100.5 L500.6,100.5 Z M501.6,76.2 L501.6,76.2 L504.3,76.2 L504.3,98.6 L501.6,98.6 L501.6,76.2 L501.6,76.2 Z M481,100.5 L481,100.5 L485.6,100.5 C486.1,100.5 486.6,100.1 486.6,99.5 L486.6,69.8 C486.6,69.3 486.2,68.8 485.6,68.8 L481,68.8 C480.5,68.8 480,69.2 480,69.8 L480,99.6 C480.1,100.1 480.5,100.5 481,100.5 L481,100.5 L481,100.5 Z M482,70.8 L482,70.8 L484.7,70.8 L484.7,98.6 L482,98.6 L482,70.8 L482,70.8 Z M489.6,100.5 L489.6,100.5 L494.2,100.5 C494.7,100.5 495.2,100.1 495.2,99.5 L495.2,87.3 C495.2,86.8 494.8,86.3 494.2,86.3 L489.6,86.3 C489.1,86.3 488.6,86.7 488.6,87.3 L488.6,99.6 C488.7,100.1 489.1,100.5 489.6,100.5 L489.6,100.5 L489.6,100.5 Z M490.6,88.3 L490.6,88.3 L493.3,88.3 L493.3,98.6 L490.6,98.6 L490.6,88.3 L490.6,88.3 Z" id="Shape" fill="#FFFFFF" sketch:type="MSShapeGroup"></path>
        </g>
    </g>
</svg>