<?xml version="1.0" encoding="UTF-8" standalone="no"?>
<svg width="96px" height="88px" viewBox="0 0 96 88" version="1.1" xmlns="http://www.w3.org/2000/svg" xmlns:xlink="http://www.w3.org/1999/xlink">
    <!-- Generator: Sketch 40 (33762) - http://www.bohemiancoding.com/sketch -->
    <title>s-big-data</title>
    <desc>Created with Sketch.</desc>
    <defs></defs>
    <g id="Page-1" stroke="none" stroke-width="1" fill="none" fill-rule="evenodd">
        <g id="s-big-data" fill="#FE5000">
            <path d="M29.1081481,76.3733333 L29.1081481,76.6577778 L29.6296296,76.6577778 C29.472567,76.501721 29.2684672,76.4017538 29.0488889,76.3733333" id="Shape"></path>
            <path d="M95.0992593,34.8681481 L95.0992593,18.157037 C95.0992593,6.30518519 76.1362963,0 57.92,0 C39.7037037,0 20.7525926,6.34074074 20.7525926,18.157037 L20.7525926,39.7748148 C20.784501,40.7819782 21.5242299,41.6259642 22.5185185,41.7896296 C23.0986004,41.8644441 23.6828727,41.6864901 24.1227636,41.3010187 C24.5626545,40.9155473 24.8157814,40.3596979 24.8177778,39.7748148 L24.8177778,26.797037 C28.7874177,30.4341138 33.6703576,32.9247409 38.9451852,34.002963 C40.3468072,34.5327965 41.7951626,34.9296062 43.2711111,35.1881481 L43.5555556,35.1881481 C44.2377019,35.3430845 44.9104095,35.5369826 45.5703704,35.7688889 L45.8548148,35.7688889 C46.6361472,35.7199491 47.4197784,35.816396 48.1659259,36.0533333 L48.4503704,36.0533333 C49.1336775,36.0249798 49.8164327,36.1213688 50.4651852,36.3377778 L53.3333333,36.3377778 C53.8785771,36.5713243 54.4723896,36.6689373 55.0637037,36.6222222 L60.8237037,36.6222222 C61.4150379,36.6694154 62.0089644,36.5717836 62.5540741,36.3377778 L65.7303704,36.3377778 C66.2756141,36.1042312 66.8694266,36.0066182 67.4607407,36.0533333 L67.7451852,36.0533333 C68.4875741,35.8178514 69.2670514,35.7214212 70.0444444,35.7688889 L70.3288889,35.7688889 C70.9096296,35.4844444 71.7748148,35.4844444 72.3437037,35.1881481 L72.6281481,35.1881481 L76.9540741,34.322963 L76.9540741,34.002963 C82.2246931,32.9227234 87.1032968,30.4322188 91.0696296,26.797037 L91.0696296,34.8681481 C91.056856,36.0736451 90.7604663,37.259204 90.2044444,38.3288889 C89.8449162,38.6667633 89.5515112,39.068688 89.3392593,39.5140741 C88.9799388,39.852132 88.6865641,40.2540152 88.4740741,40.6992593 L88.1777778,40.6992593 C87.597037,41.28 86.7318519,41.8844444 85.8785185,42.7140741 L84.1481481,43.52 L80.6874074,45.2503704 L80.402963,45.2503704 L78.6725926,46.1155556 L78.3881481,46.1155556 C76.3733333,46.6962963 74.0622222,47.3007407 71.762963,47.8459259 L71.4666667,47.8459259 C70.6014815,47.8459259 69.7362963,48.1303704 69.1674074,48.1303704 L68.8711111,48.1303704 C67.1596117,48.4660923 65.4233762,48.6603287 63.68,48.7111111 L63.68,48.9955556 L52.4444444,48.9955556 L52.1481481,48.6992593 C50.4047719,48.6484768 48.6685365,48.4542404 46.957037,48.1185185 C46.0918519,48.1185185 45.2266667,47.8340741 44.3614815,47.8340741 C41.7698765,47.257284 39.462716,46.6804938 37.44,46.1037037 L37.1792593,46.1037037 L37.1792593,45.8192593 C36.5898531,45.6887313 35.9735151,45.8466401 35.519485,46.2445016 C35.0654548,46.6423631 34.8279894,47.2326324 34.88,47.8340741 L34.88,48.1185185 C34.9845123,48.8482179 35.4225565,49.4877625 36.0651852,49.8488889 C36.3788523,49.8333022 36.6871453,49.9346588 36.9303704,50.1333333 C41.327602,51.467948 45.8516745,52.3417811 50.4296296,52.7407407 L50.7259259,52.7407407 C52.1548193,52.9794777 53.6040006,53.0747664 55.0518519,53.0251852 L60.5274074,53.0251852 C62.1642008,53.0743872 63.8021455,52.979204 65.4222222,52.7407407 C75.7925926,51.5555556 85.8785185,48.4148148 91.0696296,43.52 L91.0696296,51.3066667 C91.0696296,59.0933333 76.3733333,65.4222222 57.8844444,65.4222222 C53.055304,65.5607693 48.2282111,65.0828393 43.52,64 C42.3943026,63.8939398 41.3708809,64.656758 41.1508988,65.7658348 C40.9309166,66.8749116 41.5857091,67.9705987 42.6666667,68.3022222 C47.7075905,69.2252667 52.8191163,69.7090573 57.9437037,69.7481481 C70.9096296,69.7481481 84.7407407,66.2874074 91.1288889,59.9466667 L91.1288889,69.1674074 C91.1288889,76.9540741 76.4325926,83.2948148 57.9437037,83.2948148 C49.0074074,83.2948148 40.9362963,81.8488889 34.8918519,79.2651852 C34.264532,79.0242088 33.5568783,79.1287503 33.0260329,79.540822 C32.4951876,79.9528937 32.2184186,80.612516 32.2962963,81.28 C32.2765748,82.0521084 32.7544176,82.7497588 33.4814815,83.0103704 C40.3911111,85.8903704 49.3274074,87.3362963 57.9792593,87.3362963 C76.1362963,87.3362963 95.1585185,80.9955556 95.1585185,69.1792593 L95.1585185,34.8681481 L95.0992593,34.8681481 Z M90.2044444,21.9022222 L90.2044444,21.9022222 L89.3392593,22.7674074 L89.3392593,23.0518519 L88.4740741,23.917037 L88.1896296,24.2014815 C87.4770691,24.8465611 86.7075005,25.425721 85.8903704,25.9318519 C85.8903704,26.0889462 85.7630203,26.2162963 85.6059259,26.2162963 C85.1646679,26.5678497 84.6783837,26.858823 84.16,27.0814815 L82.4296296,27.9466667 L80.6992593,28.8118519 L80.402963,28.8118519 C79.8222222,29.0962963 79.2177778,29.0962963 78.6725926,29.3925926 C78.5154983,29.3925926 78.3881481,29.5199427 78.3881481,29.677037 C77.6847313,29.7353861 76.9998929,29.9327807 76.3733333,30.2577778 L76.077037,30.2577778 C75.417269,30.4902873 74.7445263,30.6841955 74.0622222,30.8385185 C73.2676735,30.8957473 72.4893899,31.0923241 71.762963,31.4192593 L71.4666667,31.4192593 C70.6014815,31.4192593 69.7362963,31.7037037 69.1674074,31.7037037 L68.8711111,31.7037037 C68.1213847,31.9238081 67.3407228,32.0198896 66.56,31.9881481 L66.2874074,31.9881481 C65.5412599,32.2250855 64.7576287,32.3215324 63.9762963,32.2725926 L63.3955556,32.2725926 C62.6458292,32.492697 61.8651673,32.5887785 61.0844444,32.557037 L54.7555556,32.557037 C53.9787398,32.5885482 53.2020139,32.4924584 52.4562963,32.2725926 L51.8755556,32.2725926 C51.0954431,32.309253 50.3146196,32.2171559 49.5644444,32 L49.28,32 C48.5031842,32.0315112 47.7264584,31.9354214 46.9807407,31.7155556 L46.6844444,31.7155556 C46.1037037,31.7155556 45.2385185,31.4311111 44.3851852,31.4311111 L44.0888889,31.4311111 C43.4649483,31.0937423 42.7799793,30.8842224 42.0740741,30.8148148 L41.7896296,30.8148148 C41.1073654,30.6603366 40.4346316,30.466431 39.7748148,30.2340741 L39.4785185,30.2340741 C38.8673078,29.8721185 38.1737977,29.6722244 37.4637037,29.6533333 C37.4637037,29.3688889 37.4637037,29.3688889 37.1792593,29.3688889 C36.5985185,29.0844444 35.9940741,29.0844444 35.4488889,28.7881481 L35.1644444,28.7881481 L33.4340741,27.922963 L31.7037037,27.0577778 C31.1851901,26.8353736 30.6988732,26.5443807 30.2577778,26.1925926 L29.9733333,25.9081481 C29.1560187,25.4022871 28.3864264,24.8231094 27.6740741,24.1777778 L27.3896296,23.8933333 L26.5244444,23.0281481 L26.5244444,22.7674074 L25.6592593,21.9022222 C25.0694196,20.743187 24.772374,19.4573457 24.7940741,18.157037 C24.7940741,10.3822222 39.4903704,4.04148148 57.9792593,4.04148148 C76.4681481,4.04148148 91.1644444,10.3822222 91.1644444,18.157037 C91.1856632,19.4572949 90.8886441,20.7430215 90.2992593,21.9022222 L90.2044444,21.9022222 Z" id="Shape"></path>
            <path d="M23.0518519,70.317037 C20.7634035,71.0350243 18.2818072,70.7964464 16.172063,69.6556217 C14.0623187,68.5147971 12.5039832,66.5688193 11.8518519,64.2607407 C10.4361503,59.6643775 12.9915801,54.7863107 17.5762963,53.3333333 C22.2690834,51.8262861 27.296008,54.4033803 28.8118519,59.0933333 C30.2434908,63.7796914 27.6925647,68.755572 23.0518519,70.3288889 M18.962963,57.3511111 C17.3666473,57.8147624 16.1389459,59.0948182 15.7423219,60.7090937 C15.3456979,62.3233693 15.840408,64.0266177 17.0400997,65.1772419 C18.2397914,66.3278661 19.9622029,66.7510588 21.5585185,66.2874074 C24.0262085,65.5706645 25.4456316,62.9891715 24.7288887,60.5214815 C24.0121459,58.0537915 21.430653,56.6343683 18.962963,57.3511111" id="Shape"></path>
            <path d="M16.4266667,45.2503704 C17.2918519,45.2503704 17.2918519,45.8311111 19.3066667,49.5762963 L22.7674074,49.5762963 C22.9987964,49.7956527 23.3161799,49.8999979 23.6325926,49.8607407 C26.2281481,46.9807407 26.5125926,46.1155556 27.3777778,46.1155556 L29.3925926,47.3007407 C29.9733333,47.8814815 29.3925926,48.4859259 28.5274074,52.4918519 C29.6204364,53.3371482 30.5078196,54.4190263 31.122963,55.6562963 C32.5564044,55.4593706 34.0020035,55.3643175 35.4488889,55.3718519 C35.7682816,55.2824449 36.110045,55.3948055 36.3140741,55.6562963 L36.8948148,57.9674074 C36.8948148,58.5481481 36.0296296,58.8325926 32.5688889,60.8474074 L32.5688889,63.1466667 C32.5164773,63.8235783 32.4214744,64.4965159 32.2844444,65.1614815 C35.1644444,68.0414815 36.0296296,68.3377778 36.0296296,68.9066667 L34.8444444,70.9214815 C34.7264398,71.1252717 34.4970504,71.2376257 34.2637037,71.2059259 C32.6899959,70.9716931 31.1449015,70.5744966 29.6533333,70.0207407 L28.4681481,71.2059259 C27.8678091,71.780165 27.1895335,72.2669274 26.4533333,72.6518519 C26.7377778,76.9777778 27.0340741,77.5466667 26.4533333,77.842963 L24.1540741,78.7081481 C23.5733333,78.4237037 23.2888889,77.842963 21.2740741,74.3822222 L18.962963,74.3822222 C18.2808553,74.2271355 17.6081563,74.0332399 16.9481481,73.8014815 C14.3525926,76.9777778 13.7837037,77.5466667 13.202963,77.5466667 L11.1881481,76.3614815 C10.6074074,75.7807407 10.9037037,75.4962963 12.0533333,71.4666667 C10.9916573,70.4800433 10.1199507,69.3070557 9.48148148,68.0059259 C8.04804007,68.2028516 6.60244092,68.2979047 5.15555556,68.2903704 C4.57481481,68.2903704 4.29037037,68.2903704 4.29037037,68.0059259 L3.46074074,65.7066667 C3.46074074,64.8414815 4.04148148,64.8414815 7.78666667,62.8266667 L7.78666667,60.8118519 C7.97168358,60.1561001 8.06736177,59.4783796 8.07111111,58.797037 C4.90666667,55.917037 4.32592593,55.917037 4.61037037,55.0518519 L5.47555556,53.037037 C5.59356019,52.8332468 5.8229496,52.7208928 6.0562963,52.7525926 C7.62995315,52.9870771 9.17502171,53.384267 10.6666667,53.9377778 C11.2818104,53.2805469 11.9562732,52.6814653 12.6814815,52.1481481 C12.9659259,51.8637037 13.8666667,51.282963 14.1274074,50.962963 C13.842963,46.9333333 13.842963,46.3525926 14.1274074,45.7718519 L16.4385185,45.1911111 M16.4385185,41.7303704 L15.2533333,41.7303704 L13.2385185,42.5955556 L11.5081481,43.4607407 C10.322963,44.9066667 10.322963,46.3407407 10.642963,48.9362963 L10.642963,49.2207407 C10.4858686,49.2207407 10.3585185,49.3480909 10.3585185,49.5051852 C10.0966462,49.6156755 9.88826811,49.8240536 9.77777778,50.0859259 C9.63679813,50.0948516 9.51062878,49.9989629 9.48148148,49.8607407 C8.34128597,49.5944548 7.18540235,49.400488 6.02074074,49.28 C5.2221632,49.3358516 4.43975013,49.532458 3.70962963,49.8607407 L2.52444444,51.3066667 L1.33925926,53.3214815 L1.18518519,54.5185185 C0.604444444,57.1140741 2.37037037,58.2637037 4.06518519,59.7096296 L4.64592593,60.2903704 C4.4888316,60.2903704 4.36148148,60.4177205 4.36148148,60.5748148 L4.36148148,60.8592593 C4.28604212,60.8592593 4.21369257,60.8892274 4.16034889,60.9425711 C4.1070052,60.9959148 4.07703704,61.0682643 4.07703704,61.1437037 C2.06222222,62.3288889 0.0474074074,63.1585185 0.0474074074,65.7540741 L0.331851852,66.9392593 L0.912592593,69.2503704 L2.09777778,70.6962963 C2.94817836,71.5118713 4.09728013,71.9406406 5.27407407,71.8814815 L7.49037037,71.8814815 C7.49037037,71.7243872 7.61772049,71.597037 7.77481481,71.597037 C7.86111252,71.9445376 8.06663714,72.2507273 8.35555556,72.4622222 C8.07111111,72.4622222 8.07111111,72.7466667 8.07111111,73.042963 C7.49037037,75.0577778 6.88592593,77.0725926 8.65185185,79.0992593 L9.48148148,79.5377778 L11.4962963,80.722963 L13.5111111,81.0074074 C15.2414815,81.0074074 16.3911111,79.8222222 18.1214815,77.8311111 L18.1214815,77.522963 C18.4059259,77.522963 18.7022222,77.522963 18.7022222,77.8074074 L19.282963,77.8074074 C19.4400573,77.8074074 19.5674074,77.9347575 19.5674074,78.0918519 C20.7525926,80.402963 21.5822222,81.5525926 23.3125926,82.1214815 L25.3274074,81.837037 L27.6266667,81.2562963 L28.4918519,80.6755556 C30.5066667,79.2296296 30.5066667,77.2148148 30.2222222,74.9155556 L30.2222222,74.3466667 L30.5066667,74.0622222 L31.0874074,74.0622222 C32.0865999,74.4864249 33.1671449,74.6847271 34.2518519,74.642963 C35.3529492,74.7779357 36.444687,74.3286609 37.1318519,73.4577778 L37.997037,72.5925926 L38.8622222,70.5777778 L39.442963,68.562963 C39.1585185,66.8325926 38.2577778,65.9674074 36.2785185,64.237037 C36.2569051,64.1072202 36.1490609,64.0091801 36.0177778,64 L36.0177778,62.8148148 C36.3022222,62.8148148 36.3022222,62.8148148 36.3022222,62.5303704 C38.6014815,61.3451852 39.762963,60.5155556 40.3318519,58.7851852 L40.3318519,56.7703704 L39.4785185,54.5185185 L39.1940741,53.6533333 C38.2842784,52.523487 36.8989643,51.8834368 35.4488889,51.922963 L32.8533333,51.922963 L32.2725926,51.3422222 C32.3697893,51.3520569 32.4652324,51.3113237 32.5253765,51.2343393 C32.5855206,51.1573548 32.6019495,51.0548918 32.5688889,50.962963 C33.1496296,48.3674074 33.4340741,47.2177778 32.5688889,45.4874074 L31.122963,44.0888889 L29.1081481,43.2237037 L27.922963,42.642963 L27.3777778,42.642963 C25.0785185,42.642963 24.2133333,44.0888889 22.7674074,45.8192593 C22.482963,45.8192593 22.482963,46.1037037 22.1866667,46.1037037 L21.3333333,46.1037037 L21.3333333,45.5348148 C20.1481481,43.52 19.0222222,41.7896296 16.4385185,41.7896296" id="Shape"></path>
        </g>
    </g>
</svg>