<?xml version="1.0" encoding="UTF-8" standalone="no"?>
<svg width="95px" height="96px" viewBox="0 0 95 96" version="1.1" xmlns="http://www.w3.org/2000/svg" xmlns:xlink="http://www.w3.org/1999/xlink">
    <!-- Generator: Sketch 40 (33762) - http://www.bohemiancoding.com/sketch -->
    <title>s-digital-workplace</title>
    <desc>Created with Sketch.</desc>
    <defs></defs>
    <g id="Page-1" stroke="none" stroke-width="1" fill="none" fill-rule="evenodd">
        <g id="s-digital-workplace" fill="#FE5000">
            <path d="M84.0718043,21.9577405 C81.212558,21.9181557 78.4861767,20.744218 76.4925741,18.6942412 C74.4989716,16.6442643 73.4014962,13.8862156 73.4416368,11.026977 C73.3933522,8.18941651 74.4964544,5.45329312 76.4993378,3.44268649 C78.5022213,1.43207986 81.234079,0.318455594 84.0718043,0.355819125 C86.9310428,0.315678553 89.6890916,1.41315397 91.7390684,3.40675649 C93.7890453,5.40035901 94.962983,8.12674038 95.0025678,10.9859867 C94.9360808,16.9951254 90.080943,21.8502632 84.0718043,21.9167502 M84.0718043,4.97406672 C80.7666048,4.97406672 78.0872113,7.65346028 78.0872113,10.9586597 C78.0872113,14.2638592 80.7666048,16.9432528 84.0718043,16.9432528 C87.3770038,16.9432528 90.0563973,14.2638592 90.0563973,10.9586597 C90.056414,9.37394843 89.4250255,7.85453842 88.3019041,6.73654544 C87.1787827,5.61855246 85.6564989,4.99412431 84.0718043,5.00139362" id="Shape"></path>
            <path d="M84.0718043,95.0435582 C78.1103715,95.0435582 73.2776753,90.210862 73.2776753,84.2494292 C73.2776753,78.2879964 78.1103715,73.4553002 84.0718043,73.4553002 C90.0332371,73.4553002 94.8659333,78.2879964 94.8659333,84.2494292 C94.8659333,90.210862 90.0332371,95.0435582 84.0718043,95.0435582 M84.0718043,78.4287976 C82.4823625,78.4214897 80.9559081,79.0496605 79.8319912,80.1735775 C78.7080742,81.2974945 78.0799034,82.8239488 78.0872113,84.4133907 C77.9818178,86.6172227 79.0975614,88.7002843 80.9905032,89.8337544 C82.883445,90.9672245 85.2465001,90.9672245 87.1394419,89.8337544 C89.0323837,88.7002843 90.1481273,86.6172227 90.0427339,84.4133907 C90.0500418,82.8239488 89.421871,81.2974945 88.297954,80.1735775 C87.174037,79.0496605 85.6475827,78.4214897 84.0581408,78.4287976" id="Shape"></path>
            <path d="M79.0983069,67.1291208 C78.4777472,67.1442632 77.8780982,66.9044075 77.4391656,66.4654749 C77.000233,66.0265423 76.7603772,65.4268933 76.7755196,64.8063336 L76.7755196,30.6476976 C76.7755196,29.3648576 77.8154669,28.3249103 79.0983069,28.3249103 C80.3811469,28.3249103 81.4210941,29.3648576 81.4210941,30.6476976 L81.4210941,64.8063336 C81.4362366,65.4268933 81.1963808,66.0265423 80.7574482,66.4654749 C80.3185156,66.9044075 79.7188666,67.1442632 79.0983069,67.1291208" id="Shape"></path>
            <path d="M89.4005515,67.1291208 C88.0362088,67.1861245 86.8657301,66.1657073 86.7361779,64.8063336 L86.7361779,30.6476976 C86.8657301,29.2883239 88.0362088,28.2679066 89.4005515,28.3249103 C90.0211113,28.3097679 90.6207602,28.5496236 91.0596928,28.9885563 C91.4986254,29.4274889 91.7384812,30.0271378 91.7233388,30.6476976 L91.7233388,64.8063336 C91.7384812,65.4268933 91.4986254,66.0265423 91.0596928,66.4654749 C90.6207602,66.9044075 90.0211113,67.1442632 89.4005515,67.1291208" id="Shape"></path>
            <path d="M10.9859867,21.9577405 C8.11952334,21.9182296 5.38684191,20.7386463 3.39205698,18.6797616 C1.39727206,16.6208769 0.304679532,13.8522661 0.355819125,10.9859867 C0.318717251,8.15547998 1.42676002,5.43004482 3.42840242,3.42840242 C5.43004482,1.42676002 8.15547998,0.318717251 10.9859867,0.355819125 C13.8452252,0.315678553 16.6032739,1.41315397 18.6532508,3.40675649 C20.7032277,5.40035901 21.8771654,8.12674038 21.9167502,10.9859867 C21.8502632,16.9951254 16.9951254,21.8502632 10.9859867,21.9167502 M10.9859867,4.97406672 C7.68078719,4.97406672 5.00139362,7.65346028 5.00139362,10.9586597 C5.00139362,14.2638592 7.68078719,16.9432528 10.9859867,16.9432528 C14.2911861,16.9432528 16.9705797,14.2638592 16.9705797,10.9586597 C16.9705964,9.37394843 16.3392078,7.85453842 15.2160864,6.73654544 C14.092965,5.61855246 12.5706813,4.99412431 10.9859867,5.00139362" id="Shape"></path>
            <path d="M10.9859867,95.0435582 C5.02455383,95.0435582 0.191857672,90.210862 0.191857672,84.2494292 C0.191857672,78.2879964 5.02455383,73.4553002 10.9859867,73.4553002 C16.9474195,73.4553002 21.7801156,78.2879964 21.7801156,84.2494292 C21.7801156,90.210862 16.9474195,95.0435582 10.9859867,95.0435582 M10.9859867,78.4287976 C9.39654484,78.4214897 7.87009047,79.0496605 6.74617351,80.1735775 C5.62225654,81.2974945 4.99408573,82.8239488 5.00139362,84.4133907 C5.1009892,87.6764461 7.72293118,90.2983881 10.9859867,90.3979837 C14.2490421,90.2983881 16.8709841,87.6764461 16.9705797,84.4133907 C16.9778876,82.8239488 16.3497168,81.2974945 15.2257998,80.1735775 C14.1018828,79.0496605 12.5754285,78.4214897 10.9859867,78.4287976" id="Shape"></path>
            <path d="M5.9988258,68.4681394 C4.57297848,68.3685378 3.44038512,67.2301063 3.34811564,65.8037658 L3.34811564,29.5956116 C3.34065686,28.8879603 3.61941834,28.2073122 4.12111588,27.7081875 C4.62281341,27.2090628 5.30488572,26.9338044 6.01248925,26.9449014 C6.68528586,26.9515895 7.32335013,27.2446739 7.76678091,27.7507067 C8.21021168,28.2567394 8.41698273,28.9277612 8.3352765,29.5956116 L8.3352765,65.8037658 C8.38484452,67.1629287 7.36639413,68.3251603 6.01248925,68.4544759" id="Shape"></path>
            <path d="M16.3010704,68.4681394 C14.8752231,68.3685378 13.7426297,67.2301063 13.6503603,65.8037658 L13.6503603,29.5956116 C13.6429015,28.8879603 13.921663,28.2073122 14.4233605,27.7081875 C14.925058,27.2090628 15.6071303,26.9338044 16.3147339,26.9449014 C16.9875305,26.9515895 17.6255948,27.2446739 18.0690255,27.7507067 C18.5124563,28.2567394 18.7192274,28.9277612 18.6375211,29.5956116 L18.6375211,65.8037658 C18.6870891,67.1629287 17.6686388,68.3251603 16.3147339,68.4544759" id="Shape"></path>
            <path d="M64.4784107,18.6238577 L30.5930437,18.6238577 C29.972484,18.6390001 29.3728351,18.3991443 28.9339024,17.9602117 C28.4949698,17.5212791 28.2551141,16.9216302 28.2702565,16.3010704 C28.2206885,14.9419075 29.2391389,13.7796758 30.5930437,13.6503603 L64.4784107,13.6503603 C65.8994227,13.7491623 67.0303188,14.8800584 67.1291208,16.3010704 C66.9998053,17.6549753 65.8375736,18.6734257 64.4784107,18.6238577" id="Shape"></path>
            <path d="M64.4784107,8.3352765 L30.5930437,8.3352765 C29.972484,8.35041892 29.3728351,8.11056316 28.9339024,7.67163054 C28.4949698,7.23269793 28.2551141,6.63304899 28.2702565,6.01248925 C28.2551141,5.39192952 28.4949698,4.79228057 28.9339024,4.35334796 C29.3728351,3.91441535 29.972484,3.67455958 30.5930437,3.689702 L64.4784107,3.689702 C65.8375736,3.64013398 66.9998053,4.65858438 67.1291208,6.01248925 C66.9998053,7.36639413 65.8375736,8.38484452 64.4784107,8.3352765" id="Shape"></path>
            <path d="M65.8037658,91.7233388 L29.2540252,91.7233388 C27.9711853,91.7233387 26.9312381,90.6833914 26.9312381,89.4005515 C26.9312381,88.1177116 27.9711853,87.0777644 29.2540252,87.0777643 L65.8037658,87.0777643 C67.0866057,87.0777643 68.126553,88.1177115 68.126553,89.4005515 C68.126553,90.6833915 67.0866057,91.7233388 65.8037658,91.7233388" id="Shape"></path>
            <path d="M65.8037658,81.4210941 L29.2540252,81.4210941 C27.9711852,81.4210941 26.931238,80.3811469 26.931238,79.0983069 C26.931238,77.8154669 27.9711852,76.7755196 29.2540252,76.7755196 L65.8037658,76.7755196 C67.0866057,76.7755196 68.126553,77.8154669 68.126553,79.0983069 C68.126553,80.3811469 67.0866057,81.4210941 65.8037658,81.4210941" id="Shape"></path>
        </g>
    </g>
</svg>