<?xml version="1.0" encoding="UTF-8" standalone="no"?>
<svg width="96px" height="62px" viewBox="0 0 96 62" version="1.1" xmlns="http://www.w3.org/2000/svg" xmlns:xlink="http://www.w3.org/1999/xlink">
    <!-- Generator: Sketch 40 (33762) - http://www.bohemiancoding.com/sketch -->
    <title>s-it-optimization</title>
    <desc>Created with Sketch.</desc>
    <defs></defs>
    <g id="Page-1" stroke="none" stroke-width="1" fill="none" fill-rule="evenodd">
        <g id="s-it-optimization" fill="#FE5000">
            <path d="M94.1476056,47.2428169 L88.211831,47.2428169 L88.211831,5.63830986 C88.211831,2.52435731 85.6874737,5.72216551e-15 82.5735211,0 L23.4321127,0 C20.3181601,-1.90674601e-16 17.7938028,2.52435731 17.7938028,5.63830986 L17.7938028,19.3622535 C17.8742861,20.2843065 18.6462721,20.9918435 19.571831,20.9918435 C20.4973899,20.9918435 21.2693759,20.2843065 21.3498592,19.3622535 L21.3498592,5.63830986 C21.3498592,4.48831299 22.2821158,3.55605634 23.4321127,3.55605634 L82.5735211,3.55605634 C83.723518,3.55605634 84.6557746,4.48831299 84.6557746,5.63830986 L84.6557746,49.0140845 C84.6557746,49.9923286 85.4487982,50.7853521 86.4270423,50.7853521 L92.3628169,50.7853521 L92.3628169,55.4366197 C92.3628169,55.9888677 92.1434372,56.518497 91.752939,56.9089953 C91.3624407,57.2994936 90.8328114,57.5188732 90.2805634,57.5188732 L25.3791549,57.5188732 C24.3971771,57.5188732 23.6011268,58.3149236 23.6011268,59.2969014 C23.6011268,60.2788793 24.3971771,61.0749296 25.3791549,61.0749296 L90.2805634,61.0749296 C93.3945159,61.0749296 95.9188732,58.5505723 95.9188732,55.4366197 L95.9188732,49.0140845 C95.9189014,48.0336292 95.1280328,47.2367235 94.1476056,47.2292958" id="Shape"></path>
            <path d="M62.0078873,55.1932394 C62.9299403,55.1127562 63.6374773,54.3407702 63.6374773,53.4152113 C63.6374773,52.4896524 62.9299403,51.7176663 62.0078873,51.6371831 L43.9977465,51.6371831 C43.3255003,51.5785048 42.6776388,51.9039813 42.3234218,52.4783403 C41.9692047,53.0526994 41.9692047,53.7777232 42.3234218,54.3520822 C42.6776388,54.9264413 43.3255003,55.2519178 43.9977465,55.1932394 L62.0078873,55.1932394 L62.0078873,55.1932394 Z" id="Shape"></path>
            <path d="M81.2890141,10.2219718 L24.7166197,10.2219718 C23.7520919,10.2512133 22.9854723,11.0417897 22.9859155,12.0067606 L22.9859155,18.3616901 C23.0663987,19.2837432 23.8383847,19.9912801 24.7639437,19.9912801 C25.6895026,19.9912801 26.4614886,19.2837432 26.5419718,18.3616901 L26.5419718,13.7780282 L79.5042254,13.7780282 L79.5042254,44.6197183 L37.5076056,44.6197183 C36.5256278,44.6197183 35.7295775,45.4157686 35.7295775,46.3977465 C35.7295775,47.3797243 36.5256278,48.1757746 37.5076056,48.1757746 L81.2890141,48.1757746 C82.2694413,48.168347 83.0603098,47.3714412 83.0602817,46.3909859 L83.0602817,12.0067606 C83.0603098,11.0263052 82.2694413,10.2293995 81.2890141,10.2219718" id="Shape"></path>
            <path d="M44.1194366,29.7464789 C44.7765777,30.5305676 45.9449253,30.6334791 46.7290141,29.976338 L55.6394366,22.4991549 C56.1466532,22.0740592 56.3885547,21.4106578 56.2740192,20.7588475 C56.1594838,20.1070372 55.705912,19.5658437 55.08416,19.3391292 C54.4624081,19.1124146 53.7669348,19.2346225 53.2597183,19.6597183 L44.3492958,27.1233803 C43.9687361,27.4392897 43.7303154,27.8942696 43.68714,28.3869768 C43.6439647,28.879684 43.7996205,29.3691963 44.1194366,29.7464789" id="Shape"></path>
            <path d="M45.1605634,38.9678873 C45.4761336,39.34442 45.928356,39.5801711 46.4177467,39.6232781 C46.9071374,39.666385 47.3936081,39.5133167 47.7701408,39.1977465 L64.4687324,25.176338 C64.9759489,24.7512423 65.2178505,24.0878409 65.103315,23.4360306 C64.9887796,22.7842203 64.5352078,22.2430267 63.9134558,22.0163122 C63.2917038,21.7895977 62.5962306,21.9118056 62.0890141,22.3369014 L45.3904225,36.3583099 C45.0138898,36.6738801 44.7781387,37.1261025 44.7350318,37.6154932 C44.6919248,38.1048839 44.8449931,38.5913546 45.1605634,38.9678873" id="Shape"></path>
            <path d="M53.3678873,8.18028169 L53.3678873,8.18028169 C52.6211361,8.18028169 52.0157746,7.57492023 52.0157746,6.82816901 C52.0157746,6.0814178 52.6211361,5.47605634 53.3678873,5.47605634 C54.1146385,5.47605634 54.72,6.0814178 54.72,6.82816901 C54.72,7.57492023 54.1146385,8.18028169 53.3678873,8.18028169" id="Shape"></path>
            <path d="M20.1735211,45.971831 C16.0783601,47.2366115 11.7332176,44.942407 10.4679958,40.8473822 C9.20277405,36.7523575 11.4965104,32.4069678 15.5913988,31.1413048 C19.6862872,29.8756418 24.031924,32.16891 25.2980282,36.263662 C26.5564912,40.3589106 24.2647813,44.7004614 20.1735211,45.971831 M16.6850704,34.6816901 C14.5447668,35.337149 13.339966,37.6024611 13.9929472,39.743522 C14.6459285,41.8845828 16.9098446,43.0920047 19.0516597,42.441502 C21.1934749,41.7909992 22.4035163,39.5284821 21.755493,37.3859155 C21.4433398,36.3538401 20.7331162,35.4885156 19.7817207,34.9811047 C18.8303252,34.4736938 17.7160558,34.3659553 16.6850704,34.6816901" id="Shape"></path>
            <path d="M14.4270423,23.8242254 C15.1166197,23.8242254 15.1707042,24.324507 17.0501408,27.623662 L17.3070423,27.623662 C18.2125039,27.6165029 19.1170033,27.6843404 20.0112676,27.8264789 L20.8901408,27.9752113 C23.1346479,25.2709859 23.4456338,24.7030986 24.0135211,24.7030986 L24.1757746,24.7030986 L26.0011268,25.6901408 C26.2715493,26.1498592 26.0011268,26.8259155 25.1492958,30.2332394 C26.0447158,31.063069 26.8307626,32.0035989 27.4884507,33.0321127 C29.5030986,32.8698592 30.5442254,32.7211268 31.1391549,32.7211268 C31.4606084,32.6606023 31.7879072,32.7925776 31.9774648,33.0591549 L32.5994366,35.0602817 C32.4642254,35.5876056 31.788169,35.8580282 28.7864789,37.6698592 C28.7864789,37.8591549 28.7864789,39.0219718 28.7053521,39.7250704 C28.6242254,40.428169 28.3943662,41.3611268 28.3943662,41.5504225 C31.0039437,43.8895775 31.6259155,44.2546479 31.6529577,44.8225352 L30.6794366,46.6749296 C30.5430834,46.8197111 30.3508601,46.898572 30.1521127,46.8912676 C28.7776863,46.6319405 27.4224562,46.2795806 26.0957746,45.8366197 C25.7361931,46.2213808 25.3523068,46.5826856 24.9464789,46.9183099 C24.4425221,47.3650708 23.9045598,47.7719331 23.3374648,48.1352113 C23.6484507,51.9211268 23.8783099,52.3538028 23.3374648,52.7594366 L21.336338,53.3814085 C20.8090141,53.2461972 20.5385915,52.5701408 18.7267606,49.5684507 L18.6997183,49.5684507 C18.3887324,49.5684507 17.3476056,49.5684507 16.8338028,49.5008451 C16.32,49.4332394 15.0895775,49.2439437 14.9002817,49.2033803 C12.5611268,51.8129577 12.1960563,52.4349296 11.628169,52.4619718 L9.77577465,51.4884507 C9.30253521,50.988169 9.6,50.6095775 10.6140845,46.9453521 C9.70194781,46.0907818 8.91451921,45.1121855 8.27492958,44.0383099 C6.28732394,44.1464789 5.19211268,44.2411268 4.55661972,44.2411268 C4.24245067,44.2854605 3.92321497,44.2080701 3.66422535,44.0247887 L3.04225352,42.023662 C3.04225352,41.3340845 3.54253521,41.28 6.84169014,39.4005634 C6.80398875,38.8333018 6.80398875,38.264163 6.84169014,37.6969014 C6.88560957,37.0691029 6.97599799,36.4454228 7.11211268,35.8309859 C4.21859155,33.3701408 3.74535211,33.2349296 3.85352113,32.5453521 L4.90816901,30.6929577 C5.03608877,30.6223086 5.18145807,30.5894833 5.32732394,30.5983099 C6.72109813,30.8237531 8.09867352,31.1399179 9.45126761,31.5447887 C9.57295775,31.4230986 10.451831,30.5442254 11.0873239,30.0439437 C11.3171831,29.8546479 12.263662,29.1785915 12.4394366,29.0704225 C12.2501408,25.5684507 12.0878873,24.851831 12.4394366,24.4597183 L14.4405634,23.8377465 M14.4405634,20.795493 L13.4805634,20.9307042 L11.4794366,21.5526761 L10.1273239,22.4450704 C9.00507042,23.7025352 9.08619718,24.9735211 9.2484507,27.2721127 L9.2484507,27.5966197 L9.12676056,27.6912676 L8.51830986,28.2050704 L8.24788732,28.0969014 C7.30067989,27.7934518 6.31984218,27.6072743 5.32732394,27.5425352 C4.63348919,27.534752 3.95077078,27.7171219 3.35323944,28.0698592 L2.21746479,29.2597183 L1.23042254,31.0985915 L0.91943662,32.0180282 C0.54084507,34.2760563 1.93352113,35.4253521 3.54253521,36.7504225 L3.90760563,37.0478873 L3.90760563,37.4264789 L3.90760563,37.5616901 L3.46140845,37.8591549 C1.62253521,38.8056338 0,39.6709859 0,41.915493 L0.135211268,42.875493 L0.757183099,44.8766197 L1.64957746,46.2287324 C2.44544125,46.9479347 3.48404443,47.3392225 4.55661972,47.3239437 C5.04338028,47.3239437 5.59774648,47.3239437 6.46309859,47.2292958 L6.76056338,47.2292958 L7.23380282,47.8242254 L7.09859155,48.2839437 C6.5171831,50.2850704 6.01690141,52.0157746 7.59887324,53.6923944 L8.36957746,54.2738028 L10.2219718,55.2473239 L11.8174648,55.4366197 C13.5211268,55.4366197 14.3323944,54.4360563 15.8602817,52.7323944 L16.0766197,52.4890141 L16.5633803,52.4890141 L17.0095775,52.4890141 L17.1853521,52.7729577 C18.3616901,54.7470423 19.0107042,55.8422535 20.6332394,56.2478873 L22.2692958,56.2478873 L24.3380282,55.6529577 L25.2033803,55.2202817 C27.0692958,53.868169 26.8935211,52.0969014 26.6907042,50.0146479 L26.6907042,49.5549296 L27.096338,49.2169014 L27.5425352,49.3521127 C28.4124081,49.6688452 29.322961,49.8600613 30.2467606,49.92 C31.2549584,49.9410989 32.229353,49.5562131 32.9509859,48.851831 L33.5323944,48.0811268 L34.5059155,46.2287324 L34.7222535,44.6197183 C34.6140845,42.9430986 33.6676056,42.1047887 31.9369014,40.5633803 L31.6935211,40.3470423 L31.6935211,39.995493 L31.6935211,39.4140845 L32.0585915,39.2112676 C34.0461972,38.0349296 35.1278873,37.3859155 35.5335211,35.7633803 L35.5335211,34.1138028 L34.884507,32.1802817 L34.451831,31.3149296 C33.6765077,30.2522812 32.4112019,29.6604446 31.0985915,29.7464789 C30.611831,29.7464789 30.0574648,29.7464789 29.2056338,29.8816901 L28.8946479,29.8816901 L28.475493,29.3949296 L28.5566197,29.0839437 C29.124507,26.8529577 29.435493,25.6225352 28.5566197,24.1757746 L27.4208451,22.9859155 L25.5684507,22.0123944 L24.6490141,21.7014085 C24.4240765,21.6820791 24.1978954,21.6820791 23.9729577,21.7014085 C22.1205634,21.7014085 21.2011268,22.823662 19.9166197,24.4056338 L19.6191549,24.7571831 L18.9295775,24.635493 L18.6997183,24.2298592 C17.6991549,22.404507 16.8202817,20.8225352 14.5352113,20.7684507" id="Shape"></path>
        </g>
    </g>
</svg>