<?xml version="1.0" encoding="UTF-8" standalone="no"?>
<svg width="96px" height="96px" viewBox="0 0 96 96" version="1.1" xmlns="http://www.w3.org/2000/svg" xmlns:xlink="http://www.w3.org/1999/xlink">
    <!-- Generator: Sketch 40 (33762) - http://www.bohemiancoding.com/sketch -->
    <title>s-secureops</title>
    <desc>Created with Sketch.</desc>
    <defs></defs>
    <g id="Page-1" stroke="none" stroke-width="1" fill="none" fill-rule="evenodd">
        <g id="s-secureops" fill="#FE5000">
            <path d="M80.2762105,71.7473684 C81.6164962,71.796248 82.7625857,70.7919427 82.8901053,69.4568421 L82.8901053,59.6210526 C82.7625857,58.285952 81.6164962,57.2816467 80.2762105,57.3305263 C79.6642697,57.3155942 79.0729492,57.5521186 78.6401129,57.984955 C78.2072765,58.4177913 77.9707521,59.0091118 77.9856842,59.6210526 L77.9856842,69.4568421 C77.9707521,70.068783 78.2072765,70.6601034 78.6401129,71.0929398 C79.0729492,71.5257761 79.6642697,71.7623005 80.2762105,71.7473684" id="Shape"></path>
            <path d="M13.4467368,71.7473684 C14.7870225,71.796248 15.9331121,70.7919427 16.0606316,69.4568421 L16.0606316,59.6210526 C15.9331121,58.285952 14.7870225,57.2816467 13.4467368,57.3305263 C12.8279038,57.3042138 12.2258675,57.5357007 11.7840773,57.9698298 C11.3422871,58.4039589 11.1003052,59.001854 11.1157895,59.6210526 L11.1157895,69.4568421 C11.1003052,70.0760407 11.3422871,70.6739358 11.7840773,71.108065 C12.2258675,71.5421941 12.8279038,71.7736809 13.4467368,71.7473684" id="Shape"></path>
            <path d="M80.2762105,37.6858947 C81.6260179,37.7338288 82.7760065,36.7142513 82.8901053,35.3684211 L82.8901053,25.5595789 C82.7760065,24.2137487 81.6260179,23.1941712 80.2762105,23.2421053 C79.6642697,23.2271732 79.0729492,23.4636976 78.6401129,23.8965339 C78.2072765,24.3293702 77.9707521,24.9206907 77.9856842,25.5326316 L77.9856842,35.3684211 C77.9707521,35.9803619 78.2072765,36.5716824 78.6401129,37.0045187 C79.0729492,37.437355 79.6642697,37.6738795 80.2762105,37.6589474" id="Shape"></path>
            <path d="M13.4467368,37.6858947 C14.7965442,37.7338288 15.9465328,36.7142513 16.0606316,35.3684211 L16.0606316,25.5595789 C15.9465328,24.2137487 14.7965442,23.1941712 13.4467368,23.2421053 C12.8230773,23.2153533 12.2166147,23.450449 11.7739377,23.8905671 C11.3312608,24.3306852 11.0926533,24.9357748 11.1157895,25.5595789 L11.1157895,35.3684211 C11.1008574,35.9803619 11.3373818,36.5716824 11.7702181,37.0045187 C12.2030545,37.437355 12.7943749,37.6738795 13.4063158,37.6589474" id="Shape"></path>
            <path d="M87.808,95.0164211 L7.86863158,95.0164211 C5.86110424,95.0495493 3.92605568,94.2666664 2.50632621,92.8469369 C1.08659675,91.4272075 0.303713863,89.4921589 0.336842105,87.4846316 L0.336842105,75.6951579 C0.372105394,73.7379751 1.18735618,71.8758812 2.60154326,70.5224105 C4.01573034,69.1689399 5.91178532,68.4361348 7.86863158,68.4867368 L87.808,68.4867368 C91.7738612,68.5232909 94.979867,71.7292967 95.0164211,75.6951579 L95.0164211,87.4846316 C95.0670231,89.4414778 94.334218,91.3375328 92.9807474,92.7517199 C91.6272767,94.165907 89.7651828,94.9811578 87.808,95.0164211 L87.808,95.0164211 Z M7.86863158,73.4585263 C7.20790067,73.3737862 6.54248422,73.5757861 6.04036395,74.013532 C5.53824368,74.4512779 5.24740289,75.0829381 5.24126316,75.7490526 L5.24126316,87.5385263 C5.17814793,88.2516648 5.4351233,88.955985 5.94265912,89.4609181 C6.45019494,89.9658511 7.15582703,90.2192019 7.86863158,90.1524211 L87.808,90.1524211 C88.5057757,90.1633639 89.1783748,89.8919286 89.6731043,89.3997361 C90.1678338,88.9075437 90.4427236,88.2363491 90.4353684,87.5385263 L90.4353684,75.6951579 C90.3076155,74.3546644 89.1533935,73.3484196 87.808,73.4046316 L7.86863158,73.4046316 L7.86863158,73.4585263 Z" id="Shape"></path>
            <path d="M87.808,60.9684211 L7.86863158,60.9684211 C5.85634205,61.001762 3.91703887,60.2152174 2.49648351,58.7895796 C1.07592816,57.3639417 0.296314602,55.4218418 0.336842105,53.4096842 L0.336842105,40.2997895 C0.336842105,36.3654737 3.61094737,34.3983158 7.86863158,34.3983158 L87.808,34.3983158 C91.7423158,34.3983158 95.0164211,36.3654737 95.0164211,40.2997895 L95.0164211,53.4096842 C95.0743447,55.3711295 94.3448004,57.2741622 92.990542,58.694235 C91.6362835,60.1143079 89.7699856,60.9332706 87.808,60.9684211 L87.808,60.9684211 Z M7.86863158,39.4105263 C6.22484211,39.4105263 5.24126316,39.0871579 5.24126316,40.3941053 L5.24126316,53.504 C5.17814793,54.2171385 5.4351233,54.9214587 5.94265912,55.4263917 C6.45019494,55.9313248 7.15582703,56.1846756 7.86863158,56.1178947 L87.808,56.1178947 C88.5057757,56.1288376 89.1783748,55.8574023 89.6731043,55.3652098 C90.1678338,54.8730174 90.4427236,54.2018227 90.4353684,53.504 L90.4353684,40.2997895 C90.4353684,38.9524211 89.088,39.3162105 87.808,39.3162105 L7.86863158,39.3162105 L7.86863158,39.4105263 Z" id="Shape"></path>
            <path d="M87.808,26.88 L7.86863158,26.88 C5.8587254,26.9132312 3.92155257,26.1285171 2.50141086,24.7058349 C1.08126915,23.2831527 0.300018664,21.3445804 0.336842105,19.3347368 L0.336842105,7.54526316 C0.372105394,5.58808039 1.18735618,3.72598643 2.60154326,2.37251579 C4.01573034,1.01904515 5.91178532,0.286240041 7.86863158,0.336842105 L87.808,0.336842105 C91.7738612,0.373396143 94.979867,3.579402 95.0164211,7.54526316 L95.0164211,19.3347368 C95.0670231,21.2915831 94.334218,23.1876381 92.9807474,24.6018252 C91.6272767,26.0160122 89.7651828,26.831263 87.808,26.8665263 L87.808,26.88 Z M7.86863158,5.25473684 C7.20790067,5.16999675 6.54248422,5.37199667 6.04036395,5.80974255 C5.53824368,6.24748843 5.24740289,6.87914866 5.24126316,7.54526316 L5.24126316,19.3347368 C5.19493474,20.0388876 5.45932266,20.7280047 5.96474669,21.2204691 C6.47017071,21.7129336 7.16592141,21.9593362 7.86863158,21.8947368 L87.808,21.8947368 C88.5057757,21.9056797 89.1783748,21.6342444 89.6731043,21.1420519 C90.1678338,20.6498595 90.4427236,19.9786649 90.4353684,19.2808421 L90.4353684,7.54526316 C90.3076155,6.20476967 89.1533935,5.19852485 87.808,5.25473684 L7.86863158,5.25473684 L7.86863158,5.25473684 Z" id="Shape"></path>
            <path d="M41.6202105,82.8901053 C41.7275248,84.2412962 42.8794925,85.2685664 44.2341053,85.2210526 L53.7330526,85.2210526 C54.6352452,85.3598491 55.5348767,84.9561175 56.0308951,84.1898396 C56.5269135,83.4235618 56.5269135,82.4374908 56.0308951,81.671213 C55.5348767,80.9049352 54.6352452,80.5012035 53.7330526,80.64 L44.2341053,80.64 C42.8938196,80.5911204 41.7477301,81.5954257 41.6202105,82.9305263" id="Shape"></path>
            <path d="M41.6202105,47.4947368 C41.7477301,48.8298375 42.8938196,49.8341427 44.2341053,49.7852632 L53.7330526,49.7852632 C55.0784462,49.8414752 56.2326682,48.8352303 56.3604211,47.4947368 C56.2329015,46.1596362 55.086812,45.155331 53.7465263,45.2042105 L44.2341053,45.2042105 C42.8938196,45.155331 41.7477301,46.1596362 41.6202105,47.4947368" id="Shape"></path>
            <path d="M41.6202105,13.4467368 C41.7477301,14.7818375 42.8938196,15.7861427 44.2341053,15.7372632 L53.7330526,15.7372632 C55.0733383,15.7861427 56.2194278,14.7818375 56.3469474,13.4467368 C56.2396331,12.0955459 55.0876654,11.0682757 53.7330526,11.1157895 L44.2341053,11.1157895 C42.8938196,11.0669099 41.7477301,12.0712151 41.6202105,13.4063158" id="Shape"></path>
            <path d="M11.4795789,82.8901053 C11.5868932,84.2412962 12.7388609,85.2685664 14.0934737,85.2210526 L32.768,85.2210526 C33.6701926,85.3598491 34.5698241,84.9561175 35.0658425,84.1898396 C35.5618608,83.4235618 35.5618608,82.4374908 35.0658425,81.671213 C34.5698241,80.9049352 33.6701926,80.5012035 32.768,80.64 L14.0934737,80.64 C12.753188,80.5911204 11.6070985,81.5954257 11.4795789,82.9305263" id="Shape"></path>
            <path d="M11.4795789,47.4947368 C11.6070985,48.8298375 12.753188,49.8341427 14.0934737,49.7852632 L32.768,49.7852632 C33.6701926,49.9240596 34.5698241,49.520328 35.0658425,48.7540502 C35.5618608,47.9877724 35.5618608,47.0017013 35.0658425,46.2354235 C34.5698241,45.4691457 33.6701926,45.0654141 32.768,45.2042105 L14.0934737,45.2042105 C12.753188,45.155331 11.6070985,46.1596362 11.4795789,47.4947368" id="Shape"></path>
            <path d="M11.4795789,13.4467368 C11.6070985,14.7818375 12.753188,15.7861427 14.0934737,15.7372632 L32.768,15.7372632 C34.1031699,15.7788649 35.2411716,14.7764801 35.3684211,13.4467368 C35.2612998,12.1009177 34.1174781,11.0756267 32.768,11.1157895 L14.0934737,11.1157895 C12.753188,11.0669099 11.6070985,12.0712151 11.4795789,13.4063158" id="Shape"></path>
            <path d="M75.3583158,82.8901053 C75.3842848,83.5041714 75.1564162,84.101865 74.7282362,84.5427885 C74.3000561,84.983712 73.7093004,85.2290065 73.0947368,85.2210526 C72.1925443,85.3598491 71.2929128,84.9561175 70.7968944,84.1898396 C70.300876,83.4235618 70.300876,82.4374908 70.7968944,81.671213 C71.2929128,80.9049352 72.1925443,80.5012035 73.0947368,80.64 C73.7066777,80.6250679 74.2979982,80.8615923 74.7308345,81.2944287 C75.1636708,81.727265 75.4001953,82.3185855 75.3852632,82.9305263" id="Shape"></path>
            <path d="M75.3583158,47.4947368 C75.3732479,48.1066777 75.1367235,48.6979982 74.7038871,49.1308345 C74.2710508,49.5636708 73.6797303,49.8001953 73.0677895,49.7852632 C72.1655969,49.9240596 71.2659654,49.520328 70.769947,48.7540502 C70.2739286,47.9877724 70.2739286,47.0017013 70.769947,46.2354235 C71.2659654,45.4691457 72.1655969,45.0654141 73.0677895,45.2042105 C73.6797303,45.1892784 74.2710508,45.4258029 74.7038871,45.8586392 C75.1367235,46.2914755 75.3732479,46.882796 75.3583158,47.4947368" id="Shape"></path>
            <path d="M75.3583158,13.4467368 C75.3732479,14.0586777 75.1367235,14.6499982 74.7038871,15.0828345 C74.2710508,15.5156708 73.6797303,15.7521953 73.0677895,15.7372632 C71.7071216,15.815805 70.5282286,14.8036242 70.4,13.4467368 C70.5076682,12.0625617 71.7094854,11.0229898 73.0947368,11.1157895 C73.7066777,11.1008574 74.2979982,11.3373818 74.7308345,11.7702181 C75.1636708,12.2030545 75.4001953,12.7943749 75.3852632,13.4063158" id="Shape"></path>
            <path d="M83.2269474,82.8901053 C83.2418795,83.5020461 83.005355,84.0933666 82.5725187,84.5262029 C82.1396824,84.9590393 81.5483619,85.1955637 80.9364211,85.1806316 C80.0342285,85.319428 79.134597,84.9156964 78.6385786,84.1494186 C78.1425602,83.3831408 78.1425602,82.3970698 78.6385786,81.6307919 C79.134597,80.8645141 80.0342285,80.4607825 80.9364211,80.5995789 C81.5483619,80.5846468 82.1396824,80.8211713 82.5725187,81.2540076 C83.005355,81.6868439 83.2418795,82.2781644 83.2269474,82.8901053" id="Shape"></path>
            <path d="M83.2269474,47.4947368 C83.2418795,48.1066777 83.005355,48.6979982 82.5725187,49.1308345 C82.1396824,49.5636708 81.5483619,49.8001953 80.9364211,49.7852632 C80.0342285,49.9240596 79.134597,49.520328 78.6385786,48.7540502 C78.1425602,47.9877724 78.1425602,47.0017013 78.6385786,46.2354235 C79.134597,45.4691457 80.0342285,45.0654141 80.9364211,45.2042105 C81.5483619,45.1892784 82.1396824,45.4258029 82.5725187,45.8586392 C83.005355,46.2914755 83.2418795,46.882796 83.2269474,47.4947368" id="Shape"></path>
            <path d="M83.2269474,13.4467368 C83.2418795,14.0586777 83.005355,14.6499982 82.5725187,15.0828345 C82.1396824,15.5156708 81.5483619,15.7521953 80.9364211,15.7372632 C79.5961354,15.7861427 78.4500458,14.7818375 78.3225263,13.4467368 C78.4298406,12.0955459 79.5818083,11.0682757 80.9364211,11.1157895 C81.5483619,11.1008574 82.1396824,11.3373818 82.5725187,11.7702181 C83.005355,12.2030545 83.2418795,12.7943749 83.2269474,13.4063158" id="Shape"></path>
        </g>
    </g>
</svg>