<?xml version="1.0" encoding="UTF-8"?>
<svg width="80px" height="80px" viewBox="0 0 80 80" version="1.1" xmlns="http://www.w3.org/2000/svg" xmlns:xlink="http://www.w3.org/1999/xlink">
    <!-- Generator: Sketch 60.1 (88133) - https://sketch.com -->
    <title>Icon / Customer_service_grey</title>
    <desc>Created with Sketch.</desc>
    <g id="Icon-/-Customer_service_grey" stroke="none" stroke-width="1" fill="none" fill-rule="evenodd">
        <g>
            <g id="*-/-*-/-Bg-IconContainer">
                <rect x="0" y="0" width="80" height="80"></rect>
            </g>
            <g id="Customer_service_grey">
                <g id="Group-5" transform="translate(0.000000, 32.000000)"></g>
                <path d="M39.5265672,0.470447761 C57.1791045,0.470447761 71.5414925,13.1373134 71.5414925,28.7062687 L71.5410757,32.9156391 C76.0972741,33.0546965 79.761791,36.8041541 79.761791,41.3934328 L79.761791,52.4841791 C79.761791,56.6600355 76.7277673,60.141041 72.748667,60.8390982 L72.7480597,64.3367164 C72.7480597,71.3472919 66.3340518,77.1388003 58.1203413,77.881834 L58.12,77.9623881 L57.116545,77.946909 C56.8555438,77.9571894 56.5929669,77.9623881 56.3289552,77.9623881 L56.328,77.9334478 L44.3228762,77.7482531 C43.5091107,79.0966541 42.0299016,80 40.3438806,80 L33.8961194,80 C31.3343284,80 29.2501493,77.9164179 29.2501493,75.3546269 C29.2501493,72.7934328 31.3343284,70.7092537 33.8961194,70.7092537 L40.3438806,70.7092537 C42.4963914,70.7092537 44.3118167,72.182052 44.8357985,74.1729361 L56.598,74.3554478 L56.6541381,74.3550291 C63.5707085,74.2196232 69.1426866,69.7770838 69.1426866,64.3367164 L69.1427314,60.8442891 C65.1489372,60.1584678 62.0997015,56.6704908 62.0997015,52.4841791 L62.0997015,41.3934328 C62.0997015,37.6315741 64.5619554,34.434006 67.959255,33.3266941 L67.959403,28.7062687 C67.959403,15.1116418 55.2035821,4.05253731 39.5265672,4.05253731 C23.8489552,4.05253731 11.0937313,15.1116418 11.0937313,28.7062687 L11.0938001,33.1295525 C14.8517102,33.9998709 17.6608955,37.3746513 17.6608955,41.3934328 L17.6608955,52.4841791 C17.6608955,57.161194 13.8561194,60.9665672 9.17910448,60.9665672 L8.48179104,60.9665672 C3.80477612,60.9665672 -3.46389584e-13,57.161194 -3.46389584e-13,52.4841791 L-3.46389584e-13,41.3934328 C-3.46389584e-13,37.0445633 3.28960953,33.4498315 7.51124873,32.9668172 L7.51164179,28.7062687 C7.51164179,13.1373134 21.8740299,0.470447761 39.5265672,0.470447761 Z M40.3438806,74.2913433 L33.8961194,74.2913433 C33.32,74.2913433 32.8322388,74.7785075 32.8322388,75.3546269 C32.8322388,75.9307463 33.32,76.4179104 33.8961194,76.4179104 L40.3438806,76.4179104 C40.92,76.4179104 41.4059701,75.9307463 41.4059701,75.3546269 C41.4059701,74.7785075 40.92,74.2913433 40.3438806,74.2913433 Z M71.278806,36.4937313 L70.5826866,36.4937313 C67.88,36.4937313 65.681791,38.6913433 65.681791,41.3934328 L65.681791,52.4841791 C65.681791,55.1862687 67.88,57.3844776 70.5826866,57.3844776 L71.278806,57.3844776 C73.9820896,57.3844776 76.1797015,55.1862687 76.1797015,52.4841791 L76.1797015,41.3934328 C76.1797015,38.6913433 73.9820896,36.4937313 71.278806,36.4937313 Z M9.17910448,36.4937313 L8.48179104,36.4937313 C5.78029851,36.4937313 3.58208955,38.6913433 3.58208955,41.3934328 L3.58208955,52.4841791 C3.58208955,55.1862687 5.78029851,57.3844776 8.48179104,57.3844776 L9.17910448,57.3844776 C11.881194,57.3844776 14.078806,55.1862687 14.078806,52.4841791 L14.078806,41.3934328 C14.078806,38.6913433 11.881194,36.4937313 9.17910448,36.4937313 Z" id="Combined-Shape" fill="#FE5000"></path>
            </g>
        </g>
    </g>
</svg>