<?xml version="1.0" encoding="UTF-8"?>
<svg width="80px" height="80px" viewBox="0 0 80 80" version="1.1" xmlns="http://www.w3.org/2000/svg" xmlns:xlink="http://www.w3.org/1999/xlink">
    <!-- Generator: Sketch 60.1 (88133) - https://sketch.com -->
    <title>Icon / Grey_Sales Edge</title>
    <desc>Created with Sketch.</desc>
    <g id="Icon-/-Grey_Sales-Edge" stroke="none" stroke-width="1" fill="none" fill-rule="evenodd">
        <g id="Icon-/-Customer_service_grey">
            <g id="*-/-*-/-Bg-IconContainer">
                <rect x="0" y="0" width="80" height="80"></rect>
            </g>
            <g id="Grey_Sales-Edge" fill="#FE5000">
                <path d="M38.5913514,0.254054054 C59.8,0.254054054 77.0551351,17.5048649 77.0551351,38.7091892 C77.0551351,43.5904874 76.1607594,48.3190874 74.3922628,52.7979058 L77.3891892,52.7978378 C78.7589189,52.7978378 79.8724324,53.9113514 79.8724324,55.2810811 L79.8724324,75.1005405 C79.8724324,76.4691892 78.7589189,77.5837838 77.3891892,77.5837838 L47.0886486,77.5837838 C46.2873671,77.5837838 45.5731643,77.2017487 45.1187239,76.6103619 L45.7772973,76.492973 C43.4227027,76.9372973 41.0054054,77.1632432 38.5913514,77.1632432 C17.3827027,77.1632432 0.127567568,59.9124324 0.127567568,38.7091892 C0.127567568,17.5048649 17.3827027,0.254054054 38.5913514,0.254054054 Z M77.3885676,61.6360541 L47.0885676,61.6360541 L47.0886486,75.1005405 L77.3902703,75.1005405 L77.3885676,61.6360541 Z M37.4713514,42.5394595 C27.4870631,42.5394595 17.5285168,48.6928426 10.1309125,59.4291308 C16.5421707,68.2071881 26.9120418,73.92 38.5913514,73.92 C40.6095936,73.92 42.6287351,73.7482542 44.6053121,73.4088631 L44.6054054,55.2810811 C44.6054054,53.9113514 45.72,52.7978378 47.0886486,52.7978378 L55.3915676,52.7970541 L55.3924324,49.772973 C55.3924324,48.9729779 55.7979132,48.2620098 56.4212045,47.8209783 C55.5416938,47.2450098 54.6308085,46.7149925 53.6962162,46.2345946 C48.9318919,43.7827027 43.4724324,42.5394595 37.4713514,42.5394595 Z M77.3891892,55.2810811 L47.0886486,55.2810811 L47.0885676,59.1530541 L77.3885676,59.1530541 L77.3891892,55.2810811 Z M38.5913514,3.4972973 C19.1708108,3.4972973 3.37081081,19.2940541 3.37081081,38.7091892 C3.37081081,45.2020584 5.13786376,51.2901317 8.21643993,56.5180005 C14.5085355,47.8260674 22.4697557,42.0928043 30.8412918,40.0891584 C28.6048298,38.7983193 26.7206373,36.9542135 25.3535135,34.6789189 C23.227027,31.1437838 22.6054054,26.9913514 23.6021622,22.9881081 C25.6605405,14.7232432 34.0605405,9.67567568 42.3232432,11.7318919 C46.3264865,12.7286486 49.7027027,15.2259459 51.8291892,18.7610811 C53.9545946,22.2972973 54.5762162,26.4497297 53.5783784,30.4540541 C52.5816216,34.4572973 50.0864865,37.8324324 46.5502703,39.9589189 L46.1767483,40.1745569 C49.3705357,40.8485969 52.3802171,41.9089954 55.1805405,43.3502703 C57.2281081,44.4032432 59.172973,45.6713514 60.96,47.1178378 L60.7695676,47.3520541 L66.6302703,47.3524324 C68.0162162,47.3524324 69.1416216,48.4389189 69.1416216,49.772973 L69.1415676,52.7970541 L70.8797721,52.7976442 C72.8256,48.3504407 73.8118919,43.614924 73.8118919,38.7091892 C73.8118919,19.2940541 58.0118919,3.4972973 38.5913514,3.4972973 Z M66.3210811,50.172973 L58.212973,50.172973 L58.2125676,52.7970541 L66.3205676,52.7970541 L66.3210811,50.172973 Z M38.5924324,14.5167568 C33.12,14.5167568 28.1297297,18.2281081 26.7491892,23.7718919 C25.9610811,26.9340541 26.452973,30.2140541 28.132973,33.0086486 C29.8118919,35.8021622 32.4778378,37.7740541 35.6410811,38.5621622 C38.8010811,39.3491892 42.0843243,38.8594595 44.8789189,37.1794595 C47.6724324,35.4994595 49.6443243,32.8324324 50.4313514,29.6691892 C51.2194595,26.507027 50.7286486,23.2259459 49.0497297,20.4324324 C47.3697297,17.6389189 44.7027027,15.667027 41.5394595,14.88 C40.5535135,14.6335135 39.5643243,14.5167568 38.5924324,14.5167568 Z" id="Combined-Shape"></path>
            </g>
        </g>
    </g>
</svg>