<?xml version="1.0" encoding="utf-8"?>
<!-- Generator: Adobe Illustrator 22.1.0, SVG Export Plug-In . SVG Version: 6.00 Build 0)  -->
<svg version="1.1" id="Layer_1" xmlns="http://www.w3.org/2000/svg" xmlns:xlink="http://www.w3.org/1999/xlink" x="0px" y="0px"
	 viewBox="0 0 100 50" style="enable-background:new 0 0 100 50;" xml:space="preserve">
<style type="text/css">
	.st0{fill:#75777A;}
</style>
<g>
	<path class="st0" d="M78,17H62.2c-2.1,0-3.8-1.7-3.8-3.8V2H61v11.3c0,0.7,0.6,1.3,1.3,1.3H78V17z"/>
	<path class="st0" d="M44.9,35.8c-5.3,0-9.6-4.3-9.6-9.6c0-5.3,4.3-9.6,9.6-9.6c5.3,0,9.6,4.3,9.6,9.6
		C54.6,31.5,50.2,35.8,44.9,35.8z M44.9,19.1c-3.9,0-7.1,3.2-7.1,7.1c0,3.9,3.2,7.1,7.1,7.1c3.9,0,7.1-3.2,7.1-7.1
		C52,22.3,48.9,19.1,44.9,19.1z"/>
	<path class="st0" d="M58,40.2c-0.3,0-0.6-0.1-0.9-0.4L51.2,34c-0.5-0.5-0.5-1.3,0-1.8c0.5-0.5,1.3-0.5,1.8,0l5.8,5.8
		c0.5,0.5,0.5,1.3,0,1.8C58.6,40.1,58.3,40.2,58,40.2z"/>
	<path class="st0" d="M76.2,50H23.8c-2,0-3.7-1.7-3.7-3.7V3.7c0-2,1.7-3.7,3.7-3.7h37.1c0.3,0,0.5,0.1,0.8,0.3l17.8,13.3
		c0.3,0.2,0.5,0.6,0.5,1v31.7C79.9,48.3,78.3,50,76.2,50z M23.8,2.5c-0.7,0-1.2,0.5-1.2,1.2v42.6c0,0.7,0.5,1.2,1.2,1.2h52.5
		c0.7,0,1.2-0.5,1.2-1.2V15.2L60.5,2.5H23.8z"/>
</g>
</svg>
