<?xml version="1.0" encoding="UTF-8"?>
<svg width="137px" height="138px" viewBox="0 0 137 138" version="1.1" xmlns="http://www.w3.org/2000/svg" xmlns:xlink="http://www.w3.org/1999/xlink">
    <!-- Generator: Sketch 58 (84663) - https://sketch.com -->
    <title>Icon - unrivaled experience</title>
    <desc>Created with Sketch.</desc>
    <g id="Page-1" stroke="none" stroke-width="1" fill="none" fill-rule="evenodd">
        <g id="BMC-Helix-Option-3A-V2" transform="translate(-1051.000000, -1689.000000)">
            <g id="Inro-Bmc-Helix" transform="translate(0.000000, 1292.000000)">
                <g id="Group-22" transform="translate(932.000000, 286.000000)">
                    <g id="Icon---unrivaled-experience" transform="translate(119.543478, 111.000000)">
                        <path d="M29.9704691,27.1977995 C28.2711126,27.1977995 26.002443,27.1977995 24.2945039,26.1365996 C17.4999388,22.9529996 14.0897824,14.9897997 17.4999388,8.09899986 C19.1992953,4.91819992 22.0372779,2.25819996 26.002443,1.19699998 C29.401156,-0.398999993 33.369182,-0.398999993 36.7764776,1.19699998 C43.5824862,4.38059993 46.9811992,12.3437998 43.5824862,19.2457997 C41.8831297,22.4265996 39.0451472,25.0753996 35.0771211,26.6713995 C33.369182,27.1977995 31.6698255,27.1977995 29.9704691,27.1977995 M23.7366344,10.7477998 C22.0372779,14.4661998 23.7366344,18.7081997 27.1324865,20.3069997 C28.831843,21.3653996 31.1005125,21.3653996 32.8084516,20.8305996 C34.5078081,19.7693997 36.2071646,18.7081997 37.3457907,16.5857997 C39.0451472,12.8673998 37.3457907,8.62539985 33.9384951,7.03779988 C32.2391386,6.50299989 29.9704691,6.50299989 28.2711126,7.03779988 C26.5631735,7.56419987 24.863817,9.16019984 23.7366344,10.7477998" id="Fill-11" fill="#36BA2F"></path>
                        <path d="M49.3385557,77.7825987 C48.1541557,77.7825987 46.9811992,76.2285987 46.9811992,74.6661987 L46.9811992,53.3161991 C46.9811992,51.7509991 48.1541557,50.1969991 49.3385557,50.1969991 C50.5115122,50.1969991 51.6844687,51.7509991 51.6844687,53.3161991 L51.6844687,74.6661987 C51.6844687,76.2285987 50.5115122,77.7825987 49.3385557,77.7825987" id="Fill-12" fill="#535353"></path>
                        <path d="M30.5397821,137.576598 C29.3668256,137.576598 28.1824256,136.036598 28.1824256,134.504998 L28.1824256,90.0549985 C28.1824256,88.0081985 29.3668256,86.9805985 30.5397821,86.9805985 C32.1046777,86.9805985 32.888556,88.0081985 32.888556,90.0549985 L32.888556,134.504998 C32.888556,136.036598 32.1046777,137.576598 30.5397821,137.576598" id="Fill-13" fill="#DAF0D8"></path>
                        <path d="M42.8129123,137.576598 L23.4905996,137.576598 C18.2695127,137.576598 14.0897824,133.421398 14.0897824,128.235798 L14.0897824,79.4989986 C13.0512867,80.0253986 12.0013476,80.0253986 10.436452,80.0253986 L9.91291287,80.0253986 C4.69182601,80.0253986 8.52651283e-14,76.3937987 8.52651283e-14,72.2357988 L8.52651283e-14,36.9865994 C8.52651283e-14,33.8673994 3.12693038,31.8009995 6.78312162,31.8009995 L59.5175294,31.8009995 C63.1737207,31.8009995 65.7771119,33.8673994 65.7771119,36.9865994 L65.7771119,72.2357988 C65.7771119,76.3937987 61.5973816,80.0253986 56.3791556,80.0253986 L55.3377991,80.0253986 C54.2878599,80.0253986 53.2493643,80.0253986 52.2108687,79.4989986 L52.2108687,128.235798 C52.2108687,133.421398 48.0311383,137.576598 42.8129123,137.576598 M17.2195736,48.3937992 C18.7844692,48.3937992 20.3608083,49.9477991 20.3608083,51.4989991 L20.3608083,128.235798 C20.3608083,129.789798 21.925704,131.354998 23.4905996,131.354998 L42.8129123,131.354998 C44.3749471,131.354998 45.9398427,129.789798 45.9398427,128.235798 L45.9398427,51.4989991 C45.9398427,49.9477991 47.5047383,48.3937992 49.0696339,48.3937992 C50.6345296,48.3937992 52.2108687,49.9477991 52.2108687,51.4989991 L52.2108687,72.2357988 C52.2108687,72.7621988 53.7757643,73.8009987 55.3377991,73.8009987 L56.3791556,73.8009987 C58.4675903,73.8009987 59.5175294,72.7621988 59.5175294,72.2357988 L59.5175294,38.0253994 L6.25672163,38.0253994 L6.25672163,72.2357988 C6.25672163,72.7621988 7.82161726,73.8009987 9.91291287,73.8009987 L10.436452,73.8009987 C12.5277476,73.8009987 14.0897824,72.7621988 14.0897824,72.2357988 L14.0897824,51.4989991 C14.0897824,49.9477991 15.654678,48.3937992 17.2195736,48.3937992" id="Fill-14" fill="#36BA2F"></path>
                        <path d="M110.143476,22.6029996 C108.50992,22.6029996 106.867781,22.0989996 105.225642,21.5977996 C102.499233,20.6009996 100.307807,18.0977997 99.7613809,15.6029997 C98.6771114,13.1081998 98.6771114,10.1009998 100.307807,7.60619987 C103.045659,2.10699996 109.594189,-0.387799993 115.607737,2.10699996 C118.345589,3.11219995 120.525572,5.6069999 121.071998,8.11019986 C122.167711,10.6049998 122.167711,13.6009998 120.525572,16.1069997 C119.429859,19.1029997 117.249876,20.6009996 114.512024,22.0989996 C112.881329,22.0989996 111.785615,22.6029996 110.143476,22.6029996 M105.772068,10.1009998 C105.225642,11.1061998 105.225642,12.6069998 105.772068,13.6009998 C106.321355,14.6061998 106.867781,15.6029997 107.963494,16.1069997 C109.594189,16.5969997 110.689902,16.5969997 111.785615,16.1069997 C113.416311,15.6029997 113.965598,15.0989997 115.05845,13.6009998 C115.607737,12.6069998 115.607737,11.1061998 115.05845,10.1009998 C114.512024,9.10699984 113.965598,8.11019986 112.881329,7.60619987 C110.143476,6.60099989 107.417068,7.60619987 105.772068,10.1009998" id="Fill-15" fill="#36BA2F"></path>
                        <path d="M124.513624,63.9897989 C122.948728,63.9897989 122.167711,62.4273989 122.167711,60.850999 L122.167711,44.1265992 C122.167711,42.5641993 122.948728,40.9989993 124.513624,40.9989993 C125.68658,40.9989993 126.859537,42.5641993 126.859537,44.1265992 L126.859537,60.850999 C126.859537,62.4273989 125.68658,63.9897989 124.513624,63.9897989" id="Fill-16" fill="#36BA2F"></path>
                        <path d="M110.420981,109.982598 C108.856085,109.982598 108.063624,108.943798 108.063624,106.877398 L108.063624,71.6897988 C108.063624,69.6233988 108.856085,68.5957988 110.420981,68.5957988 C111.593937,68.5957988 112.769755,69.6233988 112.769755,71.6897988 L112.769755,106.877398 C112.769755,108.943798 111.593937,109.982598 110.420981,109.982598" id="Fill-17" fill="#DAF0D8"></path>
                        <path d="M117.226989,109.982598 L101.907033,109.982598 C97.6700853,109.982598 93.970981,106.426598 93.970981,101.856998 C93.970981,100.336598 95.5587636,98.8049983 97.1465462,98.8049983 C98.7314679,98.8049983 100.31925,100.336598 100.31925,101.856998 C100.31925,102.873398 100.84565,103.889798 101.907033,103.889798 L117.226989,103.889798 C118.288372,103.889798 119.349754,102.873398 119.349754,101.856998 L119.349754,42.9477993 C119.349754,41.4161993 120.402554,39.8957993 122.513876,39.8957993 C124.101659,39.8957993 125.68658,41.4161993 125.68658,42.9477993 L125.68658,59.198999 C125.68658,59.198999 126.224424,59.702999 127.274363,59.702999 L128.335746,59.702999 C129.385685,59.702999 129.923528,59.198999 129.923528,58.686599 L129.923528,33.2877994 L109.828781,33.2877994 C107.717459,33.2877994 106.656076,31.7673995 106.656076,30.2469995 C106.656076,28.2141995 107.717459,27.1977995 109.828781,27.1977995 L130.447067,27.1977995 C134.146172,27.1977995 136.260354,29.2305995 136.260354,31.7673995 L136.260354,59.198999 C136.260354,62.7549989 132.56125,65.7957989 128.335746,65.7957989 L127.274363,65.7957989 C126.747963,65.7957989 126.224424,65.2917989 125.68658,65.2917989 L125.68658,101.856998 C125.68658,106.426598 121.987476,109.982598 117.226989,109.982598" id="Fill-18" fill="#36BA2F"></path>
                        <path d="M72.5831205,27.1977995 C71.0725814,27.1977995 69.5763466,26.6489995 68.0801119,26.0917996 C65.0847815,24.4397996 63.0821728,21.6845996 62.0780076,18.3693997 C61.082425,15.6141997 61.5744946,11.7529998 62.5815207,8.98659985 C65.5768511,2.36739996 72.0796075,-0.398999993 78.0817117,2.36739996 C80.5735291,4.01939993 82.5732769,6.22859989 83.5803029,9.54379984 C84.5730246,12.8477998 84.5730246,16.1601997 83.0767899,19.4753997 C82.0697638,22.7877996 79.5779465,24.9857996 76.5711726,26.0917996 C75.5784509,26.6489995 74.0793553,27.1977995 72.5831205,27.1977995 M73.0751901,7.88059987 C71.0725814,7.88059987 69.0728336,9.54379984 68.0801119,11.7529998 C67.5765988,13.4049998 67.5765988,15.0569997 68.0801119,16.7173997 C68.580764,17.8233997 69.0728336,19.4753997 70.5833727,20.0213997 C71.5760944,20.5785996 73.0751901,20.5785996 74.5714248,20.0213997 C76.0791031,19.4753997 77.0746856,18.3693997 77.5781987,16.7173997 C78.5737813,15.0569997 78.5737813,13.4049998 78.0817117,11.7529998 C77.5781987,10.0897998 76.5711726,8.98659985 75.5784509,8.43779986 C74.5714248,7.88059987 74.0793553,7.88059987 73.0751901,7.88059987" id="Fill-19" fill="#36BA2F"></path>
                        <path d="M91.625068,66.2857989 L91.625068,66.2857989" id="Stroke-20" stroke="#FFFFFF" stroke-width="2.79999995" stroke-linecap="round" stroke-linejoin="round"></path>
                        <path d="M72.8291553,119.180598 C71.6561988,119.180598 70.4803814,117.671398 70.4803814,116.162198 L70.4803814,89.9989985 C70.4803814,88.4897985 71.6561988,86.9805985 72.8291553,86.9805985 C74.0021118,86.9805985 75.1750683,88.4897985 75.1750683,89.9989985 L75.1750683,116.162198 C75.1750683,117.671398 74.0021118,119.180598 72.8291553,119.180598" id="Fill-21" fill="#DAF0D8"></path>
                        <path d="M94.497381,73.1877988 L93.970981,73.1877988 C89.279155,73.1877988 85.0994246,69.8641988 85.0994246,65.9917989 L80.9196943,46.5877992 C80.9196943,44.9273992 81.9696334,43.2641993 83.534529,42.7181993 C85.0994246,42.1581993 86.6643203,43.2641993 87.1878594,45.4845992 L91.3561463,64.8773989 L91.3561463,65.4345989 C91.3561463,65.9917989 92.4060854,66.5377989 93.970981,66.5377989 L94.497381,66.5377989 C96.0622766,66.5377989 97.1007723,65.9917989 97.1007723,65.4345989 L91.3561463,33.8477994 L73.6101727,33.8477994 C71.5217379,33.8477994 70.4689379,32.1845995 70.4689379,30.5213995 C70.4689379,28.3121995 71.5217379,27.1977995 73.6101727,27.1977995 L91.3561463,27.1977995 C94.497381,27.1977995 97.1007723,28.8581995 97.6271723,32.1845995 L103.368937,64.8773989 L103.368937,65.4345989 C103.368937,69.8641988 99.715607,73.1877988 94.497381,73.1877988" id="Fill-22" fill="#36BA2F"></path>
                        <path d="M80.135816,123.775398 L69.5534597,123.775398 C64.7815293,123.775398 61.082425,119.519398 61.082425,114.728598 C61.082425,113.132598 62.6702076,111.536598 64.2579902,111.536598 C65.8429119,111.536598 67.4306945,113.132598 67.4306945,114.728598 C67.4306945,115.800998 68.4920771,117.385798 69.5534597,117.385798 L80.135816,117.385798 C81.7235986,117.385798 82.7849812,115.800998 82.7849812,114.728598 L82.7849812,92.3845984 C82.7849812,91.3233984 82.7849812,90.7857985 83.3228247,89.7273985 C83.8463638,89.1897985 84.9077464,89.1897985 85.9605464,89.1897985 L91.2560158,89.1897985 L85.9605464,63.6509989 C85.4341464,62.0549989 86.495529,60.456199 88.0833115,59.921399 C89.6682333,59.397799 91.7938593,60.456199 91.7938593,62.0549989 L98.1392679,91.8469984 C98.6771114,92.3845984 98.1392679,93.4457984 97.6157288,94.5069984 C97.0778853,95.0417984 96.0279462,95.5765984 94.9665636,95.5765984 L89.1446941,95.5765984 L89.1446941,114.728598 C89.1446941,119.519398 84.9077464,123.775398 80.135816,123.775398" id="Fill-23" fill="#36BA2F"></path>
                    </g>
                </g>
            </g>
        </g>
    </g>
</svg>