<?xml version="1.0" encoding="utf-8"?>
<!-- Generator: Adobe Illustrator 22.1.0, SVG Export Plug-In . SVG Version: 6.00 Build 0)  -->
<svg version="1.1" id="Layer_1" xmlns="http://www.w3.org/2000/svg" xmlns:xlink="http://www.w3.org/1999/xlink" x="0px" y="0px"
	 viewBox="0 0 100 50" style="enable-background:new 0 0 100 50;" xml:space="preserve">
<style type="text/css">
	.st0{fill:#75777A;}
</style>
<g>
	<path class="st0" d="M79.4,13.6L61.7,0.3C61.5,0.1,61.2,0,60.9,0H23.8c-2,0-3.7,1.7-3.7,3.7v42.6c0,2,1.7,3.7,3.7,3.7h52.5
		c2,0,3.7-1.7,3.7-3.7V14.6C79.9,14.2,79.7,13.8,79.4,13.6z M61,2.9l15.5,11.7H62.2c-0.7,0-1.3-0.6-1.3-1.3V2.9z M76.2,47.5H23.8
		c-0.7,0-1.2-0.5-1.2-1.2V3.7c0-0.7,0.5-1.2,1.2-1.2h34.7v10.7c0,2.1,1.7,3.8,3.8,3.8h15.2v29.3C77.4,47,76.9,47.5,76.2,47.5z"/>
	<path class="st0" d="M40.6,25h-6.3c-0.7,0-1.3,0.6-1.3,1.3v6.3c0,0.7,0.6,1.3,1.3,1.3h6.3c0.7,0,1.3-0.6,1.3-1.3v-6.3
		C41.9,25.6,41.3,25,40.6,25z M39.4,31.3h-3.8v-3.8h3.8V31.3z"/>
	<path class="st0" d="M63.3,25.7H47c-0.7,0-1.3,0.6-1.3,1.3s0.6,1.3,1.3,1.3h16.3c0.7,0,1.3-0.6,1.3-1.3S63.9,25.7,63.3,25.7z"/>
	<path class="st0" d="M63.3,30.4H47c-0.7,0-1.3,0.6-1.3,1.3c0,0.7,0.6,1.3,1.3,1.3h16.3c0.7,0,1.3-0.6,1.3-1.3
		C64.5,31,63.9,30.4,63.3,30.4z"/>
</g>
</svg>
