<?xml version="1.0" encoding="utf-8"?>
<!-- Generator: Adobe Illustrator 16.0.0, SVG Export Plug-In . SVG Version: 6.00 Build 0)  -->
<!DOCTYPE svg PUBLIC "-//W3C//DTD SVG 1.1//EN" "http://www.w3.org/Graphics/SVG/1.1/DTD/svg11.dtd">
<svg version="1.1" id="Layer_1" xmlns="http://www.w3.org/2000/svg" xmlns:xlink="http://www.w3.org/1999/xlink" x="0px" y="0px"
	 width="130px" height="130px" viewBox="0 0 130 130" enable-background="new 0 0 130 130" xml:space="preserve">
<path fill="#F15625" d="M76.822,61.067c2.515,2.679,4.539,5.835,5.925,9.298c1.378,3.428,2.144,7.166,2.144,11.068
	c0,8.205-3.354,15.66-8.744,21.06c-0.557,0.565-1.154,1.112-1.774,1.641h23.604c1.961,0,3.558,1.591,3.558,3.539
	c0,1.951-1.597,3.558-3.558,3.558H32.017c-1.951,0-3.549-1.604-3.549-3.558c0-1.948,1.598-3.539,3.549-3.539h22.982h0.082
	c6.271,0,11.961-2.552,16.062-6.651c0.604-0.604,1.18-1.258,1.705-1.916H33.663c-1.167,0-2.114-0.945-2.114-2.112
	c0-1.187,0.947-2.136,2.114-2.136h41.864c1.449-2.988,2.262-6.344,2.262-9.883c0-3.01-0.573-5.854-1.604-8.44
	c-0.932-2.317-2.228-4.431-3.812-6.31c-1.414,0.817-3.036,1.273-4.777,1.273c-0.992,0-1.962-0.165-2.872-0.438l-5.332,9.226
	c-0.574,1.021-1.869,1.369-2.892,0.803v-0.019l-0.009,0.019l-2.062-1.204l-1.933,3.34c-0.573,1.021-1.886,1.365-2.89,0.768
	L41,75.493c-1.013-0.585-1.356-1.879-0.774-2.9l1.924-3.337l-2.068-1.186c-1.003-0.584-1.35-1.896-0.766-2.918l19.209-33.258
	c0.582-1.004,1.879-1.351,2.891-0.767l0.107,0.073l1.961,1.13l3.155-5.469l-2.071-1.187c-1.687-0.968-2.262-3.138-1.304-4.832
	c0.976-1.679,3.146-2.262,4.823-1.295c5.479,3.172,10.949,6.307,16.429,9.482c1.688,0.982,2.271,3.134,1.275,4.832
	c-0.977,1.676-3.135,2.261-4.823,1.273L78.9,33.951l-3.154,5.452l2.08,1.204c1.012,0.564,1.354,1.879,0.773,2.882v0.019
	l-4.486,7.748c1.939,1.86,3.103,4.358,3.103,7.075C77.215,59.28,77.086,60.191,76.822,61.067 M75.227,31.84L75.227,31.84
	c-1.648-0.949-3.271-1.896-4.925-2.847l-3.149,5.452l4.938,2.846L75.227,31.84z M70.45,49.141L70.45,49.141l3.419-5.926
	c-4.241-2.461-8.488-4.923-12.748-7.367L44.047,65.444c4.238,2.46,8.488,4.921,12.735,7.365l4.275-7.402
	c-1.951-1.878-3.1-4.32-3.1-7.074c0-2.645,1.084-5.051,2.836-6.802h-0.02C63.401,48.904,66.982,48.193,70.45,49.141 M71.387,54.539
	L71.387,54.539c-2.066-2.078-5.478-2.115-7.603,0v-0.02v0.02c-0.975,0.967-1.568,2.316-1.568,3.793c0,2.991,2.416,5.379,5.38,5.379
	c1.485,0,2.826-0.601,3.791-1.587l0.021,0.019v-0.019c0.968-0.948,1.566-2.297,1.566-3.792c0-1.439-0.563-2.754-1.478-3.701
	L71.387,54.539z M45.823,71.368L45.823,71.368l-0.848,1.514l4.914,2.847l0.866-1.494L45.823,71.368z"/>
</svg>
