<?xml version="1.0" encoding="UTF-8"?>
<svg width="130px" height="143px" viewBox="0 0 130 143" version="1.1" xmlns="http://www.w3.org/2000/svg" xmlns:xlink="http://www.w3.org/1999/xlink">
    <!-- Generator: Sketch 58 (84663) - https://sketch.com -->
    <title>Icon - smarter IT</title>
    <desc>Created with Sketch.</desc>
    <g id="Page-1" stroke="none" stroke-width="1" fill="none" fill-rule="evenodd" stroke-linecap="round" stroke-linejoin="round">
        <g id="BMC-Helix-Option-3A-V2" transform="translate(-239.000000, -1712.000000)">
            <g id="Inro-Bmc-Helix" transform="translate(0.000000, 1301.000000)">
                <g id="Group-18" transform="translate(120.000000, 299.000000)">
                    <g id="Icon---smarter-IT" transform="translate(123.000000, 116.000000)">
                        <path d="M60.7552616,134.956356 C35.7232631,135.724356 37.307263,118.036357 37.307263,118.036357 C-0.8527347,104.188358 7.90726478,76.1323597 7.90726478,76.1323597 C-17.9167337,33.4603622 27.7792636,18.0763631 27.7792636,18.0763631 C39.2992629,-0.763635743 60.7552616,0.00436421122 60.7552616,0.00436421122 L60.7552616,134.956356 Z" id="Path" stroke="#414042" stroke-width="7.19999957"></path>
                        <path d="M60.7792616,134.956356 C85.8112601,135.724356 84.2272602,118.036357 84.2272602,118.036357 C122.387258,104.188358 113.627258,76.1323597 113.627258,76.1323597 C139.451257,33.4603622 93.7552597,18.0763631 93.7552597,18.0763631 C82.2352603,-0.763635743 60.7792616,0.00436421122 60.7792616,0.00436421122 L60.7792616,134.956356 Z" id="Path" stroke="#414042" stroke-width="7.19999957"></path>
                        <path d="M61.5472616,51.5563611 C61.5472616,51.5563611 81.8032604,55.0123609 86.1952601,40.4203618" id="Path" stroke="#F98700" stroke-width="7.19999957"></path>
                        <path d="M79.4272605,25.3963627 C79.4272605,25.3963627 84.2032602,16.1803632 94.1392596,18.1003631" id="Path" stroke="#414042" stroke-width="7.19999957"></path>
                        <path d="M61.4032616,79.2283595 C61.4032616,79.2283595 78.0832606,75.0043597 84.0592602,85.3723591" id="Path" stroke="#F98700" stroke-width="7.19999957"></path>
                        <path d="M94.9312596,49.6363613 C94.9312596,49.6363613 101.291259,60.3883606 93.3472597,69.2443601" id="Path" stroke="#414042" stroke-width="7.19999957"></path>
                        <path d="M113.963258,75.8443597 C113.963258,75.8443597 112.235259,63.7243604 97.5232594,62.1883605" id="Path" stroke="#414042" stroke-width="7.19999957"></path>
                        <path d="M75.8512607,104.596358 C75.8512607,104.596358 86.5792601,107.668358 92.5312597,97.6843584" id="Path" stroke="#414042" stroke-width="7.19999957"></path>
                        <path d="M84.9472602,104.620358 L83.8912602,120.748357" id="Path" stroke="#F98700" stroke-width="5.99999964"></path>
                        <path d="M84.9472602,104.620358 L83.8912602,120.748357" id="Path" stroke="#F98700" stroke-width="4.79999971"></path>
                        <ellipse id="Oval" stroke="#414042" stroke-width="5.99999964" cx="44.4592626" cy="27.3643626" rx="6.21599963" ry="6.02399964"></ellipse>
                        <ellipse id="Oval" stroke="#414042" stroke-width="5.99999964" cx="22.7872639" cy="46.9963614" rx="6.21599963" ry="6.02399964"></ellipse>
                        <ellipse id="Oval" stroke="#414042" stroke-width="5.99999964" cx="44.6752626" cy="78.6523595" rx="6.21599963" ry="6.02399964"></ellipse>
                        <ellipse id="Oval" stroke="#414042" stroke-width="5.99999964" cx="37.523263" cy="102.940358" rx="6.21599963" ry="6.02399964"></ellipse>
                        <polyline id="Path" stroke="#FFD099" stroke-width="5.99999964" points="59.8192617 40.9243618 44.8192626 40.9243618 44.8192626 33.3883622"></polyline>
                        <polyline id="Path" stroke="#FFD099" stroke-width="5.99999964" points="60.0352617 60.9883606 23.8672638 60.9883606 23.8672638 53.0203611"></polyline>
                        <path d="M44.6752626,72.6283599 L44.6752626,61.6603605" id="Path" stroke="#FFD099" stroke-width="5.99999964"></path>
                        <path d="M7.88326478,76.1563597 L19.4752641,76.1563597" id="Path" stroke="#414042" stroke-width="5.99999964"></path>
                        <path d="M37.307263,118.060357 L37.5,108.5" id="Path" stroke="#FFD099" stroke-width="5.99999964"></path>
                        <path d="M60.7552616,134.956356 C35.7232631,135.724356 37.307263,118.036357 37.307263,118.036357 C-0.8527347,104.188358 7.90726478,76.1323597 7.90726478,76.1323597 C-17.9167337,33.4603622 27.7792636,18.0763631 27.7792636,18.0763631 C39.2992629,-0.763635743 60.7552616,0.00436421122 60.7552616,0.00436421122 L60.7552616,134.956356 Z" id="Path" stroke="#F98700" stroke-width="7.19999957"></path>
                        <path d="M60.7792616,134.956356 C85.8112601,135.724356 84.2272602,118.036357 84.2272602,118.036357 C122.387258,104.188358 113.627258,76.1323597 113.627258,76.1323597 C139.451257,33.4603622 93.7552597,18.0763631 93.7552597,18.0763631 C82.2352603,-0.763635743 60.7792616,0.00436421122 60.7792616,0.00436421122 L60.7792616,134.956356 Z" id="Path" stroke="#F98700" stroke-width="7.19999957"></path>
                        <path d="M79.4272605,25.3963627 C79.4272605,25.3963627 84.2032602,16.1803632 94.1392596,18.1003631" id="Path" stroke="#F98700" stroke-width="7.19999957"></path>
                        <path d="M94.9312596,49.6363613 C94.9312596,49.6363613 101.291259,60.3883606 93.3472597,69.2443601" id="Path" stroke="#F98700" stroke-width="7.19999957"></path>
                        <path d="M113.963258,75.8443597 C113.963258,75.8443597 112.235259,63.7243604 97.5232594,62.1883605" id="Path" stroke="#F98700" stroke-width="7.19999957"></path>
                        <path d="M75.8512607,104.596358 C75.8512607,104.596358 86.5792601,107.668358 92.5312597,97.6843584" id="Path" stroke="#F98700" stroke-width="7.19999957"></path>
                        <ellipse id="Oval" stroke="#F98700" stroke-width="5.99999964" cx="44.4592626" cy="27.3643626" rx="6.21599963" ry="6.02399964"></ellipse>
                        <ellipse id="Oval" stroke="#F98700" stroke-width="5.99999964" cx="22.7872639" cy="46.9963614" rx="6.21599963" ry="6.02399964"></ellipse>
                        <ellipse id="Oval" stroke="#F98700" stroke-width="5.99999964" cx="44.6752626" cy="78.6523595" rx="6.21599963" ry="6.02399964"></ellipse>
                        <ellipse id="Oval" stroke="#F98700" stroke-width="5.99999964" cx="37.523263" cy="102.940358" rx="6.21599963" ry="6.02399964"></ellipse>
                        <path d="M7.88326478,76.1563597 L19.4752641,76.1563597" id="Path" stroke="#F98700" stroke-width="5.99999964"></path>
                    </g>
                </g>
            </g>
        </g>
    </g>
</svg>