<?xml version="1.0" encoding="UTF-8"?>
<svg width="188px" height="153px" viewBox="0 0 188 153" version="1.1" xmlns="http://www.w3.org/2000/svg" xmlns:xlink="http://www.w3.org/1999/xlink">
    <!-- Generator: Sketch 58 (84663) - https://sketch.com -->
    <title>Icon - quote</title>
    <desc>Created with Sketch.</desc>
    <g id="Page-1" stroke="none" stroke-width="1" fill="none" fill-rule="evenodd">
        <g id="BMC-Helix-Option-3A-V2" transform="translate(-100.000000, -2360.000000)" fill="#E0EFF6">
            <g id="Testimonial" transform="translate(100.000000, 2360.000000)">
                <path d="M87,113.252669 C87,90.3843416 73.2909091,75.683274 49.5636364,75.683274 C44.8181818,75.683274 41.1272727,76.772242 38.4909091,78.405694 C39.5454545,53.3594306 61.6909091,36.480427 81.7272727,33.2135231 L81.7272727,0 C48.5090909,3.26690391 0,27.7686833 0,100.729537 C0,129.587189 17.9272727,153 45.8727273,153 C70.6545455,153 87,134.487544 87,113.252669 Z M188,113.252669 C188,134.487544 171.654545,153 146.872727,153 C118.927273,153 101,129.587189 101,100.729537 C101,27.7686833 149.509091,3.26690391 182.727273,0 L182.727273,33.2135231 C162.690909,36.480427 140.545455,53.3594306 139.490909,78.405694 C142.127273,76.772242 145.818182,75.683274 150.563636,75.683274 C174.290909,75.683274 188,90.3843416 188,113.252669 Z" id="Icon---quote"></path>
            </g>
        </g>
    </g>
</svg>