<?xml version="1.0" encoding="utf-8"?>
<!-- Generator: Adobe Illustrator 22.1.0, SVG Export Plug-In . SVG Version: 6.00 Build 0)  -->
<svg version="1.1" id="Layer_1" xmlns="http://www.w3.org/2000/svg" xmlns:xlink="http://www.w3.org/1999/xlink" x="0px" y="0px"
	 viewBox="0 0 100 50" style="enable-background:new 0 0 100 50;" xml:space="preserve">
<style type="text/css">
	.st0{fill:#75777A;}
	.st1{fill:none;stroke:#75777A;stroke-width:3.0984;stroke-linejoin:round;stroke-miterlimit:10;}
</style>
<g>
	<path class="st0" d="M74.7,37.3H25.8c-2,0-3.6-1.6-3.6-3.6V3.6c0-2,1.6-3.6,3.6-3.6h48.9c2,0,3.6,1.6,3.6,3.6v30.2
		C78.3,35.7,76.7,37.3,74.7,37.3z M25.8,2.5c-0.6,0-1.1,0.5-1.1,1.1v30.2c0,0.6,0.5,1.1,1.1,1.1h48.9c0.6,0,1.1-0.5,1.1-1.1V3.6
		c0-0.6-0.5-1.1-1.1-1.1H25.8z"/>
	<path class="st1" d="M28.5,38.1"/>
	<path class="st1" d="M28.5,7.8"/>
	<path class="st0" d="M45,27.7c-0.2,0-0.4-0.1-0.6-0.2c-0.4-0.2-0.6-0.6-0.6-1V11.7c0-0.4,0.2-0.8,0.6-1c0.4-0.2,0.8-0.2,1.2,0
		l12.8,7.4c0.4,0.2,0.6,0.6,0.6,1c0,0.4-0.2,0.8-0.6,1l-12.8,7.4C45.4,27.6,45.2,27.7,45,27.7z M46.1,13.7v10.8l9.3-5.4L46.1,13.7z"
		/>
	<path class="st0" d="M75.4,46.8H22.9c-0.6,0-1.2-0.5-1.2-1.2s0.5-1.2,1.2-1.2h52.5c0.6,0,1.2,0.5,1.2,1.2S76,46.8,75.4,46.8z"/>
	<path class="st0" d="M30.9,50c-0.6,0-1.2-0.5-1.2-1.2v-5.9c0-0.6,0.5-1.2,1.2-1.2c0.6,0,1.2,0.5,1.2,1.2v5.9
		C32.1,49.5,31.6,50,30.9,50z"/>
</g>
</svg>
