<?xml version="1.0" encoding="UTF-8"?>
<svg width="552px" height="482px" viewBox="0 0 552 482" version="1.1" xmlns="http://www.w3.org/2000/svg" xmlns:xlink="http://www.w3.org/1999/xlink">
    <!-- Generator: Sketch 58 (84663) - https://sketch.com -->
    <title>illustration - simpler smarter</title>
    <desc>Created with Sketch.</desc>
    <defs>
        <rect id="path-1" x="0" y="0" width="463" height="114" rx="8"></rect>
        <filter x="-4.8%" y="-17.5%" width="109.5%" height="138.6%" filterUnits="objectBoundingBox" id="filter-2">
            <feMorphology radius="1" operator="dilate" in="SourceAlpha" result="shadowSpreadOuter1"></feMorphology>
            <feOffset dx="0" dy="2" in="shadowSpreadOuter1" result="shadowOffsetOuter1"></feOffset>
            <feGaussianBlur stdDeviation="6" in="shadowOffsetOuter1" result="shadowBlurOuter1"></feGaussianBlur>
            <feColorMatrix values="0 0 0 0 0   0 0 0 0 0   0 0 0 0 0  0 0 0 0.05 0" type="matrix" in="shadowBlurOuter1"></feColorMatrix>
        </filter>
        <rect id="path-3" x="0" y="0" width="463" height="114" rx="8"></rect>
        <filter x="-4.8%" y="-17.5%" width="109.5%" height="138.6%" filterUnits="objectBoundingBox" id="filter-4">
            <feMorphology radius="1" operator="dilate" in="SourceAlpha" result="shadowSpreadOuter1"></feMorphology>
            <feOffset dx="0" dy="2" in="shadowSpreadOuter1" result="shadowOffsetOuter1"></feOffset>
            <feGaussianBlur stdDeviation="6" in="shadowOffsetOuter1" result="shadowBlurOuter1"></feGaussianBlur>
            <feColorMatrix values="0 0 0 0 0   0 0 0 0 0   0 0 0 0 0  0 0 0 0.05 0" type="matrix" in="shadowBlurOuter1"></feColorMatrix>
        </filter>
        <rect id="path-5" x="0" y="0" width="463" height="114" rx="8"></rect>
        <filter x="-4.8%" y="-17.5%" width="109.5%" height="138.6%" filterUnits="objectBoundingBox" id="filter-6">
            <feMorphology radius="1" operator="dilate" in="SourceAlpha" result="shadowSpreadOuter1"></feMorphology>
            <feOffset dx="0" dy="2" in="shadowSpreadOuter1" result="shadowOffsetOuter1"></feOffset>
            <feGaussianBlur stdDeviation="6" in="shadowOffsetOuter1" result="shadowBlurOuter1"></feGaussianBlur>
            <feColorMatrix values="0 0 0 0 0   0 0 0 0 0   0 0 0 0 0  0 0 0 0.05 0" type="matrix" in="shadowBlurOuter1"></feColorMatrix>
        </filter>
        <circle id="path-7" cx="36.5" cy="36.5" r="36.5"></circle>
    </defs>
    <g id="Page-1" stroke="none" stroke-width="1" fill="none" fill-rule="evenodd">
        <g id="BMC-Helix-Option-3A-V2" transform="translate(-84.000000, -3952.000000)">
            <g id="Simpler-Smarter" transform="translate(0.000000, 3896.000000)">
                <g id="Group-26">
                    <g id="illustration---simpler-smarter" transform="translate(98.000000, 68.000000)">
                        <g id="Group-2">
                            <g id="Card">
                                <g id="Combined-Shape">
                                    <use fill="black" fill-opacity="1" filter="url(#filter-2)" xlink:href="#path-1"></use>
                                    <use fill="#FFFFFF" fill-rule="evenodd" xlink:href="#path-1"></use>
                                </g>
                                <g id="Text" transform="translate(156.000000, 38.000000)" fill="#046E96">
                                    <rect id="Rectangle" x="0" y="0" width="271" height="6"></rect>
                                    <rect id="Rectangle" x="0" y="16" width="271" height="6"></rect>
                                    <rect id="Rectangle" x="0" y="32" width="174" height="6"></rect>
                                </g>
                                <path d="M128.5,37.5 L128.5,78.5" id="Line-3" stroke="#D5D5D5" stroke-linecap="square"></path>
                            </g>
                            <g id="Chatbot---Icon" transform="translate(30.000000, 21.000000)">
                                <g id="Chatbot-/-bkg-/-square" fill="#DAF0D8">
                                    <circle id="Oval" cx="36.5" cy="36.5" r="36.5"></circle>
                                </g>
                                <g id="chatbot-/-icon" transform="translate(6.083333, 15.208333)">
                                    <g id="Chatbot-Copy-2">
                                        <path d="M30.0324957,42.2387462 C25.9224987,42.2387462 16.7657278,42.2387462 16.7657278,42.2387462 C16.7657278,42.2387462 10.3893674,42.0538528 6.09801743,37.3375329 C3.09846446,34.0407196 2.19965997,27.9151597 2.19965997,27.9151597 C2.19965997,27.9151597 1.01107499,27.935693 0.547627494,27.5863463 C0.0841612321,27.2369997 0.0841612321,26.640973 0.0841612321,26.640973 L0.0841612321,18.0098798 C0.0841612321,18.0098798 0.0641414993,17.5987465 0.567848993,17.0645065 C1.07146499,16.5301731 2.13926998,16.7768531 2.13926998,16.7768531 C2.13926998,16.7768531 2.38101297,11.5980665 6.43052843,6.97423992 C10.4800439,2.35041331 19.0020793,2.16542664 19.0020793,2.16542664 C19.0020793,2.16542664 24.3812727,0.00765333324 29.5939362,0.00765333324 L30.6919361,0.00765333324 C35.9045081,0.00765333324 41.2837015,2.16542664 41.2837015,2.16542664 C41.2837015,2.16542664 49.8058284,2.35041331 53.8553439,6.97423992 C57.9048593,11.5980665 58.1465108,16.7768531 58.1465108,16.7768531 C58.1465108,16.7768531 59.2143158,16.5301731 59.7180233,17.0645065 C60.2217308,17.5987465 60.201621,18.0098798 60.201621,18.0098798 L60.201621,26.640973 C60.201621,26.640973 60.201621,27.2369997 59.7381533,27.5863463 C59.2747973,27.935693 58.0861208,27.9151597 58.0861208,27.9151597 C58.0861208,27.9151597 57.1873163,34.0407196 54.1877634,37.3375329 C49.8964134,42.0538528 43.520053,42.2387462 43.520053,42.2387462 C43.520053,42.2387462 34.3633736,42.2387462 30.2534681,42.2387462 L30.0324957,42.2387462" id="Fill-7" fill="#E5E6E3"></path>
                                        <path d="M30.0324957,42.2387462 C25.9224987,42.2387462 16.7657278,42.2387462 16.7657278,42.2387462 C16.7657278,42.2387462 10.3893674,42.0538528 6.09801743,37.3375329 C3.09846446,34.0407196 2.19965997,27.9151597 2.19965997,27.9151597 C2.19965997,27.9151597 1.01107499,27.935693 0.547627494,27.5863463 C0.0841612321,27.2369997 0.0841612321,26.640973 0.0841612321,26.640973 L0.0841612321,18.0098798 C0.0841612321,18.0098798 0.0641414993,17.5987465 0.567848993,17.0645065 C1.07146499,16.5301731 2.13926998,16.7768531 2.13926998,16.7768531 C2.13926998,16.7768531 2.38101297,11.5980665 6.43052843,6.97423992 C10.4800439,2.35041331 19.0020793,2.16542664 19.0020793,2.16542664 C19.0020793,2.16542664 24.3812727,0.00765333324 29.5939362,0.00765333324 L30.6919361,0.00765333324 C35.9045081,0.00765333324 41.2837015,2.16542664 41.2837015,2.16542664 C41.2837015,2.16542664 49.8058284,2.35041331 53.8553439,6.97423992 C57.9048593,11.5980665 58.1465108,16.7768531 58.1465108,16.7768531 C58.1465108,16.7768531 59.2143158,16.5301731 59.7180233,17.0645065 C60.2217308,17.5987465 60.201621,18.0098798 60.201621,18.0098798 L60.201621,26.640973 C60.201621,26.640973 60.201621,27.2369997 59.7381533,27.5863463 C59.2747973,27.935693 58.0861208,27.9151597 58.0861208,27.9151597 C58.0861208,27.9151597 57.1873163,34.0407196 54.1877634,37.3375329 C49.8964134,42.0538528 43.520053,42.2387462 43.520053,42.2387462 C43.520053,42.2387462 34.3633736,42.2387462 30.2534681,42.2387462 L30.0324957,42.2387462 Z" id="Stroke-8" stroke="#0A0B09" stroke-width="0.779999991"></path>
                                        <path d="M30.0324957,42.2387462 C25.9224987,42.2387462 16.7657278,42.2387462 16.7657278,42.2387462 C16.7657278,42.2387462 10.3893674,42.0538528 6.09801743,37.3375329 C3.09846446,34.0407196 2.19965997,27.9151597 2.19965997,27.9151597 C2.19965997,27.9151597 1.01107499,27.935693 0.547627494,27.5863463 C0.0841612321,27.2369997 0.0841612321,26.640973 0.0841612321,26.640973 L0.0841612321,18.0098798 C0.0841612321,18.0098798 0.0641414993,17.5987465 0.567848993,17.0645065 C1.07146499,16.5301731 2.13926998,16.7768531 2.13926998,16.7768531 C2.13926998,16.7768531 2.38101297,11.5980665 6.43052843,6.97423992 C10.4800439,2.35041331 19.0020793,2.16542664 19.0020793,2.16542664 C19.0020793,2.16542664 24.3812727,0.00765333324 29.5939362,0.00765333324 L30.6919361,0.00765333324 C35.9045081,0.00765333324 41.2837015,2.16542664 41.2837015,2.16542664 C41.2837015,2.16542664 49.8058284,2.35041331 53.8553439,6.97423992 C57.9048593,11.5980665 58.1465108,16.7768531 58.1465108,16.7768531 C58.1465108,16.7768531 59.2143158,16.5301731 59.7180233,17.0645065 C60.2217308,17.5987465 60.201621,18.0098798 60.201621,18.0098798 L60.201621,26.640973 C60.201621,26.640973 60.201621,27.2369997 59.7381533,27.5863463 C59.2747973,27.935693 58.0861208,27.9151597 58.0861208,27.9151597 C58.0861208,27.9151597 57.1873163,34.0407196 54.1877634,37.3375329 C49.8964134,42.0538528 43.520053,42.2387462 43.520053,42.2387462 C43.520053,42.2387462 34.3633736,42.2387462 30.2534681,42.2387462 L30.0324957,42.2387462" id="Fill-10" fill="#E5E6E3"></path>
                                        <path d="M30.0324957,42.2387462 C25.9224987,42.2387462 16.7657278,42.2387462 16.7657278,42.2387462 C16.7657278,42.2387462 10.3893674,42.0538528 6.09801743,37.3375329 C3.09846446,34.0407196 2.19965997,27.9151597 2.19965997,27.9151597 L2.13926998,16.7768531 C2.13926998,16.7768531 2.38101297,11.5980665 6.43052843,6.97423992 C10.4800439,2.35041331 19.0020793,2.16542664 19.0020793,2.16542664 C19.0020793,2.16542664 24.3812727,0.00765333324 29.5939362,0.00765333324 L30.6919361,0.00765333324 C35.9045081,0.00765333324 41.2837015,2.16542664 41.2837015,2.16542664 C41.2837015,2.16542664 49.8058284,2.35041331 53.8553439,6.97423992 C57.9048593,11.5980665 58.1465108,16.7768531 58.1465108,16.7768531 L58.0861208,27.9151597 C58.0861208,27.9151597 57.1873163,34.0407196 54.1877634,37.3375329 C49.8964134,42.0538528 43.520053,42.2387462 43.520053,42.2387462 C43.520053,42.2387462 34.3633736,42.2387462 30.2534681,42.2387462 L30.0324957,42.2387462" id="Fill-11" fill="#C1C2BF"></path>
                                        <path d="M30.0324957,42.2387462 C25.9224987,42.2387462 16.7657278,42.2387462 16.7657278,42.2387462 C16.7657278,42.2387462 10.3893674,42.0538528 6.09801743,37.3375329 C3.09846446,34.0407196 2.19965997,27.9151597 2.19965997,27.9151597 L2.13926998,16.7768531 C2.13926998,16.7768531 2.38101297,11.5980665 6.43052843,6.97423992 C10.4800439,2.35041331 19.0020793,2.16542664 19.0020793,2.16542664 C19.0020793,2.16542664 24.3812727,0.00765333324 29.5939362,0.00765333324 L30.6919361,0.00765333324 C31.0088921,0.00765333324 31.5582581,0.679186659 31.5226646,1.73394665 C31.4621831,3.52174663 29.9192187,4.74273328 29.9512437,6.38857326 C30.0116337,9.50189322 32.6632121,11.9639332 32.8221476,15.8212131 C33.0977456,22.5128397 30.1575762,35.5187463 30.1575762,35.5187463 L30.2534681,42.2387462 L30.0324957,42.2387462" id="Fill-12" fill="#FFFFFE"></path>
                                        <path d="M30.0150192,39.7932262 C30.0150192,39.7932262 20.7879763,39.9076529 16.8390193,39.7932262 C14.5322128,39.7264929 10.3316309,38.4779729 7.41031041,34.9022796 C5.21641494,32.2167996 4.87182594,28.4905597 4.75095444,27.3808263 C4.63008295,26.271093 4.67345395,22.0047331 4.66531045,20.8920131 C4.65112795,18.9346264 4.87182594,16.1192265 4.87182594,16.1192265 C4.87182594,16.1192265 5.20927794,11.0277999 9.66679189,7.48794658 C13.4598328,4.47579995 19.7401183,4.81646661 19.7401183,4.81646661 C19.7401183,4.81646661 25.2787962,8.28426657 30.0150192,8.31002657 L30.6664076,8.31002657 C35.4025391,8.28426657 40.941217,4.81646661 40.941217,4.81646661 C40.941217,4.81646661 47.221594,4.47579995 51.0146349,7.48794658 C55.4721489,11.0277999 55.8095094,16.1192265 55.8095094,16.1192265 C55.8095094,16.1192265 56.0302989,18.9346264 56.0160249,20.8920131 C56.0078814,22.0047331 56.0513439,26.271093 55.9304724,27.3808263 C55.8095094,28.4905597 55.4650119,32.2167996 53.2710249,34.9022796 C50.3497044,38.4779729 46.149214,39.7264929 43.842316,39.7932262 C39.893359,39.9076529 30.6664076,39.7932262 30.6664076,39.7932262 L30.0150192,39.7932262" id="Fill-13" fill="#1B1A19"></path>
                                        <path d="M39.718045,19.2641864 C37.8554711,19.4245331 36.4728146,21.0946398 36.6299201,22.9947197 L43.3753915,22.4141864 C43.2181945,20.5141998 41.5807105,19.1038398 39.718045,19.2641864" id="Fill-14" fill="#22ABCB"></path>
                                        <path d="M20.5677358,19.2641864 C22.4304012,19.4245331 23.8130577,21.0946398 23.6558607,22.9947197 L16.9104808,22.4141864 C17.0676778,20.5141998 18.7050703,19.1038398 20.5677358,19.2641864" id="Fill-15" fill="#22ABCB"></path>
                                        <path d="M24.9465597,28.2029063 C25.8572592,30.3936263 27.9851832,31.930453 30.4649246,31.930453 C32.9448491,31.930453 35.0725901,30.3936263 35.9833811,28.2029063 L24.9465597,28.2029063" id="Fill-16" fill="#E5E6E3"></path>
                                    </g>
                                </g>
                            </g>
                        </g>
                        <g id="Group-2" transform="translate(0.000000, 340.000000)">
                            <g id="Card">
                                <g id="Combined-Shape">
                                    <use fill="black" fill-opacity="1" filter="url(#filter-4)" xlink:href="#path-3"></use>
                                    <use fill="#FFFFFF" fill-rule="evenodd" xlink:href="#path-3"></use>
                                </g>
                                <g id="Text" transform="translate(156.000000, 38.000000)" fill="#046E96">
                                    <rect id="Rectangle" x="0" y="0" width="271" height="6"></rect>
                                    <rect id="Rectangle" x="0" y="16" width="271" height="6"></rect>
                                    <rect id="Rectangle" x="0" y="32" width="174" height="6"></rect>
                                </g>
                                <path d="M128.5,37.5 L128.5,78.5" id="Line-3" stroke="#D5D5D5" stroke-linecap="square"></path>
                            </g>
                            <g id="Chatbot---Icon" transform="translate(30.000000, 21.000000)">
                                <g id="Chatbot-/-bkg-/-square" fill="#DAF0D8">
                                    <circle id="Oval" cx="36.5" cy="36.5" r="36.5"></circle>
                                </g>
                                <g id="chatbot-/-icon" transform="translate(6.083333, 15.208333)">
                                    <g id="Chatbot-Copy-2">
                                        <path d="M30.0324957,42.2387462 C25.9224987,42.2387462 16.7657278,42.2387462 16.7657278,42.2387462 C16.7657278,42.2387462 10.3893674,42.0538528 6.09801743,37.3375329 C3.09846446,34.0407196 2.19965997,27.9151597 2.19965997,27.9151597 C2.19965997,27.9151597 1.01107499,27.935693 0.547627494,27.5863463 C0.0841612321,27.2369997 0.0841612321,26.640973 0.0841612321,26.640973 L0.0841612321,18.0098798 C0.0841612321,18.0098798 0.0641414993,17.5987465 0.567848993,17.0645065 C1.07146499,16.5301731 2.13926998,16.7768531 2.13926998,16.7768531 C2.13926998,16.7768531 2.38101297,11.5980665 6.43052843,6.97423992 C10.4800439,2.35041331 19.0020793,2.16542664 19.0020793,2.16542664 C19.0020793,2.16542664 24.3812727,0.00765333324 29.5939362,0.00765333324 L30.6919361,0.00765333324 C35.9045081,0.00765333324 41.2837015,2.16542664 41.2837015,2.16542664 C41.2837015,2.16542664 49.8058284,2.35041331 53.8553439,6.97423992 C57.9048593,11.5980665 58.1465108,16.7768531 58.1465108,16.7768531 C58.1465108,16.7768531 59.2143158,16.5301731 59.7180233,17.0645065 C60.2217308,17.5987465 60.201621,18.0098798 60.201621,18.0098798 L60.201621,26.640973 C60.201621,26.640973 60.201621,27.2369997 59.7381533,27.5863463 C59.2747973,27.935693 58.0861208,27.9151597 58.0861208,27.9151597 C58.0861208,27.9151597 57.1873163,34.0407196 54.1877634,37.3375329 C49.8964134,42.0538528 43.520053,42.2387462 43.520053,42.2387462 C43.520053,42.2387462 34.3633736,42.2387462 30.2534681,42.2387462 L30.0324957,42.2387462" id="Fill-7" fill="#E5E6E3"></path>
                                        <path d="M30.0324957,42.2387462 C25.9224987,42.2387462 16.7657278,42.2387462 16.7657278,42.2387462 C16.7657278,42.2387462 10.3893674,42.0538528 6.09801743,37.3375329 C3.09846446,34.0407196 2.19965997,27.9151597 2.19965997,27.9151597 C2.19965997,27.9151597 1.01107499,27.935693 0.547627494,27.5863463 C0.0841612321,27.2369997 0.0841612321,26.640973 0.0841612321,26.640973 L0.0841612321,18.0098798 C0.0841612321,18.0098798 0.0641414993,17.5987465 0.567848993,17.0645065 C1.07146499,16.5301731 2.13926998,16.7768531 2.13926998,16.7768531 C2.13926998,16.7768531 2.38101297,11.5980665 6.43052843,6.97423992 C10.4800439,2.35041331 19.0020793,2.16542664 19.0020793,2.16542664 C19.0020793,2.16542664 24.3812727,0.00765333324 29.5939362,0.00765333324 L30.6919361,0.00765333324 C35.9045081,0.00765333324 41.2837015,2.16542664 41.2837015,2.16542664 C41.2837015,2.16542664 49.8058284,2.35041331 53.8553439,6.97423992 C57.9048593,11.5980665 58.1465108,16.7768531 58.1465108,16.7768531 C58.1465108,16.7768531 59.2143158,16.5301731 59.7180233,17.0645065 C60.2217308,17.5987465 60.201621,18.0098798 60.201621,18.0098798 L60.201621,26.640973 C60.201621,26.640973 60.201621,27.2369997 59.7381533,27.5863463 C59.2747973,27.935693 58.0861208,27.9151597 58.0861208,27.9151597 C58.0861208,27.9151597 57.1873163,34.0407196 54.1877634,37.3375329 C49.8964134,42.0538528 43.520053,42.2387462 43.520053,42.2387462 C43.520053,42.2387462 34.3633736,42.2387462 30.2534681,42.2387462 L30.0324957,42.2387462 Z" id="Stroke-8" stroke="#0A0B09" stroke-width="0.779999991"></path>
                                        <path d="M30.0324957,42.2387462 C25.9224987,42.2387462 16.7657278,42.2387462 16.7657278,42.2387462 C16.7657278,42.2387462 10.3893674,42.0538528 6.09801743,37.3375329 C3.09846446,34.0407196 2.19965997,27.9151597 2.19965997,27.9151597 C2.19965997,27.9151597 1.01107499,27.935693 0.547627494,27.5863463 C0.0841612321,27.2369997 0.0841612321,26.640973 0.0841612321,26.640973 L0.0841612321,18.0098798 C0.0841612321,18.0098798 0.0641414993,17.5987465 0.567848993,17.0645065 C1.07146499,16.5301731 2.13926998,16.7768531 2.13926998,16.7768531 C2.13926998,16.7768531 2.38101297,11.5980665 6.43052843,6.97423992 C10.4800439,2.35041331 19.0020793,2.16542664 19.0020793,2.16542664 C19.0020793,2.16542664 24.3812727,0.00765333324 29.5939362,0.00765333324 L30.6919361,0.00765333324 C35.9045081,0.00765333324 41.2837015,2.16542664 41.2837015,2.16542664 C41.2837015,2.16542664 49.8058284,2.35041331 53.8553439,6.97423992 C57.9048593,11.5980665 58.1465108,16.7768531 58.1465108,16.7768531 C58.1465108,16.7768531 59.2143158,16.5301731 59.7180233,17.0645065 C60.2217308,17.5987465 60.201621,18.0098798 60.201621,18.0098798 L60.201621,26.640973 C60.201621,26.640973 60.201621,27.2369997 59.7381533,27.5863463 C59.2747973,27.935693 58.0861208,27.9151597 58.0861208,27.9151597 C58.0861208,27.9151597 57.1873163,34.0407196 54.1877634,37.3375329 C49.8964134,42.0538528 43.520053,42.2387462 43.520053,42.2387462 C43.520053,42.2387462 34.3633736,42.2387462 30.2534681,42.2387462 L30.0324957,42.2387462" id="Fill-10" fill="#E5E6E3"></path>
                                        <path d="M30.0324957,42.2387462 C25.9224987,42.2387462 16.7657278,42.2387462 16.7657278,42.2387462 C16.7657278,42.2387462 10.3893674,42.0538528 6.09801743,37.3375329 C3.09846446,34.0407196 2.19965997,27.9151597 2.19965997,27.9151597 L2.13926998,16.7768531 C2.13926998,16.7768531 2.38101297,11.5980665 6.43052843,6.97423992 C10.4800439,2.35041331 19.0020793,2.16542664 19.0020793,2.16542664 C19.0020793,2.16542664 24.3812727,0.00765333324 29.5939362,0.00765333324 L30.6919361,0.00765333324 C35.9045081,0.00765333324 41.2837015,2.16542664 41.2837015,2.16542664 C41.2837015,2.16542664 49.8058284,2.35041331 53.8553439,6.97423992 C57.9048593,11.5980665 58.1465108,16.7768531 58.1465108,16.7768531 L58.0861208,27.9151597 C58.0861208,27.9151597 57.1873163,34.0407196 54.1877634,37.3375329 C49.8964134,42.0538528 43.520053,42.2387462 43.520053,42.2387462 C43.520053,42.2387462 34.3633736,42.2387462 30.2534681,42.2387462 L30.0324957,42.2387462" id="Fill-11" fill="#C1C2BF"></path>
                                        <path d="M30.0324957,42.2387462 C25.9224987,42.2387462 16.7657278,42.2387462 16.7657278,42.2387462 C16.7657278,42.2387462 10.3893674,42.0538528 6.09801743,37.3375329 C3.09846446,34.0407196 2.19965997,27.9151597 2.19965997,27.9151597 L2.13926998,16.7768531 C2.13926998,16.7768531 2.38101297,11.5980665 6.43052843,6.97423992 C10.4800439,2.35041331 19.0020793,2.16542664 19.0020793,2.16542664 C19.0020793,2.16542664 24.3812727,0.00765333324 29.5939362,0.00765333324 L30.6919361,0.00765333324 C31.0088921,0.00765333324 31.5582581,0.679186659 31.5226646,1.73394665 C31.4621831,3.52174663 29.9192187,4.74273328 29.9512437,6.38857326 C30.0116337,9.50189322 32.6632121,11.9639332 32.8221476,15.8212131 C33.0977456,22.5128397 30.1575762,35.5187463 30.1575762,35.5187463 L30.2534681,42.2387462 L30.0324957,42.2387462" id="Fill-12" fill="#FFFFFE"></path>
                                        <path d="M30.0150192,39.7932262 C30.0150192,39.7932262 20.7879763,39.9076529 16.8390193,39.7932262 C14.5322128,39.7264929 10.3316309,38.4779729 7.41031041,34.9022796 C5.21641494,32.2167996 4.87182594,28.4905597 4.75095444,27.3808263 C4.63008295,26.271093 4.67345395,22.0047331 4.66531045,20.8920131 C4.65112795,18.9346264 4.87182594,16.1192265 4.87182594,16.1192265 C4.87182594,16.1192265 5.20927794,11.0277999 9.66679189,7.48794658 C13.4598328,4.47579995 19.7401183,4.81646661 19.7401183,4.81646661 C19.7401183,4.81646661 25.2787962,8.28426657 30.0150192,8.31002657 L30.6664076,8.31002657 C35.4025391,8.28426657 40.941217,4.81646661 40.941217,4.81646661 C40.941217,4.81646661 47.221594,4.47579995 51.0146349,7.48794658 C55.4721489,11.0277999 55.8095094,16.1192265 55.8095094,16.1192265 C55.8095094,16.1192265 56.0302989,18.9346264 56.0160249,20.8920131 C56.0078814,22.0047331 56.0513439,26.271093 55.9304724,27.3808263 C55.8095094,28.4905597 55.4650119,32.2167996 53.2710249,34.9022796 C50.3497044,38.4779729 46.149214,39.7264929 43.842316,39.7932262 C39.893359,39.9076529 30.6664076,39.7932262 30.6664076,39.7932262 L30.0150192,39.7932262" id="Fill-13" fill="#1B1A19"></path>
                                        <path d="M39.718045,19.2641864 C37.8554711,19.4245331 36.4728146,21.0946398 36.6299201,22.9947197 L43.3753915,22.4141864 C43.2181945,20.5141998 41.5807105,19.1038398 39.718045,19.2641864" id="Fill-14" fill="#22ABCB"></path>
                                        <path d="M20.5677358,19.2641864 C22.4304012,19.4245331 23.8130577,21.0946398 23.6558607,22.9947197 L16.9104808,22.4141864 C17.0676778,20.5141998 18.7050703,19.1038398 20.5677358,19.2641864" id="Fill-15" fill="#22ABCB"></path>
                                        <path d="M24.9465597,28.2029063 C25.8572592,30.3936263 27.9851832,31.930453 30.4649246,31.930453 C32.9448491,31.930453 35.0725901,30.3936263 35.9833811,28.2029063 L24.9465597,28.2029063" id="Fill-16" fill="#E5E6E3"></path>
                                    </g>
                                </g>
                            </g>
                        </g>
                        <g id="Group-2" transform="translate(292.500000, 227.000000) scale(-1, 1) translate(-292.500000, -227.000000) translate(61.000000, 170.000000)">
                            <g id="Card">
                                <g id="Combined-Shape">
                                    <use fill="black" fill-opacity="1" filter="url(#filter-6)" xlink:href="#path-5"></use>
                                    <use fill="#FFFFFF" fill-rule="evenodd" xlink:href="#path-5"></use>
                                </g>
                                <g id="Text" transform="translate(291.500000, 57.000000) scale(-1, 1) translate(-291.500000, -57.000000) translate(156.000000, 38.000000)" fill="#F98700">
                                    <rect id="Rectangle" x="0" y="0" width="271" height="6"></rect>
                                    <rect id="Rectangle" x="0" y="16" width="271" height="6"></rect>
                                    <rect id="Rectangle" x="0" y="32" width="174" height="6"></rect>
                                </g>
                                <path d="M128.5,37.5 L128.5,78.5" id="Line-3" stroke="#D5D5D5" stroke-linecap="square"></path>
                            </g>
                            <g id="Chatbot---Icon" transform="translate(30.000000, 21.000000)">
                                <g id="Chatbot-/-bkg-/-square">
                                    <g id="ðŸ˜Human/Standing">
                                        <mask id="mask-8" fill="white">
                                            <use xlink:href="#path-7"></use>
                                        </mask>
                                        <use id="Mask" fill="#FFD099" xlink:href="#path-7"></use>
                                        <g id="A-Human/Standing" mask="url(#mask-8)">
                                            <g transform="translate(-52.000000, -5.000000)">
                                                <g id="Head/Front/Long" transform="translate(48.380000, 0.000000)">
                                                    <path d="M43.2352941,16.0961538 C49.3561109,16.0961538 54.506498,20.2510575 56.0199011,25.8943104 C58.0677681,32.7557971 61.1414413,51.4540007 58.3042757,54.2633931 L41.2454522,54.2633931 L41.2375517,54.1002165 C34.8757902,53.1370608 30,47.6452843 30,41.0147059 L30,29.331448 C30,22.0217969 35.925643,16.0961538 43.2352941,16.0961538 Z" id="Hair-Back" fill="#191847"></path>
                                                    <g id="Head" stroke-width="1" transform="translate(31.764706, 18.480769)" fill="#D4A181">
                                                        <path d="M22.4372596,5.44522924 C25.8459718,11.8843595 25.4409282,28.2177475 21.0354714,29.3685997 C19.2785259,29.8275724 15.5356471,28.7032232 11.7263293,26.3761932 L14.1176471,43.5192308 L0,43.5192308 L4.85999183,20.5612204 C2.14954971,17.3368096 0.315085672,13.3852769 0.621633138,8.95748213 C1.50490013,-3.80049303 19.0285474,-0.99390105 22.4372596,5.44522924 Z"></path>
                                                    </g>
                                                    <path d="M42.9420108,16.6923077 C49.7537935,16.6923077 51.9038737,19.9045767 53.7345182,22.6318396 C52.3655031,27.3925236 47.0524306,28.0981358 42.3317708,31.0659257 C41.7762895,30.6071003 41.0668396,30.3325539 40.2941176,30.3325539 C38.507314,30.3325539 37.0588235,31.8005434 37.0588235,33.6114001 C37.0588235,35.4222568 38.507314,36.8902462 40.2941176,36.8902462 L40.4410065,36.8855704 C41.0916519,43.9668315 40.8311651,52.05438 38.892511,53.9740564 L21.8336875,53.9740564 C20.8832205,37.2378467 30.0689816,43.7188563 30.0689816,27.9612802 C30.6416691,27.3941988 31.1828128,26.8329177 31.718279,26.3488661 L31.6993394,25.8854176 C34.6532652,19.7566777 38.4008223,16.6923077 42.9420108,16.6923077 Z" id="Hair-Front" fill="#191847"></path>
                                                </g>
                                                <g id="Bottom/Standing/Skirt" transform="translate(0.000000, 110.619718)">
                                                    <path d="M57.4706168,57.8678596 C71.6243322,61.8263905 83.83573,63.805656 94.1048103,63.805656 C104.373891,63.805656 113.912287,60.7576222 122.72,54.6615547 C108.869302,50.5984831 97.4626355,48.5669473 88.5,48.5669473 C79.5373645,48.5669473 69.1942368,51.6672514 57.4706168,57.8678596 Z" id="Skirt-Shadow" fill="#1F28CF"></path>
                                                    <path d="M106.357433,69.5114232 C106.220957,69.3062699 106.105703,69.0831042 106.014286,68.841363 C104.122396,63.8384805 73.8189621,9.86736501 70.8,0 L104.917392,0 C107.212751,7.50229696 117.543941,54.582787 118.997879,63.9760387 C123.585322,78.7928761 133.03041,126.779203 134.236153,130.103549 C135.504574,133.600705 128.367589,137.243837 126.46575,132.944517 C123.439604,126.103575 116.229203,107.174809 113.01871,95.6170367 C110.00888,84.78165 107.558074,75.0335342 106.357433,69.5114232 Z" id="Leg" fill="#BA8B72"></path>
                                                    <path d="M78.4446665,76.1008241 C64.5904349,79.6021541 13.9145769,85.9319391 10.4369776,86.9247499 C6.85961291,87.9460423 3.72294857,80.5728151 8.14476457,78.9756491 C15.1806204,76.4342884 34.5675879,70.5623657 46.3219764,68.16615 C55.7764947,66.2387792 64.4038586,64.6660472 70.1960435,63.7450726 C69.7053431,47.4759627 67.4622259,8.43259381 68.9324656,1.42108547e-14 L99.12,1.42108547e-14 C97.710139,8.08629045 85.7919663,67.0886931 83.5768038,72.9946669 C82.8738198,75.1031391 80.7762621,76.0349282 78.4446665,76.1008241 L78.4446665,76.1008241 Z" id="Leg" fill="#D4A181"></path>
                                                    <g id="Accessories/Shoe/Flat-Sneaker" transform="translate(14.455000, 92.623431) rotate(80.000000) translate(-14.455000, -92.623431) translate(-3.540000, 80.824268)" fill="#E4E4E4">
                                                        <path d="M1.27120762,16.1195665 C0.817178497,17.4777464 0.590163934,18.5256917 0.590163934,19.2634025 C0.590163934,20.3453742 0.767457563,21.9242401 1.12204482,24 C2.35663151,24 13.45207,24 34.4083602,24 C35.2733536,21.0927044 34.7740292,19.523149 32.9103873,19.2913339 C31.0467453,19.0595188 29.4985862,18.8502083 28.2659101,18.6634025 L13.1885206,11.8298008 C12.685491,11.6018102 12.0928821,11.8247733 11.8648915,12.3278028 C11.8593438,12.3400431 11.8540434,12.3523939 11.8489935,12.3648478 L11.0143553,14.423217 L11.0143553,14.423217 C9.28911023,15.2415913 7.88716951,15.6507784 6.80853313,15.6507784 C6.08156838,15.6507784 5.12484301,15.4031738 3.93835703,14.9079644 L3.93835093,14.9079791 C2.91901283,14.482533 1.7477839,14.9639777 1.32233789,15.9833158 C1.30364718,16.0280974 1.28659247,16.0735444 1.27120762,16.1195665 Z" id="shoe"></path>
                                                    </g>
                                                    <g id="Accessories/Shoe/Flat-Sneaker" transform="translate(122.720000, 117.401674)" fill="#E4E4E4">
                                                        <path d="M1.27120762,16.1195665 C0.817178497,17.4777464 0.590163934,18.5256917 0.590163934,19.2634025 C0.590163934,20.3453742 0.767457563,21.9242401 1.12204482,24 C2.35663151,24 13.45207,24 34.4083602,24 C35.2733536,21.0927044 34.7740292,19.523149 32.9103873,19.2913339 C31.0467453,19.0595188 29.4985862,18.8502083 28.2659101,18.6634025 L13.1885206,11.8298008 C12.685491,11.6018102 12.0928821,11.8247733 11.8648915,12.3278028 C11.8593438,12.3400431 11.8540434,12.3523939 11.8489935,12.3648478 L11.0143553,14.423217 L11.0143553,14.423217 C9.28911023,15.2415913 7.88716951,15.6507784 6.80853313,15.6507784 C6.08156838,15.6507784 5.12484301,15.4031738 3.93835703,14.9079644 L3.93835093,14.9079791 C2.91901283,14.482533 1.7477839,14.9639777 1.32233789,15.9833158 C1.30364718,16.0280974 1.28659247,16.0735444 1.27120762,16.1195665 Z" id="shoe"></path>
                                                    </g>
                                                    <path d="M69.03,2.22044605e-15 C82.3326353,-3.80566614 94.9193019,-3.80566614 106.79,2.22044605e-15 C110.92,18.8417699 120.955275,26.320083 122.72,55.2076508 C102.66,65.1742849 77.88,48.0995584 57.23,57.8190328 C51.33,44.2239169 59.59,11.4832513 69.03,2.22044605e-15 Z" id="Skirt" fill="#2B44FF"></path>
                                                </g>
                                                <g id="Body/Long-Sleeve" transform="translate(12.980000, 48.507042)">
                                                    <path d="M40.0915569,44.1920581 L53.0075966,44.2408385 C38.8448086,76.3143814 31.4601112,93.1075801 30.8535044,94.6204345 C29.4886393,98.0243569 32.3768774,103.208472 33.6120027,105.994376 C29.5892409,107.805853 30.0178705,101.097214 24.9432647,103.473068 C20.3113998,105.641636 16.7879518,109.570937 11.4365012,106.247996 C10.7785718,105.83946 10.0575884,104.301248 11.7995755,103.099216 C16.1395007,100.104517 22.3935958,94.8632548 23.2386226,93.1380527 C24.3909675,90.7854313 30.0086123,74.4700998 40.0915569,44.1920581 L40.0915569,44.1920581 Z M149.639321,32.8341543 C147.029827,35.023373 144.382128,37.445106 144.847061,38.6134538 C145.311993,39.7818016 147.73879,39.347098 148.140814,41.1441162 C148.40883,42.3421284 144.470287,42.5367934 136.325186,41.7281113 L117.428379,49.2673797 L113.25,38.7673673 L136.538728,35.5705524 C141.197418,32.9628606 145.483187,31.1974989 149.396035,30.2744672 C150.497151,30.2421141 152.248815,30.6449355 149.639321,32.8341543 Z" id="Skin" fill="#D4A181"></path>
                                                    <path d="M72.8127864,5.72278644 L82.9462298,5.51678156 C87.4036467,27.889011 102.166506,40.9749473 132.002104,33.4973027 L138.567103,62.235584 C110.608014,68.387985 84.808712,59.1636729 77.0265777,28.7582032 C75.012029,20.8871877 73.2458999,12.66696 72.8127864,5.72278644 Z" id="Clothes-Back" fill="#AFB9C5" transform="translate(105.689945, 34.777288) rotate(5.000000) translate(-105.689945, -34.777288) "></path>
                                                    <path d="M70.4728527,0 L70.4803398,0.009 L85.8031573,3.54088609 C85.8031573,29.7216538 93.9841875,46.5469161 98.3363068,65.7325704 L98.5039062,66.4812834 L57.1226317,66.4811963 C56.5396996,73.2189228 56.1817266,80.1440856 55.9951887,87.2566845 L55.9951887,87.2566845 L25.0103398,87.2566845 C32.0316803,49.6614969 46.8513547,20.5759354 69.4693629,0 L69.4693629,0 L70.4393398,0 L70.4728527,0 Z" id="Clothes" fill="#C5CFD6"></path>
                                                    <path d="M63.6513774,28.6475507 C62.5850973,45.1728294 63.2123324,57.7840737 65.5330829,66.4812834 L65.5330829,66.4812834 L57.1226317,66.4811963 C58.2589085,53.3477242 60.249929,40.9264255 63.4921058,29.2173001 Z" id="Shade" fill-opacity="0.1" fill="#000000"></path>
                                                </g>
                                            </g>
                                        </g>
                                    </g>
                                </g>
                            </g>
                        </g>
                    </g>
                </g>
            </g>
        </g>
    </g>
</svg>