<?xml version="1.0" encoding="UTF-8"?>
<svg width="631px" height="439px" viewBox="0 0 631 439" version="1.1" xmlns="http://www.w3.org/2000/svg" xmlns:xlink="http://www.w3.org/1999/xlink">
    <!-- Generator: Sketch 58 (84663) - https://sketch.com -->
    <title>illustration - be better</title>
    <desc>Created with Sketch.</desc>
    <g id="Page-1" stroke="none" stroke-width="1" fill="none" fill-rule="evenodd">
        <g id="BMC-Helix-Option-3A-V2" transform="translate(-731.000000, -2849.000000)">
            <g id="Be-better-" transform="translate(62.000000, 2735.000000)">
                <g id="illustration---be-better" transform="translate(669.000000, 114.000000)">
                    <path d="M469.263972,124.575993 L464.511972,144.167991 C459.910341,146.679197 454.419518,146.973296 449.575973,144.967991 L441.311974,141.599992 L444.959973,119.999993 L469.263972,124.575993 Z" id="Path" fill="#FBAD83" fill-rule="nonzero"></path>
                    <path d="M445.007973,119.999993 L441.807974,139.031992 C445.410593,137.835312 448.837993,136.164656 451.999973,134.063992 C453.191565,133.279272 454.337426,132.427221 455.431973,131.511992 C457.535973,129.743992 459.247973,126.711992 460.615973,122.951993 L445.007973,119.999993 Z" id="Path" fill="#E68D5C" fill-rule="nonzero"></path>
                    <path d="M321.487981,403.423976 L301.119982,438.623974 L265.255984,438.623974 C265.265225,434.785584 267.761284,431.395994 271.423984,430.247974 L291.311983,424.087975 L310.439981,388.959977 L321.487981,403.423976 Z" id="Path" fill="#19192B" fill-rule="nonzero"></path>
                    <path d="M367.199978,404.727976 L373.295978,438.519974 L324.039943,438.519974 C324.027849,434.321167 326.918241,430.670845 331.00798,429.719974 L351.407979,422.575975 L349.599979,406.303976 L367.199978,404.727976 Z" id="Path" fill="#303D72" fill-rule="nonzero"></path>
                    <path d="M383.487977,289.887983 L323.135981,404.655976 C323.135981,404.655976 310.335982,405.647976 307.823982,400.367976 L305.327982,395.095976 L347.543979,283.287983 L383.487977,289.887983 Z" id="Path" fill="#0CBFD1" fill-rule="nonzero"></path>
                    <path d="M421.679975,270.863984 C421.679975,270.863984 347.719979,262.063984 333.20798,267.783984 C318.695981,273.503984 332.79998,353.975979 344.639979,395.311976 L348.599979,409.383976 C348.599979,409.383976 352.959979,412.023975 361.551978,409.383976 L370.143978,406.743976 C370.143978,406.743976 359.999979,303.407982 361.551978,299.887982 C363.103978,296.367982 371.783978,297.151982 371.783978,297.151982 L421.679975,297.151982 L421.679975,270.863984 Z" id="Path" fill="#60D6E6" fill-rule="nonzero"></path>
                    <path d="M421.287975,270.839984 C421.287975,270.839984 397.127976,267.967984 373.719978,266.575984 L358.015979,297.775982 L361.111978,300.007982 L361.159978,299.839982 C362.719978,296.319982 371.399978,297.103982 371.399978,297.103982 L421.287975,297.103982 L421.287975,270.839984 Z" id="Path" fill="#50CAD3" fill-rule="nonzero"></path>
                    <polyline id="Path" fill="#313154" fill-rule="nonzero" points="245.751985 241.839986 274.671984 241.839986 274.671984 174.10399 245.751985 174.10399 245.751985 241.839986"></polyline>
                    <polyline id="Path" fill="#A9C2DC" fill-rule="nonzero" points="249.375985 241.839986 278.303983 241.839986 278.303983 174.10399 249.375985 174.10399 249.375985 241.839986"></polyline>
                    <rect id="Rectangle" fill="#A9C2DC" fill-rule="nonzero" x="264.551984" y="237.655986" width="49.2639971" height="4.18399975"></rect>
                    <rect id="Rectangle" fill="#313154" fill-rule="nonzero" x="249.375985" y="237.655986" width="31.5359981" height="4.18399975"></rect>
                    <path d="M426.591975,111.943993 C423.391975,111.943993 420.751975,108.559994 420.751975,104.399994 C420.751975,100.239994 423.375975,96.8479942 426.591975,96.8479942 C429.807974,96.8479942 432.439974,100.231994 432.439974,104.399994 C432.439974,108.567994 429.815974,111.943993 426.591975,111.943993 Z M426.591975,97.6479942 C423.815975,97.6479942 421.551975,100.679994 421.551975,104.399994 C421.551975,108.119994 423.815975,111.143993 426.591975,111.143993 C429.367974,111.143993 431.639974,108.119994 431.639974,104.399994 C431.639974,100.679994 429.375974,97.6479942 426.591975,97.6479942 Z" id="Shape" fill="#313154" fill-rule="nonzero"></path>
                    <path d="M429.775974,124.407993 C435.711974,140.207992 452.975973,135.287992 463.311972,128.463992 C464.50219,127.677311 465.647943,126.825341 466.743972,125.911992 C476.079972,118.047993 477.679972,85.1119949 475.823972,78.7119953 C473.967972,72.3119957 454.487973,65.5119961 443.647974,68.6399959 C432.807974,71.7679957 423.119975,106.671994 429.775974,124.407993 Z" id="Path" fill="#FBAD83" fill-rule="nonzero"></path>
                    <path d="M460.799973,127.471992 C467.039926,127.530954 472.544822,123.399823 474.231972,117.391993 C478.007972,103.975994 482.783971,81.3919951 474.231972,75.2959955 C461.823972,66.495996 451.239973,63.9759962 440.327974,68.0959959 C429.415974,72.2159957 428.887974,82.4959951 430.607974,85.8159949 C432.327974,89.1359947 436.079974,86.6879948 437.303974,91.6079945 C437.911974,94.0079944 436.687974,98.9919941 435.287974,103.399994 C434.587164,105.637827 434.830571,108.06479 435.961831,110.11888 C437.093091,112.172969 439.014084,113.676026 441.279974,114.279993 C440.35592,117.346002 440.928977,120.66813 442.826819,123.247371 C444.724661,125.826611 447.725882,127.362062 450.927973,127.391992 L460.799973,127.471992 Z" id="Path" fill="#1A2249" fill-rule="nonzero"></path>
                    <path d="M444.215974,111.495993 C443.671974,115.719993 439.415974,118.983993 437.015974,118.695993 C434.615974,118.407993 435.199974,114.639993 435.735974,110.399993 C436.271974,106.159994 438.607974,102.991994 440.951974,103.295994 C443.295974,103.599994 444.751973,107.271994 444.215974,111.495993 Z" id="Path" fill="#FBAD83" fill-rule="nonzero"></path>
                    <polygon id="Path" fill="#19192B" fill-rule="nonzero" points="547.991967 438.655974 558.103967 438.655974 524.551969 251.511985 514.431969 251.511985"></polygon>
                    <polygon id="Path" fill="#A9C2DC" fill-rule="nonzero" points="553.791967 438.655974 563.903966 438.655974 530.343968 251.511985 520.231969 251.511985"></polygon>
                    <polygon id="Path" fill="#A9C2DC" fill-rule="nonzero" points="426.935975 438.655974 416.815975 438.655974 450.375973 251.511985 460.495973 251.511985"></polygon>
                    <polygon id="Path" fill="#19192B" fill-rule="nonzero" points="431.695974 438.655974 421.583975 438.655974 455.135973 251.511985 465.255972 251.511985"></polygon>
                    <polygon id="Path" fill="#19192B" fill-rule="nonzero" points="203.367988 438.655974 213.487987 438.655974 179.927989 251.511985 169.80799 251.511985"></polygon>
                    <polygon id="Path" fill="#A9C2DC" fill-rule="nonzero" points="209.167988 438.655974 219.287987 438.655974 185.727989 251.511985 175.60799 251.511985"></polygon>
                    <rect id="Rectangle" fill="#FFFFFF" fill-rule="nonzero" x="68.2319959" y="241.839986" width="495.67197" height="9.67199942"></rect>
                    <rect id="Rectangle" fill="#A9C2DC" fill-rule="nonzero" x="68.2319959" y="246.671985" width="495.67197" height="4.83999971"></rect>
                    <rect id="Rectangle" fill="#303D72" fill-rule="nonzero" x="68.2319959" y="241.839986" width="151.047991" height="9.67199942"></rect>
                    <rect id="Rectangle" fill="#19192B" fill-rule="nonzero" x="68.2319959" y="246.671985" width="151.047991" height="4.83999971"></rect>
                    <polygon id="Path" fill="#A9C2DC" fill-rule="nonzero" points="78.3519953 438.655974 68.2319959 438.655974 101.791994 251.511985 111.903993 251.511985"></polygon>
                    <polygon id="Path" fill="#19192B" fill-rule="nonzero" points="83.111995 438.655974 72.9919956 438.655974 106.551994 251.511985 116.671993 251.511985"></polygon>
                    <path d="M337.67998,225.199987 L198.399988,225.199987 C195.70042,225.199987 193.511988,223.011555 193.511988,220.311987 L185.111989,114.399993 C185.116393,111.702252 187.302247,109.516398 189.999989,109.511993 L329.29598,109.511993 C330.592358,109.511993 331.83564,110.026978 332.752318,110.943655 C333.668996,111.860333 334.18398,113.103615 334.18398,114.399993 L342.56798,220.279987 C342.563575,222.977728 340.377721,225.163582 337.67998,225.167987" id="Path" fill="#313154" fill-rule="nonzero"></path>
                    <path d="M341.63998,225.199987 L202.343988,225.199987 C199.64442,225.199987 197.455988,223.011555 197.455988,220.311987 L189.071989,114.399993 C189.071989,113.103615 189.586973,111.860333 190.503651,110.943655 C191.420328,110.026978 192.66361,109.511993 193.959988,109.511993 L333.25598,109.511993 C335.955548,109.511993 338.14398,111.700425 338.14398,114.399993 L346.527979,220.279987 C346.523575,222.977728 344.337721,225.163582 341.63998,225.167987" id="Path" fill="#A9C2DC" fill-rule="nonzero"></path>
                    <path d="M330.51998,111.999993 L197.047988,111.999993 C194.463296,111.999993 192.367989,114.095301 192.367989,116.679993 L200.367989,218.127987 C200.367989,220.717098 202.466877,222.815987 205.055988,222.815987 L338.55198,222.815987 C341.137966,222.811574 343.23198,220.713977 343.23198,218.127987 L335.19998,116.647993 C335.19998,114.063301 333.104673,111.967993 330.51998,111.967993" id="Path" fill="#EEF3F8" fill-rule="nonzero"></path>
                    <rect id="Rectangle" fill="#313154" fill-rule="nonzero" x="421.223975" y="102.447994" width="24.2239986" height="1"></rect>
                    <path d="M465.255972,141.095992 C465.255972,141.095992 456.023973,143.495991 449.559973,142.895991 C443.095974,142.295992 441.311974,141.599992 441.311974,141.599992 C441.311974,141.599992 420.095975,144.447991 411.711975,150.599991 C403.327976,156.751991 395.911976,220.431987 396.351976,231.999986 C396.791976,243.567985 395.727976,278.399983 395.727976,278.399983 L484.743971,278.399983 C484.743971,278.399983 491.775971,163.03999 484.743971,153.599991 C477.711972,144.159991 465.255972,141.095992 465.255972,141.095992 Z" id="Path" fill="#F9C200" fill-rule="nonzero"></path>
                    <path d="M445.943973,278.399983 L432.039974,179.407989 L403.943976,171.87199 C399.287976,193.415988 396.063976,224.295987 396.351976,232.015986 C396.791976,243.599985 395.727976,278.415983 395.727976,278.415983 L445.943973,278.399983 Z" id="Path" fill="#EDB607" fill-rule="nonzero"></path>
                    <rect id="Rectangle" fill="#FFFFFF" fill-rule="nonzero" x="257.615985" y="238.767986" width="71.6799957" height="3.07199982"></rect>
                    <polygon id="Path" fill="#313154" fill-rule="nonzero" points="223.807987 241.839986 257.615985 241.839986 257.615985 238.759986 223.807987 236.271986"></polygon>
                    <polygon id="Path" fill="#5FD6E6" fill-rule="nonzero" points="223.807987 236.271986 295.487982 236.271986 329.29598 238.759986 257.615985 238.759986"></polygon>
                    <path d="M308.287982,230.855986 C308.287982,230.855986 302.007982,224.975987 294.895982,224.151987 C287.783983,223.327987 274.343984,229.399986 272.703984,231.263986 C271.063984,233.127986 272.159984,235.103986 273.647984,236.119986 C275.135984,237.135986 290.135983,238.519986 294.351982,237.991986 C298.567982,237.463986 307.743982,240.751986 307.743982,240.751986 L308.287982,230.855986 Z" id="Path" fill="#FBAD83" fill-rule="nonzero"></path>
                    <path d="M410.111976,152.527991 L362.711978,224.071987 L303.199982,226.887986 C303.199982,226.887986 298.583982,235.015986 303.199982,241.839986 L377.783977,241.839986 L401.423976,209.511988 C410.145497,197.584702 413.967297,182.769858 412.103975,168.11199 L410.111976,152.527991 Z" id="Path" fill="#F9C200" fill-rule="nonzero"></path>
                    <path d="M496.36797,167.37599 L411.767975,167.37599 L401.183976,280.495983 L397.183976,292.703983 L377.727977,305.175982 L460.879973,305.175982 L461.223973,305.063982 L465.391972,305.063982 C477.838261,305.063982 487.927971,294.974272 487.927971,282.527983 L500.31997,171.32799 C500.31997,169.145361 498.5506,167.37599 496.36797,167.37599 Z" id="Path" fill="#A9C2DC" fill-rule="nonzero"></path>
                    <rect id="Rectangle" fill="#303D72" fill-rule="nonzero" x="414.071975" y="308.831982" width="15.2159991" height="129.687992"></rect>
                    <path d="M371.879975,438.655974 L371.879975,438.655974 C371.877855,435.635364 373.0763,432.737743 375.211444,430.601099 C377.346588,428.464454 380.243366,427.263975 383.263977,427.263975 L460.063973,427.263975 C466.3556,427.263975 471.455972,432.364346 471.455972,438.655974 L371.879975,438.655974 Z" id="Path" fill="#303D72" fill-rule="nonzero"></path>
                    <rect id="Rectangle" fill="#303D72" fill-rule="nonzero" x="410.511976" y="305.175982" width="22.3359987" height="14.5119991"></rect>
                    <rect id="Rectangle" fill="#19192B" fill-rule="nonzero" x="414.071975" y="319.687981" width="15.2159991" height="13.3759992"></rect>
                    <path d="M407.815976,171.32799 L395.423976,281.119983 C395.423976,289.956539 388.260533,297.119982 379.423977,297.119982 L360.615979,297.119982 C358.500266,297.215149 356.833923,298.95813 356.833923,301.075982 C356.833923,303.193834 358.500266,304.936815 360.615979,305.031982 L380.799977,305.031982 C393.246266,305.031982 403.335976,294.942272 403.335976,282.495983 L415.727975,171.29599 C415.632809,169.180277 413.889827,167.513934 411.771975,167.513934 C409.654124,167.513934 407.911142,169.180277 407.815976,171.29599 L407.815976,171.32799 Z" id="Path" fill="#303D72" fill-rule="nonzero"></path>
                    <polygon id="Path" fill="#FFFFFF" fill-rule="nonzero" points="203.927988 241.839986 220.215987 241.839986 223.015987 209.599988 201.127988 209.599988"></polygon>
                    <path d="M205.983988,240.231986 L218.151987,240.231986 L219.655987,222.927987 C218.023116,222.382452 216.263447,222.343411 214.607987,222.815987 C211.247987,223.495987 209.687988,222.439987 207.159988,221.655987 C206.095988,221.327987 204.863988,222.655987 204.415988,222.167987 C205.111988,230.199986 205.287988,232.207986 205.983988,240.231986 Z" id="Path" fill="#313154" fill-rule="nonzero"></path>
                    <path d="M496.51197,335.49598 L484.999971,335.49598 C479.35127,335.49598 473.934158,337.741011 469.941423,341.736746 C465.948689,345.732482 463.707727,351.151279 463.711966,356.799979 L463.711966,411.199975 C463.711966,422.957013 473.242934,432.487974 484.999971,432.487974 L497.95197,432.487974 L497.95197,425.287975 L484.999971,425.287975 C477.216792,425.28798 470.904801,418.98315 470.895972,411.199975 L470.895972,356.799979 C470.90038,349.011086 477.211082,342.696804 484.999971,342.68798 L496.51197,342.68798 L496.51197,335.49598 Z" id="Path" fill="#19192B" fill-rule="nonzero"></path>
                    <rect id="Rectangle" fill="#19192B" fill-rule="nonzero" x="515.423969" y="316.695981" width="22.7199986" height="24.8959985" rx="5.46399967"></rect>
                    <rect id="Rectangle" fill="#0CBFD1" fill-rule="nonzero" x="519.527969" y="316.695981" width="22.7199986" height="24.8959985" rx="5.46399967"></rect>
                    <rect id="Rectangle" fill="#303D72" fill-rule="nonzero" x="479.271971" y="326.399981" width="74.6959955" height="112.119993" rx="9.59999943"></rect>
                    <rect id="Rectangle" fill="#60D6E6" fill-rule="nonzero" x="496.51197" y="326.399981" width="74.6959955" height="112.119993" rx="9.59999943"></rect>
                    <path d="M496.51197,397.207976 L496.51197,428.919974 C496.51197,434.221908 500.810037,438.519974 506.11197,438.519974 L561.599967,438.519974 C566.9019,438.519974 571.199966,434.221908 571.199966,428.919974 L571.199966,409.991976 L496.51197,397.207976 Z" id="Path" fill="#0CBFD1" fill-rule="nonzero"></path>
                    <path d="M554.247967,430.399974 L513.447969,430.399974 C508.146036,430.399974 503.84797,426.101908 503.84797,420.799975 L503.84797,363.263978 L554.247967,363.263978 C559.5499,363.263978 563.84797,367.562044 563.84797,372.863978 L563.84797,420.799975 C563.84797,426.101908 559.5499,430.399974 554.247967,430.399974 Z" id="Path" fill="#19192B" fill-rule="nonzero"></path>
                    <path d="M557.479967,430.399974 L516.679969,430.399974 C511.378036,430.399974 507.07997,426.101908 507.07997,420.799975 L507.07997,363.263978 L567.07997,363.263978 L567.07997,420.799975 C567.07997,426.101908 562.7819,430.399974 557.479967,430.399974 Z" id="Path" fill="#303D72" fill-rule="nonzero"></path>
                    <rect id="Rectangle" fill="#19192B" fill-rule="nonzero" x="503.87197" y="334.65598" width="59.9759964" height="24.8959985" rx="5.46399967"></rect>
                    <rect id="Rectangle" fill="#303D72" fill-rule="nonzero" x="507.10397" y="334.65598" width="59.9759964" height="24.8959985" rx="5.46399967"></rect>
                    <path d="M442.399974,109.847993 C442.751974,111.495993 440.871974,113.423993 439.519974,113.711993 C438.167974,113.999993 441.071974,111.743993 440.719974,110.095993 C440.367974,108.447994 437.983974,107.655994 439.327974,107.375994 C440.671974,107.095994 442.063974,108.191994 442.399974,109.847993 Z" id="Path" fill="#E68D5C" fill-rule="nonzero"></path>
                    <rect id="Rectangle" fill="#19192B" fill-rule="nonzero" x="0" y="438.119974" width="630.231962" height="1"></rect>
                    <path d="M161.13599,343.32798 L154.399991,368.047978 L194.703988,380.439977 C196.123206,375.824145 194.502067,370.813645 190.647989,367.903978 L176.359989,357.095979 L178.695989,343.19998 L161.13599,343.32798 Z" id="Path" fill="#19192B" fill-rule="nonzero"></path>
                    <path d="M83.911995,410.335976 L79.5679953,438.519974 L120.631993,438.519974 C120.631993,434.663608 118.236755,431.212868 114.623993,429.863974 L100.103994,424.431975 L101.343994,413.943975 L83.911995,410.335976 Z" id="Path" fill="#303D72" fill-rule="nonzero"></path>
                    <path d="M148.455991,200.471988 C148.455991,200.471988 201.319988,220.999987 202.855988,230.207986 C204.391988,239.415986 179.887989,345.167979 179.887989,345.167979 L159.279991,344.239979 C159.279991,344.239979 168.79999,259.631985 166.99999,251.087985 C165.19999,242.543986 109.223993,246.759985 103.583994,229.415986 C97.9439942,212.071987 99.6639941,192.959988 99.6639941,192.959988 L148.455991,200.471988 Z" id="Path" fill="#19192B" fill-rule="nonzero"></path>
                    <path d="M123.863993,241.247986 L110.263993,194.599988 L148.415991,200.471988 C148.415991,200.471988 155.791991,203.367988 167.28799,208.327988 L123.863993,241.247986 Z" id="Path" fill="#303D72" fill-rule="nonzero"></path>
                    <path d="M123.623993,203.687988 C123.623993,203.687988 124.367993,297.791982 124.343993,307.135982 C124.319993,316.479981 102.303994,415.503975 102.303994,415.503975 L80.7999952,413.639975 C80.7999952,413.639975 93.4639944,314.031981 93.1759944,305.311982 C92.8879945,296.591982 77.1199954,242.663986 74.4959956,224.615987 C71.8719957,206.567988 76.7999954,187.999989 76.7999954,187.999989 L94.8159943,194.031988 L123.623993,203.687988 Z" id="Path" fill="#303D72" fill-rule="nonzero"></path>
                    <path d="M94.8319943,201.991988 L75.0399955,196.991988 C73.9439956,204.071988 73.0159956,214.415987 74.4959956,224.615987 C77.1199954,242.663986 92.8959945,296.615982 93.1839944,305.311982 L106.087994,275.471984 L94.8319943,201.991988 Z" id="Path" fill="#27345E" fill-rule="nonzero"></path>
                    <path d="M151.087991,194.967988 L153.207991,202.407988 C153.207991,202.407988 119.255993,224.519987 77.2959954,210.055987 L71.0959958,207.999988 L72.4399957,197.047988 L151.087991,194.967988 Z" id="Path" fill="#F0F1F4" fill-rule="nonzero"></path>
                    <path d="M146.127991,96.1359943 L153.719991,141.543992 L221.223987,149.351991 L221.223987,162.39999 C221.223987,162.39999 166.38399,166.47199 153.423991,162.59999 C140.463992,158.727991 131.999992,153.383991 129.079992,129.871992 C126.159992,106.359994 146.127991,96.1359943 146.127991,96.1359943 Z" id="Path" fill="#0CBFD1" fill-rule="nonzero"></path>
                    <path d="M104.679994,82.1199951 L80.1679952,88.1839947 C73.9978572,89.7115815 69.660004,95.2435814 69.6479958,101.599994 L69.6479958,201.111988 C80.2639952,205.343988 102.583994,212.399987 129.175992,206.711988 C137.611552,204.888643 145.766153,201.948036 153.423991,197.967988 C150.943991,163.56799 148.783991,131.991992 146.351991,98.0319942 C145.96479,92.5858165 142.337962,87.9078721 137.159992,86.1759949 L125.959992,82.4399951 L104.679994,82.1199951 Z" id="Path" fill="#60D6E6" fill-rule="nonzero"></path>
                    <path d="M104.679994,82.1199951 C104.679994,82.1199951 111.815993,94.2399944 121.047993,92.4479945 C130.279992,90.6559946 125.991992,82.3999951 125.991992,82.3999951 L104.679994,82.1199951 Z" id="Path" fill="#FFFFFF" fill-rule="nonzero"></path>
                    <path d="M104.679994,54.7999967 L104.679994,82.1199951 C104.679994,82.1199951 109.271993,86.0159949 117.343993,85.5439949 C124.807993,85.1119949 125.991992,82.4079951 125.991992,82.4079951 L129.079992,68.2399959 L104.679994,54.7999967" id="Path" fill="#FBAD83" fill-rule="nonzero"></path>
                    <path d="M126.519992,79.9999952 C123.529997,78.7802661 120.741248,77.1161867 118.247993,75.0639955 C114.49935,72.1630858 111.695706,68.2151544 110.191993,63.7199962 L126.567992,66.839996 L129.079992,68.2239959 L126.519992,79.9999952" id="Path" fill="#E68D5C" fill-rule="nonzero"></path>
                    <rect id="Rectangle" fill="#1A2249" fill-rule="nonzero" x="133.223992" y="38.8799977" width="13.8639992" height="1"></rect>
                    <path d="M142.959991,19.7519988 C142.959991,19.7519988 145.311991,25.5679985 145.311991,30.6639982 C145.311991,34.7599979 143.663991,42.5119975 143.663991,42.5119975 L134.231992,18.3999989 L142.959991,19.7519988 Z" id="Path" fill="#7A4029" fill-rule="nonzero"></path>
                    <path d="M142.399992,65.8799961 C134.935992,81.5679951 116.423993,72.2799957 108.487994,64.3839962 C100.551994,56.4879966 101.655994,26.2239984 103.855994,20.5039988 C106.055994,14.7839991 124.375993,10.1039994 134.039992,13.8239992 C143.703991,17.543999 149.847991,50.183997 142.399992,65.8799961" id="Path" fill="#FBAD83" fill-rule="nonzero"></path>
                    <path d="M145.311991,54.8159967 C144.9373,58.6356431 143.954222,62.3707996 142.399992,65.8799961 C139.423992,72.1199957 134.703992,74.3999956 129.599992,74.3999956 L129.599992,74.3999956 C134.703992,74.3999956 139.423992,72.1119957 142.399992,65.8719961 C143.959811,62.3670597 144.945736,58.6340524 145.319991,54.8159967 L145.319991,54.8159967" id="Path" fill="#D7C5BE" fill-rule="nonzero"></path>
                    <path d="M110.767993,42.5119975 L102.399994,42.5119975 C102.911994,51.4959969 104.631994,60.5599964 108.471994,64.3839962 C113.271993,69.1839959 121.863993,74.4079956 129.591992,74.4079956 C134.687992,74.4079956 139.407992,72.1199957 142.391992,65.8799961 C143.948976,62.3712627 144.934759,58.6360891 145.311991,54.8159967 C143.903991,53.8719968 142.631991,53.4479968 139.783992,53.4479968 C139.279992,53.4479968 138.719992,53.4479968 138.103992,53.4479968 C131.455992,53.7279968 126.191992,58.5359965 122.231993,58.5359965 C121.836894,58.5406443 121.443287,58.4867255 121.063993,58.3759965 C116.263993,56.9839966 110.767993,42.4719975 110.767993,42.4719975" id="Path" fill="#D48C68" fill-rule="nonzero"></path>
                    <path d="M104.911994,44.4319974 C107.621263,44.1802111 110.11259,42.8404334 111.816393,40.7189735 C113.520195,38.5975136 114.290788,35.8757669 113.951993,33.175998 C113.527993,29.7759982 112.527993,28.6879983 113.415993,25.4639985 C115.175993,19.0639989 122.871993,19.6479988 128.071992,22.0399987 C133.271992,24.4319985 138.935992,24.4399985 143.399991,21.0479987 C146.699637,18.4807233 147.525181,13.8348789 145.311991,10.2879994 C142.399992,5.59999967 132.119992,0 132.119992,0 C132.119992,0 133.367992,2.80799983 132.919992,4.26399975 C132.471992,5.71999966 105.167994,-2.49599985 99.5599941,9.66399942 C93.9519944,21.8239987 101.423994,44.7519973 101.423994,44.7519973 L104.911994,44.4319974 Z" id="Path" fill="#7A4029" fill-rule="nonzero"></path>
                    <path d="M100.111994,44.5919973 C100.111994,48.6399971 105.487994,52.2319969 108.783994,52.2319969 C112.079993,52.2319969 112.063994,48.6399971 112.063994,44.5919973 C112.063994,40.5439976 109.383993,37.2639978 106.087994,37.2639978 C102.791994,37.2639978 100.111994,40.5439976 100.111994,44.5919973 Z" id="Path" fill="#FBAD83" fill-rule="nonzero"></path>
                    <path d="M102.575994,44.2319974 C102.191994,46.0399973 104.255994,48.1599971 105.735994,48.4719971 C107.215994,48.7839971 104.039994,46.3119972 104.423994,44.4719973 C104.807994,42.6319975 107.423994,41.8079975 105.943994,41.4879975 C104.463994,41.1679975 102.959994,42.3999975 102.575994,44.2319974 Z" id="Path" fill="#E68D5C" fill-rule="nonzero"></path>
                    <path d="M141.943992,47.9039971 C138.887992,47.9039971 136.399992,44.7039973 136.399992,40.7039976 C136.399992,36.7039978 138.887992,33.599998 141.943992,33.599998 C144.999991,33.599998 147.487991,36.7999978 147.487991,40.7519976 C147.487991,44.7039973 145.007991,47.9039971 141.943992,47.9039971 Z M141.943992,34.391998 C139.327992,34.391998 137.199992,37.2399978 137.199992,40.7439976 C137.199992,44.2479974 139.327992,47.1439972 141.943992,47.1439972 C144.559991,47.1439972 146.687991,44.2879974 146.687991,40.7439976 C146.687991,37.1999978 144.559991,34.3999979 141.943992,34.3999979 L141.943992,34.391998 Z" id="Shape" fill="#1A2249" fill-rule="nonzero"></path>
                    <path d="M129.079992,47.9039971 C126.023992,47.9039971 123.535993,44.7039973 123.535993,40.7039976 C123.535993,36.7039978 126.023992,33.599998 129.079992,33.599998 C132.135992,33.599998 134.631992,36.7999978 134.631992,40.7519976 C134.631992,44.7039973 132.143992,47.9039971 129.079992,47.9039971 Z M129.079992,34.391998 C126.463992,34.391998 124.335993,37.2399978 124.335993,40.7439976 C124.335993,44.2479974 126.463992,47.1439972 129.079992,47.1439972 C131.695992,47.1439972 133.831992,44.2879974 133.831992,40.7439976 C133.831992,37.1999978 131.695992,34.3999979 129.079992,34.3999979 L129.079992,34.391998 Z" id="Shape" fill="#1A2249" fill-rule="nonzero"></path>
                    <rect id="Rectangle" fill="#1A2249" fill-rule="nonzero" x="111.255993" y="38.8799977" width="12.8079992" height="1"></rect>
                    <rect id="Rectangle" fill="#1A2249" fill-rule="nonzero" x="134.231992" y="38.8799977" width="2.57599985" height="1"></rect>
                    <path d="M141.871992,57.4959966 L130.247992,57.4959966 C130.247992,57.4959966 132.599992,62.9999962 136.519992,63.1519962 C140.439992,63.3039962 141.871992,57.4959966 141.871992,57.4959966 Z" id="Path" fill="#FFFFFF" fill-rule="nonzero"></path>
                    <path d="M90.4399946,111.543993 L69.6399958,113.887993 L69.6399958,201.087988 C80.3165493,205.366207 91.6083333,207.910302 103.087994,208.623988 L90.4399946,111.543993 Z" id="Path" fill="#50CAD3"></path>
                    <path d="M71.9279957,244.599985 C71.9279957,244.599985 70.9679958,260.663984 69.6479958,266.463984 C68.3279959,272.263984 73.9279956,275.263984 78.7279953,275.463984 C83.527995,275.663984 87.1999948,259.151985 87.4639948,251.511985 C87.7279948,243.871985 84.351995,240.311986 84.351995,240.311986 L71.9279957,244.599985 Z" id="Path" fill="#FBAD83" fill-rule="nonzero"></path>
                    <path d="M71.0959958,95.4639943 L48.9119971,150.855991 C45.8594593,159.727973 45.8200902,169.359349 48.7999971,178.255989 L71.1279958,245.271985 C71.1279958,245.271985 81.6079951,248.423985 84.383995,245.271985 L87.1599948,242.127986 L69.6479958,163.09599 C69.6479958,163.09599 92.4559945,122.151993 90.5919946,105.831994 C88.7279947,89.5119947 71.0959958,95.4639943 71.0959958,95.4639943 Z" id="Path" fill="#60D6E6" fill-rule="nonzero"></path>
                    <polygon id="Path" fill="#0091DD" points="201.047988 120.015993 201.847988 127.471992 289.047983 127.471992 288.047983 120.015993"></polygon>
                    <polygon id="Path" fill="#0091DD" points="201.047988 156.031991 201.775988 162.79999 280.911983 162.79999 280.007983 156.031991"></polygon>
                    <polygon id="Path" fill="#0091DD" points="202.943988 170.71999 203.671988 177.487989 282.815983 177.487989 281.903983 170.71999"></polygon>
                    <polygon id="Path" fill="#0091DD" points="205.111988 186.095989 205.839988 192.871989 284.983983 192.871989 284.071983 186.095989"></polygon>
                    <polygon id="Path" fill="#0091DD" points="202.943988 135.527992 203.943988 144.847991 312.847981 144.847991 311.599981 135.527992"></polygon>
                    <polygon id="Path" fill="#FFFFFF" fill-rule="nonzero" points="216.871987 179.407989 174.17599 179.407989 198.015988 131.511992 240.711986 131.511992"></polygon>
                    <path d="M235.807986,154.295991 C235.738913,153.025405 235.119216,151.848103 234.110918,151.071898 C233.102619,150.295692 231.80597,149.997758 230.559986,150.255991 C227.167193,150.913776 224.034889,152.532688 221.535987,154.919991 C215.991987,160.46399 217.967987,164.96799 220.327987,167.80799 C222.687987,170.64799 227.199986,169.22399 232.487986,166.64799 C235.815986,165.02399 236.071986,158.719991 235.807986,154.295991 Z" id="Path" fill="#FBAD82"></path>
                    <polygon id="Path" fill="#3980B2" points="287.775983 155.463991 293.455983 212.263987 331.77598 212.263987 327.031981 155.463991"></polygon>
                </g>
            </g>
        </g>
    </g>
</svg>