<?xml version="1.0" encoding="UTF-8"?>
<svg width="638px" height="453px" viewBox="0 0 638 453" version="1.1" xmlns="http://www.w3.org/2000/svg" xmlns:xlink="http://www.w3.org/1999/xlink">
    <!-- Generator: Sketch 58 (84663) - https://sketch.com -->
    <title>illustration - hero</title>
    <desc>Created with Sketch.</desc>
    <g id="Page-1" stroke="none" stroke-width="1" fill="none" fill-rule="evenodd">
        <g id="BMC-Helix-Option-3A-V2" transform="translate(-744.000000, -227.000000)">
            <g id="Hero" transform="translate(58.000000, 176.000000)">
                <g id="illustration---hero" transform="translate(686.000000, 51.000000)">
                    <path d="M447.455973,420.879975 L444.487974,452.319973 L401.599976,452.319973 C401.599976,447.680127 404.618008,443.579671 409.047976,442.199974 L430.191974,435.607974 L432.591974,420.879975 L447.455973,420.879975 Z" id="Path" fill="#0CBFD1"></path>
                    <path d="M502.96797,418.903975 L509.15997,452.319973 L465.095972,452.319973 C465.102953,447.765432 468.072655,443.745311 472.423972,442.399974 L490.823971,436.639974 L489.087971,420.919975 L502.96797,418.903975 Z" id="Path" fill="#0CBFD1"></path>
                    <path d="M431.791974,277.807983 L427.247975,323.103981 L431.791974,422.399975 C431.791974,422.399975 440.175974,425.671975 444.839973,424.159975 L449.503973,422.647975 L452.567973,326.983981 L469.599972,276.319984 L431.791974,277.807983 Z" id="Path" fill="#60D6E6"></path>
                    <path d="M458.959973,282.623983 L463.615972,327.91198 L487.999971,424.239975 C487.999971,424.239975 496.87197,425.759975 501.13597,423.343975 L505.39997,420.943975 L489.183971,326.599984 L495.67997,273.599984 L458.959973,282.623983 Z" id="Path" fill="#60D6E6"></path>
                    <path d="M436.799974,108.695994 L422.447975,165.99999 L383.775977,182.503989 C383.775977,182.503989 384.831977,188.711989 388.047977,190.735989 C388.047977,190.735989 430.247974,177.303989 436.775977,173.59199 C443.303974,169.87999 436.799974,108.695994 436.799974,108.695994 Z" id="Path" fill="#F89900" fill-rule="nonzero"></path>
                    <path d="M469.599972,95.1999943 L499.27997,106.735994 L501.67997,214.815987 L428.927974,209.391988 L436.439974,110.991993 C436.883728,105.361689 440.401665,100.437194 445.583973,98.1919941 L450.663973,95.9919943 L469.599972,95.1999943 Z" id="Path" fill="#F9C200" fill-rule="nonzero"></path>
                    <path d="M318.791981,424.407975 L319.487981,452.319973 L279.383983,452.319973 C279.38469,449.18394 281.309588,446.369651 284.231983,445.231973 L306.399982,436.599974 L304.799982,425.175975 L318.791981,424.407975 Z" id="Path" fill="#1A2249"></path>
                    <path d="M344.799979,420.879975 L344.799979,452.319973 L304.687982,452.319973 C304.688689,449.18394 306.613586,446.369651 309.535982,445.231973 L331.67198,436.599974 L331.19998,422.399975 L344.799979,420.879975 Z" id="Path" fill="#303D72"></path>
                    <path d="M352.711979,229.783986 C352.711979,229.783986 344.183979,308.495982 340.47998,322.855981 L346.599979,422.399975 C346.599979,422.399975 337.47198,426.359975 331.15998,422.399975 C331.15998,422.399975 314.751981,337.87198 315.063981,326.575981 C315.375981,315.279981 322.263981,237.159986 322.263981,237.159986 L352.711979,229.783986 Z" id="Path" fill="#303D72"></path>
                    <path d="M308.287982,231.415986 C308.287982,231.415986 307.151982,310.615981 304.807982,325.231981 L320.199981,423.735975 C320.199981,423.735975 311.487981,428.535974 304.831982,425.175975 C304.831982,425.175975 280.591983,342.55198 279.855983,331.27198 C279.119983,319.991981 278.671983,241.599986 278.671983,241.599986 L308.287982,231.415986 Z" id="Path" fill="#303D72"></path>
                    <polygon id="Path" fill="#0CBFD1" points="292.551983 102.367994 270.903984 165.99999 239.335986 179.031989 242.311986 189.223989 286.863983 178.663989"></polygon>
                    <path d="M326.399981,95.0959943 L345.599979,101.023994 C352.18476,103.05849 356.792362,108.996254 357.127979,115.879993 L363.135978,238.207986 L276.471984,235.999986 L291.671983,105.471994 C292.184264,101.078867 295.244343,97.4036331 299.471984,96.1039943 L307.095982,93.7599944 L326.399981,95.0959943 Z" id="Path" fill="#60D6E6"></path>
                    <polygon id="Path" fill="#50CAD3" points="282.951983 182.687989 277.455983 229.783986 362.951978 229.783986 359.687979 163.40799 341.44798 124.839993 343.87998 155.023991 305.847982 176.471989"></polygon>
                    <polygon id="Path" fill="#EDB607" fill-rule="nonzero" points="428.911974 202.127988 501.66397 214.831987 499.80797 131.439992 488.159971 124.839993 479.103971 180.479989 430.879974 183.591989"></polygon>
                    <path d="M162.10399,420.879975 L162.10399,452.319973 L206.399988,452.319973 C206.398891,448.103567 203.524506,444.430558 199.431988,443.415974 L180.407989,438.703974 L179.431989,422.399975 L162.10399,420.879975 Z" id="Path" fill="#1A2249" fill-rule="nonzero"></path>
                    <path d="M180.487989,247.199985 L188.343989,322.399981 L182.399989,423.855975 C182.399989,423.855975 173.67999,432.271974 159.73599,423.855975 L158.399991,326.543981 L130.095992,269.879984 L180.487989,247.199985 Z" id="Path" fill="#1A2249" fill-rule="nonzero"></path>
                    <path d="M97.9919942,225.079987 C97.9919942,225.079987 93.4159944,267.039984 95.3919943,296.743982 C97.3679942,326.447981 99.5999941,330.52798 99.5999941,330.52798 L90.3199946,424.839975 C90.3199946,424.839975 98.4879941,428.927974 104.055994,427.815975 L109.655993,426.703975 L129.327992,329.41598 L147.151991,230.647986 L97.9919942,225.079987 Z" id="Path" fill="#303D72" fill-rule="nonzero"></path>
                    <path d="M127.999992,228.463986 L98.1199942,225.079987 C98.1199942,225.079987 93.5519944,267.039984 95.5279943,296.743982 C97.5039942,326.447981 99.7359941,330.52798 99.7359941,330.52798 L99.2879941,335.13598 L129.063992,331.19998 L129.423992,329.41598 L145.247991,241.727986 L127.999992,228.463986 Z" id="Path" fill="#27345E" fill-rule="nonzero"></path>
                    <path d="M160.54399,87.1999948 L185.215989,97.2719942 L193.791988,230.247986 C193.791988,230.247986 124.479993,251.047985 90.3199946,225.295987 L102.959994,109.711993 C103.711596,102.87524 108.261091,97.0497794 114.711993,94.6639944 L137.727992,87.4639948 L160.54399,87.1999948 Z" id="Path" fill="#F0F1F4"></path>
                    <path d="M193.791988,230.279986 L190.591989,181.015989 L126.191992,181.015989 L120.519993,133.815992 L100.439994,132.799992 L90.3199946,225.327987 C124.479993,251.071985 193.791988,230.279986 193.791988,230.279986 Z" id="Path" fill="#E2E2E2"></path>
                    <polygon id="Path" fill="#3980B2" points="528.607968 315.247981 107.567994 315.247981 107.567994 189.223989 222.431987 189.223989 528.607968 189.223989"></polygon>
                    <polygon id="Path" fill="#FC7A00" points="222.431987 189.223989 279.383983 315.247981 107.567994 315.247981 107.567994 189.223989"></polygon>
                    <path d="M135.439992,290.679983 L135.439992,213.823987 L136.023992,214.135987 L204.823988,250.543985 L135.439992,290.679983 Z M136.239992,215.151987 L136.239992,289.295983 L203.199988,250.575985 L136.239992,215.151987 Z" id="Shape" fill="#FFFFFF" fill-rule="nonzero"></path>
                    <path d="M356.943979,290.399983 L280.647983,290.399983 L280.647983,214.087987 L356.943979,214.087987 L356.943979,290.399983 Z M281.447983,289.599983 L356.143979,289.599983 L356.143979,214.887987 L281.447983,214.887987 L281.447983,289.599983 Z" id="Shape" fill="#FFFFFF" fill-rule="nonzero"></path>
                    <path d="M463.911972,290.399983 C448.480202,290.399983 434.568093,281.103681 428.663358,266.846274 C422.758622,252.588867 426.024212,236.178385 436.937266,225.26762 C447.850319,214.356855 464.261486,211.094707 478.517654,217.002432 C492.773822,222.910157 502.067206,236.824215 502.063971,252.255985 C502.037515,273.314488 484.970481,290.377944 463.911972,290.399983 Z M463.911972,214.903987 C448.804499,214.903987 435.184606,224.004509 429.403226,237.961994 C423.621847,251.919479 426.817525,267.985239 437.500121,278.667836 C448.182718,289.350432 464.248478,292.546111 478.205963,286.764731 C492.163448,280.983352 501.26397,267.363458 501.26397,252.255985 C501.255149,231.628111 484.539841,214.905642 463.911972,214.887987 L463.911972,214.903987 Z" id="Shape" fill="#FFFFFF" fill-rule="nonzero"></path>
                    <path d="M137.727992,58.3999965 L137.727992,87.5119948 C137.727992,87.5119948 142.615991,91.6639945 151.215991,91.1679946 C159.167991,90.7039946 160.43999,87.8239948 160.43999,87.8239948 L163.727992,72.7279957 L137.727992,58.3999965" id="Path" fill="#FBAD83" fill-rule="nonzero"></path>
                    <path d="M160.99199,85.2639949 C157.811982,83.9626002 154.845541,82.1908259 152.191991,80.0079952 C148.193135,76.919377 145.202512,72.7118996 143.599991,67.919996 L161.04799,71.2399958 L163.72799,72.7199957 L160.99199,85.2639949" id="Path" fill="#E68D5C" fill-rule="nonzero"></path>
                    <rect id="Rectangle" fill="#1A2249" fill-rule="nonzero" x="168.14399" y="41.4559975" width="14.7759991" height="1"></rect>
                    <path d="M178.511989,21.0479987 C178.511989,21.0479987 181.023989,27.2479984 181.023989,32.6719981 C181.023989,37.0399978 179.263989,45.3039973 179.263989,45.3039973 L169.20799,19.6319988 L178.511989,21.0479987 Z" id="Path" fill="#1A2249" fill-rule="nonzero"></path>
                    <path d="M177.903989,70.1999958 C169.95199,86.9199948 150.223991,77.0399954 141.775992,68.5999959 C133.327992,60.1599964 134.495992,27.9439983 136.831992,21.8399987 C139.167992,15.7359991 158.695991,10.7839994 168.99999,14.7199991 C179.303989,18.6559989 185.855989,53.4639968 177.903989,70.1919958" id="Path" fill="#FBAD83" fill-rule="nonzero"></path>
                    <path d="M181.015989,58.3999965 C180.617103,62.4694297 179.566354,66.4482307 177.903989,70.1839958 C174.74399,76.8319954 169.71999,79.2719953 164.30399,79.2799953 L164.30399,79.2799953 C169.74399,79.2799953 174.76799,76.8319954 177.903989,70.1839958 C179.566361,66.4477282 180.619697,62.4693605 181.023989,58.3999965 L181.023989,58.3999965" id="Path" fill="#DCDDE3" fill-rule="nonzero"></path>
                    <path d="M144.207991,45.3039973 L135.311992,45.3039973 C135.855992,54.9039967 137.711992,64.5039962 141.783992,68.6079959 C146.871991,73.6879956 156.047991,79.2959953 164.28799,79.2959953 C169.71999,79.2959953 174.74399,76.8479954 177.887989,70.1999958 C179.557517,66.4601451 180.613713,62.4757762 181.015989,58.3999965 C179.519989,57.3839966 178.159989,56.9359966 175.13599,56.9359966 C174.59199,56.9359966 173.99999,56.9359966 173.34399,56.9359966 C166.25599,57.2399966 160.63999,62.3679963 156.423991,62.3679963 C156.001624,62.3706549 155.58115,62.3113573 155.175991,62.1919963 C150.111991,60.7119964 144.207991,45.2479973 144.207991,45.2479973" id="Path" fill="#D8987A" fill-rule="nonzero"></path>
                    <path d="M137.975992,47.3439972 C140.857582,47.0661286 143.504016,45.63377 145.312481,43.3731891 C147.120946,41.1126081 147.937444,38.2163006 147.575991,35.3439979 C147.119991,31.7119981 146.055991,30.5439982 146.999991,27.1199984 C148.871991,20.2799988 157.079991,20.9199988 162.61599,23.4639986 C168.15199,26.0079984 174.19199,26.0159984 178.951989,22.4159987 C182.467613,19.6810536 183.348316,14.7318483 180.991989,10.9519993 C177.935989,5.98399964 166.96799,0 166.96799,0 C166.96799,0 168.29599,2.99199982 167.85599,4.54399973 C167.41599,6.09599964 138.255992,-2.65599984 132.295992,10.3039994 C126.335992,23.2639986 134.287992,47.6879972 134.287992,47.6879972 L137.975992,47.3439972 Z" id="Path" fill="#1A2249" fill-rule="nonzero"></path>
                    <path d="M132.847992,47.5199972 C132.847992,51.8319969 138.583992,55.6559967 142.103992,55.6559967 C145.623991,55.6559967 145.599994,51.8319969 145.599994,47.5199972 C145.599994,43.2079974 142.743991,39.7119976 139.199992,39.7119976 C135.655992,39.7119976 132.847992,43.1999974 132.847992,47.5199972 Z" id="Path" fill="#FBAD83" fill-rule="nonzero"></path>
                    <path d="M135.479992,47.1279972 C135.071992,49.0639971 137.271992,51.3199969 138.847992,51.6559969 C140.423992,51.9919969 137.039992,49.3519971 137.447992,47.4159972 C137.855992,45.4799973 140.647992,44.5759973 139.047992,44.2159974 C137.447992,43.8559974 135.887992,45.1999973 135.479992,47.1279972 Z" id="Path" fill="#E68D5C" fill-rule="nonzero"></path>
                    <path d="M177.431989,51.015997 C174.23199,51.015997 171.55199,47.6079972 171.55199,43.4159974 C171.55199,39.2239977 174.19199,35.8239979 177.431989,35.8239979 C180.671989,35.8239979 183.319989,39.2319977 183.319989,43.4159974 C183.319989,47.5999972 180.679989,51.015997 177.431989,51.015997 Z M177.431989,36.6159978 C174.63199,36.6159978 172.35199,39.6639976 172.35199,43.4079974 C172.35199,47.1519972 174.63199,50.207997 177.431989,50.207997 C180.231989,50.207997 182.519989,47.1599972 182.519989,43.4079974 C182.519989,39.6559976 180.239989,36.6239978 177.431989,36.6239978 L177.431989,36.6159978 Z" id="Shape" fill="#1A2249" fill-rule="nonzero"></path>
                    <path d="M163.72799,51.015997 C160.47999,51.015997 157.847991,47.6079972 157.847991,43.4159974 C157.847991,39.2239977 160.47999,35.8239979 163.72799,35.8239979 C166.97599,35.8239979 169.59999,39.1999977 169.59999,43.4159974 C169.59999,47.6319972 166.96799,51.015997 163.72799,51.015997 Z M163.72799,36.6159978 C160.92799,36.6159978 158.647991,39.6639976 158.647991,43.4079974 C158.647991,47.1519972 160.92799,50.207997 163.72799,50.207997 C166.52799,50.207997 168.79999,47.1999972 168.79999,43.4159974 C168.79999,39.6319976 166.52799,36.6239978 163.72799,36.6239978 L163.72799,36.6159978 Z" id="Shape" fill="#1A2249" fill-rule="nonzero"></path>
                    <rect id="Rectangle" fill="#1A2249" fill-rule="nonzero" x="144.727991" y="41.4559975" width="13.6479992" height="1"></rect>
                    <rect id="Rectangle" fill="#1A2249" fill-rule="nonzero" x="169.20799" y="41.4559975" width="2.74399984" height="1"></rect>
                    <path d="M174.91199,62.2959963 L161.36799,62.2959963 C161.36799,62.2959963 164.11199,68.1599959 168.67999,68.3279959 C173.24799,68.4959959 174.91199,62.2959963 174.91199,62.2959963 Z" id="Path" fill="#FFFFFF" fill-rule="nonzero"></path>
                    <path d="M180.479989,62.5519963 L159.67999,62.5519963 C159.67999,62.5519963 159.99999,58.2239965 163.58399,56.5359966 C167.16799,54.8479967 171.04799,56.9679966 172.27199,56.8959966 C173.49599,56.8239966 176.839989,54.6479967 178.751989,55.6159967 C180.663989,56.5839966 180.479989,62.5519963 180.479989,62.5519963 Z" id="Path" fill="#1A2249" fill-rule="nonzero"></path>
                    <path d="M98.9839941,244.199985 C98.9839941,244.199985 101.767994,263.695984 102.879994,267.039984 C103.991994,270.383984 107.679994,273.159984 112.167993,273.159984 C116.655993,273.159984 117.551993,261.839984 115.879993,254.039985 C114.207993,246.239985 115.135993,244.199985 115.135993,244.199985 C115.135993,244.199985 118.663993,249.399985 120.887993,250.887985 C123.111993,252.375985 126.215992,250.975985 126.215992,250.975985 C126.215992,250.975985 120.519993,241.599986 116.991993,238.975986 C113.463993,236.351986 108.263994,235.999986 108.263994,235.999986 L98.9839941,244.199985 Z" id="Path" fill="#FBAD83"></path>
                    <path d="M105.455994,102.351994 C105.455994,102.351994 67.543996,162.94399 63.5839962,172.84799 C59.6239964,182.751989 96.3839943,246.239985 96.3839943,246.239985 C96.3839943,246.239985 101.431994,249.967985 107.335994,242.527986 C110.535993,238.527986 111.111993,235.719986 111.111993,235.719986 L84.8719949,175.40799 C84.8719949,175.40799 121.511993,143.639991 122.471993,126.807992 C123.431993,109.975993 105.455994,102.351994 105.455994,102.351994 Z" id="Path" fill="#F0F1F4"></path>
                    <path d="M217.431987,182.255989 C217.431987,182.255989 218.791987,195.311988 218.175987,200.383988 C217.559987,205.455988 213.375987,209.359988 209.015988,208.615988 C204.655988,207.871988 206.543988,189.231989 206.543988,189.231989 L200.943988,189.231989 C200.721027,187.604815 201.505319,186.004608 202.927988,185.183989 C204.593226,184.046019 206.056126,182.6372 207.255988,181.015989 L217.431987,182.255989 Z" id="Path" fill="#FBAD83"></path>
                    <path d="M185.215989,97.3039942 C185.215989,97.3039942 227.831986,116.287993 234.143986,123.335993 C240.455986,130.383992 218.543987,183.863989 218.543987,183.863989 C218.543987,183.863989 213.343987,186.831989 208.519988,183.863989 L205.735988,182.007989 L216.567987,133.487992 C216.567987,133.487992 185.991989,128.687992 176.959989,122.847993 C167.92799,117.007993 185.215989,97.3039942 185.215989,97.3039942 Z" id="Path" fill="#F0F1F4"></path>
                    <path d="M107.567994,423.855975 L105.167994,438.455974 L121.319993,443.607974 C125.125279,444.805061 127.715381,448.330838 127.719992,452.319973 L87.5999948,452.319973 L91.3759946,422.399975 L107.567994,423.855975 Z" id="Path" fill="#303D72" fill-rule="nonzero"></path>
                    <rect id="Rectangle" fill="#303D72" fill-rule="nonzero" x="0" y="452" width="637.583962" height="1"></rect>
                    <path d="M326.399981,95.0959943 C326.399981,95.0959943 321.191981,104.567994 313.199981,104.415994 C305.207982,104.263994 307.103982,93.7919944 307.103982,93.7919944 L326.399981,95.0959943 Z" id="Path" fill="#FFFFFF" fill-rule="nonzero"></path>
                    <path d="M292.695983,46.1439972 C292.695983,46.1439972 288.695983,78.4639953 290.295983,84.7919949 C291.895983,91.1199946 307.855982,89.8239946 315.839981,89.1839947 C323.823981,88.5439947 328.03198,89.6079947 331.51198,87.6719948 C334.99198,85.7359949 328.61598,65.5119961 328.61598,65.5119961 L292.695983,46.1439972 Z" id="Path" fill="#EDB607" fill-rule="nonzero"></path>
                    <path d="M300.855982,91.0320376 C295.537292,90.8802332 291.304411,86.5248504 291.304411,81.2039952 C291.304411,75.88314 295.537292,71.5277571 300.855982,71.3759957 C301.076896,71.3759957 301.255982,71.5550818 301.255982,71.7759957 C301.255982,71.9969096 301.076896,72.1759957 300.855982,72.1759957 C296.112034,72.2013663 292.19927,75.8986488 291.905502,80.6335605 C291.611734,85.3684721 295.037469,89.5210568 299.741899,90.1326327 C304.446329,90.7442087 308.819927,87.6055372 309.746541,82.9528956 C310.673155,78.3002539 307.835763,73.725451 303.255982,72.4879957 C303.044689,72.4295441 302.919816,72.2119074 302.975982,71.9999957 C303.000085,71.8960159 303.066378,71.8067597 303.158958,71.75364 C303.251538,71.7005204 303.36205,71.6883308 303.463982,71.7199957 C308.229816,72.9994322 311.307012,77.6156786 310.654573,82.5069423 C310.002134,87.3982059 305.822547,91.0464804 300.887982,91.0320376 L300.855982,91.0320376 Z" id="Path" fill="#FFFFFF" fill-rule="nonzero"></path>
                    <path d="M305.599982,80.6399952 L307.135982,93.7919944 C307.135982,93.7919944 308.935982,96.8319942 318.463981,96.8319942 C321.229708,96.8868591 323.969751,96.2922699 326.463981,95.0959943 L326.463981,71.8959957 L305.599982,80.6399952 Z" id="Path" fill="#FBAD83" fill-rule="nonzero"></path>
                    <path d="M305.599982,80.6399952 L306.655982,89.6879947 C308.396509,89.8138115 310.146076,89.6817179 311.847981,89.2959947 C314.095981,88.7839947 320.503981,82.1519951 324.559981,72.6719957 L305.599982,80.6399952 Z" id="Path" fill="#E68D5C" fill-rule="nonzero"></path>
                    <path d="M293.319983,38.8239977 C293.319983,38.8239977 291.095983,60.8639964 294.199982,71.5359957 C297.303982,82.2079951 306.959982,86.7359948 315.487981,84.7679949 C318.687981,84.039995 330.11998,71.1679958 331.56798,55.2239967 C333.01598,39.2799977 331.63198,34.5039979 329.03998,31.1359981 C326.447981,27.7679983 302.919982,23.5759986 298.639982,27.2639984 C294.359982,30.9519982 293.319983,38.8239977 293.319983,38.8239977 Z" id="Path" fill="#FBAD83" fill-rule="nonzero"></path>
                    <path d="M300.855982,38.0239977 C300.855982,38.0239977 293.655982,48.2079971 291.839983,48.5119971 C290.023983,48.8159971 289.815983,42.0399975 290.239983,35.9439979 C290.951983,26.3439984 297.639982,22.0799987 297.639982,22.0799987 L300.855982,38.0239977 Z" id="Path" fill="#F9C200" fill-rule="nonzero"></path>
                    <path d="M293.999982,29.9599982 C293.999982,29.9599982 296.151982,41.8319975 300.671982,48.9359971 C305.191982,56.0399967 322.191981,53.4559968 325.199981,53.6719968 C328.20798,53.8879968 324.775981,77.7759954 322.623981,85.7359949 C320.471981,93.6959944 335.95998,91.3359946 340.91198,90.2559946 C345.863979,89.1759947 348.447979,47.2239972 341.99198,30.9679982 C335.53598,14.7119991 308.847982,15.3519991 301.527982,18.9119989 C297.236217,20.9981991 294.371427,25.2025295 293.999982,29.9599982 Z" id="Path" fill="#F9C200" fill-rule="nonzero"></path>
                    <path d="M322.623981,85.7359949 C320.471981,93.7359944 335.96798,91.3359946 340.91198,90.2559946 C344.255979,89.5279947 346.511979,70.1759958 345.647979,52.6559969 L326.399981,57.9039965 C326.519981,65.1679961 324.215981,79.8319952 322.623981,85.7359949 Z" id="Path" fill="#EDB607" fill-rule="nonzero"></path>
                    <path d="M332.55198,66.951996 C332.55198,70.0799958 328.39198,72.8639957 325.831981,72.8639957 C323.271981,72.8639957 323.295977,70.0799958 323.295977,66.951996 C323.295977,63.8239962 325.367981,61.2799963 327.92798,61.2799963 C330.48798,61.2799963 332.55198,63.8159962 332.55198,66.951996 Z" id="Path" fill="#FBAD83" fill-rule="nonzero"></path>
                    <path d="M330.54398,65.5999961 C330.24798,64.0639962 327.93598,63.0959962 326.687981,63.3359962 C325.439981,63.5759962 328.71998,64.4559962 329.01598,65.9919961 C329.31198,67.527996 327.55998,69.0319959 328.79998,68.7999959 C330.03998,68.5679959 330.83998,67.103996 330.54398,65.5999961 Z" id="Path" fill="#E68D5C" fill-rule="nonzero"></path>
                    <path d="M312.591981,59.7600182 C312.435971,59.7611465 312.283029,59.7166543 312.151981,59.6319964 L307.143982,56.3839966 L303.559982,57.3199966 C303.133738,57.4317763 302.697359,57.177818 302.583982,56.7519966 C302.527869,56.5461561 302.556303,56.3264294 302.662963,56.1416523 C302.769623,55.9568752 302.945672,55.8223575 303.151982,55.7679967 L307.079982,54.7439967 C307.298432,54.6867823 307.530888,54.7245564 307.719982,54.8479967 L313.023981,58.2879965 C313.321592,58.4802313 313.457312,58.8453216 313.357541,59.1852804 C313.257771,59.5252393 312.946277,59.7590819 312.591981,59.7600182 L312.591981,59.7600182 Z" id="Path" fill="#F76A00" fill-rule="nonzero"></path>
                    <path d="M290.855983,58.3519965 C290.583989,58.3515434 290.330859,58.2129246 290.183983,57.9839965 C289.941409,57.6189585 290.037721,57.1266974 290.399983,56.8799966 L293.527983,54.8479967 C293.717076,54.7245564 293.949532,54.6867823 294.167982,54.7439967 L298.095982,55.7679967 C298.302292,55.8223575 298.478341,55.9568752 298.585001,56.1416523 C298.691661,56.3264294 298.720095,56.5461561 298.663982,56.7519966 C298.550605,57.177818 298.114226,57.4317763 297.687982,57.3199966 L294.103982,56.3839966 L291.271983,58.2159965 C291.148653,58.2991171 291.004595,58.346213 290.855983,58.3519965 L290.855983,58.3519965 Z" id="Path" fill="#F76A00" fill-rule="nonzero"></path>
                    <path d="M326.399981,91.0319946 C322.821915,91.1340897 319.471075,89.2835335 317.65192,86.200735 C315.832764,83.1179366 315.832764,79.2900537 317.65192,76.2072553 C319.471075,73.1244568 322.821915,71.2739007 326.399981,71.3759957 C326.620894,71.3759957 326.799981,71.5550818 326.799981,71.7759957 C326.799981,71.9969096 326.620894,72.1759957 326.399981,72.1759957 C321.660454,72.2019127 317.751702,75.8960712 317.458493,80.6265908 C317.165283,85.3571105 320.587921,89.5056874 325.28797,90.1166938 C329.988019,90.7277001 334.357598,87.5921115 335.283629,82.9438586 C336.209659,78.2956056 333.375347,73.7248489 328.79998,72.4879957 C328.579067,72.4305581 328.446543,72.2049096 328.50398,71.9839957 C328.561418,71.7630818 328.787067,71.6305581 329.00798,71.6879957 C333.815812,72.9439583 336.930723,77.5898322 336.266776,82.5144498 C335.602828,87.4390674 331.368765,91.0941366 326.399981,91.0319946 L326.399981,91.0319946 Z" id="Path" fill="#FFFFFF" fill-rule="nonzero"></path>
                    <path d="M239.759986,180.479989 C236.721654,181.894589 233.781711,183.511558 230.959986,185.319989 C227.639986,187.615989 224.863987,196.951988 224.711987,199.007988 C224.559987,201.063988 226.447987,204.151988 229.135986,204.863988 C231.823986,205.575988 236.415986,196.159988 237.047986,194.463988 C237.547697,192.754345 237.893081,191.003332 238.079986,189.231989 L240.607986,189.231989 L242.063986,188.431989 L239.759986,180.479989 Z" id="Path" fill="#FBAD83"></path>
                    <path d="M314.463981,180.479989 C314.463981,180.479989 305.063982,181.679989 301.103982,185.183989 C297.143982,188.687989 295.031982,199.583988 296.767982,202.055988 C298.503982,204.527988 303.455982,202.679988 306.423982,201.311988 C309.391982,199.943988 311.495981,189.231989 311.495981,189.231989 L319.791981,187.455989 L314.463981,180.479989 Z" id="Path" fill="#FBAD83"></path>
                    <path d="M355.135979,108.855994 C355.135979,108.855994 377.095978,153.415991 377.839977,168.63999 C378.583977,183.863989 315.999981,189.231989 315.999981,189.231989 C315.999981,189.231989 311.759981,184.231989 312.583981,179.223989 L358.703979,161.95999 C358.703979,161.95999 341.62398,131.135992 339.58398,118.887993 C337.54398,106.639994 355.135979,108.855994 355.135979,108.855994 Z" id="Path" fill="#60D6E6"></path>
                    <polygon id="Path" fill="#1A2249" fill-rule="nonzero" points="454.887973 86.1839949 431.791974 89.7999946 431.791974 53.7679968"></polygon>
                    <path d="M469.599972,67.031996 L469.599972,95.1999943 C469.599972,95.1999943 465.511972,99.1999941 458.311973,98.7439941 C453.015973,98.3839941 450.671973,95.9279943 450.671973,95.9279943 L447.839973,80.8879952 L469.599972,67.031996 Z" id="Path" fill="#A55B3A" fill-rule="nonzero"></path>
                    <path d="M469.599972,71.8239957 C469.400845,72.32057 469.165547,72.8018624 468.895972,73.2639956 C465.175972,79.4559953 457.695973,88.5679947 449.767973,91.1359946 L447.839973,80.9039952 L469.599972,67.031996 L469.599972,71.8239957 Z" id="Path" fill="#8E4A2F" fill-rule="nonzero"></path>
                    <path d="M430.671974,78.4639953 C438.367974,94.6559944 457.759973,81.6639951 465.935972,73.4639956 C474.111972,65.2639961 472.703972,37.5519978 470.439972,31.6479981 C468.175972,25.7439985 449.271973,20.9359988 439.295974,24.7519985 C429.319974,28.5679983 422.975975,62.2639963 430.671974,78.4639953 Z" id="Path" fill="#A55B3A" fill-rule="nonzero"></path>
                    <path d="M458.863973,92.7999945 L478.399971,86.1839949 C478.399971,86.1839949 481.263971,41.3279975 475.015972,30.0879982 C468.767972,18.8479989 452.255973,15.0639991 441.599974,19.0719989 C426.103975,24.9039985 426.335975,45.4719973 426.103975,47.2959972 C429.698542,46.6361047 433.380988,46.6117356 436.983974,47.2239972 C440.980742,47.9487113 445.063863,48.0673754 449.095973,47.5759972 L456.695973,46.6639972 L458.863973,92.7999945 Z" id="Path" fill="#1A2249" fill-rule="nonzero"></path>
                    <path d="M468.671972,63.0639962 C468.671972,66.1119961 464.623972,68.8079959 462.143972,68.8079959 C459.663973,68.8079959 459.687968,66.1119961 459.687968,63.0639962 C459.687968,60.0159964 461.695972,57.5999966 464.175972,57.5999966 C466.655972,57.5999966 468.671972,59.9999964 468.671972,63.0639962 Z" id="Path" fill="#A55B3A" fill-rule="nonzero"></path>
                    <circle id="Oval" fill="#FFFFFF" fill-rule="nonzero" cx="461.479972" cy="70.9439958" r="4.35999974"></circle>
                    <path d="M428.911974,67.479996 C425.127975,67.479996 422.047975,63.8159962 422.047975,59.3039965 L422.047975,58.9039965 L422.455975,58.9039965 L435.760036,58.9039965 L435.760036,59.3359965 C435.775974,63.8159962 432.695974,67.479996 428.911974,67.479996 Z M422.863975,59.6719964 C423.031975,63.5839962 425.679975,66.679996 428.911974,66.679996 C432.143974,66.679996 434.807974,63.5679962 434.967974,59.6719964 L422.863975,59.6719964 Z" id="Shape" fill="#1A2249" fill-rule="nonzero"></path>
                    <path d="M444.839973,67.479996 C441.055974,67.479996 437.975974,63.8159962 437.975974,59.3039965 L437.975974,58.9039965 L438.383974,58.9039965 L451.695973,58.9039965 L451.695973,59.3039965 C451.695973,63.8159962 448.623973,67.479996 444.839973,67.479996 Z M438.791974,59.6719964 C438.959974,63.5839962 441.607974,66.679996 444.839973,66.679996 C448.071973,66.679996 450.735973,63.5679962 450.895973,59.6719964 L438.791974,59.6719964 Z" id="Shape" fill="#1A2249" fill-rule="nonzero"></path>
                    <rect id="Rectangle" fill="#1A2249" fill-rule="nonzero" x="434.711974" y="58.8719965" width="26.0399984" height="1"></rect>
                    <path d="M383.999977,183.591989 C381.233722,184.161979 378.507863,184.912927 375.839978,185.839989 C372.127978,187.207989 364.575978,196.855988 364.823978,198.463988 C365.071978,200.071988 367.671978,203.263988 372.023978,201.663988 C376.375978,200.063988 383.775977,189.207989 383.775977,189.207989 L386.463977,189.207989 C386.463977,189.207989 385.111977,187.647989 383.999977,183.591989 Z" id="Path" fill="#A55B3A" fill-rule="nonzero"></path>
                    <path d="M538.239968,203.791988 C538.239968,203.791988 540.223968,211.831987 538.239968,219.135987 C536.255968,226.439987 529.951968,234.335986 526.855969,232.999986 C523.759969,231.663986 528.607968,215.799987 528.607968,215.799987 L529.335968,206.759988 L538.239968,203.791988 Z" id="Path" fill="#A55B3A" fill-rule="nonzero"></path>
                    <path d="M481.431971,122.039993 L512.631969,150.039991 L528.631968,208.439988 C528.631968,208.439988 529.351968,210.487987 535.295968,207.887988 L540.271968,205.711988 C540.271968,205.711988 534.927968,152.991991 527.471969,138.135992 C520.015969,123.279993 499.25597,106.695994 499.25597,106.695994 L481.431971,122.039993 Z" id="Path" fill="#F9C200" fill-rule="nonzero"></path>
                    <polygon id="Path" fill="#50CAD3" fill-rule="nonzero" points="490.575971 315.247981 489.183971 326.599981 465.647972 335.95198 463.615972 327.91198 462.311972 315.247981"></polygon>
                    <polygon id="Path" fill="#50CAD3" fill-rule="nonzero" points="456.503973 315.247981 452.567973 326.951981 452.303973 335.03198 428.247974 344.839979 427.247975 323.103981 428.039974 315.247981"></polygon>
                    <polygon id="Path" fill="#27345E" fill-rule="nonzero" points="341.98398 315.247981 340.47998 322.855981 341.02398 331.73598 316.231981 338.15998 315.063981 328.89598 315.767981 315.247981"></polygon>
                    <polygon id="Path" fill="#27345E" fill-rule="nonzero" points="305.751982 315.247981 304.807982 325.231981 306.263982 334.52798 281.903983 341.91998 279.855983 331.27198 279.383983 315.247981"></polygon>
                </g>
            </g>
        </g>
    </g>
</svg>