<svg width="31" height="36" viewBox="0 0 31 36" fill="none" xmlns="http://www.w3.org/2000/svg">
<path d="M1 14.4136V33.0765C1 33.8968 1.69808 34.5658 2.5546 34.5658H27.6064C28.458 34.5658 29.161 33.8968 29.161 33.0765V10.0384C29.161 9.57456 28.9531 9.13997 28.5917 8.84699L21.7791 1.34669C21.5019 1.12208 21.1553 1 20.7939 1H2.49024C1.66838 1 1 1.65921 1 2.46979V21.8163" stroke="white" stroke-width="2" stroke-miterlimit="10"/>
<path d="M1.26245 27.2166H20.8039C21.0514 27.2166 21.2544 27.0115 21.2544 26.7576V19.3745C21.2544 19.1206 21.0514 18.9155 20.8039 18.9155H1.26245" stroke="white" stroke-width="2" stroke-miterlimit="10"/>
<path d="M29.0422 9.47664H22.6752C21.8534 9.47664 21.1899 8.82232 21.1899 8.01174V1.43433" stroke="white" stroke-width="2" stroke-miterlimit="10"/>
<path d="M7.44727 22.7324H7.74609C8.02539 22.7324 8.23438 22.6777 8.37305 22.5684C8.51172 22.457 8.58105 22.2959 8.58105 22.085C8.58105 21.8721 8.52246 21.7148 8.40527 21.6133C8.29004 21.5117 8.1084 21.4609 7.86035 21.4609H7.44727V22.7324ZM9.49805 22.0527C9.49805 22.5137 9.35352 22.8662 9.06445 23.1104C8.77734 23.3545 8.36816 23.4766 7.83691 23.4766H7.44727V25H6.53906V20.7168H7.90723C8.42676 20.7168 8.82129 20.8291 9.09082 21.0537C9.3623 21.2764 9.49805 21.6094 9.49805 22.0527ZM13.8604 22.8174C13.8604 23.5225 13.6592 24.0625 13.2568 24.4375C12.8564 24.8125 12.2773 25 11.5195 25H10.3066V20.7168H11.6514C12.3506 20.7168 12.8936 20.9014 13.2803 21.2705C13.667 21.6396 13.8604 22.1553 13.8604 22.8174ZM12.917 22.8408C12.917 21.9209 12.5107 21.4609 11.6982 21.4609H11.2148V24.25H11.6045C12.4795 24.25 12.917 23.7803 12.917 22.8408ZM15.6416 25H14.748V20.7168H17.2031V21.4609H15.6416V22.5654H17.0947V23.3066H15.6416V25Z" fill="white"/>
</svg>
