<?xml version="1.0" encoding="UTF-8" standalone="no"?>
<svg width="66px" height="48px" viewBox="0 0 66 48" version="1.1" xmlns="http://www.w3.org/2000/svg" xmlns:xlink="http://www.w3.org/1999/xlink" xmlns:sketch="http://www.bohemiancoding.com/sketch/ns">
    <!-- Generator: Sketch 3.3.3 (12072) - http://www.bohemiancoding.com/sketch -->
    <title>s-CloudMgmt</title>
    <desc>Created with Sketch.</desc>
    <defs></defs>
    <g id="Page-1" stroke="none" stroke-width="1" fill="none" fill-rule="evenodd" sketch:type="MSPage">
        <g id="s-CloudMgmt" sketch:type="MSLayerGroup" fill="#3CB6CE">
            <path d="M64,25.4 C61.8,21.6 58.3,19.6 53.9,19.4 C54.1,12.7 51.5,8.5 49.4,6.1 C46.4,2.8 42,0.9 37.4,0.9 C30.5,0.9 24.6,5 21.7,11.6 C17.8,9.7 14.3,10.2 11.8,12.6 C10.2,14.3 9.3,16.5 9.1,18 C0.7,21 0,29.5 0,32.3 C0.8,44.7 12.3,47.4 12.4,47.4 L12.7,47.4 L54,47.4 L54.2,47.4 C54.3,47.4 57,46.9 59.8,44.9 C62.3,43.1 65.6,39.6 65.9,33.2 C66.1,32.8 66.1,29.1 64,25.4 L64,25.4 Z M54,44.7 L12.9,44.7 C11.8,44.4 3.4,41.9 2.8,32.2 C2.8,29.3 3.6,22.3 10.7,20.2 C11.3,20 11.6,19.4 11.6,18.9 C11.6,18.1 12.2,15.9 13.6,14.5 C15.5,12.5 18.2,12.6 21.5,14.6 C22,14.7 22.3,14.8 22.7,14.6 C23.1,14.5 23.4,14.1 23.5,13.8 C26.2,6.3 32.4,3.5 37.3,3.5 C41.2,3.5 44.8,5.1 47.3,7.8 C50.2,10.9 51.4,15.3 51.1,20.5 C51.1,20.9 51.2,21.3 51.5,21.5 C51.8,21.8 52.2,22 52.5,21.9 L53.2,21.9 C63.3,21.9 63.5,33 63.5,33.1 C62.8,42.6 55.1,44.5 54,44.7 L54,44.7 Z" id="Shape" sketch:type="MSShapeGroup"></path>
            <path d="M40.8,14.3 L28.5,14.3 C26.1,14.3 24.2,16.3 24.2,18.6 L24.2,37.8 C24.2,40.2 26.2,42.1 28.5,42.1 L40.9,42.1 C43.3,42.1 45.2,40.1 45.2,37.8 L45.2,18.6 C45.2,16.3 43.2,14.3 40.8,14.3 L40.8,14.3 Z M27,21.9 L42.4,21.9 L42.4,26.8 L27,26.8 L27,21.9 L27,21.9 Z M28.5,17.1 L40.9,17.1 C41.7,17.1 42.4,17.8 42.4,18.6 L42.4,19.1 L27,19.1 L27,18.6 C27,17.8 27.7,17.1 28.5,17.1 L28.5,17.1 Z M40.8,39.4 L28.5,39.4 C27.7,39.4 27,38.7 27,37.9 L27,29.6 L42.4,29.6 L42.4,37.9 C42.3,38.7 41.7,39.4 40.8,39.4 L40.8,39.4 Z" id="Shape" sketch:type="MSShapeGroup"></path>
            <path d="M38.7,35.2 L35.3,35.2 C34.5,35.2 33.9,35.9 33.9,36.6 C33.9,37.4 34.6,38 35.3,38 L38.7,38 C39.5,38 40.1,37.3 40.1,36.6 C40.1,35.9 39.4,35.2 38.7,35.2 L38.7,35.2 Z" id="Shape" sketch:type="MSShapeGroup"></path>
            <path d="M38.7,31.3 L35.3,31.3 C34.5,31.3 33.9,32 33.9,32.7 C33.9,33.5 34.6,34.1 35.3,34.1 L38.7,34.1 C39.5,34.1 40.1,33.4 40.1,32.7 C40.1,32 39.4,31.3 38.7,31.3 L38.7,31.3 Z" id="Shape" sketch:type="MSShapeGroup"></path>
            <circle id="Oval" sketch:type="MSShapeGroup" cx="30.6" cy="36.6" r="1.4"></circle>
            <circle id="Oval" sketch:type="MSShapeGroup" cx="30.6" cy="32.8" r="1.4"></circle>
            <path d="M37.9,22.9 L31.4,22.9 C30.6,22.9 30,23.6 30,24.4 C30,25.2 30.7,25.8 31.4,25.8 L37.9,25.8 C38.7,25.8 39.3,25.1 39.3,24.4 C39.3,23.5 38.7,22.9 37.9,22.9 L37.9,22.9 Z" id="Shape" sketch:type="MSShapeGroup"></path>
        </g>
    </g>
</svg>