<svg id="svg" version="1.1" xmlns="http://www.w3.org/2000/svg" xmlns:xlink="http://www.w3.org/1999/xlink" width="400" height="550" viewBox="0, 0, 400,550"><g id="svgg"><path id="path0" d="M159.200 138.000 C 159.200 229.733,159.066 276.000,158.800 276.000 C 158.551 276.000,158.400 273.667,158.400 269.800 C 158.400 264.556,158.308 263.600,157.800 263.600 C 157.427 263.600,157.200 263.222,157.200 262.600 C 157.200 262.050,157.020 261.600,156.800 261.600 C 156.580 261.600,156.400 261.330,156.400 261.000 C 156.400 260.600,156.000 260.400,155.200 260.400 C 154.400 260.400,154.000 260.200,154.000 259.800 C 154.000 259.292,153.044 259.200,147.800 259.200 L 141.600 259.200 141.600 253.000 C 141.600 249.133,141.449 246.800,141.200 246.800 C 140.980 246.800,140.800 246.350,140.800 245.800 C 140.800 245.178,140.573 244.800,140.200 244.800 C 139.870 244.800,139.600 244.530,139.600 244.200 C 139.600 243.827,139.222 243.600,138.600 243.600 C 138.050 243.600,137.600 243.420,137.600 243.200 C 137.600 242.951,135.267 242.800,131.400 242.800 L 125.200 242.800 125.200 236.000 C 125.200 230.222,125.110 229.200,124.600 229.200 C 124.227 229.200,124.000 228.822,124.000 228.200 C 124.000 227.400,123.800 227.200,123.000 227.200 C 122.378 227.200,122.000 226.973,122.000 226.600 C 122.000 226.090,120.978 226.000,115.200 226.000 L 108.400 226.000 108.400 219.200 C 108.400 213.422,108.310 212.400,107.800 212.400 C 107.427 212.400,107.200 212.022,107.200 211.400 C 107.200 210.600,107.000 210.400,106.200 210.400 C 105.578 210.400,105.200 210.173,105.200 209.800 C 105.200 209.290,104.178 209.200,98.400 209.200 L 91.600 209.200 91.600 202.600 C 91.600 198.467,91.451 196.000,91.200 196.000 C 90.980 196.000,90.800 195.460,90.800 194.800 C 90.800 193.733,90.667 193.600,89.600 193.600 C 88.940 193.600,88.400 193.420,88.400 193.200 C 88.400 192.949,85.933 192.800,81.800 192.800 L 75.200 192.800 75.200 186.000 C 75.200 180.222,75.110 179.200,74.600 179.200 C 74.227 179.200,74.000 178.822,74.000 178.200 C 74.000 177.400,73.800 177.200,73.000 177.200 C 72.378 177.200,72.000 176.973,72.000 176.600 C 72.000 176.090,70.978 176.000,65.200 176.000 L 58.400 176.000 58.400 174.400 C 58.400 173.244,58.233 172.800,57.800 172.800 C 57.311 172.800,57.200 172.133,57.200 169.200 C 57.200 167.067,57.037 165.600,56.800 165.600 C 56.580 165.600,56.400 165.150,56.400 164.600 C 56.400 163.978,56.173 163.600,55.800 163.600 C 55.470 163.600,55.200 163.330,55.200 163.000 C 55.200 162.670,54.930 162.400,54.600 162.400 C 54.270 162.400,54.000 162.220,54.000 162.000 C 54.000 161.780,53.550 161.600,53.000 161.600 C 52.378 161.600,52.000 161.373,52.000 161.000 C 52.000 160.511,51.333 160.400,48.400 160.400 C 45.467 160.400,44.800 160.289,44.800 159.800 C 44.800 159.328,44.244 159.200,42.200 159.200 C 40.156 159.200,39.600 159.328,39.600 159.800 C 39.600 160.289,38.933 160.400,36.000 160.400 C 33.067 160.400,32.400 160.511,32.400 161.000 C 32.400 161.373,32.022 161.600,31.400 161.600 C 30.850 161.600,30.400 161.780,30.400 162.000 C 30.400 162.220,30.130 162.400,29.800 162.400 C 29.470 162.400,29.200 162.670,29.200 163.000 C 29.200 163.330,28.930 163.600,28.600 163.600 C 28.227 163.600,28.000 163.978,28.000 164.600 C 28.000 165.150,27.820 165.600,27.600 165.600 C 27.363 165.600,27.200 167.067,27.200 169.200 C 27.200 172.133,27.089 172.800,26.600 172.800 C 26.167 172.800,26.000 173.244,26.000 174.400 L 26.000 176.000 19.200 176.000 C 13.422 176.000,12.400 176.090,12.400 176.600 C 12.400 176.973,12.022 177.200,11.400 177.200 C 10.600 177.200,10.400 177.400,10.400 178.200 C 10.400 178.822,10.173 179.200,9.800 179.200 C 9.290 179.200,9.200 180.222,9.200 186.000 L 9.200 192.800 4.600 192.800 L 0.000 192.800 0.000 225.000 L 0.000 257.200 4.600 257.200 C 8.422 257.200,9.200 257.301,9.200 257.800 C 9.200 258.130,9.470 258.400,9.800 258.400 C 10.295 258.400,10.400 259.133,10.400 262.600 C 10.400 266.067,10.505 266.800,11.000 266.800 C 11.419 266.800,11.600 267.222,11.600 268.200 C 11.600 268.970,11.780 269.600,12.000 269.600 C 12.220 269.600,12.400 269.870,12.400 270.200 C 12.400 270.530,12.670 270.800,13.000 270.800 C 13.330 270.800,13.600 270.993,13.600 271.229 C 13.600 272.083,14.774 272.800,16.171 272.800 C 17.175 272.800,17.600 272.979,17.600 273.400 C 17.600 273.895,18.333 274.000,21.800 274.000 L 26.000 274.000 26.000 275.000 C 26.000 275.622,26.227 276.000,26.600 276.000 C 27.095 276.000,27.200 276.733,27.200 280.200 C 27.200 282.733,27.359 284.400,27.600 284.400 C 27.820 284.400,28.000 284.850,28.000 285.400 C 28.000 286.022,28.227 286.400,28.600 286.400 C 28.973 286.400,29.200 286.778,29.200 287.400 C 29.200 288.200,29.400 288.400,30.200 288.400 C 30.822 288.400,31.200 288.627,31.200 289.000 C 31.200 289.373,31.578 289.600,32.200 289.600 C 32.822 289.600,33.200 289.827,33.200 290.200 C 33.200 290.695,33.933 290.800,37.400 290.800 C 39.933 290.800,41.600 290.959,41.600 291.200 C 41.600 291.420,41.870 291.600,42.200 291.600 C 42.661 291.600,42.800 292.111,42.800 293.800 C 42.800 295.010,42.980 296.000,43.200 296.000 C 43.431 296.000,43.600 297.267,43.600 299.000 C 43.600 301.400,43.720 302.000,44.200 302.000 C 44.573 302.000,44.800 302.378,44.800 303.000 C 44.800 303.622,45.027 304.000,45.400 304.000 C 45.730 304.000,46.000 304.270,46.000 304.600 C 46.000 304.930,46.180 305.200,46.400 305.200 C 46.620 305.200,46.800 305.470,46.800 305.800 C 46.800 306.173,47.178 306.400,47.800 306.400 C 48.350 306.400,48.800 306.580,48.800 306.800 C 48.800 307.033,50.133 307.200,52.000 307.200 C 54.578 307.200,55.200 307.317,55.200 307.800 C 55.200 308.253,55.689 308.400,57.200 308.400 L 59.200 308.400 59.200 311.000 C 59.200 313.044,59.328 313.600,59.800 313.600 C 60.280 313.600,60.400 314.200,60.400 316.600 C 60.400 319.000,60.520 319.600,61.000 319.600 C 61.378 319.600,61.600 319.981,61.600 320.629 C 61.600 321.870,62.444 322.800,63.571 322.800 C 64.041 322.800,64.400 323.060,64.400 323.400 C 64.400 323.883,65.022 324.000,67.600 324.000 C 70.178 324.000,70.800 324.117,70.800 324.600 C 70.800 325.072,71.356 325.200,73.400 325.200 L 76.000 325.200 76.000 328.200 C 76.000 330.600,76.120 331.200,76.600 331.200 C 77.072 331.200,77.200 331.756,77.200 333.800 C 77.200 335.267,77.374 336.400,77.600 336.400 C 77.820 336.400,78.000 336.850,78.000 337.400 C 78.000 338.022,78.227 338.400,78.600 338.400 C 78.930 338.400,79.200 338.670,79.200 339.000 C 79.200 339.373,79.578 339.600,80.200 339.600 C 80.822 339.600,81.200 339.827,81.200 340.200 C 81.200 340.672,81.756 340.800,83.800 340.800 C 85.267 340.800,86.400 340.974,86.400 341.200 C 86.400 341.433,87.733 341.600,89.600 341.600 L 92.800 341.600 92.800 345.200 C 92.800 347.333,92.963 348.800,93.200 348.800 C 93.426 348.800,93.600 349.933,93.600 351.400 C 93.600 353.444,93.728 354.000,94.200 354.000 C 94.530 354.000,94.800 354.270,94.800 354.600 C 94.800 354.930,95.070 355.200,95.400 355.200 C 95.730 355.200,96.000 355.393,96.000 355.629 C 96.000 356.667,97.211 357.200,99.571 357.200 C 101.463 357.200,102.000 357.333,102.000 357.800 C 102.000 358.289,102.667 358.400,105.600 358.400 L 109.200 358.400 109.200 362.600 C 109.200 366.067,109.305 366.800,109.800 366.800 C 110.253 366.800,110.400 367.289,110.400 368.800 C 110.400 370.311,110.547 370.800,111.000 370.800 C 111.373 370.800,111.600 371.178,111.600 371.800 C 111.600 372.600,111.800 372.800,112.600 372.800 C 113.222 372.800,113.600 373.027,113.600 373.400 C 113.600 373.853,114.089 374.000,115.600 374.000 C 117.111 374.000,117.600 374.147,117.600 374.600 C 117.600 375.095,118.333 375.200,121.800 375.200 L 126.000 375.200 126.000 379.800 C 126.000 383.622,126.101 384.400,126.600 384.400 C 127.053 384.400,127.200 384.889,127.200 386.400 C 127.200 387.500,127.380 388.400,127.600 388.400 C 127.820 388.400,128.000 388.670,128.000 389.000 C 128.000 389.330,128.270 389.600,128.600 389.600 C 128.930 389.600,129.200 389.870,129.200 390.200 C 129.200 390.653,129.689 390.800,131.200 390.800 C 132.300 390.800,133.200 390.980,133.200 391.200 C 133.200 391.444,135.067 391.600,138.000 391.600 L 142.800 391.600 142.800 396.400 C 142.800 399.333,142.956 401.200,143.200 401.200 C 143.420 401.200,143.600 402.100,143.600 403.200 C 143.600 404.711,143.747 405.200,144.200 405.200 C 144.530 405.200,144.800 405.470,144.800 405.800 C 144.800 406.130,145.070 406.400,145.400 406.400 C 145.730 406.400,146.000 406.580,146.000 406.800 C 146.000 407.020,146.900 407.200,148.000 407.200 C 149.511 407.200,150.000 407.347,150.000 407.800 C 150.000 408.299,150.778 408.400,154.600 408.400 L 159.200 408.400 159.200 413.600 C 159.200 417.956,159.297 418.800,159.800 418.800 C 160.233 418.800,160.400 419.244,160.400 420.400 C 160.400 421.280,160.593 422.000,160.829 422.000 C 161.382 422.000,162.400 423.018,162.400 423.571 C 162.400 423.807,163.120 424.000,164.000 424.000 C 165.156 424.000,165.600 424.167,165.600 424.600 C 165.600 425.103,166.444 425.200,170.800 425.200 L 176.000 425.200 176.000 430.800 C 176.000 435.511,176.095 436.400,176.600 436.400 C 177.033 436.400,177.200 436.844,177.200 438.000 C 177.200 438.880,177.380 439.600,177.600 439.600 C 177.820 439.600,178.000 439.870,178.000 440.200 C 178.000 440.633,178.444 440.800,179.600 440.800 C 180.480 440.800,181.200 440.980,181.200 441.200 C 181.200 441.461,188.267 441.600,201.600 441.600 C 214.933 441.600,222.000 441.461,222.000 441.200 C 222.000 440.980,222.450 440.800,223.000 440.800 C 223.844 440.800,224.000 440.613,224.000 439.600 C 224.000 438.800,224.200 438.400,224.600 438.400 C 225.109 438.400,225.200 437.400,225.200 431.800 L 225.200 425.200 231.800 425.200 C 237.400 425.200,238.400 425.109,238.400 424.600 C 238.400 424.200,238.800 424.000,239.600 424.000 C 240.613 424.000,240.800 423.844,240.800 423.000 C 240.800 422.450,240.980 422.000,241.200 422.000 C 241.451 422.000,241.600 419.467,241.600 415.200 L 241.600 408.400 248.400 408.400 C 254.178 408.400,255.200 408.310,255.200 407.800 C 255.200 407.427,255.578 407.200,256.200 407.200 C 257.000 407.200,257.200 407.000,257.200 406.200 C 257.200 405.578,257.427 405.200,257.800 405.200 C 258.310 405.200,258.400 404.178,258.400 398.400 L 258.400 391.600 264.600 391.600 C 268.467 391.600,270.800 391.449,270.800 391.200 C 270.800 390.980,271.250 390.800,271.800 390.800 C 272.422 390.800,272.800 390.573,272.800 390.200 C 272.800 389.870,273.070 389.600,273.400 389.600 C 273.773 389.600,274.000 389.222,274.000 388.600 C 274.000 387.978,274.227 387.600,274.600 387.600 C 275.108 387.600,275.200 386.644,275.200 381.400 L 275.200 375.200 281.400 375.200 C 286.644 375.200,287.600 375.108,287.600 374.600 C 287.600 374.227,287.978 374.000,288.600 374.000 C 289.222 374.000,289.600 373.773,289.600 373.400 C 289.600 373.070,289.870 372.800,290.200 372.800 C 290.573 372.800,290.800 372.422,290.800 371.800 C 290.800 371.250,290.980 370.800,291.200 370.800 C 291.449 370.800,291.600 368.467,291.600 364.600 L 291.600 358.400 297.800 358.400 C 303.044 358.400,304.000 358.308,304.000 357.800 C 304.000 357.422,304.381 357.200,305.029 357.200 C 306.341 357.200,307.200 356.341,307.200 355.029 C 307.200 354.381,307.422 354.000,307.800 354.000 C 308.308 354.000,308.400 353.044,308.400 347.800 L 308.400 341.600 314.000 341.600 C 317.467 341.600,319.600 341.448,319.600 341.200 C 319.600 340.980,320.320 340.800,321.200 340.800 C 322.356 340.800,322.800 340.633,322.800 340.200 C 322.800 339.870,323.070 339.600,323.400 339.600 C 323.833 339.600,324.000 339.156,324.000 338.000 C 324.000 336.844,324.167 336.400,324.600 336.400 C 325.105 336.400,325.200 335.511,325.200 330.800 L 325.200 325.200 330.800 325.200 C 335.511 325.200,336.400 325.105,336.400 324.600 C 336.400 324.167,336.844 324.000,338.000 324.000 C 339.156 324.000,339.600 323.833,339.600 323.400 C 339.600 323.070,339.870 322.800,340.200 322.800 C 340.633 322.800,340.800 322.356,340.800 321.200 C 340.800 320.320,340.980 319.600,341.200 319.600 C 341.448 319.600,341.600 317.467,341.600 314.000 L 341.600 308.400 347.400 308.400 C 352.289 308.400,353.200 308.306,353.200 307.800 C 353.200 307.379,353.625 307.200,354.629 307.200 C 356.439 307.200,357.200 306.439,357.200 304.629 C 357.200 303.625,357.379 303.200,357.800 303.200 C 358.306 303.200,358.400 302.289,358.400 297.400 L 358.400 291.600 363.600 291.600 C 366.800 291.600,368.800 291.446,368.800 291.200 C 368.800 290.980,369.520 290.800,370.400 290.800 C 371.556 290.800,372.000 290.633,372.000 290.200 C 372.000 289.870,372.180 289.600,372.400 289.600 C 372.620 289.600,372.800 289.330,372.800 289.000 C 372.800 288.670,373.070 288.400,373.400 288.400 C 373.819 288.400,374.000 287.978,374.000 287.000 C 374.000 286.022,374.181 285.600,374.600 285.600 C 375.103 285.600,375.200 284.756,375.200 280.400 L 375.200 275.200 380.400 275.200 C 384.756 275.200,385.600 275.103,385.600 274.600 C 385.600 274.181,386.022 274.000,387.000 274.000 C 387.978 274.000,388.400 273.819,388.400 273.400 C 388.400 273.070,388.670 272.800,389.000 272.800 C 389.330 272.800,389.600 272.620,389.600 272.400 C 389.600 272.180,389.870 272.000,390.200 272.000 C 390.633 272.000,390.800 271.556,390.800 270.400 C 390.800 269.520,390.980 268.800,391.200 268.800 C 391.446 268.800,391.600 266.800,391.600 263.600 L 391.600 258.400 395.800 258.400 L 400.000 258.400 400.000 225.600 L 400.000 192.800 395.800 192.800 L 391.600 192.800 391.600 185.571 C 391.600 178.272,391.399 177.200,390.029 177.200 C 389.793 177.200,389.600 176.930,389.600 176.600 C 389.600 176.089,388.533 176.000,382.400 176.000 L 375.200 176.000 375.200 174.400 C 375.200 173.244,375.033 172.800,374.600 172.800 C 374.111 172.800,374.000 172.133,374.000 169.200 C 374.000 166.267,373.889 165.600,373.400 165.600 C 373.027 165.600,372.800 165.222,372.800 164.600 C 372.800 164.050,372.620 163.600,372.400 163.600 C 372.180 163.600,372.000 163.330,372.000 163.000 C 372.000 162.670,371.730 162.400,371.400 162.400 C 371.070 162.400,370.800 162.220,370.800 162.000 C 370.800 161.780,370.350 161.600,369.800 161.600 C 369.178 161.600,368.800 161.373,368.800 161.000 C 368.800 160.511,368.133 160.400,365.200 160.400 C 362.267 160.400,361.600 160.289,361.600 159.800 C 361.600 159.328,361.044 159.200,359.000 159.200 C 356.956 159.200,356.400 159.328,356.400 159.800 C 356.400 160.291,355.711 160.400,352.600 160.400 C 349.489 160.400,348.800 160.509,348.800 161.000 C 348.800 161.340,348.441 161.600,347.971 161.600 C 347.086 161.600,346.000 162.466,346.000 163.171 C 346.000 163.407,345.730 163.600,345.400 163.600 C 345.027 163.600,344.800 163.978,344.800 164.600 C 344.800 165.222,344.573 165.600,344.200 165.600 C 343.711 165.600,343.600 166.267,343.600 169.200 C 343.600 171.333,343.437 172.800,343.200 172.800 C 342.980 172.800,342.800 173.520,342.800 174.400 L 342.800 176.000 337.000 176.000 C 332.111 176.000,331.200 176.094,331.200 176.600 C 331.200 177.021,330.775 177.200,329.771 177.200 C 327.961 177.200,327.200 177.961,327.200 179.771 C 327.200 180.775,327.021 181.200,326.600 181.200 C 326.094 181.200,326.000 182.111,326.000 187.000 L 326.000 192.800 320.800 192.800 C 317.600 192.800,315.600 192.954,315.600 193.200 C 315.600 193.420,314.880 193.600,314.000 193.600 C 312.844 193.600,312.400 193.767,312.400 194.200 C 312.400 194.530,312.220 194.800,312.000 194.800 C 311.780 194.800,311.600 195.070,311.600 195.400 C 311.600 195.730,311.330 196.000,311.000 196.000 C 310.581 196.000,310.400 196.422,310.400 197.400 C 310.400 198.378,310.219 198.800,309.800 198.800 C 309.297 198.800,309.200 199.644,309.200 204.000 L 309.200 209.200 304.000 209.200 C 299.644 209.200,298.800 209.297,298.800 209.800 C 298.800 210.219,298.378 210.400,297.400 210.400 C 296.422 210.400,296.000 210.581,296.000 211.000 C 296.000 211.330,295.730 211.600,295.400 211.600 C 295.070 211.600,294.800 211.780,294.800 212.000 C 294.800 212.220,294.530 212.400,294.200 212.400 C 293.767 212.400,293.600 212.844,293.600 214.000 C 293.600 214.880,293.420 215.600,293.200 215.600 C 292.954 215.600,292.800 217.600,292.800 220.800 L 292.800 226.000 288.000 226.000 C 284.000 226.000,283.200 226.100,283.200 226.600 C 283.200 227.053,282.711 227.200,281.200 227.200 C 280.100 227.200,279.200 227.380,279.200 227.600 C 279.200 227.820,278.930 228.000,278.600 228.000 C 278.270 228.000,278.000 228.270,278.000 228.600 C 278.000 228.930,277.820 229.200,277.600 229.200 C 277.380 229.200,277.200 230.100,277.200 231.200 C 277.200 232.711,277.053 233.200,276.600 233.200 C 276.100 233.200,276.000 234.000,276.000 238.000 L 276.000 242.800 271.400 242.800 C 268.600 242.800,266.800 242.957,266.800 243.200 C 266.800 243.420,265.810 243.600,264.600 243.600 C 262.911 243.600,262.400 243.739,262.400 244.200 C 262.400 244.530,262.220 244.800,262.000 244.800 C 261.780 244.800,261.600 245.070,261.600 245.400 C 261.600 245.730,261.330 246.000,261.000 246.000 C 260.547 246.000,260.400 246.489,260.400 248.000 C 260.400 249.511,260.253 250.000,259.800 250.000 C 259.301 250.000,259.200 250.778,259.200 254.600 L 259.200 259.200 255.200 259.200 C 251.911 259.200,251.200 259.307,251.200 259.800 C 251.200 260.261,250.689 260.400,249.000 260.400 C 247.311 260.400,246.800 260.539,246.800 261.000 C 246.800 261.373,246.422 261.600,245.800 261.600 C 245.000 261.600,244.800 261.800,244.800 262.600 C 244.800 263.222,244.573 263.600,244.200 263.600 C 243.747 263.600,243.600 264.089,243.600 265.600 C 243.600 266.700,243.420 267.600,243.200 267.600 C 242.959 267.600,242.800 269.267,242.800 271.800 C 242.800 275.267,242.695 276.000,242.200 276.000 C 241.668 276.000,241.600 260.400,241.600 138.000 L 241.600 0.000 200.400 0.000 L 159.200 0.000 159.200 138.000 M42.800 176.200 C 42.800 176.822,42.573 177.200,42.200 177.200 C 41.827 177.200,41.600 176.822,41.600 176.200 C 41.600 175.578,41.827 175.200,42.200 175.200 C 42.573 175.200,42.800 175.578,42.800 176.200 M359.200 176.200 C 359.200 176.750,359.020 177.200,358.800 177.200 C 358.580 177.200,358.400 176.750,358.400 176.200 C 358.400 175.650,358.580 175.200,358.800 175.200 C 359.020 175.200,359.200 175.650,359.200 176.200 M357.200 176.600 C 357.200 176.930,357.020 177.200,356.800 177.200 C 356.580 177.200,356.400 176.930,356.400 176.600 C 356.400 176.270,356.580 176.000,356.800 176.000 C 357.020 176.000,357.200 176.270,357.200 176.600 M325.200 204.600 C 325.200 204.930,324.930 205.200,324.600 205.200 C 324.270 205.200,324.000 204.930,324.000 204.600 C 324.000 204.270,324.270 204.000,324.600 204.000 C 324.930 204.000,325.200 204.270,325.200 204.600 M322.000 207.800 C 322.000 208.130,321.730 208.400,321.400 208.400 C 321.070 208.400,320.800 208.130,320.800 207.800 C 320.800 207.470,321.070 207.200,321.400 207.200 C 321.730 207.200,322.000 207.470,322.000 207.800 M276.000 256.800 C 276.000 257.020,275.820 257.200,275.600 257.200 C 275.023 257.200,275.107 258.300,275.700 258.512 C 275.991 258.616,276.052 258.839,275.845 259.045 C 275.639 259.252,275.416 259.191,275.312 258.900 C 275.100 258.307,274.000 258.223,274.000 258.800 C 274.000 259.020,273.730 259.200,273.400 259.200 C 273.070 259.200,272.800 259.020,272.800 258.800 C 272.800 258.580,273.070 258.400,273.400 258.400 C 273.730 258.400,274.000 258.130,274.000 257.800 C 274.000 257.470,274.270 257.200,274.600 257.200 C 274.930 257.200,275.200 257.020,275.200 256.800 C 275.200 256.580,275.380 256.400,275.600 256.400 C 275.820 256.400,276.000 256.580,276.000 256.800 M363.600 276.600 C 363.600 276.930,363.330 277.200,363.000 277.200 C 362.670 277.200,362.400 276.930,362.400 276.600 C 362.400 276.270,362.670 276.000,363.000 276.000 C 363.330 276.000,363.600 276.270,363.600 276.600 M360.400 279.800 C 360.400 280.130,360.130 280.400,359.800 280.400 C 359.470 280.400,359.200 280.130,359.200 279.800 C 359.200 279.470,359.470 279.200,359.800 279.200 C 360.130 279.200,360.400 279.470,360.400 279.800 M107.200 342.200 C 107.200 342.530,107.470 342.800,107.800 342.800 C 108.130 342.800,108.400 342.530,108.400 342.200 C 108.400 341.870,108.580 341.600,108.800 341.600 C 109.374 341.600,109.294 342.689,108.700 342.967 C 108.300 343.153,108.300 343.247,108.700 343.433 C 109.294 343.711,109.374 344.800,108.800 344.800 C 108.580 344.800,108.400 344.530,108.400 344.200 C 108.400 343.870,108.207 343.600,107.971 343.600 C 107.418 343.600,106.400 342.582,106.400 342.029 C 106.400 341.793,106.580 341.600,106.800 341.600 C 107.020 341.600,107.200 341.870,107.200 342.200 M140.800 375.600 C 140.800 375.820,140.530 376.000,140.200 376.000 C 139.870 376.000,139.600 375.820,139.600 375.600 C 139.600 375.380,139.870 375.200,140.200 375.200 C 140.530 375.200,140.800 375.380,140.800 375.600 M142.800 377.600 C 142.800 377.820,142.530 378.000,142.200 378.000 C 141.870 378.000,141.600 377.820,141.600 377.600 C 141.600 377.380,141.870 377.200,142.200 377.200 C 142.530 377.200,142.800 377.380,142.800 377.600 M28.000 476.429 C 28.000 476.982,26.982 478.000,26.429 478.000 C 26.127 478.000,26.000 488.667,26.000 514.000 L 26.000 550.000 200.600 550.000 L 375.200 550.000 375.200 529.200 C 375.200 515.600,375.338 508.400,375.600 508.400 C 375.862 508.400,376.000 515.600,376.000 529.200 L 376.000 550.000 382.800 550.000 L 389.600 550.000 389.600 528.200 C 389.600 509.089,389.526 506.400,389.000 506.400 C 388.517 506.400,388.400 505.778,388.400 503.200 C 388.400 501.333,388.233 500.000,388.000 500.000 C 387.780 500.000,387.600 499.280,387.600 498.400 C 387.600 497.244,387.433 496.800,387.000 496.800 C 386.627 496.800,386.400 496.422,386.400 495.800 C 386.400 495.250,386.220 494.800,386.000 494.800 C 385.780 494.800,385.600 494.530,385.600 494.200 C 385.600 493.870,385.330 493.600,385.000 493.600 C 384.627 493.600,384.400 493.222,384.400 492.600 C 384.400 492.050,384.207 491.600,383.971 491.600 C 383.208 491.600,382.400 490.483,382.400 489.429 C 382.400 488.863,382.207 488.400,381.971 488.400 C 381.418 488.400,380.400 487.382,380.400 486.829 C 380.400 486.593,380.130 486.400,379.800 486.400 C 379.470 486.400,379.200 486.220,379.200 486.000 C 379.200 485.780,378.750 485.600,378.200 485.600 C 377.578 485.600,377.200 485.373,377.200 485.000 C 377.200 484.670,376.930 484.400,376.600 484.400 C 376.270 484.400,376.000 484.130,376.000 483.800 C 376.000 483.470,375.820 483.200,375.600 483.200 C 375.369 483.200,375.200 481.933,375.200 480.200 L 375.200 477.200 374.000 477.200 C 373.200 477.200,372.800 477.000,372.800 476.600 C 372.800 476.068,353.378 476.000,200.400 476.000 C 78.071 476.000,28.000 476.124,28.000 476.429 M376.000 492.600 C 376.000 493.222,376.227 493.600,376.600 493.600 C 376.930 493.600,377.200 493.870,377.200 494.200 C 377.200 494.530,377.380 494.800,377.600 494.800 C 377.820 494.800,378.000 495.070,378.000 495.400 C 378.000 495.730,378.270 496.000,378.600 496.000 C 378.973 496.000,379.200 496.378,379.200 497.000 C 379.200 497.622,379.427 498.000,379.800 498.000 C 380.173 498.000,380.400 498.378,380.400 499.000 C 380.400 499.550,380.580 500.000,380.800 500.000 C 381.020 500.000,381.200 500.450,381.200 501.000 C 381.200 501.622,381.427 502.000,381.800 502.000 C 382.173 502.000,382.400 502.378,382.400 503.000 C 382.400 503.622,382.173 504.000,381.800 504.000 C 381.427 504.000,381.200 503.622,381.200 503.000 C 381.200 502.450,381.020 502.000,380.800 502.000 C 380.580 502.000,380.400 501.550,380.400 501.000 C 380.400 500.378,380.173 500.000,379.800 500.000 C 379.470 500.000,379.200 499.730,379.200 499.400 C 379.200 499.070,379.007 498.800,378.771 498.800 C 378.218 498.800,377.200 497.782,377.200 497.229 C 377.200 496.993,377.007 496.800,376.771 496.800 C 375.800 496.800,375.200 495.589,375.200 493.629 C 375.200 492.513,375.380 491.600,375.600 491.600 C 375.820 491.600,376.000 492.050,376.000 492.600 M383.200 505.800 C 383.200 506.130,383.020 506.400,382.800 506.400 C 382.580 506.400,382.400 506.130,382.400 505.800 C 382.400 505.470,382.580 505.200,382.800 505.200 C 383.020 505.200,383.200 505.470,383.200 505.800 M375.200 506.800 C 375.200 507.020,374.930 507.200,374.600 507.200 C 374.270 507.200,374.000 507.020,374.000 506.800 C 374.000 506.580,374.270 506.400,374.600 506.400 C 374.930 506.400,375.200 506.580,375.200 506.800 " stroke="none" fill="#3c84b4" fill-rule="evenodd"></path><path id="path1" d="M41.600 176.200 C 41.600 176.822,41.827 177.200,42.200 177.200 C 42.573 177.200,42.800 176.822,42.800 176.200 C 42.800 175.578,42.573 175.200,42.200 175.200 C 41.827 175.200,41.600 175.578,41.600 176.200 M358.400 176.200 C 358.400 176.750,358.580 177.200,358.800 177.200 C 359.020 177.200,359.200 176.750,359.200 176.200 C 359.200 175.650,359.020 175.200,358.800 175.200 C 358.580 175.200,358.400 175.650,358.400 176.200 M356.400 176.600 C 356.400 176.930,356.580 177.200,356.800 177.200 C 357.020 177.200,357.200 176.930,357.200 176.600 C 357.200 176.270,357.020 176.000,356.800 176.000 C 356.580 176.000,356.400 176.270,356.400 176.600 M324.000 204.600 C 324.000 204.930,324.270 205.200,324.600 205.200 C 324.930 205.200,325.200 204.930,325.200 204.600 C 325.200 204.270,324.930 204.000,324.600 204.000 C 324.270 204.000,324.000 204.270,324.000 204.600 M320.800 207.800 C 320.800 208.130,321.070 208.400,321.400 208.400 C 321.730 208.400,322.000 208.130,322.000 207.800 C 322.000 207.470,321.730 207.200,321.400 207.200 C 321.070 207.200,320.800 207.470,320.800 207.800 M275.200 256.800 C 275.200 257.020,274.930 257.200,274.600 257.200 C 274.270 257.200,274.000 257.470,274.000 257.800 C 274.000 258.130,273.730 258.400,273.400 258.400 C 273.070 258.400,272.800 258.580,272.800 258.800 C 272.800 259.020,273.070 259.200,273.400 259.200 C 273.730 259.200,274.000 259.020,274.000 258.800 C 274.000 258.223,275.100 258.307,275.312 258.900 C 275.416 259.191,275.639 259.252,275.845 259.045 C 276.052 258.839,275.991 258.616,275.700 258.512 C 275.107 258.300,275.023 257.200,275.600 257.200 C 275.820 257.200,276.000 257.020,276.000 256.800 C 276.000 256.580,275.820 256.400,275.600 256.400 C 275.380 256.400,275.200 256.580,275.200 256.800 M362.400 276.600 C 362.400 276.930,362.670 277.200,363.000 277.200 C 363.330 277.200,363.600 276.930,363.600 276.600 C 363.600 276.270,363.330 276.000,363.000 276.000 C 362.670 276.000,362.400 276.270,362.400 276.600 M359.200 279.800 C 359.200 280.130,359.470 280.400,359.800 280.400 C 360.130 280.400,360.400 280.130,360.400 279.800 C 360.400 279.470,360.130 279.200,359.800 279.200 C 359.470 279.200,359.200 279.470,359.200 279.800 M106.400 342.029 C 106.400 342.582,107.418 343.600,107.971 343.600 C 108.207 343.600,108.400 343.870,108.400 344.200 C 108.400 344.530,108.580 344.800,108.800 344.800 C 109.374 344.800,109.294 343.711,108.700 343.433 C 108.300 343.247,108.300 343.153,108.700 342.967 C 109.294 342.689,109.374 341.600,108.800 341.600 C 108.580 341.600,108.400 341.870,108.400 342.200 C 108.400 342.530,108.130 342.800,107.800 342.800 C 107.470 342.800,107.200 342.530,107.200 342.200 C 107.200 341.870,107.020 341.600,106.800 341.600 C 106.580 341.600,106.400 341.793,106.400 342.029 M139.600 375.600 C 139.600 375.820,139.870 376.000,140.200 376.000 C 140.530 376.000,140.800 375.820,140.800 375.600 C 140.800 375.380,140.530 375.200,140.200 375.200 C 139.870 375.200,139.600 375.380,139.600 375.600 M141.600 377.600 C 141.600 377.820,141.870 378.000,142.200 378.000 C 142.530 378.000,142.800 377.820,142.800 377.600 C 142.800 377.380,142.530 377.200,142.200 377.200 C 141.870 377.200,141.600 377.380,141.600 377.600 M375.200 493.629 C 375.200 495.589,375.800 496.800,376.771 496.800 C 377.007 496.800,377.200 496.993,377.200 497.229 C 377.200 497.782,378.218 498.800,378.771 498.800 C 379.007 498.800,379.200 499.070,379.200 499.400 C 379.200 499.730,379.470 500.000,379.800 500.000 C 380.173 500.000,380.400 500.378,380.400 501.000 C 380.400 501.550,380.580 502.000,380.800 502.000 C 381.020 502.000,381.200 502.450,381.200 503.000 C 381.200 503.622,381.427 504.000,381.800 504.000 C 382.173 504.000,382.400 503.622,382.400 503.000 C 382.400 502.378,382.173 502.000,381.800 502.000 C 381.427 502.000,381.200 501.622,381.200 501.000 C 381.200 500.450,381.020 500.000,380.800 500.000 C 380.580 500.000,380.400 499.550,380.400 499.000 C 380.400 498.378,380.173 498.000,379.800 498.000 C 379.427 498.000,379.200 497.622,379.200 497.000 C 379.200 496.378,378.973 496.000,378.600 496.000 C 378.270 496.000,378.000 495.730,378.000 495.400 C 378.000 495.070,377.820 494.800,377.600 494.800 C 377.380 494.800,377.200 494.530,377.200 494.200 C 377.200 493.870,376.930 493.600,376.600 493.600 C 376.227 493.600,376.000 493.222,376.000 492.600 C 376.000 492.050,375.820 491.600,375.600 491.600 C 375.380 491.600,375.200 492.513,375.200 493.629 M382.400 505.800 C 382.400 506.130,382.580 506.400,382.800 506.400 C 383.020 506.400,383.200 506.130,383.200 505.800 C 383.200 505.470,383.020 505.200,382.800 505.200 C 382.580 505.200,382.400 505.470,382.400 505.800 M374.000 506.800 C 374.000 507.020,374.270 507.200,374.600 507.200 C 374.930 507.200,375.200 507.020,375.200 506.800 C 375.200 506.580,374.930 506.400,374.600 506.400 C 374.270 506.400,374.000 506.580,374.000 506.800 M375.200 529.200 C 375.200 542.800,375.338 550.000,375.600 550.000 C 375.862 550.000,376.000 542.800,376.000 529.200 C 376.000 515.600,375.862 508.400,375.600 508.400 C 375.338 508.400,375.200 515.600,375.200 529.200 " stroke="none" fill="#4084b4" fill-rule="evenodd"></path><path id="path2" d="M41.600 176.200 C 41.600 176.822,41.827 177.200,42.200 177.200 C 42.573 177.200,42.800 176.822,42.800 176.200 C 42.800 175.578,42.573 175.200,42.200 175.200 C 41.827 175.200,41.600 175.578,41.600 176.200 M358.400 176.200 C 358.400 176.750,358.580 177.200,358.800 177.200 C 359.020 177.200,359.200 176.750,359.200 176.200 C 359.200 175.650,359.020 175.200,358.800 175.200 C 358.580 175.200,358.400 175.650,358.400 176.200 M356.400 176.600 C 356.400 176.930,356.580 177.200,356.800 177.200 C 357.020 177.200,357.200 176.930,357.200 176.600 C 357.200 176.270,357.020 176.000,356.800 176.000 C 356.580 176.000,356.400 176.270,356.400 176.600 M324.000 204.600 C 324.000 204.930,324.270 205.200,324.600 205.200 C 324.930 205.200,325.200 204.930,325.200 204.600 C 325.200 204.270,324.930 204.000,324.600 204.000 C 324.270 204.000,324.000 204.270,324.000 204.600 M320.800 207.800 C 320.800 208.130,321.070 208.400,321.400 208.400 C 321.730 208.400,322.000 208.130,322.000 207.800 C 322.000 207.470,321.730 207.200,321.400 207.200 C 321.070 207.200,320.800 207.470,320.800 207.800 M275.200 256.800 C 275.200 257.020,274.930 257.200,274.600 257.200 C 274.270 257.200,274.000 257.470,274.000 257.800 C 274.000 258.130,273.730 258.400,273.400 258.400 C 273.070 258.400,272.800 258.580,272.800 258.800 C 272.800 259.020,273.070 259.200,273.400 259.200 C 273.730 259.200,274.000 259.020,274.000 258.800 C 274.000 258.223,275.100 258.307,275.312 258.900 C 275.416 259.191,275.639 259.252,275.845 259.045 C 276.052 258.839,275.991 258.616,275.700 258.512 C 275.107 258.300,275.023 257.200,275.600 257.200 C 275.820 257.200,276.000 257.020,276.000 256.800 C 276.000 256.580,275.820 256.400,275.600 256.400 C 275.380 256.400,275.200 256.580,275.200 256.800 M362.400 276.600 C 362.400 276.930,362.670 277.200,363.000 277.200 C 363.330 277.200,363.600 276.930,363.600 276.600 C 363.600 276.270,363.330 276.000,363.000 276.000 C 362.670 276.000,362.400 276.270,362.400 276.600 M359.200 279.800 C 359.200 280.130,359.470 280.400,359.800 280.400 C 360.130 280.400,360.400 280.130,360.400 279.800 C 360.400 279.470,360.130 279.200,359.800 279.200 C 359.470 279.200,359.200 279.470,359.200 279.800 M106.400 342.029 C 106.400 342.582,107.418 343.600,107.971 343.600 C 108.207 343.600,108.400 343.870,108.400 344.200 C 108.400 344.530,108.580 344.800,108.800 344.800 C 109.374 344.800,109.294 343.711,108.700 343.433 C 108.300 343.247,108.300 343.153,108.700 342.967 C 109.294 342.689,109.374 341.600,108.800 341.600 C 108.580 341.600,108.400 341.870,108.400 342.200 C 108.400 342.530,108.130 342.800,107.800 342.800 C 107.470 342.800,107.200 342.530,107.200 342.200 C 107.200 341.870,107.020 341.600,106.800 341.600 C 106.580 341.600,106.400 341.793,106.400 342.029 M139.600 375.600 C 139.600 375.820,139.870 376.000,140.200 376.000 C 140.530 376.000,140.800 375.820,140.800 375.600 C 140.800 375.380,140.530 375.200,140.200 375.200 C 139.870 375.200,139.600 375.380,139.600 375.600 M141.600 377.600 C 141.600 377.820,141.870 378.000,142.200 378.000 C 142.530 378.000,142.800 377.820,142.800 377.600 C 142.800 377.380,142.530 377.200,142.200 377.200 C 141.870 377.200,141.600 377.380,141.600 377.600 M375.200 493.629 C 375.200 495.589,375.800 496.800,376.771 496.800 C 377.007 496.800,377.200 496.993,377.200 497.229 C 377.200 497.782,378.218 498.800,378.771 498.800 C 379.007 498.800,379.200 499.070,379.200 499.400 C 379.200 499.730,379.470 500.000,379.800 500.000 C 380.173 500.000,380.400 500.378,380.400 501.000 C 380.400 501.550,380.580 502.000,380.800 502.000 C 381.020 502.000,381.200 502.450,381.200 503.000 C 381.200 503.622,381.427 504.000,381.800 504.000 C 382.173 504.000,382.400 503.622,382.400 503.000 C 382.400 502.378,382.173 502.000,381.800 502.000 C 381.427 502.000,381.200 501.622,381.200 501.000 C 381.200 500.450,381.020 500.000,380.800 500.000 C 380.580 500.000,380.400 499.550,380.400 499.000 C 380.400 498.378,380.173 498.000,379.800 498.000 C 379.427 498.000,379.200 497.622,379.200 497.000 C 379.200 496.378,378.973 496.000,378.600 496.000 C 378.270 496.000,378.000 495.730,378.000 495.400 C 378.000 495.070,377.820 494.800,377.600 494.800 C 377.380 494.800,377.200 494.530,377.200 494.200 C 377.200 493.870,376.930 493.600,376.600 493.600 C 376.227 493.600,376.000 493.222,376.000 492.600 C 376.000 492.050,375.820 491.600,375.600 491.600 C 375.380 491.600,375.200 492.513,375.200 493.629 M382.400 505.800 C 382.400 506.130,382.580 506.400,382.800 506.400 C 383.020 506.400,383.200 506.130,383.200 505.800 C 383.200 505.470,383.020 505.200,382.800 505.200 C 382.580 505.200,382.400 505.470,382.400 505.800 M374.000 506.800 C 374.000 507.020,374.270 507.200,374.600 507.200 C 374.930 507.200,375.200 507.020,375.200 506.800 C 375.200 506.580,374.930 506.400,374.600 506.400 C 374.270 506.400,374.000 506.580,374.000 506.800 M375.200 529.200 C 375.200 542.800,375.338 550.000,375.600 550.000 C 375.862 550.000,376.000 542.800,376.000 529.200 C 376.000 515.600,375.862 508.400,375.600 508.400 C 375.338 508.400,375.200 515.600,375.200 529.200 " stroke="none" fill="#4084b4" fill-rule="evenodd"></path><path id="path3" d="M41.600 176.200 C 41.600 176.822,41.827 177.200,42.200 177.200 C 42.573 177.200,42.800 176.822,42.800 176.200 C 42.800 175.578,42.573 175.200,42.200 175.200 C 41.827 175.200,41.600 175.578,41.600 176.200 M358.400 176.200 C 358.400 176.750,358.580 177.200,358.800 177.200 C 359.020 177.200,359.200 176.750,359.200 176.200 C 359.200 175.650,359.020 175.200,358.800 175.200 C 358.580 175.200,358.400 175.650,358.400 176.200 M356.400 176.600 C 356.400 176.930,356.580 177.200,356.800 177.200 C 357.020 177.200,357.200 176.930,357.200 176.600 C 357.200 176.270,357.020 176.000,356.800 176.000 C 356.580 176.000,356.400 176.270,356.400 176.600 M324.000 204.600 C 324.000 204.930,324.270 205.200,324.600 205.200 C 324.930 205.200,325.200 204.930,325.200 204.600 C 325.200 204.270,324.930 204.000,324.600 204.000 C 324.270 204.000,324.000 204.270,324.000 204.600 M320.800 207.800 C 320.800 208.130,321.070 208.400,321.400 208.400 C 321.730 208.400,322.000 208.130,322.000 207.800 C 322.000 207.470,321.730 207.200,321.400 207.200 C 321.070 207.200,320.800 207.470,320.800 207.800 M275.200 256.800 C 275.200 257.020,274.930 257.200,274.600 257.200 C 274.270 257.200,274.000 257.470,274.000 257.800 C 274.000 258.130,273.730 258.400,273.400 258.400 C 273.070 258.400,272.800 258.580,272.800 258.800 C 272.800 259.020,273.070 259.200,273.400 259.200 C 273.730 259.200,274.000 259.020,274.000 258.800 C 274.000 258.223,275.100 258.307,275.312 258.900 C 275.416 259.191,275.639 259.252,275.845 259.045 C 276.052 258.839,275.991 258.616,275.700 258.512 C 275.107 258.300,275.023 257.200,275.600 257.200 C 275.820 257.200,276.000 257.020,276.000 256.800 C 276.000 256.580,275.820 256.400,275.600 256.400 C 275.380 256.400,275.200 256.580,275.200 256.800 M362.400 276.600 C 362.400 276.930,362.670 277.200,363.000 277.200 C 363.330 277.200,363.600 276.930,363.600 276.600 C 363.600 276.270,363.330 276.000,363.000 276.000 C 362.670 276.000,362.400 276.270,362.400 276.600 M359.200 279.800 C 359.200 280.130,359.470 280.400,359.800 280.400 C 360.130 280.400,360.400 280.130,360.400 279.800 C 360.400 279.470,360.130 279.200,359.800 279.200 C 359.470 279.200,359.200 279.470,359.200 279.800 M106.400 342.029 C 106.400 342.582,107.418 343.600,107.971 343.600 C 108.207 343.600,108.400 343.870,108.400 344.200 C 108.400 344.530,108.580 344.800,108.800 344.800 C 109.374 344.800,109.294 343.711,108.700 343.433 C 108.300 343.247,108.300 343.153,108.700 342.967 C 109.294 342.689,109.374 341.600,108.800 341.600 C 108.580 341.600,108.400 341.870,108.400 342.200 C 108.400 342.530,108.130 342.800,107.800 342.800 C 107.470 342.800,107.200 342.530,107.200 342.200 C 107.200 341.870,107.020 341.600,106.800 341.600 C 106.580 341.600,106.400 341.793,106.400 342.029 M139.600 375.600 C 139.600 375.820,139.870 376.000,140.200 376.000 C 140.530 376.000,140.800 375.820,140.800 375.600 C 140.800 375.380,140.530 375.200,140.200 375.200 C 139.870 375.200,139.600 375.380,139.600 375.600 M141.600 377.600 C 141.600 377.820,141.870 378.000,142.200 378.000 C 142.530 378.000,142.800 377.820,142.800 377.600 C 142.800 377.380,142.530 377.200,142.200 377.200 C 141.870 377.200,141.600 377.380,141.600 377.600 M375.200 493.629 C 375.200 495.589,375.800 496.800,376.771 496.800 C 377.007 496.800,377.200 496.993,377.200 497.229 C 377.200 497.782,378.218 498.800,378.771 498.800 C 379.007 498.800,379.200 499.070,379.200 499.400 C 379.200 499.730,379.470 500.000,379.800 500.000 C 380.173 500.000,380.400 500.378,380.400 501.000 C 380.400 501.550,380.580 502.000,380.800 502.000 C 381.020 502.000,381.200 502.450,381.200 503.000 C 381.200 503.622,381.427 504.000,381.800 504.000 C 382.173 504.000,382.400 503.622,382.400 503.000 C 382.400 502.378,382.173 502.000,381.800 502.000 C 381.427 502.000,381.200 501.622,381.200 501.000 C 381.200 500.450,381.020 500.000,380.800 500.000 C 380.580 500.000,380.400 499.550,380.400 499.000 C 380.400 498.378,380.173 498.000,379.800 498.000 C 379.427 498.000,379.200 497.622,379.200 497.000 C 379.200 496.378,378.973 496.000,378.600 496.000 C 378.270 496.000,378.000 495.730,378.000 495.400 C 378.000 495.070,377.820 494.800,377.600 494.800 C 377.380 494.800,377.200 494.530,377.200 494.200 C 377.200 493.870,376.930 493.600,376.600 493.600 C 376.227 493.600,376.000 493.222,376.000 492.600 C 376.000 492.050,375.820 491.600,375.600 491.600 C 375.380 491.600,375.200 492.513,375.200 493.629 M382.400 505.800 C 382.400 506.130,382.580 506.400,382.800 506.400 C 383.020 506.400,383.200 506.130,383.200 505.800 C 383.200 505.470,383.020 505.200,382.800 505.200 C 382.580 505.200,382.400 505.470,382.400 505.800 M374.000 506.800 C 374.000 507.020,374.270 507.200,374.600 507.200 C 374.930 507.200,375.200 507.020,375.200 506.800 C 375.200 506.580,374.930 506.400,374.600 506.400 C 374.270 506.400,374.000 506.580,374.000 506.800 M375.200 529.200 C 375.200 542.800,375.338 550.000,375.600 550.000 C 375.862 550.000,376.000 542.800,376.000 529.200 C 376.000 515.600,375.862 508.400,375.600 508.400 C 375.338 508.400,375.200 515.600,375.200 529.200 " stroke="none" fill="#4084b4" fill-rule="evenodd"></path><path id="path4" d="M41.600 176.200 C 41.600 176.822,41.827 177.200,42.200 177.200 C 42.573 177.200,42.800 176.822,42.800 176.200 C 42.800 175.578,42.573 175.200,42.200 175.200 C 41.827 175.200,41.600 175.578,41.600 176.200 M358.400 176.200 C 358.400 176.750,358.580 177.200,358.800 177.200 C 359.020 177.200,359.200 176.750,359.200 176.200 C 359.200 175.650,359.020 175.200,358.800 175.200 C 358.580 175.200,358.400 175.650,358.400 176.200 M356.400 176.600 C 356.400 176.930,356.580 177.200,356.800 177.200 C 357.020 177.200,357.200 176.930,357.200 176.600 C 357.200 176.270,357.020 176.000,356.800 176.000 C 356.580 176.000,356.400 176.270,356.400 176.600 M324.000 204.600 C 324.000 204.930,324.270 205.200,324.600 205.200 C 324.930 205.200,325.200 204.930,325.200 204.600 C 325.200 204.270,324.930 204.000,324.600 204.000 C 324.270 204.000,324.000 204.270,324.000 204.600 M320.800 207.800 C 320.800 208.130,321.070 208.400,321.400 208.400 C 321.730 208.400,322.000 208.130,322.000 207.800 C 322.000 207.470,321.730 207.200,321.400 207.200 C 321.070 207.200,320.800 207.470,320.800 207.800 M275.200 256.800 C 275.200 257.020,274.930 257.200,274.600 257.200 C 274.270 257.200,274.000 257.470,274.000 257.800 C 274.000 258.130,273.730 258.400,273.400 258.400 C 273.070 258.400,272.800 258.580,272.800 258.800 C 272.800 259.020,273.070 259.200,273.400 259.200 C 273.730 259.200,274.000 259.020,274.000 258.800 C 274.000 258.223,275.100 258.307,275.312 258.900 C 275.416 259.191,275.639 259.252,275.845 259.045 C 276.052 258.839,275.991 258.616,275.700 258.512 C 275.107 258.300,275.023 257.200,275.600 257.200 C 275.820 257.200,276.000 257.020,276.000 256.800 C 276.000 256.580,275.820 256.400,275.600 256.400 C 275.380 256.400,275.200 256.580,275.200 256.800 M362.400 276.600 C 362.400 276.930,362.670 277.200,363.000 277.200 C 363.330 277.200,363.600 276.930,363.600 276.600 C 363.600 276.270,363.330 276.000,363.000 276.000 C 362.670 276.000,362.400 276.270,362.400 276.600 M359.200 279.800 C 359.200 280.130,359.470 280.400,359.800 280.400 C 360.130 280.400,360.400 280.130,360.400 279.800 C 360.400 279.470,360.130 279.200,359.800 279.200 C 359.470 279.200,359.200 279.470,359.200 279.800 M106.400 342.029 C 106.400 342.582,107.418 343.600,107.971 343.600 C 108.207 343.600,108.400 343.870,108.400 344.200 C 108.400 344.530,108.580 344.800,108.800 344.800 C 109.374 344.800,109.294 343.711,108.700 343.433 C 108.300 343.247,108.300 343.153,108.700 342.967 C 109.294 342.689,109.374 341.600,108.800 341.600 C 108.580 341.600,108.400 341.870,108.400 342.200 C 108.400 342.530,108.130 342.800,107.800 342.800 C 107.470 342.800,107.200 342.530,107.200 342.200 C 107.200 341.870,107.020 341.600,106.800 341.600 C 106.580 341.600,106.400 341.793,106.400 342.029 M139.600 375.600 C 139.600 375.820,139.870 376.000,140.200 376.000 C 140.530 376.000,140.800 375.820,140.800 375.600 C 140.800 375.380,140.530 375.200,140.200 375.200 C 139.870 375.200,139.600 375.380,139.600 375.600 M141.600 377.600 C 141.600 377.820,141.870 378.000,142.200 378.000 C 142.530 378.000,142.800 377.820,142.800 377.600 C 142.800 377.380,142.530 377.200,142.200 377.200 C 141.870 377.200,141.600 377.380,141.600 377.600 M375.200 493.629 C 375.200 495.589,375.800 496.800,376.771 496.800 C 377.007 496.800,377.200 496.993,377.200 497.229 C 377.200 497.782,378.218 498.800,378.771 498.800 C 379.007 498.800,379.200 499.070,379.200 499.400 C 379.200 499.730,379.470 500.000,379.800 500.000 C 380.173 500.000,380.400 500.378,380.400 501.000 C 380.400 501.550,380.580 502.000,380.800 502.000 C 381.020 502.000,381.200 502.450,381.200 503.000 C 381.200 503.622,381.427 504.000,381.800 504.000 C 382.173 504.000,382.400 503.622,382.400 503.000 C 382.400 502.378,382.173 502.000,381.800 502.000 C 381.427 502.000,381.200 501.622,381.200 501.000 C 381.200 500.450,381.020 500.000,380.800 500.000 C 380.580 500.000,380.400 499.550,380.400 499.000 C 380.400 498.378,380.173 498.000,379.800 498.000 C 379.427 498.000,379.200 497.622,379.200 497.000 C 379.200 496.378,378.973 496.000,378.600 496.000 C 378.270 496.000,378.000 495.730,378.000 495.400 C 378.000 495.070,377.820 494.800,377.600 494.800 C 377.380 494.800,377.200 494.530,377.200 494.200 C 377.200 493.870,376.930 493.600,376.600 493.600 C 376.227 493.600,376.000 493.222,376.000 492.600 C 376.000 492.050,375.820 491.600,375.600 491.600 C 375.380 491.600,375.200 492.513,375.200 493.629 M382.400 505.800 C 382.400 506.130,382.580 506.400,382.800 506.400 C 383.020 506.400,383.200 506.130,383.200 505.800 C 383.200 505.470,383.020 505.200,382.800 505.200 C 382.580 505.200,382.400 505.470,382.400 505.800 M374.000 506.800 C 374.000 507.020,374.270 507.200,374.600 507.200 C 374.930 507.200,375.200 507.020,375.200 506.800 C 375.200 506.580,374.930 506.400,374.600 506.400 C 374.270 506.400,374.000 506.580,374.000 506.800 M375.200 529.200 C 375.200 542.800,375.338 550.000,375.600 550.000 C 375.862 550.000,376.000 542.800,376.000 529.200 C 376.000 515.600,375.862 508.400,375.600 508.400 C 375.338 508.400,375.200 515.600,375.200 529.200 " stroke="none" fill="#4084b4" fill-rule="evenodd"></path></g></svg>