<svg id="Layer_1" data-name="Layer 1" xmlns="http://www.w3.org/2000/svg" xmlns:xlink="http://www.w3.org/1999/xlink" viewBox="0 0 80.8 80.81"><defs><style>.cls-1{fill:none;}.cls-2{clip-path:url(#clip-path);}.cls-3{fill:#fe5000;}</style><clipPath id="clip-path" transform="translate(0 0)"><rect class="cls-1" width="80.81" height="80.81"/></clipPath></defs><title>s-Gear</title><g class="cls-2"><path class="cls-3" d="M75.68,32.87l-6.33-1.51a30.39,30.39,0,0,0-2.11-4.52l3.62-5.73c1.21-2.11,1.81-5.43,0-7.24l-3.62-3.62a5.56,5.56,0,0,0-3.62-1.51A7.39,7.39,0,0,0,60,10l-5.73,3.62c-1.51-.6-3-1.21-4.82-1.81L48.24,5.13C47.64,2.71,45.53,0,42.81,0H37.69C35,0,33.17,2.71,32.56,5.13l-1.51,6.63a23.35,23.35,0,0,0-4.82,2.11L20.2,10a7.39,7.39,0,0,0-3.62-1.21A5.57,5.57,0,0,0,13,10.25L9.35,13.87c-1.81,1.81-1.21,5.13,0,7.24l3.92,6a12.76,12.76,0,0,0-1.81,4.22L4.82,32.87C2.41,33.47,0,35.28,0,38.29v4.82c0,3,2.41,4.52,4.82,5.13l6.63,1.81c0.6,1.21.9,2.71,1.81,3.92L9.35,60c-1.21,2.11-1.81,5.43,0,7.24L13,70.86a5.26,5.26,0,0,0,3.62,1.21,7.16,7.16,0,0,0,3.62-.9l6-3.92a33.51,33.51,0,0,0,4.82,2.11L32.86,76c0.3,2.41,2.11,4.82,4.82,4.82h5.13c2.71,0,4.82-2.41,5.43-4.82l1.51-6.63,4.52-1.81L60,71.16a7.16,7.16,0,0,0,3.62.9,5.26,5.26,0,0,0,3.62-1.21l3.62-3.62c1.81-1.81,1.21-5.13,0-7.24l-3.62-5.73c0.6-1.51,1.21-2.71,1.81-4.22l6.63-1.81c2.41-.6,5.13-2.11,5.13-5.13V38.29c0-3-2.71-4.82-5.13-5.43m0.91,10.25c0,0.3-.6.91-1.81,1.21l-6.63,1.81-2.11.3-0.9,2.11a15.16,15.16,0,0,1-1.51,3.92l-0.91,2.11,1.21,1.81,3.32,5.73c0.9,1.21.9,2.11,0.6,2.41l-3.62,3.32c0,0.3-.6.3-0.6,0.3a2.72,2.72,0,0,1-1.51-.3v-0.3l-5.73-3.62-2.11-1.21-1.81,1.21a23.7,23.7,0,0,1-4.22,1.51l-2.11.9-0.3,2.11-1.51,6.63c-0.3.91-.9,1.81-1.51,1.81H37.69a4.31,4.31,0,0,1-.9-2.11L35,68.44l-0.6-2.11-2.11-.9A12.78,12.78,0,0,1,28,63.62l-2.11-.91-1.81,1.21-6,3.62v0.3a2.26,2.26,0,0,1-1.51.3s-0.6,0-.6-0.3l-3.62-3.32c-0.3-.3,0-1.21.6-2.41l3.62-6,1.21-1.81-0.9-2.11a29.52,29.52,0,0,1-1.51-3.32l-0.9-2.41-2.11-.3L5.73,44.32c-1.21-.3-1.81-0.9-1.81-1.21V38.29c0-.6.9-1.21,1.81-1.51l6.63-1.51,2.11-.3,0.6-2.41a20.23,20.23,0,0,1,1.81-3.62l0.9-2.11L16.58,25,13,18.69c-0.6-.9-0.91-1.81-0.6-2.11L16,13h0.6a2.26,2.26,0,0,1,1.51.3v0.3l6,3.62,1.81,1.21L28,17.19c1.51-.6,2.71-1.21,4.22-1.81l2.11-.6L35,12.66,36.78,6a2.26,2.26,0,0,1,.9-1.81h5.13A2.16,2.16,0,0,1,44,6h0.3l1.21,6.63,0.6,2.11,2.11,0.9a23.7,23.7,0,0,1,4.22,1.51l1.81,1.21,2.11-1.21,5.73-3.62v-0.3a2.72,2.72,0,0,1,1.51-.3s0.6,0,.6.3l3.62,3.32c0.3,0.3.3,1.21-.6,2.41l-3.32,5.73-1.21,1.81,0.91,2.11a41.9,41.9,0,0,1,1.81,3.92L66,35l2.41,0.3,6.33,1.51h0.3c0.6,0.3,1.51.9,1.51,1.51v4.82Z" transform="translate(0 0)"/><path class="cls-3" d="M40.4,49.75a9.2,9.2,0,1,1,0-18.39,9.2,9.2,0,0,1,0,18.39m0-14.17a5,5,0,0,0-4.82,4.82,4.76,4.76,0,0,0,4.82,4.82,5,5,0,0,0,4.82-4.82,5.19,5.19,0,0,0-4.82-4.82" transform="translate(0 0)"/><path class="cls-3" d="M40.1,61.81a21.26,21.26,0,0,1,0-42.51,2.06,2.06,0,0,1,2.11,2.11,2.33,2.33,0,0,1-2.11,2.41,16.73,16.73,0,1,0,0,33.47,2.33,2.33,0,0,1,2.11,2.41,2.06,2.06,0,0,1-2.11,2.11" transform="translate(0 0)"/><path class="cls-3" d="M59.1,42.81A2.33,2.33,0,0,1,57,40.4a16.89,16.89,0,0,0-33.77,0,2.33,2.33,0,0,1-2.11,2.41A2.33,2.33,0,0,1,19,40.4a21.11,21.11,0,0,1,42.21,0,2.33,2.33,0,0,1-2.11,2.41" transform="translate(0 0)"/><path class="cls-3" d="M40.1,61.81A21.26,21.26,0,0,1,25,55.48a2,2,0,0,1,0-3,2.37,2.37,0,0,1,3.32,0,16.74,16.74,0,0,0,23.82,0,2.13,2.13,0,0,1,3,3A21.26,21.26,0,0,1,40.1,61.81" transform="translate(0 0)"/><path class="cls-3" d="M59.1,46.43a2.74,2.74,0,0,1-2.11-.9L52.46,41a2.13,2.13,0,0,1,3-3l3.62,3.62L62.71,38a2.13,2.13,0,0,1,3,3l-4.22,4.52a3.42,3.42,0,0,1-2.41.9" transform="translate(0 0)"/></g></svg>