<?xml version="1.0" encoding="UTF-8" standalone="no"?>
<svg width="61px" height="60px" viewBox="0 0 61 60" version="1.1" xmlns="http://www.w3.org/2000/svg" xmlns:xlink="http://www.w3.org/1999/xlink" xmlns:sketch="http://www.bohemiancoding.com/sketch/ns">
    <!-- Generator: Sketch 3.3.2 (12043) - http://www.bohemiancoding.com/sketch -->
    <title>s-Globe</title>
    <desc>Created with Sketch.</desc>
    <defs></defs>
    <g id="Page-1" stroke="none" stroke-width="1" fill="none" fill-rule="evenodd" sketch:type="MSPage">
        <path d="M30.3899575,-3.55271368e-15 C38.6727858,-3.55271368e-15 46.1727858,3.35858586 51.5768262,8.78787879 C57.0061191,14.2171717 60.364705,21.7171717 60.364705,30 C60.364705,38.2828283 57.0061191,45.7828283 51.5768262,51.2121212 C46.1727858,56.6414141 38.6475332,60 30.3899575,60 C22.1071292,60 14.6071292,56.6414141 9.17783628,51.2121212 C3.74854335,45.7828283 0.38995749,38.2828283 0.38995749,30 C0.38995749,21.7171717 3.74854335,14.2171717 9.17783628,8.78787879 C14.6071292,3.38383838 22.1071292,-3.55271368e-15 30.3899575,-3.55271368e-15 L30.3899575,-3.55271368e-15 L30.3899575,-3.55271368e-15 Z M29.0010686,55.3535354 L29.0010686,55.3535354 L29.0010686,45.6565657 C26.2737959,45.7828283 23.6475332,46.3383838 21.2232908,47.2474747 C20.8697555,47.3737374 20.5162201,47.5252525 20.1879373,47.6515152 C20.3899575,48.1060606 20.6172302,48.510101 20.8445029,48.9141414 C22.3596545,51.6666667 24.1778363,53.7878788 26.1980383,55.0252525 C27.1323817,55.1767677 28.0667252,55.3030303 29.0010686,55.3535354 L29.0010686,55.3535354 L29.0010686,55.3535354 Z M48.3445029,12.0707071 L48.3445029,12.0707071 C48.1424827,11.8686869 47.9404625,11.6666667 47.7384423,11.4646465 C46.6273312,12.2979798 45.4404625,13.0555556 44.2030888,13.7121212 C45.8445029,18.0050505 46.854604,23.1060606 47.0061191,28.6363636 L55.7687454,28.6363636 C55.3899575,22.1717172 52.6374322,16.3383838 48.3445029,12.0707071 L48.3445029,12.0707071 L48.3445029,12.0707071 Z M45.5414726,9.62121212 L45.5414726,9.62121212 C43.9505636,8.43434343 42.2081393,7.44949495 40.364705,6.66666667 C41.0970282,7.6010101 41.7535939,8.63636364 42.384907,9.77272727 C42.6374322,10.2272727 42.8899575,10.6818182 43.0919777,11.1616162 C43.925311,10.6818182 44.7333918,10.1767677 45.5414726,9.62121212 L45.5414726,9.62121212 L45.5414726,9.62121212 Z M34.5818767,4.97474747 L34.5818767,4.97474747 C33.6727858,4.82323232 32.7384423,4.72222222 31.7788464,4.67171717 L31.7788464,14.3686869 C34.5061191,14.2171717 37.1323817,13.6616162 39.5566242,12.7777778 C39.9101595,12.6515152 40.2636949,12.5 40.5919777,12.3737374 C40.3899575,11.9444444 40.1626848,11.5151515 39.935412,11.1111111 C38.445513,8.33333333 36.6020787,6.21212121 34.5818767,4.97474747 L34.5818767,4.97474747 L34.5818767,4.97474747 Z M29.0010686,4.67171717 L29.0010686,4.67171717 C28.0667252,4.72222222 27.1323817,4.82323232 26.1980383,4.97474747 C24.1778363,6.23737374 22.3596545,8.35858586 20.8445029,11.1111111 C20.6172302,11.5151515 20.41521,11.9444444 20.1879373,12.3737374 C20.5162201,12.5252525 20.8697555,12.6515152 21.2232908,12.7777778 C23.6727858,13.6868687 26.2737959,14.2424242 29.0010686,14.3686869 L29.0010686,4.67171717 L29.0010686,4.67171717 Z M20.4404625,6.66666667 L20.4404625,6.66666667 C18.5970282,7.44949495 16.854604,8.45959596 15.2636949,9.62121212 C16.0465231,10.1767677 16.854604,10.6818182 17.7131898,11.1363636 C17.9404625,10.6565657 18.1929878,10.2020202 18.4202605,9.74747475 C19.0515737,8.63636364 19.7081393,7.6010101 20.4404625,6.66666667 L20.4404625,6.66666667 L20.4404625,6.66666667 Z M13.0919777,11.4646465 L13.0919777,11.4646465 C12.8899575,11.6666667 12.6626848,11.8686869 12.4606646,12.0707071 C8.16773527,16.3636364 5.41521002,22.1717172 5.06167466,28.6363636 L13.7990484,28.6363636 C13.9505636,23.1060606 14.9606646,18.0050505 16.6020787,13.7121212 C15.364705,13.0555556 14.2030888,12.2979798 13.0919777,11.4646465 L13.0919777,11.4646465 L13.0919777,11.4646465 Z M5.06167466,31.3888889 L5.06167466,31.3888889 C5.41521002,37.8535354 8.16773527,43.6616162 12.4606646,47.9292929 L13.0919777,48.5353535 C14.2030888,47.7020202 15.3899575,46.9444444 16.6273312,46.2878788 C14.9859171,42.020202 13.9758161,36.8939394 13.8243009,31.3636364 L5.06167466,31.3636364 L5.06167466,31.3888889 L5.06167466,31.3888889 Z M15.2636949,50.3787879 L15.2636949,50.3787879 C16.854604,51.5656566 18.5717757,52.5505051 20.4404625,53.3585859 C19.7333918,52.4242424 19.0515737,51.3888889 18.4202605,50.2525253 C18.1677353,49.7979798 17.9404625,49.3434343 17.7131898,48.8636364 C16.854604,49.3181818 16.0465231,49.8232323 15.2636949,50.3787879 L15.2636949,50.3787879 L15.2636949,50.3787879 Z M31.7788464,55.3535354 L31.7788464,55.3535354 C32.7384423,55.3030303 33.6727858,55.2020202 34.5818767,55.0505051 C36.6020787,53.7878788 38.445513,51.6919192 39.935412,48.9393939 C40.1626848,48.5353535 40.3899575,48.1060606 40.5919777,47.6767677 C40.2636949,47.5505051 39.9101595,47.3989899 39.5566242,47.2727273 C37.1323817,46.3636364 34.5061191,45.8080808 31.7788464,45.6818182 L31.7788464,55.3535354 L31.7788464,55.3535354 Z M40.364705,53.3585859 L40.364705,53.3585859 C42.2081393,52.5757576 43.9505636,51.5656566 45.5414726,50.3787879 C44.7586444,49.8232323 43.9505636,49.3181818 43.0919777,48.8383838 C42.864705,49.3181818 42.6374322,49.7979798 42.384907,50.2272727 C41.7535939,51.3636364 41.0717757,52.3989899 40.364705,53.3585859 L40.364705,53.3585859 L40.364705,53.3585859 Z M47.7131898,48.5606061 L47.7131898,48.5606061 L48.3192504,47.9545455 C52.6121797,43.6616162 55.364705,37.8535354 55.7182403,31.4141414 L46.9556141,31.4141414 C46.8040989,36.9191919 45.7939979,42.0454545 44.1525838,46.3383838 C45.41521,46.969697 46.6020787,47.7272727 47.7131898,48.5606061 L47.7131898,48.5606061 L47.7131898,48.5606061 Z M41.6778363,14.8989899 L41.6778363,14.8989899 C41.2990484,15.0505051 40.9202605,15.2020202 40.5414726,15.3535354 C37.7889474,16.3636364 34.8344019,16.9949495 31.7788464,17.1212121 L31.7788464,28.6111111 L44.2283413,28.6111111 C44.0768262,23.5353535 43.1677353,18.8383838 41.6778363,14.8989899 L41.6778363,14.8989899 L41.6778363,14.8989899 Z M29.0010686,17.1464646 L29.0010686,17.1464646 C25.945513,17.020202 23.0162201,16.3888889 20.2384423,15.3787879 C19.8596545,15.2272727 19.4556141,15.0757576 19.1020787,14.9242424 C17.6121797,18.8636364 16.7030888,23.5606061 16.5515737,28.6363636 L29.0010686,28.6363636 L29.0010686,17.1464646 L29.0010686,17.1464646 Z M29.0010686,42.8535354 L29.0010686,42.8535354 L29.0010686,31.3888889 L16.5768262,31.3888889 C16.7283413,36.489899 17.6374322,41.1868687 19.1273312,45.1010101 C19.5061191,44.9494949 19.884907,44.7979798 20.2889474,44.6464646 C23.0162201,43.6363636 25.945513,43.0050505 29.0010686,42.8535354 L29.0010686,42.8535354 L29.0010686,42.8535354 Z M31.7788464,42.8535354 L31.7788464,42.8535354 C34.8344019,43.0050505 37.7889474,43.6111111 40.5414726,44.6464646 C40.9202605,44.7979798 41.3243009,44.9494949 41.7030888,45.1010101 C43.1929878,41.1868687 44.1020787,36.4646465 44.2283413,31.3888889 L31.7788464,31.3888889 L31.7788464,42.8535354 L31.7788464,42.8535354 Z" id="s-Globe" fill="#3CB6CE" sketch:type="MSShapeGroup"></path>
    </g>
</svg>