<?xml version="1.0" encoding="UTF-8" standalone="no"?>
<svg width="46px" height="70px" viewBox="0 0 46 70" version="1.1" xmlns="http://www.w3.org/2000/svg" xmlns:xlink="http://www.w3.org/1999/xlink" xmlns:sketch="http://www.bohemiancoding.com/sketch/ns">
    <!-- Generator: Sketch 3.3.3 (12072) - http://www.bohemiancoding.com/sketch -->
    <title>s-ITSMgmt</title>
    <desc>Created with Sketch.</desc>
    <defs></defs>
    <g id="Page-1" stroke="none" stroke-width="1" fill="none" fill-rule="evenodd" sketch:type="MSPage">
        <g id="s-ITSMgmt" sketch:type="MSLayerGroup" transform="translate(0.000000, -1.000000)" fill="#FE5000">
            <path d="M20,17.6 C15.4,17.6 11.7,13.9 11.7,9.3 C11.7,4.7 15.4,1 20,1 C24.6,1 28.3,4.7 28.3,9.3 C28.3,13.8 24.6,17.6 20,17.6 L20,17.6 Z M20,4.1 C17.2,4.1 14.9,6.4 14.9,9.2 C14.9,12 17.2,14.3 20,14.3 C22.8,14.3 25.1,12 25.1,9.2 C25.1,6.4 22.8,4.1 20,4.1 L20,4.1 Z" id="Shape" sketch:type="MSShapeGroup"></path>
            <path d="M33,17.9 L27.4,17.9 C26,17.9 24.7,18.6 23.8,19.8 L21,23.1 L20.9,23.3 C20.7,23.6 20.3,23.8 20,23.8 L20,23.8 C19.6,23.8 19.3,23.6 19,23.2 L16.2,19.8 C15.4,18.6 14,17.8 12.6,17.8 L7.5,17.8 C6.6,17.8 5.7,18.1 5,18.6 C3.9,19.4 2,21.3 2,24.3 L2,44.1 C2,45.2 2.3,46.1 2.9,47 C3.7,48.1 5.1,49.5 7.7,50.2 L10.4,48 C9.9,47.6 9.4,47.4 8.8,47.2 C7,46.8 6,45.9 5.5,45.2 C5.3,44.9 5.2,44.5 5.2,44.1 L5.2,24.4 C5.2,22.9 6.1,21.8 6.9,21.3 C7.1,21.2 7.3,21.1 7.5,21.1 L12.6,21.1 C13,21.1 13.3,21.3 13.6,21.7 L16.4,25.1 C17.2,26.3 18.5,27 19.9,27 C21.3,27 22.6,26.3 23.5,25.1 L26.3,21.8 L26.4,21.7 C26.6,21.3 27,21.1 27.4,21.1 L32.8,21.1 C34.8,21.3 34.9,24.9 34.9,25 L36.5,25 L38.1,25 C38.1,22.7 37,18.2 33,17.9 L33,17.9 Z" id="Shape" sketch:type="MSShapeGroup"></path>
            <path d="M28.7,62.4 C28.7,66.6 28.5,67.1 28.1,67.4 C27.9,67.5 27.6,67.7 27.3,67.7 C20,66.7 18.1,67 15.1,67.4 C14.7,67.5 14.2,67.5 13.8,67.6 C13.4,67.7 13.1,67.5 13,67.3 C12.7,67 12.5,66.6 12.5,66.2 L9.6,68 C9.9,68.7 10.3,69.4 10.9,69.9 C11.9,70.7 13.1,71.1 14.3,70.9 C14.8,70.8 15.2,70.8 15.7,70.7 C18.5,70.3 20.1,70 26.9,71 L27.5,71 C28.5,71 29.5,70.6 30.3,69.9 C31.4,69 32,67.6 32,66.1 L32,52.6 L28.7,55 L28.7,62.4 L28.7,62.4 Z" id="Shape" sketch:type="MSShapeGroup"></path>
            <path d="M42.9,43.7 L36.1,42.9 L34.1,38.3 L37.1,34.3 L44,35 C44.2,35 44.4,35 44.6,34.9 C45.1,34.6 45.3,34 45.1,33.5 C44.9,33.2 44.8,32.9 44.6,32.6 L44.6,32.6 C44.4,32.3 44.2,32 44,31.7 C40.3,27 33.4,26.1 28.7,29.8 C27.2,31 26.1,32.4 25.4,34 C24.8,35.5 24.4,37.1 24.5,38.7 L3.1,55.5 C0.4,57.6 -0.1,61.7 2,64.4 C4.1,67.1 8.2,67.6 10.9,65.5 L32.3,48.8 C33.8,49.2 35.5,49.3 37.1,49.1 C38.9,48.8 40.6,48.1 42,47 C42.6,46.6 43.1,46.1 43.5,45.6 L43.5,45.6 C43.6,45.4 43.7,45.2 43.7,45 C43.9,44.3 43.5,43.8 42.9,43.7 L42.9,43.7 Z M36.8,47 C35.4,47.2 33.9,47.1 32.5,46.6 C32.1,46.5 31.8,46.5 31.5,46.8 L9.6,63.8 C7.8,65.2 5.1,64.9 3.7,63.1 C2.3,61.3 2.6,58.6 4.4,57.2 L26.2,40.1 C26.5,39.9 26.7,39.5 26.6,39.1 C26.5,37.7 26.7,36.2 27.3,34.9 C27.9,33.6 28.8,32.4 30,31.5 C33.7,28.6 39,29.1 42,32.6 L36.9,32 C36.5,32 36.2,32.1 35.9,32.4 L34,34.9 L32.1,37.4 C31.9,37.7 31.8,38.1 32,38.5 L34.4,44.3 C34.6,44.7 34.9,44.9 35.2,44.9 L40.3,45.5 C39.3,46.3 38.1,46.8 36.8,47 L36.8,47 Z" id="Shape" sketch:type="MSShapeGroup"></path>
        </g>
    </g>
</svg>