<?xml version="1.0" encoding="UTF-8" standalone="no"?>
<svg width="61px" height="60px" viewBox="0 0 61 60" version="1.1" xmlns="http://www.w3.org/2000/svg" xmlns:xlink="http://www.w3.org/1999/xlink" xmlns:sketch="http://www.bohemiancoding.com/sketch/ns">
    <!-- Generator: Sketch 3.3.2 (12043) - http://www.bohemiancoding.com/sketch -->
    <title>s-MyIT</title>
    <desc>Created with Sketch.</desc>
    <defs></defs>
    <g id="Page-1" stroke="none" stroke-width="1" fill="none" fill-rule="evenodd" sketch:type="MSPage">
        <g id="s-MyIT" sketch:type="MSLayerGroup" transform="translate(0.724493, 0.000000)" fill="#F58620">
            <path d="M30.1375258,53.0791753 C17.3672165,53.0791753 7.23896907,42.7307216 7.23896907,29.9604124 C7.23896907,17.4103093 17.3672165,7.06185567 30.1375258,7.06185567 C42.6876289,7.06185567 53.0360825,17.4103093 53.0360825,29.9604124 C53.0360825,42.7307216 42.6876289,53.0791753 30.1375258,53.0791753 L30.1375258,53.0791753 L30.1375258,53.0791753 Z M30.1375258,10.1443299 C19.1286598,10.1443299 10.3214433,19.1715464 10.3214433,29.9604124 C10.3214433,40.9692784 19.1286598,49.7764948 30.1375258,49.7764948 C40.9261856,49.7764948 49.9536082,40.9692784 49.9536082,29.9604124 C49.9536082,19.1717526 40.9261856,10.1443299 30.1375258,10.1443299 L30.1375258,10.1443299 L30.1375258,10.1443299 Z" id="XMLID_1976_" sketch:type="MSShapeGroup"></path>
            <path d="M30.1375258,59.9047423 C13.6241237,59.9047423 0.193195876,46.4738144 0.193195876,29.9604124 C0.193195876,13.4470103 13.6241237,0.0160824742 30.1375258,0.0160824742 C46.6509278,0.0160824742 60.0818557,13.4470103 60.0818557,29.9604124 C60.0818557,46.4738144 46.6509278,59.9047423 30.1375258,59.9047423 L30.1375258,59.9047423 L30.1375258,59.9047423 Z M30.1375258,3.31876289 C15.385567,3.31876289 3.2756701,15.2084536 3.2756701,29.9604124 C3.2756701,44.7123711 15.385567,56.822268 30.1375258,56.822268 C44.8894845,56.822268 56.7791753,44.7123711 56.7791753,29.9604124 C56.7791753,15.2084536 44.8894845,3.31876289 30.1375258,3.31876289 L30.1375258,3.31876289 L30.1375258,3.31876289 Z" id="XMLID_1973_" sketch:type="MSShapeGroup"></path>
            <path d="M37.8134021,26.9478351 C38.0309278,26.077732 38.2484536,25.2074227 38.2484536,24.3373196 C38.2484536,18.8987629 34.5503093,14.5480412 29.9818557,14.5480412 C25.4134021,14.5480412 21.7152577,18.8989691 21.7152577,24.3373196 C21.7152577,25.2074227 21.7152577,26.077732 21.9327835,26.9478351 C18.8872165,28.6882474 17.1468041,31.2987629 17.1468041,34.3443299 C17.1468041,39.3478351 22.8028866,43.4810309 29.9818557,43.4810309 C37.1608247,43.4810309 42.8169072,39.3478351 42.8169072,34.3443299 C42.8169072,31.2985567 40.8589691,28.6882474 37.8134021,26.9478351 L37.8134021,26.9478351 L37.8134021,26.9478351 Z M29.9818557,17.5936082 C32.8098969,17.5936082 34.9853608,20.6391753 34.9853608,24.3373196 C34.9853608,28.0354639 32.8098969,31.0810309 29.9818557,31.0810309 C27.1538144,31.0810309 24.7608247,28.0354639 24.7608247,24.3373196 C24.7608247,20.6391753 27.1538144,17.5936082 29.9818557,17.5936082 L29.9818557,17.5936082 L29.9818557,17.5936082 Z M29.9818557,40.2179381 C24.7608247,40.2179381 20.1925773,37.6074227 20.1925773,34.3443299 C20.1925773,32.6039175 21.497732,31.0812371 23.2381443,29.9934021 C24.7610309,32.6039175 27.1538144,34.1265979 29.9818557,34.1265979 C32.8098969,34.1265979 35.2028866,32.6037113 36.725567,29.9934021 C38.4659794,31.0810309 39.5536082,32.6039175 39.5536082,34.3443299 C39.5538144,37.6074227 35.2028866,40.2179381 29.9818557,40.2179381 L29.9818557,40.2179381 L29.9818557,40.2179381 Z" id="XMLID_1969_" sketch:type="MSShapeGroup"></path>
        </g>
    </g>
</svg>