<?xml version="1.0" encoding="UTF-8"?>
<svg width="160px" height="160px" viewBox="0 0 160 160" version="1.1" xmlns="http://www.w3.org/2000/svg" xmlns:xlink="http://www.w3.org/1999/xlink">
    <!-- Generator: Sketch 40.3 (33839) - http://www.bohemiancoding.com/sketch -->
    <title>s-playButton</title>
    <desc>Created with Sketch.</desc>
    <defs></defs>
    <g id="Page-1" stroke="none" stroke-width="1" fill="none" fill-rule="evenodd">
        <g id="s-playButton" fill="#000000">
            <path d="M160,80 C160,35.81722 124.18278,0 80,0 C35.81722,0 0,35.81722 0,80 L7,80 C7,39.6832133 39.6832133,7 80,7 C120.316787,7 153,39.6832133 153,80 L160,80 L160,80 Z" id="arc-top"></path>
            <path d="M160,160 C160,115.81722 124.18278,80 80,80 C35.81722,80 0,115.81722 0,160 L7,160 C7,119.683213 39.6832133,87 80,87 C120.316787,87 153,119.683213 153,160 L160,160 L160,160 Z" id="arc-bottom" transform="translate(80.000000, 120.000000) rotate(180.000000) translate(-80.000000, -120.000000) "></path>
            <path d="M115.98447,80 C115.850558,78.6666871 114.859065,77.3460197 113.337884,76.202346 L64.1911263,46.4369501 C62.7576792,45.6158358 61.3242321,45 59.890785,45 C57.2286689,45 56,46.6422287 56,48.4897361 L56,61.8328446 L56,80 L63,80 L63,53 L107,80 L115.984476,80 L115.98447,80 Z" id="angle-top"></path>
            <path d="M115.98447,115 C115.850558,113.666687 114.859065,112.34602 113.337884,111.202346 L64.1911263,81.4369501 C62.7576792,80.6158358 61.3242321,80 59.890785,80 C57.2286689,80 56,81.6422287 56,83.4897361 L56,96.8328446 L56,115 L63,115 L63,88 L107,115 L115.984476,115 L115.98447,115 Z" id="angle-bottom" transform="translate(85.992238, 97.500000) scale(1, -1) translate(-85.992238, -97.500000) "></path>
        </g>
    </g>
</svg>