<svg id="svg" version="1.1" xmlns="http://www.w3.org/2000/svg" xmlns:xlink="http://www.w3.org/1999/xlink" width="400" height="400" viewBox="0, 0, 400,400"><g id="svgg"><path id="path0" d="M0.000 200.000 L 0.000 400.000 200.000 400.000 L 400.000 400.000 400.000 200.000 L 400.000 0.000 200.000 0.000 L 0.000 0.000 0.000 200.000 M350.800 194.800 L 350.800 350.800 194.800 350.800 L 38.800 350.800 38.800 194.800 L 38.800 38.800 194.800 38.800 L 350.800 38.800 350.800 194.800 M165.100 106.669 C 164.055 106.765,163.200 107.014,163.200 107.222 C 163.200 107.430,162.996 107.600,162.747 107.600 C 162.498 107.600,162.002 107.937,161.645 108.348 C 161.288 108.760,160.264 109.220,159.370 109.371 C 158.467 109.524,157.494 109.992,157.183 110.423 C 156.875 110.850,156.393 111.200,156.112 111.200 C 155.830 111.200,155.600 111.404,155.600 111.653 C 155.600 111.902,155.224 112.432,154.765 112.830 C 154.284 113.248,153.838 114.242,153.712 115.177 C 153.593 116.070,153.338 116.800,153.147 116.800 C 152.956 116.800,152.800 117.700,152.800 118.800 C 152.800 119.900,152.620 120.800,152.400 120.800 C 152.165 120.800,152.000 122.200,152.000 124.200 C 152.000 126.200,151.835 127.600,151.600 127.600 C 151.335 127.600,151.200 152.067,151.200 200.200 C 151.200 248.333,151.335 272.800,151.600 272.800 C 151.829 272.800,152.000 274.000,152.000 275.600 C 152.000 277.200,152.171 278.400,152.400 278.400 C 152.620 278.400,152.800 279.030,152.800 279.800 C 152.800 280.570,152.960 281.200,153.155 281.200 C 153.350 281.200,153.631 282.010,153.779 283.000 C 153.928 283.990,154.218 284.800,154.425 284.800 C 154.631 284.800,154.800 285.070,154.800 285.400 C 154.800 285.730,154.980 286.000,155.200 286.000 C 155.420 286.000,155.600 286.264,155.600 286.586 C 155.600 287.368,157.812 289.600,158.587 289.600 C 158.924 289.600,159.200 289.772,159.200 289.982 C 159.200 290.192,159.830 290.482,160.600 290.626 C 161.613 290.816,162.000 291.098,162.000 291.645 C 162.000 292.060,162.255 292.400,162.567 292.400 C 162.878 292.400,163.207 292.620,163.296 292.889 C 163.399 293.198,164.588 293.434,166.530 293.532 C 168.218 293.618,169.600 293.848,169.600 294.044 C 169.600 294.240,170.860 294.400,172.400 294.400 C 173.940 294.400,175.200 294.242,175.200 294.048 C 175.200 293.855,176.253 293.620,177.539 293.527 C 179.840 293.361,182.000 292.049,182.000 290.818 C 182.000 290.588,182.153 290.400,182.341 290.400 C 182.529 290.400,182.802 288.836,182.949 286.925 C 183.270 282.755,182.755 283.270,186.925 282.949 C 188.836 282.802,190.400 282.529,190.400 282.341 C 190.400 282.153,190.588 282.000,190.818 282.000 C 192.049 282.000,193.361 279.840,193.527 277.539 C 193.620 276.253,193.855 275.200,194.048 275.200 C 194.242 275.200,194.400 274.570,194.400 273.800 C 194.400 272.467,194.467 272.400,195.800 272.400 C 196.570 272.400,197.200 272.220,197.200 272.000 C 197.200 271.780,198.100 271.600,199.200 271.600 C 200.300 271.600,201.200 271.420,201.200 271.200 C 201.200 270.980,201.468 270.800,201.795 270.800 C 202.665 270.800,204.000 269.535,204.000 268.711 C 204.000 268.320,204.180 268.000,204.400 268.000 C 204.620 268.000,204.800 267.100,204.800 266.000 C 204.800 264.900,204.980 264.000,205.200 264.000 C 205.420 264.000,205.600 263.370,205.600 262.600 C 205.600 261.373,205.724 261.200,206.600 261.200 C 207.150 261.200,207.600 261.020,207.600 260.800 C 207.600 260.578,208.667 260.400,210.000 260.400 C 211.333 260.400,212.400 260.222,212.400 260.000 C 212.400 259.780,212.720 259.600,213.111 259.600 C 213.935 259.600,215.200 258.265,215.200 257.395 C 215.200 257.068,215.380 256.800,215.600 256.800 C 215.822 256.800,216.000 255.733,216.000 254.400 C 216.000 253.067,216.178 252.000,216.400 252.000 C 216.620 252.000,216.800 251.550,216.800 251.000 C 216.800 250.378,217.027 250.000,217.400 250.000 C 217.730 250.000,218.000 249.847,218.000 249.659 C 218.000 249.472,219.573 249.208,221.496 249.072 C 223.418 248.936,225.055 248.636,225.131 248.406 C 225.208 248.175,225.525 247.732,225.836 247.421 C 226.146 247.111,226.400 246.484,226.400 246.029 C 226.400 245.573,226.556 245.200,226.747 245.200 C 226.938 245.200,227.180 243.865,227.285 242.234 C 227.531 238.403,227.795 238.161,231.995 237.918 C 234.021 237.801,235.420 237.540,235.513 237.262 C 235.597 237.008,235.922 236.800,236.233 236.800 C 236.545 236.800,236.800 236.545,236.800 236.233 C 236.800 235.922,237.008 235.597,237.262 235.513 C 237.540 235.420,237.800 234.017,237.918 231.979 C 238.167 227.651,238.596 227.200,242.461 227.200 C 244.020 227.200,245.200 227.028,245.200 226.800 C 245.200 226.580,245.470 226.400,245.800 226.400 C 246.130 226.400,246.400 226.220,246.400 226.000 C 246.400 225.780,246.760 225.600,247.200 225.600 C 247.640 225.600,248.000 225.345,248.000 225.033 C 248.000 224.722,248.210 224.397,248.468 224.311 C 248.757 224.214,249.005 222.831,249.117 220.689 C 249.272 217.743,249.412 217.187,250.050 216.984 C 250.462 216.853,250.800 216.578,250.800 216.373 C 250.800 216.168,252.060 216.000,253.600 216.000 C 255.200 216.000,256.400 215.829,256.400 215.600 C 256.400 215.380,256.670 215.200,257.000 215.200 C 257.330 215.200,257.600 215.020,257.600 214.800 C 257.600 214.580,257.946 214.400,258.368 214.400 C 258.897 214.400,259.219 214.025,259.400 213.200 C 259.545 212.540,259.829 212.000,260.032 212.000 C 260.234 212.000,260.400 210.740,260.400 209.200 C 260.400 207.600,260.571 206.400,260.800 206.400 C 261.055 206.400,261.200 203.200,261.200 197.600 C 261.200 192.000,261.055 188.800,260.800 188.800 C 260.580 188.800,260.400 188.260,260.400 187.600 C 260.400 186.060,259.140 184.800,257.600 184.800 C 256.940 184.800,256.400 184.620,256.400 184.400 C 256.400 184.167,255.067 184.000,253.200 184.000 L 250.000 184.000 250.000 180.600 C 250.000 178.600,249.835 177.200,249.600 177.200 C 249.380 177.200,249.200 176.778,249.200 176.261 C 249.200 175.036,247.934 173.600,246.853 173.600 C 246.384 173.600,246.000 173.420,246.000 173.200 C 246.000 172.963,244.533 172.800,242.400 172.800 L 238.800 172.800 238.800 169.800 C 238.800 168.067,238.631 166.800,238.400 166.800 C 238.180 166.800,238.000 166.198,238.000 165.461 C 238.000 162.923,237.036 162.378,232.087 162.117 L 227.714 161.886 227.485 157.553 C 227.171 151.597,226.830 151.247,220.996 150.917 L 216.800 150.679 216.800 147.540 C 216.800 145.713,216.633 144.400,216.400 144.400 C 216.180 144.400,216.000 143.836,216.000 143.147 C 216.000 141.616,214.734 140.400,213.139 140.400 C 212.512 140.400,212.000 140.220,212.000 140.000 C 212.000 139.767,210.667 139.600,208.800 139.600 L 205.600 139.600 205.600 136.400 C 205.600 134.533,205.433 133.200,205.200 133.200 C 204.980 133.200,204.800 132.660,204.800 132.000 C 204.800 131.333,204.444 130.444,204.000 130.000 C 203.556 129.556,202.667 129.200,202.000 129.200 C 201.340 129.200,200.800 129.020,200.800 128.800 C 200.800 128.567,199.467 128.400,197.600 128.400 L 194.400 128.400 194.400 125.400 C 194.400 123.667,194.231 122.400,194.000 122.400 C 193.780 122.400,193.600 121.798,193.600 121.061 C 193.600 119.283,192.449 118.000,190.853 118.000 C 190.164 118.000,189.600 117.820,189.600 117.600 C 189.600 117.367,188.287 117.200,186.460 117.200 L 183.321 117.200 183.065 113.301 C 182.924 111.157,182.627 109.342,182.404 109.268 C 182.182 109.194,182.000 108.788,182.000 108.367 C 182.000 107.878,181.722 107.600,181.233 107.600 C 180.812 107.600,180.396 107.389,180.310 107.131 C 180.149 106.646,169.031 106.309,165.100 106.669 M184.221 126.964 C 184.532 127.275,185.014 127.610,185.293 127.710 C 185.572 127.809,185.655 128.045,185.478 128.234 C 185.301 128.422,184.986 128.312,184.778 127.988 C 184.445 127.471,184.355 127.471,184.022 127.988 C 183.814 128.312,183.504 128.437,183.333 128.267 C 183.163 128.096,183.288 127.789,183.612 127.584 C 184.010 127.332,184.039 127.210,183.700 127.206 C 183.425 127.203,183.200 127.020,183.200 126.800 C 183.200 126.243,183.558 126.301,184.221 126.964 M218.000 238.229 C 218.000 238.354,217.746 238.711,217.436 239.021 C 217.125 239.332,216.790 239.814,216.690 240.093 C 216.591 240.372,216.373 240.474,216.207 240.319 C 216.041 240.165,216.196 239.747,216.552 239.390 C 216.909 239.034,217.200 238.576,217.200 238.371 C 217.200 238.167,217.380 238.000,217.600 238.000 C 217.820 238.000,218.000 238.103,218.000 238.229 M219.600 239.112 C 219.600 239.283,219.218 239.688,218.751 240.012 C 218.284 240.335,217.654 240.838,217.351 241.129 C 216.304 242.133,216.803 241.084,217.900 239.975 C 219.018 238.845,219.600 238.549,219.600 239.112 M220.408 240.900 C 220.176 241.175,219.627 241.834,219.190 242.364 C 218.753 242.894,218.293 243.226,218.169 243.102 C 217.913 242.847,220.028 240.419,220.516 240.408 C 220.689 240.403,220.641 240.625,220.408 240.900 M206.567 250.143 C 206.334 250.748,205.600 251.083,205.600 250.583 C 205.600 250.298,206.568 249.251,206.709 249.383 C 206.770 249.439,206.705 249.781,206.567 250.143 M360.996 359.506 C 360.774 359.668,360.279 360.128,359.896 360.529 C 359.513 360.929,359.200 361.077,359.200 360.857 C 359.200 360.303,360.356 359.199,360.929 359.206 C 361.229 359.210,361.254 359.319,360.996 359.506 " stroke="none" fill="#3c84b4" fill-rule="evenodd"></path><path id="path1" d="M183.200 126.800 C 183.200 127.020,183.425 127.203,183.700 127.206 C 184.039 127.210,184.010 127.332,183.612 127.584 C 183.288 127.789,183.163 128.096,183.333 128.267 C 183.504 128.437,183.814 128.312,184.022 127.988 C 184.355 127.471,184.445 127.471,184.778 127.988 C 184.986 128.312,185.301 128.422,185.478 128.234 C 185.655 128.045,185.572 127.809,185.293 127.710 C 185.014 127.610,184.532 127.275,184.221 126.964 C 183.558 126.301,183.200 126.243,183.200 126.800 M217.200 238.371 C 217.200 238.576,216.909 239.034,216.552 239.390 C 216.196 239.747,216.041 240.165,216.207 240.319 C 216.373 240.474,216.591 240.372,216.690 240.093 C 216.790 239.814,217.125 239.332,217.436 239.021 C 218.099 238.358,218.157 238.000,217.600 238.000 C 217.380 238.000,217.200 238.167,217.200 238.371 M217.900 239.975 C 216.803 241.084,216.304 242.133,217.351 241.129 C 217.654 240.838,218.284 240.335,218.751 240.012 C 219.583 239.435,219.893 238.770,219.300 238.831 C 219.135 238.848,218.505 239.363,217.900 239.975 M219.071 241.645 C 218.450 242.322,218.044 242.978,218.169 243.102 C 218.293 243.226,218.753 242.894,219.190 242.364 C 219.627 241.834,220.176 241.175,220.408 240.900 C 221.316 239.827,220.136 240.485,219.071 241.645 M206.100 249.823 C 205.511 250.463,205.462 250.800,205.957 250.800 C 206.298 250.800,206.937 249.596,206.709 249.383 C 206.649 249.327,206.375 249.525,206.100 249.823 M359.829 359.829 C 359.483 360.174,359.200 360.637,359.200 360.857 C 359.200 361.077,359.513 360.929,359.896 360.529 C 360.279 360.128,360.774 359.668,360.996 359.506 C 361.254 359.319,361.229 359.210,360.929 359.206 C 360.669 359.203,360.174 359.483,359.829 359.829 " stroke="none" fill="#4084b4" fill-rule="evenodd"></path><path id="path2" d="M183.200 126.800 C 183.200 127.020,183.425 127.203,183.700 127.206 C 184.039 127.210,184.010 127.332,183.612 127.584 C 183.288 127.789,183.163 128.096,183.333 128.267 C 183.504 128.437,183.814 128.312,184.022 127.988 C 184.355 127.471,184.445 127.471,184.778 127.988 C 184.986 128.312,185.301 128.422,185.478 128.234 C 185.655 128.045,185.572 127.809,185.293 127.710 C 185.014 127.610,184.532 127.275,184.221 126.964 C 183.558 126.301,183.200 126.243,183.200 126.800 M217.200 238.371 C 217.200 238.576,216.909 239.034,216.552 239.390 C 216.196 239.747,216.041 240.165,216.207 240.319 C 216.373 240.474,216.591 240.372,216.690 240.093 C 216.790 239.814,217.125 239.332,217.436 239.021 C 218.099 238.358,218.157 238.000,217.600 238.000 C 217.380 238.000,217.200 238.167,217.200 238.371 M217.900 239.975 C 216.803 241.084,216.304 242.133,217.351 241.129 C 217.654 240.838,218.284 240.335,218.751 240.012 C 219.583 239.435,219.893 238.770,219.300 238.831 C 219.135 238.848,218.505 239.363,217.900 239.975 M219.071 241.645 C 218.450 242.322,218.044 242.978,218.169 243.102 C 218.293 243.226,218.753 242.894,219.190 242.364 C 219.627 241.834,220.176 241.175,220.408 240.900 C 221.316 239.827,220.136 240.485,219.071 241.645 M206.100 249.823 C 205.511 250.463,205.462 250.800,205.957 250.800 C 206.298 250.800,206.937 249.596,206.709 249.383 C 206.649 249.327,206.375 249.525,206.100 249.823 M359.829 359.829 C 359.483 360.174,359.200 360.637,359.200 360.857 C 359.200 361.077,359.513 360.929,359.896 360.529 C 360.279 360.128,360.774 359.668,360.996 359.506 C 361.254 359.319,361.229 359.210,360.929 359.206 C 360.669 359.203,360.174 359.483,359.829 359.829 " stroke="none" fill="#4084b4" fill-rule="evenodd"></path><path id="path3" d="M183.200 126.800 C 183.200 127.020,183.425 127.203,183.700 127.206 C 184.039 127.210,184.010 127.332,183.612 127.584 C 183.288 127.789,183.163 128.096,183.333 128.267 C 183.504 128.437,183.814 128.312,184.022 127.988 C 184.355 127.471,184.445 127.471,184.778 127.988 C 184.986 128.312,185.301 128.422,185.478 128.234 C 185.655 128.045,185.572 127.809,185.293 127.710 C 185.014 127.610,184.532 127.275,184.221 126.964 C 183.558 126.301,183.200 126.243,183.200 126.800 M217.200 238.371 C 217.200 238.576,216.909 239.034,216.552 239.390 C 216.196 239.747,216.041 240.165,216.207 240.319 C 216.373 240.474,216.591 240.372,216.690 240.093 C 216.790 239.814,217.125 239.332,217.436 239.021 C 218.099 238.358,218.157 238.000,217.600 238.000 C 217.380 238.000,217.200 238.167,217.200 238.371 M217.900 239.975 C 216.803 241.084,216.304 242.133,217.351 241.129 C 217.654 240.838,218.284 240.335,218.751 240.012 C 219.583 239.435,219.893 238.770,219.300 238.831 C 219.135 238.848,218.505 239.363,217.900 239.975 M219.071 241.645 C 218.450 242.322,218.044 242.978,218.169 243.102 C 218.293 243.226,218.753 242.894,219.190 242.364 C 219.627 241.834,220.176 241.175,220.408 240.900 C 221.316 239.827,220.136 240.485,219.071 241.645 M206.100 249.823 C 205.511 250.463,205.462 250.800,205.957 250.800 C 206.298 250.800,206.937 249.596,206.709 249.383 C 206.649 249.327,206.375 249.525,206.100 249.823 M359.829 359.829 C 359.483 360.174,359.200 360.637,359.200 360.857 C 359.200 361.077,359.513 360.929,359.896 360.529 C 360.279 360.128,360.774 359.668,360.996 359.506 C 361.254 359.319,361.229 359.210,360.929 359.206 C 360.669 359.203,360.174 359.483,359.829 359.829 " stroke="none" fill="#4084b4" fill-rule="evenodd"></path><path id="path4" d="M183.200 126.800 C 183.200 127.020,183.425 127.203,183.700 127.206 C 184.039 127.210,184.010 127.332,183.612 127.584 C 183.288 127.789,183.163 128.096,183.333 128.267 C 183.504 128.437,183.814 128.312,184.022 127.988 C 184.355 127.471,184.445 127.471,184.778 127.988 C 184.986 128.312,185.301 128.422,185.478 128.234 C 185.655 128.045,185.572 127.809,185.293 127.710 C 185.014 127.610,184.532 127.275,184.221 126.964 C 183.558 126.301,183.200 126.243,183.200 126.800 M217.200 238.371 C 217.200 238.576,216.909 239.034,216.552 239.390 C 216.196 239.747,216.041 240.165,216.207 240.319 C 216.373 240.474,216.591 240.372,216.690 240.093 C 216.790 239.814,217.125 239.332,217.436 239.021 C 218.099 238.358,218.157 238.000,217.600 238.000 C 217.380 238.000,217.200 238.167,217.200 238.371 M217.900 239.975 C 216.803 241.084,216.304 242.133,217.351 241.129 C 217.654 240.838,218.284 240.335,218.751 240.012 C 219.583 239.435,219.893 238.770,219.300 238.831 C 219.135 238.848,218.505 239.363,217.900 239.975 M219.071 241.645 C 218.450 242.322,218.044 242.978,218.169 243.102 C 218.293 243.226,218.753 242.894,219.190 242.364 C 219.627 241.834,220.176 241.175,220.408 240.900 C 221.316 239.827,220.136 240.485,219.071 241.645 M206.100 249.823 C 205.511 250.463,205.462 250.800,205.957 250.800 C 206.298 250.800,206.937 249.596,206.709 249.383 C 206.649 249.327,206.375 249.525,206.100 249.823 M359.829 359.829 C 359.483 360.174,359.200 360.637,359.200 360.857 C 359.200 361.077,359.513 360.929,359.896 360.529 C 360.279 360.128,360.774 359.668,360.996 359.506 C 361.254 359.319,361.229 359.210,360.929 359.206 C 360.669 359.203,360.174 359.483,359.829 359.829 " stroke="none" fill="#4084b4" fill-rule="evenodd"></path></g></svg>