<?xml version="1.0" encoding="UTF-8" standalone="no"?>
<svg width="64px" height="60px" viewBox="0 0 64 60" version="1.1" xmlns="http://www.w3.org/2000/svg" xmlns:xlink="http://www.w3.org/1999/xlink" xmlns:sketch="http://www.bohemiancoding.com/sketch/ns">
    <!-- Generator: Sketch 3.3.2 (12043) - http://www.bohemiancoding.com/sketch -->
    <title>s-Star</title>
    <desc>Created with Sketch.</desc>
    <defs></defs>
    <g id="Page-1" stroke="none" stroke-width="1" fill="none" fill-rule="evenodd" sketch:type="MSPage">
        <path d="M31.9099045,10.2658968 L27.3883012,24.2537806 C27.0445536,25.3379076 26.0133108,25.9989608 24.9556258,25.9196344 L10.3860153,25.8931923 L22.2849712,34.5133248 C23.1840035,35.1479357 23.501309,36.2849471 23.1575613,37.2633057 L18.609516,51.1983052 L30.4820298,42.5252884 C31.3546199,41.8906774 32.4916312,41.9171195 33.3113371,42.5252884 L33.3377792,42.5252884 L45.1838508,51.1983052 L40.6093634,37.2104214 C40.2920579,36.1791786 40.6886897,35.0950515 41.5348377,34.4868826 L53.4073515,25.8931923 L38.7055304,25.9196344 C37.6478454,25.9196344 36.7223711,25.205697 36.4315077,24.2537806 L31.9099045,10.2658968 L31.9099045,10.2658968 Z M23.3162141,21.1071678 L23.3162141,21.1071678 L29.6094397,1.67220644 C29.8209767,0.958269088 30.4027034,0.35010023 31.1430829,0.112121112 C32.4123048,-0.284510752 33.7872953,0.402984479 34.1839272,1.67220644 L40.4771527,21.1071678 L60.7318199,21.0807256 C61.5250836,21.0278414 62.3447895,21.371589 62.8471898,22.0590842 C63.6404536,23.1432113 63.4024745,24.6504124 62.2919052,25.4436761 L45.7655776,37.4219584 L52.1116874,56.8304776 C52.3232244,57.544415 52.243898,58.3376787 51.7679398,58.9987318 C51.0011182,60.0828589 49.4939171,60.320838 48.40979,59.5275743 L31.9099045,47.4964078 L15.5422296,59.4218058 C14.9076186,59.9506483 14.0614706,60.1357432 13.2417648,59.897764 C11.9725428,59.5011322 11.2850476,58.1261417 11.7081215,56.8569197 L18.0542314,37.4484006 L1.52790371,25.4701183 C0.893292729,25.0470443 0.523102989,24.3331069 0.523102989,23.5134011 C0.523102989,22.1912949 1.58078796,21.1071678 2.90289417,21.1071678 L23.3162141,21.1071678 L23.3162141,21.1071678 Z" id="s-Star" fill="#FE5000" sketch:type="MSShapeGroup"></path>
    </g>
</svg>