<?xml version="1.0" encoding="UTF-8" standalone="no"?>
<svg width="84px" height="60px" viewBox="0 0 84 60" version="1.1" xmlns="http://www.w3.org/2000/svg" xmlns:xlink="http://www.w3.org/1999/xlink" xmlns:sketch="http://www.bohemiancoding.com/sketch/ns">
    <!-- Generator: Sketch 3.3.2 (12043) - http://www.bohemiancoding.com/sketch -->
    <title>s-Users</title>
    <desc>Created with Sketch.</desc>
    <defs></defs>
    <g id="Page-1" stroke="none" stroke-width="1" fill="none" fill-rule="evenodd" sketch:type="MSPage">
        <g id="s-Users" sketch:type="MSLayerGroup" fill="#3980B2">
            <path d="M5.80909091,59.9181818 C5.75454545,59.7545455 5.7,59.5909091 5.7,59.3727273 L5.7,53.4272727 C5.7,51.2727273 6.08181818,49.2818182 6.81818182,47.4818182 C8.56363636,43.2 13.0636364,39.6 16.2272727,36.4363636 C18.8727273,37.8272727 21.9,38.6181818 25.1181818,38.6181818 C28.3090909,38.6181818 31.3090909,37.8272727 33.9818182,36.4363636 C35.2363636,37.6909091 36.7363636,39.0545455 38.2090909,40.5 C37.0363636,41.9727273 36.0272727,43.5545455 35.2909091,45.3272727 C34.2545455,47.8363636 33.7363636,50.5363636 33.7363636,53.4272727 L33.7363636,59.3727273 C33.7363636,59.5636364 33.7636364,59.7272727 33.7909091,59.9181818 L39.4636364,59.9181818 C39.4090909,59.7545455 39.3545455,59.5909091 39.3545455,59.3727273 L39.3545455,53.4272727 C39.3545455,51.2727273 39.7363636,49.2818182 40.4727273,47.4818182 C40.8545455,46.5818182 41.3727273,45.7090909 41.9454545,44.8636364 C42.5454545,45.7090909 43.0636364,46.5818182 43.4181818,47.4818182 C44.1545455,49.3090909 44.5363636,51.2727273 44.5363636,53.4272727 L44.5363636,59.3727273 C44.5363636,59.5909091 44.4818182,59.7545455 44.4272727,59.9181818 L50.1,59.9181818 C50.1272727,59.7272727 50.1545455,59.5636364 50.1545455,59.3727273 L50.1545455,53.4272727 C50.1545455,50.5363636 49.6363636,47.8363636 48.6,45.3272727 C47.8636364,43.5545455 46.8545455,41.9727273 45.6818182,40.5 C47.1272727,39.0545455 48.6,37.7181818 49.8818182,36.4363636 C52.5272727,37.8272727 55.5545455,38.6181818 58.7727273,38.6181818 C61.9636364,38.6181818 64.9636364,37.8272727 67.6363636,36.4363636 C70.7181818,39.5181818 75.3272727,43.2545455 77.0727273,47.4818182 C77.8090909,49.3090909 78.1909091,51.2727273 78.1909091,53.4272727 L78.1909091,59.3727273 C78.1909091,59.5909091 78.1363636,59.7545455 78.0818182,59.9181818 L83.7545455,59.9181818 C83.7818182,59.7272727 83.8090909,59.5636364 83.8090909,59.3727273 L83.8090909,53.4272727 C83.8090909,50.5363636 83.2909091,47.8363636 82.2545455,45.3272727 C80.2090909,40.3636364 75.9545455,36.8181818 72.2454545,33.1090909 L72.3545455,32.9727273 L72.3818182,32.9454545 C75.8454545,29.4818182 78,24.6818182 78,19.3636364 C78,8.78181818 69.3545455,0.136363636 58.8,0.136363636 C51.6,0.136363636 45.2727273,4.17272727 41.9727273,10.0909091 C38.6727273,4.17272727 32.3727273,0.136363636 25.1727273,0.136363636 C14.6181818,0.136363636 5.94545455,8.78181818 5.94545455,19.3636364 C5.94545455,24.4363636 7.99090909,29.3454545 11.5636364,32.9454545 L11.5909091,32.9727273 L11.7272727,33.1090909 C8.01818182,36.8181818 3.76363636,40.3636364 1.69090909,45.3272727 C0.654545455,47.8363636 0.136363636,50.5363636 0.136363636,53.4272727 L0.136363636,59.3727273 C0.136363636,59.5636364 0.163636364,59.7272727 0.190909091,59.9181818 L5.80909091,59.9181818 L5.80909091,59.9181818 Z M58.7454545,5.78181818 C66.2454545,5.78181818 72.3545455,11.8909091 72.3545455,19.4181818 C72.3545455,27 66.1909091,33.0272727 58.7454545,33.0272727 C51.2727273,33.0272727 45.1363636,27 45.1363636,19.4181818 C45.1090909,11.9181818 51.2454545,5.78181818 58.7454545,5.78181818 L58.7454545,5.78181818 Z M41.9181818,28.6909091 C42.7909091,30.2454545 43.8545455,31.6909091 45.1363636,32.9727273 L45.1636364,33 L45.3,33.1363636 C44.2090909,34.2272727 43.0636364,35.3181818 41.9181818,36.4363636 C40.8,35.3181818 39.6545455,34.2272727 38.5363636,33.1363636 L38.6454545,33 L38.6727273,32.9727273 C39.9545455,31.7181818 41.0454545,30.2727273 41.9181818,28.6909091 L41.9181818,28.6909091 Z M11.5090909,19.4181818 C11.5090909,11.9181818 17.6181818,5.78181818 25.1181818,5.78181818 C32.6181818,5.78181818 38.7272727,11.8909091 38.7272727,19.4181818 C38.7272727,27 32.5636364,33.0272727 25.1181818,33.0272727 C17.6454545,33 11.5090909,26.9727273 11.5090909,19.4181818 L11.5090909,19.4181818 Z" id="Shape" sketch:type="MSShapeGroup"></path>
            <rect id="Rectangle-path" sketch:type="MSShapeGroup" x="0.109090909" y="54.1090909" width="83.6181818" height="5.80909091"></rect>
        </g>
    </g>
</svg>