<?xml version="1.0" encoding="UTF-8" standalone="no"?>
<svg width="50px" height="60px" viewBox="0 0 50 60" version="1.1" xmlns="http://www.w3.org/2000/svg" xmlns:xlink="http://www.w3.org/1999/xlink" xmlns:sketch="http://www.bohemiancoding.com/sketch/ns">
    <!-- Generator: Sketch 3.3.2 (12043) - http://www.bohemiancoding.com/sketch -->
    <title>s-User</title>
    <desc>Created with Sketch.</desc>
    <defs></defs>
    <g id="Page-1" stroke="none" stroke-width="1" fill="none" fill-rule="evenodd" sketch:type="MSPage">
        <g id="s-User" sketch:type="MSLayerGroup" fill="#D7DF0F">
            <path d="M24.8275862,35.908046 C14.9425287,35.908046 6.91954023,27.862069 6.91954023,18 C6.91954023,8.13793103 14.9655172,0.091954023 24.8275862,0.091954023 C34.6896552,0.091954023 42.7356322,8.13793103 42.7356322,18 C42.7356322,27.862069 34.6896552,35.908046 24.8275862,35.908046 L24.8275862,35.908046 Z M24.8275862,4.89655172 C17.6091954,4.89655172 11.7471264,10.7586207 11.7471264,17.9770115 C11.7471264,25.1954023 17.6091954,31.0574713 24.8275862,31.0574713 C32.045977,31.0574713 37.908046,25.1954023 37.908046,17.9770115 C37.908046,10.7586207 32.0229885,4.89655172 24.8275862,4.89655172 L24.8275862,4.89655172 Z" id="Shape" sketch:type="MSShapeGroup"></path>
            <path d="M49.6321839,59.7931034 L0,59.7931034 L0,57.3793103 C0,42.3908046 10.6666667,31.0804598 24.8275862,31.0804598 C38.9885057,31.0804598 49.6551724,42.3908046 49.6551724,57.3793103 L49.6551724,59.7931034 L49.6321839,59.7931034 Z M4.94252874,54.9655172 L44.6896552,54.9655172 C43.6321839,43.9310345 35.4482759,35.908046 24.8045977,35.908046 C14.1609195,35.908046 6,43.9310345 4.94252874,54.9655172 L4.94252874,54.9655172 Z" id="Shape" sketch:type="MSShapeGroup"></path>
            <path d="M24.8275862,28 C20.5517241,28 16.7356322,25.1494253 15.5402299,21.0344828 L19.2413793,19.954023 C19.954023,22.4137931 22.2528736,24.137931 24.8045977,24.137931 C27.3563218,24.137931 29.6551724,22.4137931 30.3678161,19.954023 L34.0689655,21.0344828 C32.8965517,25.1264368 29.0804598,28 24.8275862,28 L24.8275862,28 Z" id="Shape" sketch:type="MSShapeGroup"></path>
        </g>
    </g>
</svg>