<?xml version="1.0" encoding="UTF-8" standalone="no"?>
<svg width="67px" height="42px" viewBox="0 0 67 42" version="1.1" xmlns="http://www.w3.org/2000/svg" xmlns:xlink="http://www.w3.org/1999/xlink" xmlns:sketch="http://www.bohemiancoding.com/sketch/ns">
    <!-- Generator: Sketch 3.3.3 (12072) - http://www.bohemiancoding.com/sketch -->
    <title>s-Workload</title>
    <desc>Created with Sketch.</desc>
    <defs></defs>
    <g id="Page-1" stroke="none" stroke-width="1" fill="none" fill-rule="evenodd" sketch:type="MSPage">
        <g id="s-Workload" sketch:type="MSLayerGroup" fill="#00A79D">
            <path d="M57,7.1 L17.9,7.1 C17.2,7.1 16.7,7.7 16.7,8.3 L16.7,12.7 C16.7,13.4 17.3,13.9 17.9,13.9 L17.9,13.9 C18.6,13.9 19.1,13.3 19.1,12.7 L19.1,9.5 L55.6,9.5 L55.6,30.8 L26.8,30.8 C26.1,30.8 25.6,31.4 25.6,32 L25.6,32 C25.6,32.7 26.2,33.2 26.8,33.2 L57,33.2 C57.7,33.2 58.2,32.6 58.2,32 L58.2,8.3 C58.2,7.6 57.6,7.1 57,7.1 L57,7.1 Z" id="Shape" sketch:type="MSShapeGroup"></path>
            <path d="M31.4,20.5 C31.9,21.1 32.6,21.2 33.2,20.7 L39.4,15.6 C40,15.1 40.1,14.4 39.6,13.8 C39.1,13.2 38.4,13.1 37.8,13.6 L31.5,18.7 C31,19.2 30.9,19.9 31.4,20.5 L31.4,20.5 Z" id="Shape" sketch:type="MSShapeGroup"></path>
            <path d="M32,26.8 C32.5,27.4 33.2,27.5 33.8,27 L45.4,17.3 C46,16.8 46.1,16.1 45.6,15.5 C45.1,14.9 44.4,14.8 43.8,15.3 L32.2,25 C31.6,25.5 31.5,26.3 32,26.8 L32,26.8 Z" id="Shape" sketch:type="MSShapeGroup"></path>
            <path d="M37.7,5.7 L37.7,5.7 C37.1,5.7 36.8,5.2 36.8,4.8 L36.8,4.8 C36.8,4.2 37.3,3.9 37.7,3.9 L37.7,3.9 C38.3,3.9 38.6,4.4 38.6,4.8 L38.6,4.8 C38.6,5.2 38.3,5.7 37.7,5.7 L37.7,5.7 Z" id="Shape" sketch:type="MSShapeGroup"></path>
            <path d="M14.9,31.7 C12.1,32.5 9.1,31 8.2,28.2 C7.4,25.4 8.9,22.4 11.7,21.5 C14.5,20.7 17.5,22.2 18.4,25 C19.2,27.7 17.7,30.7 14.9,31.7 L14.9,31.7 Z M12.4,23.8 C10.9,24.3 10.1,25.9 10.5,27.3 C11,28.8 12.6,29.6 14,29.2 C15.4,28.8 16.3,27.1 15.9,25.7 C15.4,24.2 13.8,23.4 12.4,23.8 L12.4,23.8 Z" id="Shape" sketch:type="MSShapeGroup"></path>
            <path d="M10.9,16.4 C11.4,16.4 11.4,16.8 12.7,19 L12.9,19 C13.7,19 14.3,19.1 14.8,19.2 C15,19.2 15.2,19.3 15.4,19.3 C16.8,17.4 17,17 17.4,17 L17.5,17 L18.8,17.7 C19,18 18.8,18.4 18.2,20.8 C19.2,21.7 19.7,22.5 19.8,22.8 C21.2,22.7 21.9,22.6 22.3,22.6 C22.7,22.6 22.8,22.7 22.9,22.9 L23.4,24.3 C23.3,24.7 22.8,24.9 20.8,26.1 C20.8,26.2 20.8,27 20.7,27.5 C20.7,27.9 20.5,28.6 20.5,28.7 C22.3,30.3 22.7,30.6 22.7,30.9 L22,32.2 C21.9,32.3 21.8,32.4 21.6,32.4 C21.2,32.4 20.6,32.1 18.8,31.7 C18.8,31.8 18.5,32 18,32.4 C17.4,32.9 17.1,33.1 16.9,33.2 C17.1,35.8 17.3,36.1 16.9,36.4 L15.5,36.9 C15.1,36.8 14.9,36.3 13.7,34.3 C13.7,34.3 13.7,34.3 13.6,34.3 C13.4,34.3 12.7,34.3 12.3,34.2 C11.8,34.2 11.1,34 11,34 C9.4,35.8 9.1,36.2 8.8,36.2 L7.5,35.5 C7.1,35.1 7.4,34.8 8.1,32.3 C7.2,31.1 6.7,30.2 6.7,30.2 C5.3,30.3 4.6,30.4 4.1,30.4 C3.7,30.4 3.6,30.4 3.4,30.2 L2.9,28.8 C2.9,28.3 3.3,28.3 5.5,27 L5.5,25.8 C5.6,25.1 5.7,24.7 5.7,24.5 C3.7,22.8 3.4,22.7 3.5,22.3 L4.2,21 C4.4,21 4.5,20.9 4.7,20.9 C5.1,20.9 5.7,21.1 7.5,21.6 C7.6,21.5 8.2,20.9 8.6,20.6 C8.8,20.5 9.4,20 9.5,19.9 C9.4,17.5 9.2,17 9.5,16.7 L10.9,16.4 L10.9,16.4 Z M10.9,14.3 L10.2,14.4 L8.9,14.8 L8,15.4 C7.3,16.2 7.3,17.2 7.3,18.8 L7.3,19 C7.3,19 7.2,19 7.2,19.1 C7.1,19.2 6.9,19.3 6.8,19.5 C6.7,19.5 6.6,19.5 6.6,19.4 C5.6,19.1 5.1,19 4.5,19 C4,19 3.6,19.1 3.1,19.4 L2.4,20.2 L1.7,21.5 L1.5,22.2 C1.2,23.8 2.2,24.5 3.3,25.5 C3.4,25.6 3.5,25.6 3.6,25.7 L3.6,26 L3.6,26 C3.5,26.1 3.4,26.1 3.3,26.2 C2,26.9 1,27.5 0.9,29.1 L1,29.8 L1.4,31 L2.1,31.9 C2.8,32.6 3.8,32.6 4.2,32.6 C4.6,32.6 4.9,32.6 5.5,32.5 L5.7,32.5 C5.8,32.6 5.9,32.8 6.1,32.9 C6.1,33 6,33.1 6,33.2 C5.6,34.6 5.3,35.8 6.4,36.9 L7,37.3 L8,38 L9.1,38.3 C10.2,38.2 10.9,37.6 11.9,36.3 C12,36.2 12,36.2 12.1,36.1 L12.5,36.1 L12.8,36.1 C12.8,36.2 12.9,36.2 12.9,36.3 C13.7,37.7 14.1,38.4 15.3,38.7 L16.4,38.7 L17.8,38.2 L18.4,37.9 C19.7,37 19.5,35.8 19.4,34.4 L19.4,34.1 L19.7,33.8 C19.8,33.8 19.9,33.9 20,33.9 C20.9,34.2 21.4,34.3 21.9,34.3 C22.4,34.3 23.1,34.2 23.8,33.6 L24,33.1 L24.7,31.8 L25,30.7 C24.9,29.6 24.3,28.9 23,27.9 L22.8,27.7 L22.8,27.4 L22.8,27 C22.9,27 22.9,26.9 23,26.9 C24.4,26.1 25.1,25.7 25.4,24.5 L25.4,23.4 L24.9,22 L24.6,21.4 C24.1,20.7 23.3,20.3 22.3,20.3 C21.9,20.3 21.6,20.3 21,20.4 L20.8,20.4 C20.7,20.3 20.6,20.2 20.5,20 C20.5,19.9 20.5,19.8 20.6,19.8 C21,18.3 21.3,17.4 20.6,16.4 L19.8,15.7 L18.5,15 L17.8,14.8 L17.3,14.8 C16,14.8 15.3,15.5 14.5,16.7 C14.5,16.8 14.5,16.9 14.4,17 C14.2,17 14,17 13.8,16.9 C13.7,16.8 13.7,16.7 13.6,16.6 C13.1,15.4 12.4,14.3 10.9,14.3 L10.9,14.3 L10.9,14.3 Z" id="Shape" sketch:type="MSShapeGroup"></path>
            <path d="M65.8,32.6 L61.7,32.6 L61.7,3.9 C61.7,1.8 59.9,0 57.8,0 L17.1,0 C15,0 13.2,1.8 13.2,3.9 L13.2,13.4 C13.2,14.1 13.8,14.6 14.4,14.6 L14.4,14.6 C15,14.6 15.6,14 15.6,13.4 L15.6,3.9 C15.6,3.2 16.3,2.5 17,2.5 L57.7,2.5 C58.4,2.5 59.1,3.2 59.1,3.9 L59.1,33.8 C59.1,34.5 59.7,35 60.3,35 L64.4,35 L64.4,38.2 C64.4,38.9 63.7,39.6 63,39.6 L18.3,39.6 C17.6,39.6 17.1,40.2 17.1,40.8 L17.1,40.8 C17.1,41.5 17.7,42 18.3,42 L63,42 C65.1,42 66.9,40.2 66.9,38.1 L66.9,33.6 C67.1,33.1 66.5,32.6 65.8,32.6 L65.8,32.6 Z" id="Shape" sketch:type="MSShapeGroup"></path>
            <path d="M43.7,38 C44.4,38 44.9,37.4 44.9,36.8 C44.9,36.2 44.3,35.6 43.7,35.6 L31.3,35.6 C30.6,35.6 30.1,36.2 30.1,36.8 C30.1,37.4 30.6,38 31.3,38 L43.7,38 L43.7,38 Z" id="Shape" sketch:type="MSShapeGroup"></path>
        </g>
    </g>
</svg>