<svg xmlns="http://www.w3.org/2000/svg" width="216.34" height="75.274" viewBox="0 0 216.34 75.274">
  <defs>
    <style>
      .cls-1 {
        fill: #fe5000;
      }

      .cls-2 {
        fill: #fff;
      }

      .cls-3 {
        fill: #44acff;
      }
    </style>
  </defs>
  <g id="Group_558" data-name="Group 558" transform="translate(-522.765 -184.262)">
    <path id="Path_681" data-name="Path 681" class="cls-1" d="M527.809,189.784v6.552a4.631,4.631,0,0,0,1.876,3.3l12.509,7.408,7.333-4.346Zm14.385,23.1-12.523,7.424a4.613,4.613,0,0,0-1.881,3.306v6.49l21.722-12.878Zm-15.208,22.736c-2.1,0-4.22-1.622-4.22-4.725v-7.281a9.541,9.541,0,0,1,4.347-7.625l10.152-6.021-10.14-6.009a9.534,9.534,0,0,1-4.339-7.623v-7.349c0-3.1,2.117-4.725,4.212-4.725a5.181,5.181,0,0,1,2.687.8L552.619,198.7a4.453,4.453,0,0,1,0,8.016l-5.5,3.253,5.491,3.249a4.446,4.446,0,0,1,0,8.014l-22.939,13.6a5.217,5.217,0,0,1-2.685.792" transform="translate(0 0)"/>
    <g id="Group_559" data-name="Group 559" transform="translate(565.82 193.414)">
      <path id="Path_682" data-name="Path 682" class="cls-2" d="M563.887,216.716a4.6,4.6,0,0,0,4.209,2.606c3.357,0,5.359-2.707,5.359-6.26,0-3.606-2-6.312-5.359-6.312a4.747,4.747,0,0,0-4.209,2.6Zm0,7.514h-6.261V191.672h6.261v12.022a7.725,7.725,0,0,1,5.611-2.36c6.511,0,10.166,5.314,10.166,11.728s-3.654,11.669-10.166,11.669a7.735,7.735,0,0,1-5.611-2.352Z" transform="translate(-557.626 -191.672)"/>
      <path id="Path_683" data-name="Path 683" class="cls-2" d="M602.2,199.5c4.609,0,7.363,3.209,7.363,8.265v14.63h-6.214V209.068c0-2.407-1.052-4.007-3.2-4.007a3.465,3.465,0,0,0-3.461,2.9v14.425H590.43V209.068c0-2.407-1-4.007-3.151-4.007a3.52,3.52,0,0,0-3.515,2.9v14.425h-6.2V200h6.2v1.851a7.16,7.16,0,0,1,5.669-2.358,7.413,7.413,0,0,1,6,2.855A8.733,8.733,0,0,1,602.2,199.5" transform="translate(-552.941 -189.833)"/>
      <path id="Path_684" data-name="Path 684" class="cls-2" d="M616.24,199.5c5.617,0,9.17,3.307,9.819,8.065h-6.106a3.463,3.463,0,0,0-3.713-2.752c-2.846,0-4.6,2.6-4.6,6.414,0,3.752,1.754,6.363,4.6,6.363a3.468,3.468,0,0,0,3.713-2.752h6.106c-.648,4.8-4.2,8.059-9.819,8.059-6.356,0-10.77-4.762-10.77-11.67,0-6.966,4.414-11.727,10.77-11.727" transform="translate(-546.38 -189.833)"/>
    </g>
    <g id="Group_560" data-name="Group 560" transform="translate(652.753 193.359)">
      <path id="Path_685" data-name="Path 685" class="cls-3" d="M648.751,209.166c-.437-4.118-2.478-6.625-5.607-7.472a6.079,6.079,0,0,0-1.649-.288c-1.25-.078-4.885-.379-7.242,2.172v-11.95h-6.238V224.2h6.232V209.647c0-1.155,1.87-3.221,4.105-3.217a8.091,8.091,0,0,1,1.415.109c1.787.437,2.863,2.025,2.863,4.983V224.2h6.233V210.881A10.131,10.131,0,0,0,648.751,209.166Z" transform="translate(-628.014 -191.628)"/>
      <path id="Path_686" data-name="Path 686" class="cls-3" d="M665.513,224.229V191.657h6.22v32.572Z" transform="translate(-619.2 -191.621)"/>
      <path id="Path_687" data-name="Path 687" class="cls-3" d="M673.046,197.65v-5.911h6.219v5.911Zm0,26.56V201.418h6.219V224.21Z" transform="translate(-617.429 -191.602)"/>
      <path id="Path_688" data-name="Path 688" class="cls-3" d="M702.375,222.371h-7.319l-4.31-7.723h-.09l-4.31,7.723h-7.319l7.813-11.719-7.319-11.091h7.229l3.906,6.69h.09l3.906-6.69h7.229l-7.319,11.091Z" transform="translate(-616.023 -189.763)"/>
      <path id="Path_689" data-name="Path 689" class="cls-3" d="M667.513,207.634c-1.029-5.122-5.062-8.088-10.242-8.088-6.736,0-10.676,5.028-10.676,11.527,0,7.02,3.94,11.875,10.718,11.875,5.721,0,9.206-3.325,10.281-8.109l-5.786-.012c-.673,2.412-2.3,3.389-4.677,3.389-2.542,0-4.928-2.051-4.928-6l15.552.012A16.5,16.5,0,0,0,667.513,207.634Zm-10.383-3.341h.1a4.6,4.6,0,0,1,4.428,3.92c.031.146.049.288.07.431h-9.416c.022-.143.043-.285.075-.431A4.83,4.83,0,0,1,657.13,204.294Z" transform="translate(-623.646 -189.767)"/>
    </g>
    <path id="Path_697" data-name="Path 697" class="cls-2" d="M19.449-16.647a14.1,14.1,0,0,0-7.042-1.861c-6.385,0-11.019,4.67-11.019,11.931C1.388.648,5.8,5.245,12.407,5.245a13,13,0,0,0,6.859-1.861l-.438-2.3a11,11,0,0,1-6.385,2.043C7.226,3.129,3.76-.629,3.76-6.65c0-6.2,3.649-9.742,8.611-9.742a11.566,11.566,0,0,1,6.349,1.824ZM38.313-3.621c0-5.364-3.357-8.793-8.027-8.793S22.04-8.875,22.04-3.548c0,5.364,3.43,8.793,8.063,8.793S38.313,1.706,38.313-3.621Zm-2.226.073c0,3.941-2.335,6.75-5.874,6.75S24.3.465,24.3-3.621c0-3.941,2.335-6.75,5.874-6.75S36.087-7.635,36.087-3.548Zm19.7,8.319V-6.686c0-3.649-1.97-5.728-5.327-5.728a8.655,8.655,0,0,0-5.692,2.736v-2.736l-2.262.474V4.771h2.262V-7.89a7.515,7.515,0,0,1,5.072-2.372c2.518,0,3.685,1.314,3.685,4.232v10.8Zm13.463-.328-.4-1.97a8.334,8.334,0,0,1-3.211.8c-1.751,0-2.518-1.022-2.445-3.138l.255-10H69l.109-2.007H63.525l.109-3.9H61.482l-.109,3.795-2.518.584L58.745-9.97l2.554.146L61.044.064c-.109,3.5,1.314,5.254,4.488,5.254A9.1,9.1,0,0,0,69.253,4.442ZM75.2-5.956c1.314-2.992,2.955-4.305,4.707-4.305a4.975,4.975,0,0,1,2.554.73l.584-2.116a6.069,6.069,0,0,0-2.919-.766c-2.189,0-3.831,1.423-4.926,3.576v-3.576l-2.262.474V4.771H75.2Zm25.541,2.335c0-5.364-3.357-8.793-8.027-8.793s-8.246,3.539-8.246,8.866c0,5.364,3.43,8.793,8.063,8.793S100.741,1.706,100.741-3.621Zm-2.226.073c0,3.941-2.335,6.75-5.874,6.75S86.73.465,86.73-3.621c0-3.941,2.335-6.75,5.874-6.75S98.515-7.635,98.515-3.548ZM107.2,4.771V-20.3l-2.262.474V4.771Zm12.113-7.808V-5.154h-8.246v2.116ZM143.5,4.771h2.372l-.73-22.8h-3.1L134.455,2.107l-7.7-20.141h-3.138l-.766,22.8h2.3l.4-19.958L133.1,4.625h2.554l7.48-19.776Z" transform="translate(563.228 254.218)"/>
  </g>
</svg>
