<svg xmlns="http://www.w3.org/2000/svg" xmlns:xlink="http://www.w3.org/1999/xlink" width="2192.433" height="2135.947" viewBox="0 0 2192.433 2135.947">
  <defs>
    <style>
      .cls-1 {
        fill: url(#linear-gradient);
      }
    </style>
    <linearGradient id="linear-gradient" x1="0.676" y1="0.953" x2="0.356" y2="-0.009" gradientUnits="objectBoundingBox">
      <stop offset="0" stop-color="#002c8f"/>
      <stop offset="1" stop-color="#000760"/>
    </linearGradient>
  </defs>
  <path id="blob_4_" data-name="blob (4)" class="cls-1" d="M1135.237,262.384c121.351,77.223,268.777,102.3,377.09,185.536s176.51,223.646,176.51,364.052c1,140.406-67.194,281.815-171.5,372.075-103.3,91.264-242.7,131.38-365.056,159.461-121.351,29.084-226.655,45.13-335.971,54.156-109.316,8.023-223.647,8.023-325.942-32.093-103.3-39.113-193.56-118.342-282.818-217.629C117.294,1048.656,30.041,930.314,6.975,797.931c-24.07-131.38,16.046-277.8,91.264-401.159C172.453,272.413,282.772,171.12,409.137,95.9,535.5,21.688,677.914-25.448,798.262,14.668,917.607,55.787,1012.883,185.161,1135.237,262.384Z" transform="translate(2192.433 1119.573) rotate(143)"/>
</svg>
