<svg xmlns="http://www.w3.org/2000/svg" xmlns:xlink="http://www.w3.org/1999/xlink" width="1968.342" height="1797.778" viewBox="0 0 1968.342 1797.778">
  <defs>
    <style>
      .cls-1 {
        fill: url(#linear-gradient);
      }
    </style>
    <linearGradient id="linear-gradient" x1="0.313" y1="0.019" x2="0.723" y2="0.944" gradientUnits="objectBoundingBox">
      <stop offset="0" stop-color="#2bd4ee"/>
      <stop offset="1" stop-color="#1a98ff"/>
    </linearGradient>
  </defs>
  <path id="blob_4_" data-name="blob (4)" class="cls-1" d="M1088.3,251.535c116.334,74.03,257.664,98.066,361.5,177.865s169.213,214.4,169.213,349c.961,134.6-64.417,270.162-164.405,356.691-99.028,87.49-232.667,125.948-349.961,152.868-116.333,27.881-217.284,43.264-322.08,51.917-104.8,7.692-214.4,7.692-312.466-30.766-99.028-37.5-185.556-113.449-271.124-208.631C112.444,1005.3,28.8,891.848,6.686,764.939c-23.074-125.948,15.383-266.316,87.49-384.573,71.146-119.217,176.9-216.322,298.044-288.429C513.361,20.792,649.885-24.4,765.257,14.062,879.667,53.48,971,177.5,1088.3,251.535Z" transform="translate(1968.342 1270.677) rotate(161)"/>
</svg>
