<svg xmlns="http://www.w3.org/2000/svg" xmlns:xlink="http://www.w3.org/1999/xlink" width="956.309" height="920.375" viewBox="0 0 956.309 920.375">
  <defs>
    <style>
      .cls-1 {
        fill: url(#linear-gradient);
      }
    </style>
    <linearGradient id="linear-gradient" x1="0.5" x2="0.5" y2="1" gradientUnits="objectBoundingBox">
      <stop offset="0" stop-color="#f98700"/>
      <stop offset="1" stop-color="#fe5000"/>
    </linearGradient>
  </defs>
  <path id="blob_1_" data-name="blob (1)" class="cls-1" d="M503.609-24.957C576.333,5.388,650.1,45.151,680.45,106.889c30.346,62.261,16.742,145.972,14.126,228.638-3.139,82.142,4.709,163.238-30.869,215.558-35.577,52.843-115.1,76.91-184.689,109.348-70.109,31.915-130.8,72.2-192.537,74.294-62.261,2.093-125.568-33.485-189.921-68.539C31.684,630.61-34.762,596.079-57.783,541.143c-22.5-54.413-2.616-129.23,11.51-196.2C-32.146,278.5-24.822,219.9-8.079,155.023,9.186,90.147,36.393,18.992,87.143-23.911S212.71-81.986,285.958-79.37C359.206-76.231,430.884-55.826,503.609-24.957Z" transform="matrix(-0.208, -0.978, 0.978, -0.208, 223.426, 837.357)"/>
</svg>
