<svg width="92" height="53" viewBox="0 0 92 53" fill="none" xmlns="http://www.w3.org/2000/svg">
<path d="M69.1639 17.5376C68.9764 17.3583 68.7889 17.179 68.5933 16.9996C66.0173 14.7334 62.6424 13.3557 58.9414 13.3557C58.4604 13.3557 57.9876 13.3802 57.5148 13.4291C55.8355 7.16023 50.1373 2.53809 43.3386 2.53809C35.8144 2.53809 29.6189 8.20368 28.7629 15.4997C23.6109 17.1626 19.7795 21.7522 19.2252 27.3037C19.2007 27.5238 19.1844 27.7439 19.1763 27.9721" stroke="white" stroke-width="2.44558" stroke-miterlimit="5" stroke-linecap="round" stroke-linejoin="round"/>
<path d="M20.8066 35.2516C20.8882 35.4065 20.9778 35.5532 21.0594 35.7081C21.1898 35.9363 21.3365 36.1564 21.4751 36.3765C23.9614 40.102 28.2004 42.5557 33.0182 42.5557H47.4635H58.9251C66.9873 42.5557 73.5252 36.0178 73.5252 27.9556C73.5252 26.8795 73.4111 25.8361 73.1909 24.8252C73.1502 24.6541 73.1176 24.4829 73.0687 24.3198" stroke="white" stroke-width="2.44558" stroke-miterlimit="5" stroke-linecap="round" stroke-linejoin="round"/>
<path d="M13.9918 43.5829L10.2012 38.9771" stroke="white" stroke-width="2.03798" stroke-miterlimit="5" stroke-linecap="round" stroke-linejoin="round"/>
<path d="M7.51071 39.6781C10.5542 39.6781 13.0214 37.2109 13.0214 34.1674C13.0214 31.124 10.5542 28.6567 7.51071 28.6567C4.46723 28.6567 2 31.124 2 34.1674C2 37.2109 4.46723 39.6781 7.51071 39.6781Z" stroke="white" stroke-width="2.44558" stroke-miterlimit="5" stroke-linecap="round" stroke-linejoin="round"/>
<path d="M16.6408 51.6615C19.0134 51.6615 20.9369 49.7381 20.9369 47.3654C20.9369 44.9928 19.0134 43.0693 16.6408 43.0693C14.2681 43.0693 12.3447 44.9928 12.3447 47.3654C12.3447 49.7381 14.2681 51.6615 16.6408 51.6615Z" stroke="white" stroke-width="2.44558" stroke-miterlimit="5" stroke-linecap="round" stroke-linejoin="round"/>
<path d="M77.1855 9.62207L81.6446 13.5839" stroke="white" stroke-width="2.03798" stroke-miterlimit="5" stroke-linecap="round" stroke-linejoin="round"/>
<path d="M85.0439 23.4316C88.0874 23.4316 90.5546 20.9643 90.5546 17.9209C90.5546 14.8774 88.0874 12.4102 85.0439 12.4102C82.0004 12.4102 79.5332 14.8774 79.5332 17.9209C79.5332 20.9643 82.0004 23.4316 85.0439 23.4316Z" stroke="white" stroke-width="2.44558" stroke-miterlimit="5" stroke-linecap="round" stroke-linejoin="round"/>
<path d="M73.9816 10.5921C76.3543 10.5921 78.2777 8.66872 78.2777 6.29607C78.2777 3.92341 76.3543 2 73.9816 2C71.609 2 69.6855 3.92341 69.6855 6.29607C69.6855 8.66872 71.609 10.5921 73.9816 10.5921Z" stroke="white" stroke-width="2.44558" stroke-miterlimit="5" stroke-linecap="round" stroke-linejoin="round"/>
<path d="M67.4521 21.6297L79.623 19.0537" stroke="white" stroke-width="2.03798" stroke-miterlimit="5" stroke-linecap="round" stroke-linejoin="round"/>
<path d="M59.6016 23.2523L63.3433 22.4697" stroke="white" stroke-width="2.03798" stroke-miterlimit="5" stroke-linecap="round" stroke-linejoin="round"/>
<path d="M27.3525 29.9691L31.0943 29.1865" stroke="white" stroke-width="2.03798" stroke-miterlimit="5" stroke-linecap="round" stroke-linejoin="round"/>
<path d="M12.9072 33.0341L23.6678 30.7842" stroke="white" stroke-width="2.03798" stroke-miterlimit="5" stroke-linecap="round" stroke-linejoin="round"/>
<path d="M44.4963 37.8681C39.8497 38.0067 40.1513 34.7296 40.1513 34.7296C33.0755 32.1618 34.6977 26.9608 34.6977 26.9608C29.9044 19.0453 38.3824 16.1921 38.3824 16.1921C40.5182 12.695 44.4963 12.8417 44.4963 12.8417H44.5045C44.5045 12.8417 48.4826 12.7031 50.6184 16.1921C50.6184 16.1921 59.0964 19.0453 54.3031 26.9608C54.3031 26.9608 55.9253 32.1618 48.8494 34.7296C48.8494 34.7296 49.1429 38.0067 44.4963 37.8681Z" stroke="white" stroke-width="2.03798" stroke-miterlimit="5" stroke-linecap="round" stroke-linejoin="round"/>
<path d="M44.9531 22.2737C44.9531 22.2737 48.7112 22.9177 49.5264 20.2031L44.9531 22.2737Z" fill="white"/>
<path d="M44.9531 22.2737C44.9531 22.2737 48.7112 22.9177 49.5264 20.2031" stroke="white" stroke-width="1.37874" stroke-miterlimit="5" stroke-linecap="round" stroke-linejoin="round"/>
<path d="M48.2705 18.1243C48.2705 18.1243 49.1591 16.4124 51.0014 16.7711L48.2705 18.1243Z" fill="white"/>
<path d="M48.2705 18.1243C48.2705 18.1243 49.1591 16.4124 51.0014 16.7711" stroke="white" stroke-width="1.37874" stroke-miterlimit="5" stroke-linecap="round" stroke-linejoin="round"/>
<path d="M51.1401 23.5371C51.1401 23.5371 52.3222 25.5343 50.8467 27.1729L51.1401 23.5371Z" fill="white"/>
<path d="M51.1401 23.5371C51.1401 23.5371 52.3222 25.5343 50.8467 27.1729" stroke="white" stroke-width="1.37874" stroke-miterlimit="5" stroke-linecap="round" stroke-linejoin="round"/>
<path d="M54.6782 28.4039C54.6782 28.4039 54.3521 26.154 51.6294 25.8687L54.6782 28.4039Z" fill="white"/>
<path d="M54.6782 28.4039C54.6782 28.4039 54.3521 26.154 51.6294 25.8687" stroke="white" stroke-width="1.37874" stroke-miterlimit="5" stroke-linecap="round" stroke-linejoin="round"/>
<path d="M38.1053 21.7356C38.7446 21.7356 39.2629 21.2356 39.2629 20.6188C39.2629 20.002 38.7446 19.502 38.1053 19.502C37.466 19.502 36.9478 20.002 36.9478 20.6188C36.9478 21.2356 37.466 21.7356 38.1053 21.7356Z" fill="white" stroke="white" stroke-width="1.37874" stroke-miterlimit="5" stroke-linecap="round" stroke-linejoin="round"/>
<path d="M41.0155 28.4123C41.6548 28.4123 42.1731 27.9123 42.1731 27.2955C42.1731 26.6787 41.6548 26.1787 41.0155 26.1787C40.3762 26.1787 39.8579 26.6787 39.8579 27.2955C39.8579 27.9123 40.3762 28.4123 41.0155 28.4123Z" fill="white" stroke="white" stroke-width="1.37874" stroke-miterlimit="5" stroke-linecap="round" stroke-linejoin="round"/>
<path d="M40.5018 33.7356C41.1411 33.7356 41.6594 33.2356 41.6594 32.6188C41.6594 32.002 41.1411 31.502 40.5018 31.502C39.8625 31.502 39.3442 32.002 39.3442 32.6188C39.3442 33.2356 39.8625 33.7356 40.5018 33.7356Z" fill="white" stroke="white" stroke-width="1.37874" stroke-miterlimit="5" stroke-linecap="round" stroke-linejoin="round"/>
<path d="M41.0156 26.1788V24.1489" stroke="white" stroke-width="1.37874" stroke-miterlimit="5" stroke-linecap="round" stroke-linejoin="round"/>
<path d="M34.9995 26.8311H37.1516" stroke="white" stroke-width="1.37874" stroke-miterlimit="5" stroke-linecap="round" stroke-linejoin="round"/>
<path d="M44.9287 29.1214C44.9287 29.1214 48.0264 28.3388 49.127 30.2626L44.9287 29.1214Z" fill="white"/>
<path d="M44.9287 29.1214C44.9287 29.1214 48.0264 28.3388 49.127 30.2626" stroke="white" stroke-width="1.37874" stroke-miterlimit="5" stroke-linecap="round" stroke-linejoin="round"/>
<path d="M38.1053 21.7356C38.7446 21.7356 39.2629 21.2356 39.2629 20.6188C39.2629 20.002 38.7446 19.502 38.1053 19.502C37.466 19.502 36.9478 20.002 36.9478 20.6188C36.9478 21.2356 37.466 21.7356 38.1053 21.7356Z" fill="white" stroke="white" stroke-width="1.37874" stroke-miterlimit="5" stroke-linecap="round" stroke-linejoin="round"/>
<path d="M41.0155 28.4123C41.6548 28.4123 42.1731 27.9123 42.1731 27.2955C42.1731 26.6787 41.6548 26.1787 41.0155 26.1787C40.3762 26.1787 39.8579 26.6787 39.8579 27.2955C39.8579 27.9123 40.3762 28.4123 41.0155 28.4123Z" fill="white" stroke="white" stroke-width="1.37874" stroke-miterlimit="5" stroke-linecap="round" stroke-linejoin="round"/>
<path d="M43.8607 24.0266H38.1055V22.543" fill="white"/>
<path d="M43.8607 24.0266H38.1055V22.543" stroke="white" stroke-width="1.37874" stroke-miterlimit="5" stroke-linecap="round" stroke-linejoin="round"/>
<path d="M41.0156 26.1788V24.1489" stroke="white" stroke-width="1.37874" stroke-miterlimit="5" stroke-linecap="round" stroke-linejoin="round"/>
<path d="M34.9995 26.8311H37.1516" stroke="white" stroke-width="1.37874" stroke-miterlimit="5" stroke-linecap="round" stroke-linejoin="round"/>
<path d="M44.6025 37.7462V12.7197" stroke="white" stroke-width="1.37874" stroke-miterlimit="5" stroke-linecap="round" stroke-linejoin="round"/>
</svg>
