<svg width="53" height="48" viewBox="0 0 53 48" fill="none" xmlns="http://www.w3.org/2000/svg">
<g clip-path="url(#clip0)">
<path d="M46.2744 22.8213L49.1936 25.0201" stroke="white" stroke-width="2.27468" stroke-miterlimit="10" stroke-linecap="round" stroke-linejoin="round"/>
<path d="M51.8627 22.4727L49.2544 25.0734" stroke="white" stroke-width="2.27468" stroke-miterlimit="10" stroke-linecap="round" stroke-linejoin="round"/>
<path d="M36.3491 38.0699C33.5816 39.9427 30.2378 41.0345 26.6438 41.0345C18.1441 41.0345 11.0699 34.9308 9.57617 26.8633" stroke="white" stroke-width="2.27468" stroke-miterlimit="10" stroke-linecap="round" stroke-linejoin="round"/>
<path d="M17.8638 8.68845C20.4417 7.17958 23.4367 6.30762 26.644 6.30762C34.7267 6.30762 41.5204 11.8275 43.4539 19.3036" stroke="white" stroke-width="2.27468" stroke-miterlimit="10" stroke-linecap="round" stroke-linejoin="round"/>
<path d="M41.2324 40.8455C37.3047 44.1817 32.2095 46.1985 26.6517 46.1985C14.2092 46.1985 4.11719 36.1141 4.11719 23.6641" stroke="white" stroke-width="2.27468" stroke-miterlimit="10" stroke-linecap="round" stroke-linejoin="round"/>
<path d="M46.7824 33.8086C46.1909 34.9838 45.4934 36.0984 44.7124 37.1448" stroke="white" stroke-width="2.27468" stroke-miterlimit="10" stroke-linecap="round" stroke-linejoin="round"/>
<path d="M10.7212 7.73329C14.8004 3.65403 20.4341 1.13672 26.6515 1.13672C37.5396 1.13672 46.6232 8.86304 48.7235 19.1294C49.0268 20.5928 49.1784 22.1168 49.1784 23.6712" stroke="white" stroke-width="2.27468" stroke-miterlimit="10" stroke-linecap="round" stroke-linejoin="round"/>
<path d="M6.95258 23.8228L4.05615 21.8135" stroke="white" stroke-width="2.27468" stroke-miterlimit="10" stroke-linecap="round" stroke-linejoin="round"/>
<path d="M1.13721 24.1795L3.98814 21.7607" stroke="white" stroke-width="2.27468" stroke-miterlimit="10" stroke-linecap="round" stroke-linejoin="round"/>
<path d="M29.055 31.1631L29.9193 31.8986C30.215 32.1488 30.6396 32.1867 30.9733 31.982L32.012 31.3602C32.3608 31.1555 32.5276 30.7385 32.4291 30.3442L32.1713 29.3585C32.0575 28.9263 32.1182 28.4638 32.3381 28.0771L33.4148 26.1436C33.6195 25.7797 33.9455 25.4991 34.3398 25.3551L35.4089 24.9684C35.7728 24.8395 36.0155 24.4831 36.0155 24.0964L36.0003 22.8908C35.9927 22.489 35.7198 22.1326 35.3331 22.0265L34.3474 21.7535C33.9152 21.6322 33.5512 21.3516 33.3162 20.9725L32.1788 19.0694C31.9665 18.713 31.8831 18.2808 31.959 17.8714L32.1561 16.7568C32.2243 16.3701 32.0424 15.991 31.7012 15.8014L30.6472 15.21C30.2909 15.0129 29.8511 15.0735 29.563 15.3541L28.9412 15.9682C28.5545 16.3473 28.0389 16.5596 27.5006 16.5672L25.4306 16.5976C25.0136 16.6051 24.6042 16.4611 24.2857 16.1881L23.4213 15.4526C23.1256 15.2024 22.701 15.1645 22.3674 15.3692L21.3286 15.991C20.9798 16.1957 20.813 16.6127 20.9116 17.007L21.1694 17.9927C21.2831 18.4249 21.2225 18.8874 21.0026 19.2741L19.9259 21.2076C19.7212 21.5715 19.3952 21.8521 19.0009 21.9961L17.9318 22.3828C17.5678 22.5117 17.3252 22.8681 17.3252 23.2548L17.3404 24.4604C17.3479 24.8622 17.6209 25.2186 18.0076 25.3247L18.9933 25.5977C19.4255 25.719 19.7894 25.9996 20.0245 26.3787L21.1618 28.2818C21.3741 28.6382 21.4575 29.0704 21.3817 29.4798L21.1846 30.5944C21.1163 30.9811 21.2983 31.3602 21.6395 31.5498L22.6934 32.1412C23.0498 32.3383 23.4896 32.2777 23.7777 31.9971L24.5056 31.2844C24.8241 30.9735 25.2487 30.7915 25.696 30.784L27.91 30.7536C28.3271 30.7461 28.7365 30.8901 29.055 31.1631Z" stroke="white" stroke-width="2.27468" stroke-miterlimit="10" stroke-linecap="round" stroke-linejoin="round"/>
<path d="M26.6745 26.0893C28.0648 26.0893 29.1918 24.9623 29.1918 23.572C29.1918 22.1817 28.0648 21.0547 26.6745 21.0547C25.2843 21.0547 24.1572 22.1817 24.1572 23.572C24.1572 24.9623 25.2843 26.0893 26.6745 26.0893Z" stroke="white" stroke-width="2.27468" stroke-miterlimit="10" stroke-linecap="round" stroke-linejoin="round"/>
</g>
<defs>
<clipPath id="clip0">
<rect width="53" height="47.3361" fill="white"/>
</clipPath>
</defs>
</svg>
