<svg id="Layer_1" data-name="Layer 1" xmlns="http://www.w3.org/2000/svg" xmlns:xlink="http://www.w3.org/1999/xlink" viewBox="0 0 238 238"><defs><style>.cls-1{fill:url(#linear-gradient);}.cls-2{fill:url(#linear-gradient-2);}</style><linearGradient id="linear-gradient" x1="8.67" y1="119" x2="229.33" y2="119" gradientUnits="userSpaceOnUse"><stop offset="0" stop-color="#28d9f0"/><stop offset="1" stop-color="#0393c8"/></linearGradient><linearGradient id="linear-gradient-2" x1="68.12" y1="129.48" x2="174.82" y2="129.48" xlink:href="#linear-gradient"/></defs><path class="cls-1" d="M165.26,224.45H72.74c-14.32,0-29.57-11-34-24.43L10.15,113.09c-4.43-13.49,1.4-31.24,13-39.57L98,19.79c11.57-8.31,30.41-8.31,42,0h0l74.86,53.73c11.6,8.33,17.43,26.08,13,39.57L199.26,200C194.83,213.49,179.58,224.45,165.26,224.45ZM119,21.88c-5.87,0-11.75,1.57-16.11,4.7L28,80.31c-8.71,6.25-13.25,20.06-9.93,30.16l28.59,86.94C50,207.53,62,216.08,72.74,216.08h92.52c10.79,0,22.72-8.55,26.05-18.67l28.59-86.94c3.32-10.1-1.23-23.91-9.93-30.16L135.11,26.58h0C130.75,23.45,124.87,21.88,119,21.88Z"/><path class="cls-2" d="M174.82,133a9.94,9.94,0,0,0-7.36-9.59,47.72,47.72,0,0,0-38.37-40.84,9.88,9.88,0,0,0-19.35.26A47.63,47.63,0,0,0,79.19,104.7a9.71,9.71,0,0,0-1.21-.08,9.85,9.85,0,0,0-5.26,18.18,48.21,48.21,0,0,0-.47,6.69,47.52,47.52,0,0,0,7.07,25A9.45,9.45,0,0,0,91.81,168a48,48,0,0,0,14.89,7.35A9.87,9.87,0,0,0,126,176.91a47.9,47.9,0,0,0,39.91-34A10,10,0,0,0,174.82,133Zm-13.33-9.33a10.07,10.07,0,0,0-3,1.71,76.59,76.59,0,0,0-47.87-18.53A59.21,59.21,0,0,1,116.27,94a9.87,9.87,0,0,0,12.28-5.5A41.76,41.76,0,0,1,161.49,123.65Zm-52.36-10.93c21.86.51,35.48,9,42.81,14.88-21-1.47-34.63,1.83-43.9,6.76A76.21,76.21,0,0,1,109.13,112.72Zm10.32-32a3.93,3.93,0,1,1-3.93,3.93A3.93,3.93,0,0,1,119.45,80.73Zm-9,8a9.58,9.58,0,0,0,1,1.69,66.49,66.49,0,0,0-7,16.34,111,111,0,0,0-18.44,2.07,9.72,9.72,0,0,0-1.44-1.63A41.63,41.63,0,0,1,110.46,88.75ZM78,110.58a3.9,3.9,0,1,1-3.91,3.9A3.91,3.91,0,0,1,78,110.58Zm.56,13.73a9.86,9.86,0,0,0,9.29-9.73,107.61,107.61,0,0,1,15.26-1.8c-.3,1.53-.55,3.13-.76,4.78a84.34,84.34,0,0,0,0,20.4c-5.77,4.25-9.38,9-12.27,12.87a9.34,9.34,0,0,0-5.94,0,41.67,41.67,0,0,1-5.88-21.39A40.59,40.59,0,0,1,78.54,124.31Zm29.34,45.21a41.93,41.93,0,0,1-12.07-6,9.39,9.39,0,0,0-1-9.22,59.54,59.54,0,0,1,8.5-9.58A117.87,117.87,0,0,0,109.94,167,9.83,9.83,0,0,0,107.88,169.52Zm-24.26-9.7a3.51,3.51,0,1,1,3.51,3.51A3.51,3.51,0,0,1,83.62,159.82Zm32.9,18.42a3.93,3.93,0,1,1,3.92-3.93A3.94,3.94,0,0,1,116.52,178.24Zm9.27-7.3a9.88,9.88,0,0,0-9.27-6.51,10.92,10.92,0,0,0-1.15.07,111.15,111.15,0,0,1-6.55-23.75c8.87-5.41,22.66-9.11,46.16-6.93a10,10,0,0,0,5.11,7.87A41.93,41.93,0,0,1,125.79,170.94Zm39.09-34a4,4,0,1,1,4-4A4,4,0,0,1,164.88,137Z"/></svg>