<svg width="145" height="145" viewBox="0 0 145 145" fill="none" xmlns="http://www.w3.org/2000/svg">
<g clip-path="url(#clip0)">
<path d="M131.107 117.133L129.531 117.222C139.08 105.109 144.496 90.2627 144.987 74.8558C145.479 59.4489 141.021 44.2899 132.265 31.5968C123.508 18.9037 110.914 9.34266 96.3235 4.31264C81.7334 -0.717376 65.9136 -0.952388 51.1786 3.64199C50.1084 2.4012 48.7667 1.4228 47.2574 0.782403C45.7481 0.142005 44.1115 -0.143241 42.474 -0.0512989C40.8366 0.0406437 39.2422 0.507315 37.8141 1.31265C36.3859 2.11799 35.1622 3.24043 34.2376 4.59323C33.313 5.94603 32.7122 7.49296 32.4817 9.11449C32.2511 10.736 32.397 12.3887 32.908 13.9449C33.419 15.501 34.2814 16.9189 35.4287 18.0891C36.5759 19.2592 37.9773 20.1502 39.5244 20.6932C40.8493 21.1558 42.2525 21.3533 43.6539 21.2743C45.0553 21.1953 46.4274 20.8414 47.6919 20.2328C49.553 19.336 51.1152 17.9216 52.1907 16.1596C53.2663 14.3976 53.8094 12.363 53.7549 10.3003C67.0966 6.25335 81.3857 6.58646 94.5225 11.2506C107.659 15.9148 118.951 24.6641 126.738 36.2128C134.525 47.7615 138.398 61.5006 137.786 75.4112C137.174 89.3218 132.11 102.67 123.339 113.495L122.765 110.421C122.55 109.531 122 108.758 121.23 108.261C120.459 107.765 119.527 107.582 118.626 107.753C117.725 107.923 116.924 108.432 116.388 109.175C115.853 109.918 115.623 110.838 115.747 111.745L117.605 121.631C117.72 122.513 118.162 123.321 118.845 123.893C119.527 124.465 120.4 124.76 121.29 124.72L131.408 124.25C132.318 124.15 133.156 123.705 133.748 123.007C134.339 122.31 134.641 121.412 134.589 120.499C134.538 119.586 134.137 118.727 133.471 118.1C132.804 117.474 131.923 117.126 131.007 117.129L131.107 117.133ZM46.4469 11.8111C46.2529 12.3639 45.925 12.8602 45.4924 13.2558C45.0598 13.6514 44.536 13.934 43.9676 14.0784C43.3991 14.2228 42.8038 14.2246 42.2346 14.0836C41.6653 13.9426 41.1399 13.6631 40.705 13.2702C40.2702 12.8772 39.9395 12.3829 39.7423 11.8313C39.5451 11.2797 39.4877 10.688 39.575 10.1088C39.6624 9.5296 39.8918 8.98096 40.2429 8.51175C40.594 8.04254 41.0559 7.66733 41.5874 7.41954C42.0028 7.21491 42.4559 7.09756 42.9185 7.07476C43.5046 7.04035 44.0901 7.15138 44.6227 7.39795C45.1553 7.64452 45.6184 8.01895 45.9708 8.48783C46.3232 8.95671 46.5538 9.50543 46.6421 10.085C46.7304 10.6646 46.6736 11.2571 46.4768 11.8095L46.4469 11.8111Z" fill="url(#paint0_linear)"/>
<path d="M113.853 129.076C112.788 126.847 110.982 125.055 108.744 124.006C106.505 122.957 103.971 122.715 101.574 123.321C99.176 123.927 97.0627 125.344 95.5932 127.331C94.1238 129.318 93.389 131.752 93.5139 134.218C79.942 138.789 65.2411 138.767 51.6838 134.158C38.1265 129.549 26.4677 120.608 18.5099 108.718C10.552 96.8273 6.73817 82.6498 7.6579 68.3766C8.57764 54.1034 14.1797 40.5295 23.5982 29.7532L23.6751 31.1175C23.7534 32.0443 24.1907 32.9039 24.8939 33.5135C25.5971 34.1232 26.5108 34.4347 27.4406 34.3819L27.5304 34.3769C28.0056 34.3502 28.4706 34.2289 28.8981 34.0199C29.3257 33.811 29.707 33.5187 30.0196 33.1604C30.3323 32.802 30.5699 32.3847 30.7186 31.9332C30.8672 31.4816 30.9238 31.005 30.8851 30.5313L30.0112 20.5302C29.9895 19.6396 29.6334 18.7898 29.0136 18.1493C28.3937 17.5088 27.5555 17.1244 26.665 17.0723L16.5564 16.4632C16.0885 16.4365 15.6199 16.502 15.1773 16.6561C14.7348 16.8102 14.3269 17.0498 13.977 17.3613C13.6272 17.6728 13.3422 18.05 13.1383 18.4715C12.9344 18.8929 12.8157 19.3503 12.7888 19.8176C12.7619 20.2849 12.8275 20.7528 12.9817 21.1948C13.136 21.6367 13.3759 22.0439 13.6877 22.3933C13.9996 22.7426 14.3773 23.0271 14.7993 23.2307C15.2213 23.4342 15.6793 23.5527 16.1472 23.5795L19.3991 23.7658C8.51062 35.6004 1.88735 50.7242 0.578589 66.7414C-0.730169 82.7585 3.35042 98.7529 12.1739 112.191C20.9973 125.628 34.0591 135.741 49.2897 140.926C64.5204 146.112 81.049 146.073 96.2569 140.817C97.974 142.731 100.325 143.961 102.878 144.283C105.431 144.605 108.014 143.996 110.154 142.568C112.294 141.14 113.846 138.989 114.525 136.511C115.205 134.032 114.966 131.392 113.853 129.076ZM107.555 134.845C107.343 135.455 106.969 135.996 106.472 136.41C105.976 136.824 105.376 137.095 104.738 137.195C104.099 137.294 103.445 137.219 102.846 136.976C102.247 136.734 101.726 136.333 101.337 135.817C100.949 135.301 100.708 134.689 100.641 134.047C100.573 133.405 100.682 132.757 100.956 132.172C101.229 131.587 101.656 131.087 102.192 130.725C102.728 130.364 103.352 130.155 103.997 130.121C104.469 130.095 104.942 130.16 105.389 130.312C106.278 130.629 107.006 131.285 107.412 132.136V132.136C107.817 132.985 107.869 133.959 107.555 134.845Z" fill="url(#paint1_linear)"/>
</g>
<defs>
<linearGradient id="paint0_linear" x1="35.4399" y1="65.0113" x2="144.39" y2="58.8698" gradientUnits="userSpaceOnUse">
<stop stop-color="#28D9F0"/>
<stop offset="1" stop-color="#0393C8"/>
</linearGradient>
<linearGradient id="paint1_linear" x1="6229.42" y1="17718.7" x2="18555" y2="17023.9" gradientUnits="userSpaceOnUse">
<stop stop-color="#28D9F0"/>
<stop offset="1" stop-color="#0393C8"/>
</linearGradient>
<clipPath id="clip0">
<rect width="145" height="145" fill="white"/>
</clipPath>
</defs>
</svg>
