<?xml version="1.0" encoding="utf-8"?>
<!-- Generator: Adobe Illustrator 24.3.0, SVG Export Plug-In . SVG Version: 6.00 Build 0)  -->
<svg version="1.1" id="Layer_1" xmlns="http://www.w3.org/2000/svg" xmlns:xlink="http://www.w3.org/1999/xlink" x="0px" y="0px"
	 viewBox="0 0 38 38" style="enable-background:new 0 0 38 38;" xml:space="preserve">
<path d="M25.685,23.591c0.596,0.561,0.624,1.498,0.064,2.094c-0.561,0.596-1.498,0.624-2.094,0.064
	c-0.022-0.02-0.043-0.041-0.063-0.063l-0.008-0.008l-4.5-4.5l-4.5,4.5c-0.616,0.538-1.551,0.475-2.09-0.14
	c-0.489-0.56-0.488-1.396,0.004-1.954l4.5-4.5l-4.5-4.5c-0.54-0.614-0.48-1.549,0.134-2.089c0.561-0.493,1.401-0.491,1.959,0.004
	l4.5,4.5l4.5-4.5c0.595-0.561,1.533-0.533,2.094,0.063c0.537,0.57,0.537,1.46,0,2.03l-4.5,4.5L25.685,23.591z M37,19.032
	c0,9.941-8.059,18-18,18s-18-8.059-18-18c0-9.941,8.059-18,18-18S37,9.091,37,19.032z M34,19.032c0-8.271-6.729-15-15-15
	s-15,6.729-15,15c0,8.271,6.729,15,15,15S34,27.303,34,19.032z"/>
</svg>
