<?xml version="1.0" encoding="utf-8"?>
<!-- Generator: Adobe Illustrator 25.0.0, SVG Export Plug-In . SVG Version: 6.00 Build 0)  -->
<svg version="1.1" id="Layer_1" xmlns="http://www.w3.org/2000/svg" xmlns:xlink="http://www.w3.org/1999/xlink" x="0px" y="0px"
	 viewBox="0 0 870.4 126.9" style="enable-background:new 0 0 870.4 126.9;" xml:space="preserve">
<style type="text/css">
	.st0{fill:url(#SVGID_1_);}
</style>
<image style="display:none;overflow:visible;" width="3628" height="529" xlink:href="../../../../../../../../Sites/bmc/builds/WEB-8998/Assets/dist/orion/banner-blob-yellow.png"  transform="matrix(0.2392 0 0 0.2392 0.9563 0)">
</image>
<linearGradient id="SVGID_1_" gradientUnits="userSpaceOnUse" x1="664.9403" y1="-47.8889" x2="163.2918" y2="132.1318">
	<stop  offset="0" style="stop-color:#F98700"/>
	<stop  offset="1" style="stop-color:#EEA908"/>
</linearGradient>
<path class="st0" d="M0,0c0.7,1.9,1.4,3.8,2.1,5.7c3.4,9,7.5,17.8,12.1,26.3c4.4,8.1,9.6,15.8,15.3,23.1c5.6,7.1,12,13.5,19,19.2
	c5.5,4.5,11.4,8.6,17.6,12.2c6.3,3.7,12.9,6.9,19.7,9.7c7,2.9,14.2,5.4,21.5,7.5c7.2,2.1,15,4,23,5.6c16.2,3.1,32.6,5.2,49.1,6.3
	c15.4,1.1,32,1.6,50.9,1.6c19,0,38-0.5,55.8-1.1c13.7-0.4,27-0.8,39.9-1.2c32.7-1,63.6-2,94.6-2c33.1,0,62.3,1.1,91.9,3.5
	c13.1,1.1,26.4,2.4,40.4,3.8h0c33,3.3,67.2,6.7,100.5,6.7l0,0c18.1,0.1,36.2-1.1,54.1-3.8c8.6-1.3,17.2-3.1,25.6-5.4
	c8.3-2.2,16.4-5,24.3-8.4c8.9-3.9,17.6-8.4,25.8-13.7c8.3-5.3,16.2-11.1,23.7-17.5c7.7-6.5,14.9-13.5,21.7-20.9
	c7-7.6,13.6-15.6,19.7-23.9c7.9-10.7,15.2-21.8,21.9-33.3H0z"/>
</svg>
