<svg xmlns="http://www.w3.org/2000/svg" xmlns:xlink="http://www.w3.org/1999/xlink" width="945.255" height="405.932" viewBox="0 0 945.255 405.932">
  <defs>
    <style>
      .cls-1 {
        fill: url(#linear-gradient);
      }
    </style>
    <linearGradient id="linear-gradient" x1="0.889" y1="0.419" x2="0.385" y2="0.478" gradientUnits="objectBoundingBox">
      <stop offset="0" stop-color="#2bd4ee"/>
      <stop offset="1" stop-color="#1a98ff"/>
    </linearGradient>
  </defs>
  <path id="Subtraction_48" data-name="Subtraction 48" class="cls-1" d="M738.287,1079.432h-.013a205.456,205.456,0,0,1-35.968-3.384,340.3,340.3,0,0,1-37.253-8.967c-25.22-7.445-50.623-17.223-77.517-27.575-28.683-11.041-58.343-22.457-87.931-30.864-35.042-10.295-70.088-16.337-103.981-22.18-27.33-4.712-53.145-9.162-77.372-15.539a305,305,0,0,1-34.838-11.231A194.931,194.931,0,0,1,252.022,944.1a174.784,174.784,0,0,1-22.687-16.389,197.9,197.9,0,0,1-20.06-19.765,233.942,233.942,0,0,1-17.583-22.674,282.609,282.609,0,0,1-15.256-25.114c-17.268-31.965-30.979-70.825-40.75-115.5a571.519,571.519,0,0,1-10.952-71.16h945.255c-.616,2.876-1.266,5.768-1.931,8.6-2.25,9.85-4.9,19.882-7.885,29.819-2.92,9.731-6.242,19.654-9.872,29.494a596.438,596.438,0,0,1-25.237,58.214c-17.944,36.181-40.57,73.711-69.172,114.737-14.921,21.4-28.738,39.768-42.24,56.148-7.686,9.324-15.381,18.122-22.872,26.15-8.04,8.616-16.123,16.645-24.025,23.862a319.179,319.179,0,0,1-25.168,20.821,239.786,239.786,0,0,1-26.3,17.026,184.633,184.633,0,0,1-27.422,12.477,150.884,150.884,0,0,1-28.533,7.175,153.335,153.335,0,0,1-21.045,1.412Z" transform="translate(-124.734 -673.5)"/>
</svg>
