<?xml version="1.0" encoding="utf-8"?>
<!-- Generator: Adobe Illustrator 25.0.0, SVG Export Plug-In . SVG Version: 6.00 Build 0)  -->
<svg version="1.1" id="Layer_1" xmlns="http://www.w3.org/2000/svg" xmlns:xlink="http://www.w3.org/1999/xlink" x="0px" y="0px"
	 viewBox="0 0 768.4 183" style="enable-background:new 0 0 768.4 183;" xml:space="preserve">
<style type="text/css">
	.st0{fill:url(#SVGID_1_);}
</style>
<linearGradient id="SVGID_1_" gradientUnits="userSpaceOnUse" x1="636.019" y1="90.0976" x2="252.5162" y2="45.2035">
	<stop  offset="0" style="stop-color:#2BD4EE"/>
	<stop  offset="1" style="stop-color:#1A98FF"/>
</linearGradient>
<path class="st0" d="M538.6,183c7,0,14-0.5,21-1.4c9.7-1.5,19.3-3.9,28.5-7.2c9.5-3.4,18.6-7.6,27.4-12.5c9.1-5.1,17.9-10.8,26.3-17
	c8.7-6.5,17.1-13.5,25.2-20.8c7.9-7.2,16-15.2,24-23.9c7.5-8,15.2-16.8,22.9-26.2c13.5-16.4,27.3-34.7,42.2-56.1
	c4.2-6.1,8.3-12,12.3-17.9H0c3,3.9,6.2,7.8,9.5,11.5c6.2,7.1,12.9,13.7,20.1,19.8c7.1,6.1,14.7,11.5,22.7,16.4
	c10,6.1,20.5,11.3,31.4,15.6c11.4,4.4,23,8.2,34.8,11.2c24.2,6.4,50,10.8,77.4,15.5c33.9,5.8,68.9,11.9,104,22.2
	c29.6,8.4,59.2,19.8,87.9,30.9c26.9,10.4,52.3,20.1,77.5,27.6c12.2,3.7,24.7,6.7,37.3,9C514.4,181.8,526.4,182.9,538.6,183
	L538.6,183L538.6,183z"/>
</svg>
