<svg xmlns="http://www.w3.org/2000/svg" width="1100.723" height="413.356" viewBox="0 0 1100.723 413.356">
  <defs>
    <style>
      .cls-1 {
        fill: #2bd4ee;
      }
    </style>
  </defs>
  <path id="Subtraction_49" data-name="Subtraction 49" class="cls-1" d="M1029.654,1292.425c-9.141,0-18.64-.3-29.042-.93-9.282-.558-19.087-1.363-29.975-2.459-20.248-2.039-41.439-4.828-61.932-7.525-36.536-4.808-74.312-9.78-110.992-11.212-9.769-.47-20.081-.708-30.651-.708-14.3,0-29.694.427-47.052,1.307-15.156.768-29.69,1.757-45.757,2.875l-2.974.207c-29.327,2.045-57.024,3.976-83.911,3.976a392.6,392.6,0,0,1-48.85-2.734c-8.074-1.009-15.917-2.332-23.312-3.932a221.594,221.594,0,0,1-22.516-6.1,215.869,215.869,0,0,1-31.469-12.864,249.485,249.485,0,0,1-29.6-17.615,299.231,299.231,0,0,1-27.739-21.77c-8.723-7.693-17.436-16.215-25.9-25.328-30.5-32.855-59.243-74.9-85.433-124.951-31.882-61.038-54-122.809-65.734-183.6H1327.544c-4.33,23.525-9.958,48.282-16.724,73.585-6.333,23.679-13.93,48.826-22.58,74.74-9.887,29.621-19.531,55.332-29.481,78.6-5.663,13.244-11.514,25.87-17.391,37.528-6.307,12.51-12.861,24.337-19.48,35.153a363.854,363.854,0,0,1-21.81,31.883,270.394,270.394,0,0,1-24.381,27.718,206.386,206.386,0,0,1-27.192,22.658,168.431,168.431,0,0,1-30.245,16.7,170.27,170.27,0,0,1-20.5,6.917,207.376,207.376,0,0,1-21.684,4.57A297.354,297.354,0,0,1,1029.654,1292.425Z" transform="translate(-226.821 -879.069)"/>
</svg>
