<svg xmlns="http://www.w3.org/2000/svg" xmlns:xlink="http://www.w3.org/1999/xlink" width="898.222" height="351.371" viewBox="0 0 898.222 351.371">
  <defs>
    <style>
      .cls-1 {
        fill: url(#linear-gradient);
      }
    </style>
    <linearGradient id="linear-gradient" x1="0.175" y1="0.73" x2="0.748" y2="1.156" gradientUnits="objectBoundingBox">
      <stop offset="0" stop-color="#2bd4ee"/>
      <stop offset="1" stop-color="#1a98ff"/>
    </linearGradient>
  </defs>
  <path id="Subtraction_48" data-name="Subtraction 48" class="cls-1" d="M471.339,964.435c-2.574,0-5.166-.029-7.7-.086a354.713,354.713,0,0,1-124.683-25.907,320.692,320.692,0,0,1-56.978-30.066,268.621,268.621,0,0,1-69.258-66.027,308.11,308.11,0,0,1-17.7-27.118c-5.354-9.212-10.445-19.023-15.133-29.162-4.539-9.818-8.819-20.2-12.721-30.868-14.4-39.346-24.426-84.349-29.808-133.759-.289-2.8-.562-5.614-.814-8.377H1026.61c2.3,16.25,4.046,31.277,5.342,45.94,1.473,16.668,2.338,32.506,2.643,48.421a586.409,586.409,0,0,1-1.938,64.923,381.283,381.283,0,0,1-10.481,62.82c-11.583,44.029-30.781,74.594-57.063,90.847a102.524,102.524,0,0,1-18.582,8.792,139.829,139.829,0,0,1-20.848,5.616c-13.468,2.59-28.9,3.85-47.19,3.85-24,0-49.257-2.107-76-4.338l-1.487-.124c-25.08-2.091-53.5-4.461-80.3-4.461-1.921,0-3.841.012-5.707.036-43.267.658-84.209,7.922-123.8,14.947-19.637,3.484-39.941,7.087-59.841,9.722-10.7,1.417-20.48,2.457-29.9,3.178C490.9,964.042,481.049,964.435,471.339,964.435Z" transform="translate(-136.546 -613.064)"/>
</svg>
