<?xml version="1.0" encoding="utf-8"?>
<!-- Generator: Adobe Illustrator 25.0.0, SVG Export Plug-In . SVG Version: 6.00 Build 0)  -->
<svg version="1.1" id="Layer_1" xmlns="http://www.w3.org/2000/svg" xmlns:xlink="http://www.w3.org/1999/xlink" x="0px" y="0px"
	 viewBox="0 0 870.7 126.9" style="enable-background:new 0 0 870.7 126.9;" xml:space="preserve">
<style type="text/css">
	.st0{fill:#2BD4EE;}
</style>
<path class="st0" d="M0,0c6.3,7.8,12.7,15.1,19.1,22.1c8.5,9.1,17.2,17.6,25.9,25.3c8.8,7.8,18.1,15.1,27.7,21.8
	c9.4,6.5,19.3,12.4,29.6,17.6c10.1,5.1,20.7,9.4,31.5,12.9c7.4,2.4,14.9,4.5,22.5,6.1c7.4,1.6,15.2,2.9,23.3,3.9
	c16.2,1.9,32.5,2.8,48.8,2.7c26.9,0,54.6-1.9,83.9-4l3-0.2c16.1-1.1,30.6-2.1,45.8-2.9c17.4-0.9,32.8-1.3,47.1-1.3
	c10.6,0,20.9,0.2,30.7,0.7c36.7,1.4,74.5,6.4,111,11.2c20.5,2.7,41.7,5.5,61.9,7.5c10.9,1.1,20.7,1.9,30,2.5
	c10.4,0.6,19.9,0.9,29,0.9c15.5,0.1,31.1-1,46.4-3.3c7.3-1.1,14.5-2.7,21.7-4.6c7-1.9,13.8-4.2,20.5-6.9
	c10.6-4.5,20.8-10.1,30.2-16.7c9.7-6.8,18.8-14.3,27.2-22.7c8.7-8.7,16.9-17.9,24.4-27.7c7.8-10.2,15.1-20.9,21.8-31.9
	c2.6-4.2,5.2-8.6,7.7-13.1H0z"/>
</svg>
