<svg xmlns="http://www.w3.org/2000/svg" xmlns:xlink="http://www.w3.org/1999/xlink" width="957.384" height="455.511" viewBox="0 0 957.384 455.511">
  <defs>
    <style>
      .cls-1 {
        fill: url(#linear-gradient);
      }
    </style>
    <linearGradient id="linear-gradient" x1="0.683" y1="0.24" x2="0.854" y2="0.694" gradientUnits="objectBoundingBox">
      <stop offset="0" stop-color="#f98700"/>
      <stop offset="1" stop-color="#fe5000"/>
    </linearGradient>
  </defs>
  <path id="Subtraction_48" data-name="Subtraction 48" class="cls-1" d="M510.631,1286.011a191.259,191.259,0,0,1-26.93-1.822,148.926,148.926,0,0,1-46.422-14.512A184.732,184.732,0,0,1,417.356,1258a276.5,276.5,0,0,1-37.6-30.853c-10.886-10.47-22.519-22.9-35.562-38.008-11.641-13.481-23.348-27.847-34.67-41.74l0-.005c-12.064-14.8-24.538-30.111-37.109-44.576-15.05-17.636-30.574-34.472-45.587-50.754l0-.005c-22.469-24.367-43.691-47.383-61.658-71.108a321.483,321.483,0,0,1-24.035-36.135c-3.531-6.26-6.716-12.544-9.466-18.679a191.629,191.629,0,0,1-7.441-19.264c-1.906-5.893-3.565-12.058-4.93-18.323-1.322-6.071-2.409-12.418-3.229-18.867a277.215,277.215,0,0,1-2.006-39.181H1071.4c-1.173,23.936-3.4,49.359-6.616,75.562-3.043,26.106-6.5,48.989-10.555,69.956-2.311,11.938-4.866,23.448-7.593,34.211-2.925,11.541-6.151,22.633-9.59,32.969-3.651,10.974-7.663,21.464-11.925,31.178a282.437,282.437,0,0,1-14.6,28.84,224.385,224.385,0,0,1-17.615,25.953,186.577,186.577,0,0,1-20.969,22.519,188.921,188.921,0,0,1-19.414,15.237,228.193,228.193,0,0,1-21.471,12.995,329.565,329.565,0,0,1-48.079,20.575c-15.259,5.274-32.661,10.358-53.2,15.544-18.349,4.632-37.605,8.954-56.227,13.133l-.023.005c-19.234,4.316-39.123,8.779-58.583,13.7-19.057,4.685-38.081,9.906-56.479,14.954l-.009,0c-26.717,7.332-51.953,14.256-76.693,19.5-13.282,2.814-25.181,4.877-36.378,6.306a272.808,272.808,0,0,1-34.744,2.375Z" transform="translate(-114.012 -830.5)"/>
</svg>
