<svg xmlns="http://www.w3.org/2000/svg" xmlns:xlink="http://www.w3.org/1999/xlink" width="910.538" height="404.043" viewBox="0 0 910.538 404.043">
  <defs>
    <style>
      .cls-1 {
        fill: url(#linear-gradient);
      }
    </style>
    <linearGradient id="linear-gradient" x1="1.109" y1="1.472" x2="0.155" y2="1.405" gradientUnits="objectBoundingBox">
      <stop offset="0" stop-color="#f98700"/>
      <stop offset="1" stop-color="#eea908"/>
    </linearGradient>
  </defs>
  <path id="Subtraction_49" data-name="Subtraction 49" class="cls-1" d="M549.222,857.543a155.295,155.295,0,0,1-24.729-2.025,177.9,177.9,0,0,1-24.45-5.811,211.926,211.926,0,0,1-24.055-9.2,257.136,257.136,0,0,1-23.544-12.2c-28.794-16.8-57.982-40.657-86.756-70.9a527.114,527.114,0,0,1-71.137-94.495,457.412,457.412,0,0,1-26.372-52.448,415.2,415.2,0,0,1-19-55.347,396.128,396.128,0,0,1-10.435-50.6,363.14,363.14,0,0,1-3.474-51.015h905.41a273.23,273.23,0,0,1,4.961,61.885,246.645,246.645,0,0,1-9.716,60.942c-10.241,35.716-29.249,69.758-54.968,98.444-25.7,28.666-57.073,50.84-90.726,64.125a243.388,243.388,0,0,1-28.422,9.175c-9.1,2.365-18.733,4.4-29.442,6.217-19.912,3.38-40.752,5.493-60.907,7.536h-.005c-17.212,1.745-35.009,3.55-52.479,6.15-9.41,1.4-17.951,2.911-26.111,4.617-9.166,1.917-17.61,4.027-25.813,6.453-30.728,8.961-60.554,23.22-89.4,37.01-21.288,10.177-41.392,19.788-61.713,27.369a260.278,260.278,0,0,1-30.35,9.441,165.638,165.638,0,0,1-30.158,4.546C553.382,857.5,551.291,857.543,549.222,857.543Z" transform="translate(-235.27 -453.5)"/>
</svg>
