<svg xmlns="http://www.w3.org/2000/svg" xmlns:xlink="http://www.w3.org/1999/xlink" width="963.47" height="349.309" viewBox="0 0 963.47 349.309">
  <defs>
    <style>
      .cls-1 {
        fill: url(#linear-gradient);
      }
    </style>
    <linearGradient id="linear-gradient" x1="0.871" y1="0.26" x2="0.284" y2="0.841" gradientUnits="objectBoundingBox">
      <stop offset="0" stop-color="#f98700"/>
      <stop offset="1" stop-color="#eea908"/>
    </linearGradient>
  </defs>
  <path id="Subtraction_49" data-name="Subtraction 49" class="cls-1" d="M803.808,1022.809c-33.256,0-67.42-3.42-100.459-6.727h-.006c-14.032-1.4-27.286-2.731-40.425-3.8-29.592-2.364-58.786-3.465-91.877-3.465-30.98,0-61.859.972-94.551,2q-19.293.608-39.875,1.2c-17.748.6-36.79,1.148-55.784,1.148-18.9,0-35.562-.539-50.937-1.648a400.233,400.233,0,0,1-49.123-6.328c-8.06-1.595-15.807-3.468-23.025-5.567a208.83,208.83,0,0,1-21.543-7.515,163.185,163.185,0,0,1-19.718-9.722,132.541,132.541,0,0,1-17.551-12.188,129.327,129.327,0,0,1-19.013-19.214,159.333,159.333,0,0,1-15.33-23.056,211.646,211.646,0,0,1-12.08-26.277,290.792,290.792,0,0,1-9.26-28.876c-4.95-18.559-8.8-39.187-11.784-63.063-2.389-19.149-4.193-40.122-5.676-66-1.471-25.673-2.227-48.636-2.311-70.2h963.47a374.451,374.451,0,0,1-8.128,69.539,547.237,547.237,0,0,1-46.238,131.25,386.7,386.7,0,0,1-33.724,54.9,297.062,297.062,0,0,1-19.743,23.9,248.58,248.58,0,0,1-21.719,20.94,211.721,211.721,0,0,1-23.737,17.529,187.125,187.125,0,0,1-25.8,13.67,189.859,189.859,0,0,1-24.3,8.378,236.478,236.478,0,0,1-25.638,5.418,349.572,349.572,0,0,1-54.124,3.785Z" transform="translate(-123.483 -673.5)"/>
</svg>
