<?xml version="1.0" encoding="utf-8"?>
<!-- Generator: Adobe Illustrator 25.0.0, SVG Export Plug-In . SVG Version: 6.00 Build 0)  -->
<svg version="1.1" id="Layer_1" xmlns="http://www.w3.org/2000/svg" xmlns:xlink="http://www.w3.org/1999/xlink" x="0px" y="0px"
	 viewBox="0 0 737.9 182.8" style="enable-background:new 0 0 737.9 182.8;" xml:space="preserve">
<style type="text/css">
	.st0{fill:url(#SVGID_1_);}
</style>
<linearGradient id="SVGID_1_" gradientUnits="userSpaceOnUse" x1="0" y1="91.2937" x2="738.0556" y2="91.2937">
	<stop  offset="0" style="stop-color:#F98700"/>
	<stop  offset="1" style="stop-color:#FE5000"/>
</linearGradient>
<path class="st0" d="M272.8,180.4c11.2-1.4,23.1-3.5,36.4-6.3c24.7-5.2,50-12.2,76.7-19.5h0c18.4-5,37.4-10.3,56.5-15
	c19.5-4.9,39.3-9.4,58.6-13.7l0,0c18.6-4.2,37.9-8.5,56.2-13.1c20.5-5.2,37.9-10.3,53.2-15.5c16.5-5.6,32.6-12.5,48.1-20.6
	c7.4-3.9,14.6-8.3,21.5-13c6.8-4.7,13.3-9.7,19.4-15.2C707,41.6,714,34,720.3,26c6.5-8.2,12.4-16.9,17.6-26c0-0.1,0.1-0.1,0.1-0.2H0
	c12.5,14.4,24.9,29.6,36.9,44.4v0c11.3,13.9,23,28.3,34.7,41.7c13,15.1,24.7,27.5,35.6,38c11.6,11.4,24.2,21.7,37.6,30.9
	c6.4,4.3,13,8.2,19.9,11.7c14.6,7.3,30.3,12.3,46.4,14.5c8.9,1.2,17.9,1.8,26.9,1.8h0.2C249.8,182.7,261.4,181.9,272.8,180.4z"/>
</svg>
