<svg id="Group_598" data-name="Group 598" xmlns="http://www.w3.org/2000/svg" width="115.16" height="40.069" viewBox="0 0 115.16 40.069">
  <defs>
    <style>
      .cls-1 {
        fill: #fe5000;
      }

      .cls-2 {
        fill: #414042;
      }

      .cls-3 {
        fill: #1a98ff;
      }
    </style>
  </defs>
  <path id="Path_681" data-name="Path 681" class="cls-1" d="M525.45,187.2v3.488a2.465,2.465,0,0,0,1,1.759l6.658,3.943,3.9-2.314Zm7.657,12.3-6.666,3.952a2.456,2.456,0,0,0-1,1.76v3.455L537,201.809Zm-8.1,12.1a2.308,2.308,0,0,1-2.246-2.515v-3.876a5.079,5.079,0,0,1,2.314-4.059l5.4-3.205-5.4-3.2a5.075,5.075,0,0,1-2.31-4.058v-3.912a2.305,2.305,0,0,1,2.242-2.515,2.758,2.758,0,0,1,1.431.425l12.208,7.26a2.371,2.371,0,0,1,0,4.267l-2.926,1.732,2.923,1.73a2.367,2.367,0,0,1,0,4.266l-12.21,7.238a2.777,2.777,0,0,1-1.429.421" transform="translate(-522.765 -184.262)"/>
  <g id="Group_559" data-name="Group 559" transform="translate(22.919 4.872)">
    <path id="Path_682" data-name="Path 682" class="cls-2" d="M560.958,205a2.45,2.45,0,0,0,2.241,1.387c1.787,0,2.853-1.441,2.853-3.333,0-1.92-1.066-3.36-2.853-3.36a2.527,2.527,0,0,0-2.241,1.387Zm0,4h-3.333V191.672h3.333v6.4a4.112,4.112,0,0,1,2.987-1.256c3.466,0,5.411,2.829,5.411,6.243s-1.945,6.211-5.411,6.211a4.118,4.118,0,0,1-2.987-1.252Z" transform="translate(-557.626 -191.672)"/>
    <path id="Path_683" data-name="Path 683" class="cls-2" d="M590.677,199.5c2.454,0,3.92,1.708,3.92,4.4v7.788h-3.307v-7.092c0-1.281-.56-2.133-1.705-2.133A1.844,1.844,0,0,0,587.741,204v7.679H584.41v-7.092c0-1.281-.53-2.133-1.677-2.133A1.874,1.874,0,0,0,580.862,204v7.679h-3.3V199.766h3.3v.985a3.811,3.811,0,0,1,3.018-1.255,3.946,3.946,0,0,1,3.2,1.52,4.649,4.649,0,0,1,3.6-1.52" transform="translate(-564.454 -194.352)"/>
    <path id="Path_684" data-name="Path 684" class="cls-2" d="M611.2,199.5a4.869,4.869,0,0,1,5.227,4.293h-3.25a1.843,1.843,0,0,0-1.976-1.465c-1.515,0-2.448,1.387-2.448,3.414,0,2,.933,3.387,2.448,3.387a1.846,1.846,0,0,0,1.976-1.465h3.25c-.345,2.555-2.237,4.29-5.227,4.29-3.383,0-5.733-2.535-5.733-6.212,0-3.708,2.35-6.242,5.733-6.242" transform="translate(-574.016 -194.352)"/>
  </g>
  <g id="Group_560" data-name="Group 560" transform="translate(69.194 4.843)">
    <path id="Path_685" data-name="Path 685" class="cls-3" d="M639.052,200.964c-.233-2.192-1.319-3.526-2.985-3.977a3.236,3.236,0,0,0-.878-.153,4.7,4.7,0,0,0-3.855,1.156v-6.361h-3.321v17.338h3.317V201.22a2.3,2.3,0,0,1,2.185-1.713,4.308,4.308,0,0,1,.753.058c.951.233,1.524,1.078,1.524,2.653v6.749h3.318v-7.09A5.384,5.384,0,0,0,639.052,200.964Z" transform="translate(-628.014 -191.628)"/>
    <path id="Path_686" data-name="Path 686" class="cls-3" d="M665.513,209V191.657h3.311V209Z" transform="translate(-640.86 -191.638)"/>
    <path id="Path_687" data-name="Path 687" class="cls-3" d="M673.046,194.885v-3.146h3.31v3.146Zm0,14.138V196.891h3.31v12.132Z" transform="translate(-643.44 -191.666)"/>
    <path id="Path_688" data-name="Path 688" class="cls-3" d="M691.455,211.7h-3.9l-2.294-4.111h-.048l-2.294,4.111h-3.9l4.159-6.238-3.9-5.9h3.848l2.079,3.561h.048l2.079-3.561h3.848l-3.9,5.9Z" transform="translate(-645.489 -194.346)"/>
    <path id="Path_689" data-name="Path 689" class="cls-3" d="M657.73,203.852a5.242,5.242,0,0,0-5.452-4.306c-3.586,0-5.683,2.676-5.683,6.136,0,3.737,2.1,6.321,5.705,6.321a5.243,5.243,0,0,0,5.473-4.317l-3.08-.007a2.3,2.3,0,0,1-2.49,1.8c-1.353,0-2.623-1.092-2.623-3.2l8.278.007A8.775,8.775,0,0,0,657.73,203.852Zm-5.527-1.778h.053a2.448,2.448,0,0,1,2.357,2.087c.016.078.026.153.037.229h-5.012c.012-.076.023-.152.04-.229A2.571,2.571,0,0,1,652.2,202.073Z" transform="translate(-634.379 -194.34)"/>
  </g>
  <path id="Path_697" data-name="Path 697" class="cls-2" d="M11-18.353a7.505,7.505,0,0,0-3.748-.991c-3.4,0-5.865,2.486-5.865,6.351,0,3.846,2.35,6.293,5.865,6.293a6.918,6.918,0,0,0,3.651-.991l-.233-1.224a5.858,5.858,0,0,1-3.4,1.088c-2.777,0-4.622-2-4.622-5.205,0-3.3,1.942-5.186,4.584-5.186a6.156,6.156,0,0,1,3.379.971ZM21.044-11.42c0-2.855-1.787-4.681-4.273-4.681a4.389,4.389,0,0,0-4.389,4.72c0,2.855,1.826,4.681,4.292,4.681A4.386,4.386,0,0,0,21.044-11.42Zm-1.185.039c0,2.1-1.243,3.593-3.127,3.593s-3.146-1.457-3.146-3.632c0-2.1,1.243-3.593,3.127-3.593S19.859-13.556,19.859-11.381ZM30.347-6.953v-6.1c0-1.942-1.049-3.049-2.836-3.049a4.607,4.607,0,0,0-3.03,1.457V-16.1l-1.2.252v8.9h1.2v-6.739a4,4,0,0,1,2.7-1.262c1.34,0,1.962.7,1.962,2.253v5.749Zm7.167-.175L37.3-8.176a4.436,4.436,0,0,1-1.709.427c-.932,0-1.34-.544-1.3-1.67l.136-5.322h2.952l.058-1.068H34.464l.058-2.078H33.377l-.058,2.02-1.34.311-.058.757,1.36.078-.136,5.263c-.058,1.865.7,2.8,2.389,2.8A4.846,4.846,0,0,0,37.514-7.127Zm3.166-5.535c.7-1.593,1.573-2.292,2.505-2.292a2.648,2.648,0,0,1,1.36.388l.311-1.126A3.231,3.231,0,0,0,43.3-16.1a2.989,2.989,0,0,0-2.622,1.9v-1.9l-1.2.252v8.9h1.2Zm13.6,1.243c0-2.855-1.787-4.681-4.273-4.681a4.389,4.389,0,0,0-4.389,4.72c0,2.855,1.826,4.681,4.292,4.681A4.386,4.386,0,0,0,54.275-11.42Zm-1.185.039c0,2.1-1.243,3.593-3.127,3.593s-3.146-1.457-3.146-3.632c0-2.1,1.243-3.593,3.127-3.593S53.09-13.556,53.09-11.381Zm4.622,4.428V-20.3l-1.2.252v13.09Zm6.448-4.156v-1.126H59.771v1.126ZM77.038-6.953H78.3l-.388-12.139H76.261L72.221-8.37l-4.1-10.721h-1.67L66.045-6.953h1.224l.214-10.624L71.5-7.03h1.36l3.982-10.527Z" transform="translate(20.89 46.73)"/>
</svg>
