<svg xmlns="http://www.w3.org/2000/svg" width="1455.878" height="861.454" viewBox="0 0 1455.878 861.454">
  <g id="Group_1820" data-name="Group 1820" transform="translate(-1902.733 -4468.961)">
    <path id="blob_4_" data-name="blob (4)" d="M790.691,120.579c84.521,35.488,187.2,47.01,262.643,85.264s122.939,102.777,122.939,167.3c.7,64.524-46.8,129.509-119.447,170.988-71.948,41.941-169.041,60.376-254.261,73.281a2229.106,2229.106,0,0,1-234,24.888c-76.139,3.687-155.77,3.687-227.018-14.748C269.6,609.578,206.73,573.168,144.561,527.54,81.695,481.913,20.924,427.528,4.858,366.692c-16.764-60.376,11.176-127.665,63.565-184.354,51.69-57.15,128.527-103.7,216.541-138.265,88.013-34.105,187.2-55.767,271.025-37.332C639.113,25.637,705.472,85.091,790.691,120.579Z" transform="translate(3358.611 5105.97) rotate(169)" fill="#fff" opacity="0.099"/>
    <path id="blob_4_2" data-name="blob (4)" d="M790.691,120.579c84.521,35.488,187.2,47.01,262.643,85.264s122.939,102.777,122.939,167.3c.7,64.524-46.8,129.509-119.447,170.988-71.948,41.941-169.041,60.376-254.261,73.281a2229.106,2229.106,0,0,1-234,24.888c-76.139,3.687-155.77,3.687-227.018-14.748C269.6,609.578,206.73,573.168,144.561,527.54,81.695,481.913,20.924,427.528,4.858,366.692c-16.764-60.376,11.176-127.665,63.565-184.354,51.69-57.15,128.527-103.7,216.541-138.265,88.013-34.105,187.2-55.767,271.025-37.332C639.113,25.637,705.472,85.091,790.691,120.579Z" transform="translate(1902.733 4652.972) rotate(-9)" fill="#fff" opacity="0.099"/>
  </g>
</svg>
