<?xml version="1.0" encoding="utf-8"?>
<!-- Generator: Adobe Illustrator 25.0.0, SVG Export Plug-In . SVG Version: 6.00 Build 0)  -->
<svg version="1.1" id="Layer_1" xmlns="http://www.w3.org/2000/svg" xmlns:xlink="http://www.w3.org/1999/xlink" x="0px" y="0px"
	 viewBox="0 0 899.635 442.546" style="enable-background:new 0 0 899.635 442.546;" xml:space="preserve">
<style type="text/css">
	.st0{fill:url(#Subtraction_48_8_);}
	.st1{fill:#2BD4EE;}
	.st2{fill:url(#blob_3_);}
	.st3{fill:none;}
	.st4{opacity:0.5;fill:#FFFFFF;}
	.st5{fill:#002C8F;}
	.st6{fill:url(#Subtraction_48_9_);}
	.st7{fill:url(#Subtraction_48_10_);}
	.st8{fill:url(#Subtraction_48_11_);}
	.st9{fill:url(#Subtraction_48_12_);}
	.st10{fill:url(#Subtraction_48_13_);}
	.st11{fill:url(#Subtraction_48_14_);}
</style>
<linearGradient id="Subtraction_48_8_" gradientUnits="userSpaceOnUse" x1="-4459.4805" y1="605.6339" x2="-4459.4805" y2="604.6339" gradientTransform="matrix(899.6168 0 0 -442.539 4012273.75 268016.6562)">
	<stop  offset="0" style="stop-color:#F98700"/>
	<stop  offset="1" style="stop-color:#EEA908"/>
</linearGradient>
<path id="Subtraction_48_2_" class="st0" d="M392.479,442.546c-4.538,0.003-9.074-0.234-13.587-0.711
	c-6.868-0.748-13.667-2.037-20.332-3.854c-6.869-1.882-13.607-4.213-20.171-6.979c-14.119-6.078-27.656-13.428-40.444-21.958
	c-27.2-17.735-55.462-41.318-85.38-66.286c-12.385-10.336-25.188-21.02-38.479-31.769c-9.871-7.86-20.2-15.9-30.185-23.683
	c-17.52-13.647-35.635-27.757-52.475-41.781c-9.073-7.556-17.031-14.46-24.329-21.1c-8.2-7.469-15.357-14.415-21.874-21.234
	c-6.541-6.794-12.727-13.921-18.533-21.353c-5.306-6.78-10.089-13.955-14.306-21.461c-3.841-6.83-6.923-14.059-9.191-21.559
	c-2.106-7.023-3.181-14.315-3.191-21.647c0.044-4.922,0.58-9.828,1.6-14.643c1.067-4.999,2.551-9.9,4.436-14.651
	c2.001-5.035,4.336-9.932,6.989-14.656c2.832-5.042,5.922-9.933,9.259-14.656c7.372-10.32,15.459-20.111,24.2-29.3
	c8.485-9.061,18.262-18.631,29.89-29.258H879.19c7.324,18.419,12.754,37.535,16.206,57.053c3.426,19.156,4.774,38.626,4.02,58.071
	c-0.693,18.763-3.747,37.363-9.091,55.362c-5.156,17.398-12.956,33.899-23.128,48.926c-5.109,7.373-10.793,14.331-17,20.807
	c-6.349,6.612-13.123,12.802-20.278,18.531c-7.398,5.918-15.095,11.451-23.061,16.578c-7.752,5.013-16.274,10.035-25.329,14.928
	c-35.058,18.94-75.1,34.416-113.828,49.382c-19.282,7.455-39.224,15.155-57.855,23.055c-24.09,10.127-46.54,20.695-68.251,30.915
	C485.819,419.868,437.64,442.545,392.479,442.546z"/>
<g>
	<g>
		<path class="st3" d="M468.555,405.24L327.807,161.458c-4.802,1.377-9.409,2.953-13.744,4.837l138.369,239.662
			C457.788,405.789,463.207,405.597,468.555,405.24z"/>
		<path class="st3" d="M429.509,406.892L296.814,177.058c-3.725,3.371-6.981,7.279-9.839,11.6l126.579,219.241
			C418.811,407.554,424.102,407.2,429.509,406.892z"/>
		<path class="st3" d="M410.215,408.114L285.167,191.527c-2.899,4.846-5.356,10.14-7.454,15.731l116.484,201.756
			C399.573,408.775,404.886,408.457,410.215,408.114z"/>
		<path class="st3" d="M370.932,409.358l-100.747-174.5c-0.876,4.461-1.638,8.95-2.317,13.41c-0.477,3.008-0.903,5.999-1.293,8.978
			l87.204,151.041C359.545,408.884,365.307,409.208,370.932,409.358z"/>
		<path class="st3" d="M442.906,406.264c2.021-0.073,4.066-0.138,6.124-0.201L311.325,167.551
			c-4.407,2.111-8.497,4.585-12.187,7.534L432.868,406.71C436.162,406.537,439.498,406.383,442.906,406.264z"/>
		<path class="st3" d="M350.069,407.862l-84.102-145.669c-0.996,8.678-1.593,17.236-1.709,25.681l67.242,116.466
			C337.541,405.946,343.788,407.079,350.069,407.862z"/>
		<path class="st3" d="M327.348,403.149l-63.1-109.292c0.16,11.612,1.276,23.015,3.568,34.236c0.067,0.315,0.139,0.629,0.207,0.944
			l36.505,63.228C311.341,397.09,319.104,400.605,327.348,403.149z"/>
		<path class="st3" d="M528.537,370.568L398.894,146.02c-4.782,1.117-9.644,2.294-14.559,3.424l135.881,235.353
			C523.446,380.616,526.165,375.808,528.537,370.568z"/>
		<path class="st3" d="M270.77,339.794c5.422,18.379,14.35,35.403,27.263,47.222L270.77,339.794z"/>
		<path class="st3" d="M511.634,393.353c2.385-1.78,4.55-3.829,6.541-6.092L381.273,150.139c-1.791,0.401-3.588,0.793-5.39,1.169
			c-3.114,0.672-6.242,1.3-9.37,1.907L506.898,396.37C508.553,395.458,510.138,394.459,511.634,393.353z"/>
		<path class="st3" d="M536.16,349.131L416.738,142.285c-4.814,0.825-9.753,1.877-14.788,3.028l128.068,221.82
			C532.345,361.481,534.332,355.408,536.16,349.131z"/>
		<path class="st3" d="M548.366,300.99l-89.414-154.87c-1.945-1.053-3.939-1.965-5.99-2.71c-4.32-1.59-8.903-2.441-13.699-2.752
			l104.322,180.691C545.351,314.491,547.034,307.682,548.366,300.99z"/>
		<path class="st3" d="M548.833,257.836c-3.941-13.797-13.465-26.04-24.347-38.848l25.623,44.381
			C549.77,261.5,549.352,259.654,548.833,257.836z"/>
		<path class="st3" d="M541.519,329.304c0.331-1.272,0.662-2.543,0.993-3.814L435.719,140.521
			c-5.065-0.056-10.352,0.427-15.814,1.251l117.399,203.34C538.755,339.905,540.127,334.596,541.519,329.304z"/>
		<path class="st3" d="M390.815,409.155L276.391,210.966c-2.128,6.246-3.857,12.801-5.295,19.47l103.34,178.99
			C380.031,409.465,385.464,409.356,390.815,409.155z"/>
		<path class="st3" d="M487.261,402.999l-141.87-245.726c-4.987,1.015-9.877,2.102-14.598,3.358l141.083,244.362
			C477.149,404.565,482.322,403.945,487.261,402.999z"/>
		<path class="st3" d="M504.221,397.734L363.395,153.815c-5.003,0.952-9.991,1.869-14.9,2.835l141.857,245.703
			C495.299,401.237,499.969,399.745,504.221,397.734z"/>
		<path class="st4" d="M304.078,391.953c0.148,0.107,0.301,0.207,0.45,0.313l-36.505-63.228c0.789,3.617,1.701,7.212,2.747,10.756
			l27.263,47.222C299.961,388.78,301.971,390.434,304.078,391.953z"/>
		<path class="st4" d="M331.499,404.34l-67.242-116.466c-0.028,2-0.037,3.996-0.009,5.983l63.1,109.292
			C328.719,403.573,330.104,403.969,331.499,404.34z"/>
		<path class="st4" d="M353.778,408.287l-87.204-151.041c-0.217,1.654-0.418,3.302-0.607,4.947l84.102,145.669
			C351.305,408.016,352.541,408.159,353.778,408.287z"/>
		<path class="st4" d="M374.049,409.426c0.13,0.001,0.257,0,0.386,0.001l-103.34-178.99c-0.317,1.47-0.62,2.944-0.91,4.422
			l100.747,174.5C371.976,409.385,373.016,409.409,374.049,409.426z"/>
		<path class="st4" d="M394.198,409.014L277.714,207.258c-0.458,1.222-0.898,2.459-1.323,3.708l114.425,198.189
			C391.946,409.112,393.073,409.064,394.198,409.014z"/>
		<path class="st4" d="M413.554,407.898L286.975,188.658c-0.62,0.938-1.224,1.893-1.807,2.869l125.047,216.588
			C411.326,408.043,412.439,407.971,413.554,407.898z"/>
		<path class="st4" d="M432.868,406.71L299.138,175.085c-0.325,0.26-0.655,0.514-0.974,0.782c-0.459,0.387-0.905,0.789-1.35,1.192
			l132.695,229.834C430.622,406.829,431.744,406.769,432.868,406.71z"/>
		<path class="st4" d="M452.433,405.957L314.064,166.295c-0.927,0.403-1.837,0.824-2.739,1.256L449.03,406.063
			C450.161,406.028,451.295,405.993,452.433,405.957z"/>
		<path class="st4" d="M471.876,404.993L330.793,160.63c-1.004,0.267-1.998,0.545-2.986,0.828L468.555,405.24
			C469.666,405.166,470.773,405.082,471.876,404.993z"/>
		<path class="st4" d="M490.352,402.354L348.495,156.65c-1.039,0.204-2.073,0.412-3.104,0.622l141.87,245.726
			C488.303,402.799,489.333,402.584,490.352,402.354z"/>
		<path class="st4" d="M506.898,396.37L366.513,153.216c-1.04,0.202-2.079,0.402-3.118,0.599l140.826,243.918
			C505.132,397.303,506.026,396.85,506.898,396.37z"/>
		<path class="st4" d="M520.215,384.796L384.335,149.443c-1.019,0.234-2.039,0.467-3.062,0.696l136.902,237.122
			C518.875,386.464,519.558,385.646,520.215,384.796z"/>
		<path class="st4" d="M530.018,367.133L401.95,145.313c-1.014,0.232-2.034,0.468-3.056,0.707l129.644,224.549
			C529.047,369.443,529.539,368.296,530.018,367.133z"/>
		<path class="st4" d="M537.304,345.113l-117.399-203.34c-1.049,0.158-2.106,0.33-3.168,0.513L536.16,349.131
			C536.548,347.8,536.929,346.46,537.304,345.113z"/>
		<path class="st4" d="M543.584,321.349L439.262,140.659c-1.169-0.076-2.349-0.124-3.543-0.137L542.512,325.49
			C542.871,324.108,543.229,322.728,543.584,321.349z"/>
		<path class="st4" d="M549.214,296.46l-84.857-146.976c-1.761-1.241-3.562-2.366-5.406-3.364l89.414,154.87
			C548.668,299.474,548.952,297.963,549.214,296.46z"/>
		<path class="st4" d="M550.109,263.368l-25.623-44.381c-3.461-4.073-7.059-8.206-10.658-12.462l37.199,64.43
			C550.86,268.387,550.561,265.857,550.109,263.368z"/>
	</g>
	<path class="st5" d="M373.77,296.138c-19.777,0-35.865,16.09-35.865,35.867s16.089,35.865,35.865,35.865
		s35.865-16.089,35.865-35.865S393.547,296.138,373.77,296.138z M360.686,306.595c2.9-1.5,6.085-2.511,9.454-2.941v16.676
		L360.686,306.595z M354.718,310.726l12.148,17.648h-21.444C346.311,321.393,349.723,315.204,354.718,310.726z M345.421,335.634
		h26.846l18.972,18.972c-4.838,3.748-10.889,6.004-17.469,6.004C359.229,360.61,347.214,349.697,345.421,335.634z M396.372,349.474
		L377.4,330.502v-26.848c14.063,1.793,24.976,13.809,24.976,28.351C402.376,338.585,400.12,344.635,396.372,349.474z
		 M498.195,193.162c-0.079-0.192-0.219-0.34-0.328-0.513c-0.127-0.204-0.219-0.429-0.386-0.606l-30.443-32.236
		c-0.012-0.013-0.03-0.017-0.042-0.029c-0.274-0.283-0.61-0.493-0.965-0.675c-0.074-0.038-0.13-0.106-0.206-0.139
		c-0.438-0.188-0.919-0.294-1.426-0.294H320.58c-2.005,0-3.63,1.625-3.63,3.63v225.35c0,2.005,1.625,3.63,3.63,3.63h174.262
		c2.005,0,3.63-1.625,3.63-3.63V194.535C498.472,194.059,498.372,193.595,498.195,193.162z M468.028,171.43l18.393,19.475h-18.393
		V171.43z M324.21,384.02V165.93h136.559v28.606c0,2.005,1.625,3.63,3.63,3.63h26.814V384.02H324.21z M472.095,325.305
		c0,2.005-1.625,3.63-3.63,3.63h-41.467c-2.005,0-3.63-1.625-3.63-3.63s1.625-3.63,3.63-3.63h41.467
		C470.47,321.675,472.095,323.3,472.095,325.305z M423.368,342.805c0-2.005,1.625-3.63,3.63-3.63h30.17
		c2.005,0,3.63,1.625,3.63,3.63s-1.625,3.63-3.63,3.63h-30.17C424.993,346.434,423.368,344.809,423.368,342.805z M472.095,360.304
		c0,2.005-1.625,3.63-3.63,3.63h-41.467c-2.005,0-3.63-1.625-3.63-3.63c0-2.005,1.625-3.63,3.63-3.63h41.467
		C470.47,356.674,472.095,358.299,472.095,360.304z M338.691,203.241c0-2.005,1.625-3.63,3.63-3.63h41.467
		c2.005,0,3.63,1.625,3.63,3.63s-1.625,3.63-3.63,3.63H342.32C340.316,206.871,338.691,205.246,338.691,203.241z M338.691,220.741
		c0-2.005,1.625-3.63,3.63-3.63h30.17c2.005,0,3.63,1.625,3.63,3.63s-1.625,3.63-3.63,3.63h-30.17
		C340.316,224.37,338.691,222.745,338.691,220.741z M338.691,238.24c0-2.005,1.625-3.63,3.63-3.63h41.467
		c2.005,0,3.63,1.625,3.63,3.63s-1.625,3.63-3.63,3.63H342.32C340.316,241.87,338.691,240.245,338.691,238.24z M474.156,228.825
		h-11.132c-1.604,0-2.904,1.3-2.904,2.904v50.348c0,1.604,1.3,2.904,2.904,2.904h11.132c1.604,0,2.904-1.3,2.904-2.904v-50.348
		C477.06,230.126,475.76,228.825,474.156,228.825z M471.253,279.173h-5.324v-44.54h5.324V279.173z M442.178,284.981h11.13
		c1.604,0,2.904-1.3,2.904-2.904V251.07c0-1.604-1.3-2.904-2.904-2.904h-11.13c-1.604,0-2.904,1.3-2.904,2.904v31.006
		C439.274,283.68,440.574,284.981,442.178,284.981z M445.081,253.974h5.323v25.199h-5.323V253.974z M435.363,282.077v-50.348
		c0-1.604-1.3-2.904-2.904-2.904h-11.13c-1.604,0-2.904,1.3-2.904,2.904v50.348c0,1.604,1.3,2.904,2.904,2.904h11.13
		C434.063,284.981,435.363,283.68,435.363,282.077z M429.556,279.173h-5.323v-44.54h5.323V279.173z M411.611,243.03h-11.13
		c-1.604,0-2.904,1.3-2.904,2.904v36.143c0,1.604,1.3,2.904,2.904,2.904h11.13c1.604,0,2.904-1.3,2.904-2.904v-36.143
		C414.515,244.33,413.215,243.03,411.611,243.03z M408.707,279.173h-5.323v-30.336h5.323V279.173z"/>
</g>
</svg>
