<?xml version="1.0" encoding="utf-8"?>
<!-- Generator: Adobe Illustrator 25.0.0, SVG Export Plug-In . SVG Version: 6.00 Build 0)  -->
<svg version="1.1" id="Layer_1" xmlns="http://www.w3.org/2000/svg" xmlns:xlink="http://www.w3.org/1999/xlink" x="0px" y="0px"
	 viewBox="0 0 899.635 442.546" style="enable-background:new 0 0 899.635 442.546;" xml:space="preserve">
<style type="text/css">
	.st0{fill:url(#Subtraction_48_8_);}
	.st1{fill:#2BD4EE;}
	.st2{fill:url(#blob_3_);}
	.st3{fill:none;}
	.st4{opacity:0.5;fill:#FFFFFF;}
	.st5{fill:#002C8F;}
	.st6{fill:url(#Subtraction_48_9_);}
	.st7{fill:url(#Subtraction_48_10_);}
	.st8{fill:url(#Subtraction_48_11_);}
	.st9{fill:url(#Subtraction_48_12_);}
	.st10{fill:url(#Subtraction_48_13_);}
	.st11{fill:url(#Subtraction_48_14_);}
</style>
<linearGradient id="Subtraction_48_8_" gradientUnits="userSpaceOnUse" x1="588.8453" y1="605.6339" x2="588.8453" y2="604.6339" gradientTransform="matrix(899.6168 0 0 -442.539 -529285.3125 268016.6562)">
	<stop  offset="0" style="stop-color:#F98700"/>
	<stop  offset="1" style="stop-color:#EEA908"/>
</linearGradient>
<path id="Subtraction_48_3_" class="st0" d="M392.479,442.546c-4.538,0.003-9.074-0.234-13.587-0.711
	c-6.868-0.748-13.667-2.037-20.332-3.854c-6.869-1.882-13.607-4.213-20.171-6.979c-14.119-6.078-27.656-13.428-40.444-21.958
	c-27.2-17.735-55.462-41.318-85.38-66.286c-12.385-10.336-25.188-21.02-38.479-31.769c-9.871-7.86-20.2-15.9-30.185-23.683
	c-17.52-13.647-35.635-27.757-52.475-41.781c-9.073-7.556-17.031-14.46-24.329-21.1c-8.2-7.469-15.357-14.415-21.874-21.234
	c-6.541-6.794-12.727-13.921-18.533-21.353c-5.306-6.78-10.089-13.955-14.306-21.461c-3.841-6.83-6.923-14.059-9.191-21.559
	c-2.106-7.023-3.181-14.315-3.191-21.647c0.044-4.922,0.58-9.828,1.6-14.643c1.067-4.999,2.551-9.9,4.436-14.651
	c2.001-5.035,4.336-9.932,6.989-14.656c2.832-5.042,5.922-9.933,9.259-14.656c7.372-10.32,15.459-20.111,24.2-29.3
	c8.485-9.061,18.262-18.631,29.89-29.258H879.19c7.324,18.419,12.754,37.535,16.206,57.053c3.426,19.156,4.774,38.626,4.02,58.071
	c-0.693,18.763-3.747,37.363-9.091,55.362c-5.156,17.398-12.956,33.899-23.128,48.926c-5.109,7.373-10.793,14.331-17,20.807
	c-6.349,6.612-13.123,12.802-20.278,18.531c-7.398,5.918-15.095,11.451-23.061,16.578c-7.752,5.013-16.274,10.035-25.329,14.928
	c-35.058,18.94-75.1,34.416-113.828,49.382c-19.282,7.455-39.224,15.155-57.855,23.055c-24.09,10.127-46.54,20.695-68.251,30.915
	C485.819,419.868,437.64,442.545,392.479,442.546z"/>
<g>
	<g>
		<path class="st3" d="M503.488,396.799L362.662,152.881c-5.003,0.952-9.991,1.869-14.9,2.835l141.857,245.703
			C494.566,400.303,499.236,398.811,503.488,396.799z"/>
		<path class="st3" d="M467.822,404.306L327.074,160.524c-4.801,1.377-9.409,2.953-13.744,4.836l138.369,239.662
			C457.054,404.855,462.474,404.663,467.822,404.306z"/>
		<path class="st3" d="M486.528,402.064l-141.87-245.726c-4.986,1.015-9.877,2.102-14.598,3.358l141.083,244.363
			C476.416,403.631,481.588,403.011,486.528,402.064z"/>
		<path class="st3" d="M547.633,300.055l-89.413-154.868c-1.945-1.053-3.939-1.965-5.992-2.711c-4.32-1.59-8.902-2.441-13.698-2.752
			l104.321,180.69C544.617,313.556,546.3,306.747,547.633,300.055z"/>
		<path class="st3" d="M527.804,369.634L398.161,145.085c-4.782,1.117-9.644,2.294-14.56,3.424l135.881,235.352
			C522.712,379.681,525.432,374.873,527.804,369.634z"/>
		<path class="st3" d="M540.785,328.37c0.331-1.273,0.662-2.544,0.993-3.814L434.986,139.587
			c-5.066-0.056-10.352,0.427-15.814,1.251l117.398,203.34C538.021,338.97,539.393,333.661,540.785,328.37z"/>
		<path class="st3" d="M510.9,392.419c2.385-1.78,4.55-3.829,6.541-6.093L380.539,149.205c-1.791,0.401-3.588,0.793-5.39,1.17
			c-3.113,0.672-6.242,1.3-9.37,1.907l140.385,243.154C507.82,394.524,509.404,393.524,510.9,392.419z"/>
		<path class="st3" d="M442.172,405.33c2.022-0.073,4.067-0.138,6.125-0.201L310.592,166.616c-4.407,2.111-8.497,4.585-12.187,7.534
			l133.729,231.626C435.428,405.603,438.765,405.448,442.172,405.33z"/>
		<path class="st3" d="M535.427,348.196L416.005,141.351c-4.814,0.825-9.753,1.877-14.788,3.028l128.067,221.819
			C531.611,360.546,533.599,354.473,535.427,348.196z"/>
		<path class="st3" d="M349.336,406.928l-84.102-145.67c-0.996,8.678-1.593,17.236-1.71,25.681l67.242,116.467
			C336.808,405.012,343.055,406.145,349.336,406.928z"/>
		<path class="st3" d="M428.776,405.958L296.081,176.123c-3.725,3.371-6.981,7.278-9.839,11.6L412.82,406.964
			C418.077,406.62,423.368,406.266,428.776,405.958z"/>
		<path class="st3" d="M548.1,256.901c-3.941-13.796-13.464-26.038-24.345-38.845l25.62,44.376
			C549.036,260.565,548.618,258.719,548.1,256.901z"/>
		<path class="st3" d="M390.082,408.221L275.657,210.03c-2.128,6.246-3.857,12.801-5.295,19.47l103.341,178.991
			C379.298,408.531,384.73,408.421,390.082,408.221z"/>
		<path class="st3" d="M409.481,407.18L284.434,190.592c-2.899,4.846-5.356,10.14-7.454,15.731L393.465,408.08
			C398.84,407.841,404.153,407.523,409.481,407.18z"/>
		<path class="st3" d="M370.199,408.423l-100.748-174.5c-0.876,4.461-1.638,8.951-2.317,13.411
			c-0.476,3.008-0.903,5.998-1.293,8.977l87.204,151.042C358.812,407.95,364.574,408.274,370.199,408.423z"/>
		<path class="st3" d="M326.615,402.215l-63.1-109.293c0.16,11.612,1.276,23.016,3.568,34.237c0.067,0.314,0.138,0.628,0.207,0.942
			l36.506,63.231C310.608,396.156,318.371,399.671,326.615,402.215z"/>
		<path class="st3" d="M270.036,338.858c5.422,18.381,14.351,35.406,27.265,47.225L270.036,338.858z"/>
		<path class="st4" d="M393.465,408.08L276.98,206.323c-0.458,1.222-0.898,2.459-1.323,3.708l114.425,198.19
			C391.213,408.178,392.34,408.13,393.465,408.08z"/>
		<path class="st4" d="M353.045,407.353l-87.204-151.042c-0.217,1.654-0.419,3.303-0.607,4.947l84.102,145.67
			C350.572,407.082,351.808,407.225,353.045,407.353z"/>
		<path class="st4" d="M330.766,403.406l-67.242-116.467c-0.028,2-0.037,3.996-0.009,5.983l63.1,109.293
			C327.986,402.639,329.371,403.035,330.766,403.406z"/>
		<path class="st4" d="M529.284,366.198L401.217,144.379c-1.015,0.232-2.034,0.468-3.056,0.707l129.643,224.548
			C528.313,368.508,528.805,367.361,529.284,366.198z"/>
		<path class="st4" d="M373.316,408.491c0.13,0.001,0.257,0,0.387,0.001L270.362,229.501c-0.317,1.47-0.62,2.944-0.91,4.422
			l100.748,174.5C371.242,408.451,372.283,408.475,373.316,408.491z"/>
		<path class="st4" d="M303.344,391.019c0.149,0.107,0.302,0.208,0.451,0.314l-36.506-63.231c0.789,3.617,1.701,7.212,2.746,10.756
			l27.265,47.225C299.228,387.846,301.238,389.5,303.344,391.019z"/>
		<path class="st4" d="M506.164,395.436L365.779,152.282c-1.04,0.202-2.079,0.402-3.118,0.599l140.826,243.918
			C504.399,396.368,505.293,395.916,506.164,395.436z"/>
		<path class="st4" d="M542.851,320.414L438.53,139.724c-1.169-0.076-2.349-0.124-3.543-0.137l106.792,184.968
			C542.138,323.173,542.496,321.793,542.851,320.414z"/>
		<path class="st4" d="M519.482,383.862L383.601,148.509c-1.019,0.234-2.039,0.467-3.062,0.696l136.902,237.121
			C518.142,385.53,518.825,384.712,519.482,383.862z"/>
		<path class="st4" d="M489.619,401.419L347.762,155.716c-1.039,0.204-2.073,0.412-3.105,0.622l141.87,245.726
			C487.569,401.865,488.6,401.65,489.619,401.419z"/>
		<path class="st4" d="M412.82,406.964L286.241,187.723c-0.62,0.938-1.224,1.893-1.807,2.869L409.481,407.18
			C410.593,407.109,411.706,407.037,412.82,406.964z"/>
		<path class="st4" d="M536.571,344.178l-117.398-203.34c-1.049,0.158-2.106,0.331-3.168,0.513l119.422,206.845
			C535.814,346.865,536.195,345.525,536.571,344.178z"/>
		<path class="st4" d="M548.481,295.525l-84.855-146.974c-1.761-1.241-3.562-2.366-5.406-3.364l89.413,154.868
			C547.934,298.538,548.218,297.028,548.481,295.525z"/>
		<path class="st4" d="M549.375,262.433l-25.62-44.376c-3.461-4.073-7.058-8.206-10.658-12.461l37.196,64.426
			C550.126,267.452,549.827,264.921,549.375,262.433z"/>
		<path class="st4" d="M432.134,405.776L298.405,174.15c-0.325,0.26-0.656,0.514-0.975,0.782c-0.458,0.387-0.905,0.789-1.35,1.191
			l132.695,229.835C429.889,405.895,431.011,405.835,432.134,405.776z"/>
		<path class="st4" d="M451.699,405.023L313.33,165.36c-0.927,0.403-1.837,0.824-2.739,1.256l137.705,238.512
			C449.428,405.094,450.562,405.059,451.699,405.023z"/>
		<path class="st4" d="M471.143,404.058L330.06,159.696c-1.004,0.267-1.997,0.545-2.986,0.828l140.748,243.782
			C468.933,404.232,470.039,404.148,471.143,404.058z"/>
	</g>
	<path class="st5" d="M500.925,361.83l-44.43-44.43c11.189-12.629,18.003-29.219,18.003-47.379
		c0-39.447-32.092-71.539-71.539-71.539s-71.539,32.092-71.539,71.539s32.092,71.539,71.539,71.539
		c18.159,0,34.749-6.813,47.377-18.001l44.43,44.43c0.851,0.851,1.965,1.276,3.08,1.276c1.114,0,2.229-0.425,3.08-1.276
		C502.627,366.289,502.627,363.53,500.925,361.83z M402.958,332.848c-34.643,0-62.828-28.185-62.828-62.828
		s28.185-62.828,62.828-62.828s62.828,28.185,62.828,62.828S437.601,332.848,402.958,332.848z M327.377,236.907
		c-4.587,10.454-6.912,21.596-6.912,33.113c0,11.503,2.32,22.631,6.895,33.072c0.966,2.203-0.038,4.773-2.242,5.738
		c-0.569,0.25-1.163,0.367-1.745,0.367c-1.677,0-3.277-0.974-3.993-2.609c-5.06-11.551-7.627-23.854-7.627-36.569
		c0-12.73,2.572-25.048,7.647-36.613c0.964-2.202,3.538-3.207,5.738-2.239C327.341,232.136,328.344,234.706,327.377,236.907z
		 M441.81,347.84c0.967,2.202-0.035,4.771-2.239,5.738c-11.566,5.075-23.884,7.648-36.613,7.648
		c-12.728,0-25.047-2.573-36.613-7.648c-2.203-0.967-3.206-3.536-2.239-5.738c0.966-2.202,3.539-3.206,5.738-2.239
		c10.457,4.587,21.597,6.914,33.113,6.914c11.516,0,22.656-2.327,33.113-6.914C438.275,344.634,440.844,345.638,441.81,347.84z
		 M478.555,236.949c-0.966-2.203,0.038-4.773,2.242-5.738c2.205-0.973,4.773,0.04,5.738,2.242
		c5.062,11.553,7.628,23.857,7.628,36.569c0,12.629-2.534,24.855-7.53,36.342c-0.713,1.641-2.315,2.62-3.997,2.62
		c-0.58,0-1.168-0.116-1.734-0.363c-2.206-0.96-3.217-3.526-2.257-5.731c4.517-10.385,6.807-21.443,6.807-32.868
		C485.452,258.519,483.132,247.393,478.555,236.949z M364.105,192.203c-0.967-2.203,0.035-4.773,2.237-5.74
		c11.564-5.075,23.883-7.648,36.615-7.648c12.731,0,25.05,2.573,36.614,7.648c2.202,0.967,3.204,3.536,2.237,5.74
		c-0.717,1.632-2.315,2.606-3.991,2.606c-0.584,0-1.178-0.119-1.748-0.369c-10.453-4.587-21.593-6.914-33.112-6.914
		c-11.52,0-22.661,2.327-33.113,6.914C367.642,195.406,365.072,194.405,364.105,192.203z M440.939,238.687h-75.963
		c-5.039,0-9.14,4.101-9.14,9.14v44.387c0,5.039,4.101,9.14,9.14,9.14h75.963c5.039,0,9.14-4.101,9.14-9.14v-44.387
		C450.079,242.787,445.978,238.687,440.939,238.687z M364.976,245.946h75.963c1.036,0,1.88,0.844,1.88,1.88v7.62h-79.723v-7.62
		C363.096,246.79,363.94,245.946,364.976,245.946z M440.939,294.093h-75.963c-1.036,0-1.88-0.844-1.88-1.88V265.96h79.723v26.253
		C442.819,293.25,441.975,294.093,440.939,294.093z M383.396,282.188c0,1.604-1.3,2.904-2.904,2.904h-8.289
		c-1.604,0-2.904-1.3-2.904-2.904c0-1.604,1.3-2.904,2.904-2.904h8.289C382.096,279.284,383.396,280.584,383.396,282.188z
		 M400.415,282.188c0,1.604-1.3,2.904-2.904,2.904h-8.29c-1.604,0-2.904-1.3-2.904-2.904c0-1.604,1.3-2.904,2.904-2.904h8.29
		C399.114,279.284,400.415,280.584,400.415,282.188z M417.432,282.188c0,1.604-1.3,2.904-2.904,2.904h-8.289
		c-1.604,0-2.904-1.3-2.904-2.904c0-1.604,1.3-2.904,2.904-2.904h8.289C416.132,279.284,417.432,280.584,417.432,282.188z
		 M434.451,282.188c0,1.604-1.3,2.904-2.904,2.904h-8.29c-1.604,0-2.904-1.3-2.904-2.904c0-1.604,1.3-2.904,2.904-2.904h8.29
		C433.151,279.284,434.451,280.584,434.451,282.188z"/>
</g>
</svg>
