<?xml version="1.0" encoding="utf-8"?>
<!-- Generator: Adobe Illustrator 24.3.0, SVG Export Plug-In . SVG Version: 6.00 Build 0)  -->
<svg version="1.1" id="Layer_1" xmlns="http://www.w3.org/2000/svg" xmlns:xlink="http://www.w3.org/1999/xlink" x="0px" y="0px"
	 viewBox="0 0 1350.059 60.573" style="enable-background:new 0 0 1350.059 60.573;" xml:space="preserve">
<style type="text/css">
	.st0{fill:#000760;}
	.st1{fill:#1A98FF;}
	.st2{fill:none;}
	.st3{fill:#2BD4EE;}
	.st4{fill:#EEEEEE;}
	.st5{fill:#FFFFFF;}
</style>
<g id="Group_1788" transform="translate(-9.758 -646.476)">
	<g id="Path_545">
		<path class="st0" d="M1250.82,707.085c-28.594,0-58.369-3.37-93.979-10.242c-1.085-0.209-1.794-1.258-1.585-2.343
			c0.21-1.084,1.254-1.792,2.343-1.585c62.091,11.983,106.27,13.237,157.568,4.472c16.229-2.772,29.946-5.236,41.934-7.533
			c1.082-0.207,2.132,0.503,2.34,1.588c0.208,1.084-0.503,2.133-1.588,2.34c-12.014,2.303-25.756,4.771-42.012,7.549
			C1293.498,705.148,1272.498,707.085,1250.82,707.085z"/>
	</g>
	<g id="Path_545-2">
		<path class="st1" d="M1250.504,692.059c-28.241,0-57.575-3.255-93.663-10.216c-1.085-0.209-1.794-1.258-1.585-2.343
			c0.21-1.083,1.254-1.79,2.343-1.585c46.208,8.914,81.229,11.708,117.101,9.34c1.111-0.081,2.055,0.762,2.128,1.864
			c0.072,1.103-0.763,2.055-1.864,2.128C1266.812,691.785,1258.702,692.059,1250.504,692.059z"/>
	</g>
	<g id="Path_545-3">
		<path class="st2" d="M752.92,667.321c12.04-2.419,131.562-38.371,269.466-4.054c35.717,8.888,66.534,16.629,94.288,22.981"/>
	</g>
	<g id="Path_545-4">
		<path class="st3" d="M540.772,705.135c-48.6,0-85.01-3.989-121.542-13.302c-1.07-0.273-1.717-1.362-1.444-2.433
			c0.273-1.069,1.362-1.716,2.432-1.444c36.5,9.305,72.913,13.294,121.792,13.178c49.091-0.069,102.465-7.276,158.64-21.422
			c1.07-0.266,2.157,0.38,2.428,1.451c0.27,1.071-0.38,2.158-1.451,2.428c-56.492,14.226-110.192,21.474-159.61,21.543
			C541.601,705.135,541.184,705.135,540.772,705.135z"/>
	</g>
	<g id="Path_545-5">
		<path class="st4" d="M542.013,688.134c-1.1,0-1.995-0.889-2-1.99c-0.005-1.104,0.886-2.004,1.99-2.01
			c26.617-0.131,53.473-2.104,79.822-5.866c1.09-0.156,2.106,0.604,2.263,1.697c0.156,1.093-0.604,2.106-1.697,2.262
			c-26.529,3.788-53.569,5.775-80.368,5.907C542.019,688.134,542.016,688.134,542.013,688.134z"/>
	</g>
	<g id="Path_545-6">
		<path class="st3" d="M378.647,681.784l-3.885-0.932l0.929-3.891l3.894,0.934L378.647,681.784z M361.147,677.633l-3.893-0.908
			l0.905-3.896l3.898,0.909L361.147,677.633z M343.619,673.59l-3.898-0.884l0.882-3.901l3.903,0.885L343.619,673.59z
			 M326.067,669.654l-3.903-0.859l0.856-3.907l3.91,0.861L326.067,669.654z M308.49,665.83l-3.907-0.834l0.828-3.913l3.917,0.836
			L308.49,665.83z M290.899,662.27c-1.305-0.244-2.612-0.484-3.92-0.72l0.708-3.937c1.318,0.237,2.634,0.479,3.949,0.725
			L290.899,662.27z M273.219,659.254c-1.314-0.202-2.628-0.4-3.943-0.595l0.585-3.957c1.323,0.195,2.646,0.395,3.967,0.599
			L273.219,659.254z M255.45,656.776c-1.319-0.164-2.638-0.324-3.958-0.48l0.47-3.973c1.329,0.157,2.657,0.318,3.983,0.484
			L255.45,656.776z M237.616,654.812c-1.323-0.126-2.646-0.249-3.97-0.366l0.354-3.984c1.333,0.119,2.665,0.242,3.997,0.369
			L237.616,654.812z M219.734,653.363c-1.326-0.087-2.653-0.172-3.98-0.251l0.24-3.993c1.335,0.081,2.669,0.165,4.003,0.253
			L219.734,653.363z M201.817,652.431c-1.328-0.05-2.657-0.095-3.985-0.137l0.124-3.998c1.337,0.042,2.674,0.088,4.011,0.138
			L201.817,652.431z M183.879,652.015c-1.329-0.012-2.658-0.019-3.987-0.022l0.009-4c1.338,0.003,2.676,0.01,4.013,0.022
			L183.879,652.015z"/>
	</g>
	<g id="Path_545-7">
		<path class="st2" d="M12.336,676.401c42.889-16.176,93.8-24.389,145.592-26.09"/>
	</g>
	<g id="Path_545-8">
		<path class="st5" d="M12.336,692.402c-0.813,0-1.578-0.501-1.876-1.309c-0.382-1.036,0.148-2.187,1.184-2.568
			c22.027-8.126,44.923-14.269,68.052-18.257c1.088-0.192,2.124,0.542,2.311,1.631c0.188,1.088-0.542,2.123-1.631,2.311
			c-22.89,3.948-45.549,10.027-67.347,18.068C12.8,692.362,12.566,692.402,12.336,692.402z"/>
	</g>
	<g id="Ellipse_440" transform="translate(718 665)">
		<g>
			<circle class="st2" cx="9" cy="9" r="9"/>
		</g>
		<g>
			<circle class="st2" cx="9" cy="9" r="7"/>
		</g>
	</g>
	<g id="Ellipse_441">
		<circle class="st3" cx="1130" cy="689" r="9"/>
	</g>
	<g id="Rectangle_1249">
		<path class="st1" d="M375.222,671.659l7.133,2.318c3.939,1.28,6.095,5.511,4.815,9.45l0,0c-1.28,3.939-5.511,6.095-9.45,4.815
			l-7.133-2.318l0,0L375.222,671.659L375.222,671.659z"/>
	</g>
</g>
</svg>
