<svg xmlns="http://www.w3.org/2000/svg" xmlns:xlink="http://www.w3.org/1999/xlink" width="2418.667" height="2361.616" viewBox="0 0 2418.667 2361.616">
  <defs>
    <style>
      .cls-1 {
        fill: url(#linear-gradient);
      }
    </style>
    <linearGradient id="linear-gradient" x1="0.547" y1="0.991" x2="0.577" y2="0.115" gradientUnits="objectBoundingBox">
      <stop offset="0" stop-color="#002c8f"/>
      <stop offset="1" stop-color="#000760"/>
    </linearGradient>
  </defs>
  <path id="blob_4_" data-name="blob (4)" class="cls-1" d="M1264.731,292.314c135.193,86.032,299.436,113.964,420.1,206.7S1851.616,688.1,1851.616,844.524c1.117,156.421-92.914,337.919-209.113,438.476-115.082,101.674-222.468,182.475-358.779,213.759-135.193,32.4-252.51,50.278-374.295,60.334-121.786,8.938-249.158,8.938-363.122-35.753C431.226,1477.766,330.67,1389.5,231.23,1278.887,130.673,1168.274,33.468,1036.433,7.77,888.95-19.045,742.584,25.647,579.459,109.444,442.031c82.68-138.545,205.583-251.392,346.362-335.189,140.78-82.68,299.436-135.193,433.512-90.5C1022.277,62.15,1128.421,206.282,1264.731,292.314Z" transform="translate(2418.667 1247.28) rotate(143)"/>
</svg>
