<svg xmlns="http://www.w3.org/2000/svg" xmlns:xlink="http://www.w3.org/1999/xlink" width="1881.848" height="783.967" viewBox="0 0 1881.848 783.967">
  <defs>
    <style>
      .cls-1 {
        fill: url(#linear-gradient);
      }
    </style>
    <linearGradient id="linear-gradient" x1="0.039" y1="0.153" x2="0.871" y2="0.963" gradientUnits="objectBoundingBox">
      <stop offset="0" stop-color="#2bd4ee"/>
      <stop offset="1" stop-color="#1a98ff"/>
    </linearGradient>
  </defs>
  <path id="Path_2406" data-name="Path 2406" class="cls-1" d="M3805.655,1257.643c-5.044-63.51-7.508-137.257-40.151-193.276-23.089-.105-73.687,20.633-81.215,20.633H2064.554c-5.067,0-83.065-14.358-85.553-1.005-4.042,21.7-12.8,43.99-17.653,65.933q-8.493,38.424-15.193,77.215-13.4,77.553-19.537,156.129c-6.205,79.5,5.764,152.109,39.942,225,27.363,58.361,65.6,113.159,116.492,153.374,39.887,31.521,87.766,53.21,138.84,56.888a223.274,223.274,0,0,0,22.788.483,228.723,228.723,0,0,0,91.913-22.61c24.372-7.666,48.622-15.779,73.785-20.567,95.165-18.11,205.32-3.052,293.3,35.89,40.476,17.92,80.107,30.387,124.607,34.7,130.346,12.634,262.933-41.886,400.82-40.766,41.459.183,82.547,5.442,123.309,12.652,42.428,7.505,64.214,15.647,93.729,17.379a249.991,249.991,0,0,0,52.3,3.921c64.852-1.965,127-29.1,172.012-75.919,49.252-51.232,76.868-125.719,95.044-193.159,24.452-90.73,42.062-190.4,41.373-284.554Q3806.772,1271.635,3805.655,1257.643Z" transform="translate(-1925.049 -1064.367)"/>
</svg>
