<svg xmlns="http://www.w3.org/2000/svg" xmlns:xlink="http://www.w3.org/1999/xlink" width="80.767" height="61.923" viewBox="0 0 80.767 61.923">
  <defs>
    <style>
      .cls-1 {
        fill: url(#linear-gradient);
      }
    </style>
    <linearGradient id="linear-gradient" x1="0.5" y1="0.928" x2="0.5" y2="0.134" gradientUnits="objectBoundingBox">
      <stop offset="0" stop-color="#1a98ff"/>
      <stop offset="1" stop-color="#002c8f"/>
    </linearGradient>
  </defs>
  <path id="Path_561" data-name="Path 561" class="cls-1" d="M518.272,707.217A21.675,21.675,0,0,1,499.82,731.7a1.52,1.52,0,0,1-.234.018,1.666,1.666,0,0,1-.23-3.316,18.345,18.345,0,0,0,15.617-20.718,1.743,1.743,0,0,1,1.4-1.966,1.592,1.592,0,0,1,1.875,1.314C518.247,707.035,518.272,707.212,518.272,707.217Zm-40.848,21.362H461.258a17.348,17.348,0,0,1-14.129-7.3,1.666,1.666,0,1,0-2.718,1.926,20.683,20.683,0,0,0,16.847,8.707h16.166a1.666,1.666,0,0,0,0-3.332Zm29.062-35.957a1.667,1.667,0,0,0-.837-2.2,21.427,21.427,0,0,0-8.835-1.893,6.34,6.34,0,0,0-.763.012,21.819,21.819,0,0,0-20.636-14.845h-.032a21.463,21.463,0,0,0-21.193,18.1,20.817,20.817,0,0,0-12,11.428,1.666,1.666,0,0,0,3.069,1.3,17.473,17.473,0,0,1,10.68-9.807,1.682,1.682,0,0,0,.682-.427l.308-.319a1.663,1.663,0,0,0,.455-.96,18.13,18.13,0,0,1,18-15.981h.028a18.481,18.481,0,0,1,17.819,13.7,1.661,1.661,0,0,0,1.779,1.227,17.736,17.736,0,0,1,1.788-.09h.014a18.11,18.11,0,0,1,7.472,1.6A1.664,1.664,0,0,0,506.486,692.622Zm.047,5.375a5.986,5.986,0,1,1,5.987,5.987A5.992,5.992,0,0,1,506.533,698Zm3.33,0a2.656,2.656,0,1,0,2.656-2.655A2.66,2.66,0,0,0,509.863,698Zm-15.415,31.632a5.986,5.986,0,1,1-5.986-5.987A5.993,5.993,0,0,1,494.448,729.629Zm-3.33,0a2.656,2.656,0,1,0-2.655,2.655A2.659,2.659,0,0,0,491.118,729.629Zm-47.393-10.594a5.987,5.987,0,1,1,5.986-5.987A5.994,5.994,0,0,1,443.725,719.036Zm2.655-5.987a2.655,2.655,0,1,0-2.655,2.655A2.659,2.659,0,0,0,446.38,713.049Z" transform="translate(-437.738 -673.693)"/>
</svg>
