<svg xmlns="http://www.w3.org/2000/svg" xmlns:xlink="http://www.w3.org/1999/xlink" width="651.996" height="337.42" viewBox="0 0 651.996 337.42">
  <defs>
    <linearGradient id="linear-gradient" x1="0.5" y1="0.027" x2="0.5" y2="1.025" gradientUnits="objectBoundingBox">
      <stop offset="0" stop-color="#eee"/>
      <stop offset="0.417" stop-color="#eee"/>
      <stop offset="0.54" stop-color="#eee" stop-opacity="0.988"/>
      <stop offset="1" stop-color="#eee" stop-opacity="0"/>
    </linearGradient>
  </defs>
  <g id="Group_1827" data-name="Group 1827" transform="translate(-840 -3648)">
    <path id="Subtraction_20" data-name="Subtraction 20" d="M673,324H21A325.5,325.5,0,0,1,77.53,142.739,327.011,327.011,0,0,1,220.675,25.427,325.1,325.1,0,0,1,528.512,55.269,327.532,327.532,0,0,1,646.659,197.78,325.022,325.022,0,0,1,673,323.995V324h0Z" transform="translate(818.998 3661.419)" fill="url(#linear-gradient)"/>
    <g id="Group_938" data-name="Group 938" transform="translate(483 180)">
      <g id="Group_610" data-name="Group 610" transform="translate(273.64 3275)">
        <path id="Path_1545" data-name="Path 1545" d="M404.961,193h-28.6a44.242,44.242,0,0,0,3.665,17.352,44.812,44.812,0,0,0,4.2,7.567,45.408,45.408,0,0,0,19.908,16.128c.276.115.553.224.83.334Z" fill="#2bd4ee" style="isolation: isolate"/>
        <path id="Path_1546" data-name="Path 1546" d="M493.961,193h-28.6a44.242,44.242,0,0,0,3.665,17.352,44.81,44.81,0,0,0,4.2,7.567,45.408,45.408,0,0,0,19.908,16.128c.276.115.553.224.83.334Z" transform="translate(-52.214)" fill="#2bd4ee" style="isolation: isolate"/>
      </g>
    </g>
  </g>
</svg>
