<svg xmlns="http://www.w3.org/2000/svg" xmlns:xlink="http://www.w3.org/1999/xlink" width="1367" height="823.529" viewBox="0 0 1367 823.529">
  <defs>
    <style>
      .cls-1 {
        fill: url(#linear-gradient);
      }
    </style>
    <linearGradient id="linear-gradient" x1="0.449" y1="0.096" x2="0.453" y2="0.948" gradientUnits="objectBoundingBox">
      <stop offset="0" stop-color="#1a98ff" stop-opacity="0.102"/>
      <stop offset="1" stop-color="#1a98ff" stop-opacity="0"/>
    </linearGradient>
  </defs>
  <path id="Subtraction_47" data-name="Subtraction 47" class="cls-1" d="M18742.5,5614.529h-1367l0-768.132,106.332-13.95c29.2-3.9,61.3-8.121,98.189-12.538,44.316-5.309,85.949-9.75,127.279-13.576,50.752-4.7,100.34-8.354,147.385-10.876,55.031-2.958,108.354-4.457,158.486-4.457,12.869,0,25.6.1,37.824.289,26.574.406,54.453,1.316,82.861,2.705,26.449,1.3,53.91,3.036,81.625,5.172,49.031,3.781,101.066,8.975,154.66,15.438,43.273,5.218,87.436,11.218,135.01,18.341,40.738,6.1,76.654,11.93,105.514,16.612l1.26.2c3.074.5,5.65.914,8.238,1.335l113.832,18.72,8.5,2.487,0,742.226,0,0h0Z" transform="translate(-17375.502 -4791)"/>
</svg>
