<?xml version="1.0" encoding="utf-8"?>
<!-- Generator: Adobe Illustrator 25.0.0, SVG Export Plug-In . SVG Version: 6.00 Build 0)  -->
<svg version="1.1" id="Layer_1" xmlns="http://www.w3.org/2000/svg" xmlns:xlink="http://www.w3.org/1999/xlink" x="0px" y="0px"
	 viewBox="0 0 899.635 442.546" style="enable-background:new 0 0 899.635 442.546;" xml:space="preserve">
<style type="text/css">
	.st0{fill:url(#Subtraction_48_8_);}
	.st1{fill:#2BD4EE;}
	.st2{fill:url(#blob_3_);}
	.st3{fill:none;}
	.st4{opacity:0.5;fill:#FFFFFF;}
	.st5{fill:#002C8F;}
	.st6{fill:url(#Subtraction_48_9_);}
	.st7{fill:url(#Subtraction_48_10_);}
	.st8{fill:url(#Subtraction_48_11_);}
	.st9{fill:url(#Subtraction_48_12_);}
	.st10{fill:url(#Subtraction_48_13_);}
	.st11{fill:url(#Subtraction_48_14_);}
</style>
<linearGradient id="Subtraction_48_8_" gradientUnits="userSpaceOnUse" x1="-2444.8862" y1="605.6339" x2="-2444.8862" y2="604.6339" gradientTransform="matrix(899.6168 0 0 -442.539 2199910.5 268016.6562)">
	<stop  offset="0" style="stop-color:#F98700"/>
	<stop  offset="1" style="stop-color:#EEA908"/>
</linearGradient>
<path id="Subtraction_48_6_" class="st0" d="M392.479,442.546c-4.538,0.003-9.074-0.234-13.587-0.711
	c-6.868-0.748-13.667-2.037-20.332-3.854c-6.869-1.882-13.607-4.213-20.171-6.979c-14.119-6.078-27.656-13.428-40.444-21.958
	c-27.2-17.735-55.462-41.318-85.38-66.286c-12.385-10.336-25.188-21.02-38.479-31.769c-9.871-7.86-20.2-15.9-30.185-23.683
	c-17.52-13.647-35.635-27.757-52.475-41.781c-9.073-7.556-17.031-14.46-24.329-21.1c-8.2-7.469-15.357-14.415-21.874-21.234
	c-6.541-6.794-12.727-13.921-18.533-21.353c-5.306-6.78-10.089-13.955-14.306-21.461c-3.841-6.83-6.923-14.059-9.191-21.559
	c-2.106-7.023-3.181-14.315-3.191-21.647c0.044-4.922,0.58-9.828,1.6-14.643c1.067-4.999,2.551-9.9,4.436-14.651
	c2.001-5.035,4.336-9.932,6.989-14.656c2.832-5.042,5.922-9.933,9.259-14.656c7.372-10.32,15.459-20.111,24.2-29.3
	c8.485-9.061,18.262-18.631,29.89-29.258H879.19c7.324,18.419,12.754,37.535,16.206,57.053c3.426,19.156,4.774,38.626,4.02,58.071
	c-0.693,18.763-3.747,37.363-9.091,55.362c-5.156,17.398-12.956,33.899-23.128,48.926c-5.109,7.373-10.793,14.331-17,20.807
	c-6.349,6.612-13.123,12.802-20.278,18.531c-7.398,5.918-15.095,11.451-23.061,16.578c-7.752,5.013-16.274,10.035-25.329,14.928
	c-35.058,18.94-75.1,34.416-113.828,49.382c-19.282,7.455-39.224,15.155-57.855,23.055c-24.09,10.127-46.54,20.695-68.251,30.915
	C485.819,419.868,437.64,442.545,392.479,442.546z"/>
<g>
	<g>
		<path class="st3" d="M446.71,406.707c2.021-0.073,4.066-0.138,6.124-0.201L315.129,167.994c-4.407,2.111-8.497,4.585-12.187,7.534
			l133.729,231.626C439.966,406.981,443.303,406.826,446.71,406.707z"/>
		<path class="st3" d="M472.359,405.684L331.612,161.902c-4.802,1.377-9.409,2.953-13.744,4.837l138.369,239.662
			C461.592,406.233,467.012,406.04,472.359,405.684z"/>
		<path class="st3" d="M394.619,409.598L280.195,211.409c-2.128,6.246-3.857,12.801-5.295,19.47L378.24,409.87
			C383.835,409.909,389.268,409.799,394.619,409.598z"/>
		<path class="st3" d="M433.313,407.336L300.618,177.501c-3.725,3.371-6.981,7.279-9.839,11.6l126.579,219.241
			C422.615,407.998,427.906,407.644,433.313,407.336z"/>
		<path class="st3" d="M414.019,408.558L288.972,191.97c-2.899,4.846-5.355,10.14-7.454,15.731l116.484,201.757
			C403.377,409.219,408.691,408.901,414.019,408.558z"/>
		<path class="st3" d="M545.323,329.748c0.331-1.272,0.662-2.543,0.993-3.814L439.524,140.965
			c-5.065-0.055-10.352,0.427-15.814,1.251l117.398,203.34C542.559,340.349,543.931,335.039,545.323,329.748z"/>
		<path class="st3" d="M508.026,398.177L367.199,154.259c-5.003,0.952-9.991,1.869-14.9,2.835l141.857,245.703
			C499.103,401.681,503.773,400.189,508.026,398.177z"/>
		<path class="st3" d="M552.17,301.433l-89.414-154.869c-1.945-1.053-3.939-1.965-5.991-2.71c-4.32-1.59-8.903-2.441-13.699-2.752
			l104.322,180.691C549.155,314.935,550.838,308.126,552.17,301.433z"/>
		<path class="st3" d="M539.965,349.574L420.542,142.729c-4.814,0.825-9.753,1.877-14.788,3.028l128.068,221.82
			C536.149,361.925,538.137,355.851,539.965,349.574z"/>
		<path class="st3" d="M532.342,371.012L402.698,146.463c-4.782,1.117-9.644,2.294-14.56,3.424L524.02,385.24
			C527.25,381.06,529.97,376.251,532.342,371.012z"/>
		<path class="st3" d="M515.438,393.797c2.385-1.78,4.55-3.829,6.541-6.092L385.077,150.583c-1.791,0.401-3.588,0.793-5.39,1.169
			c-3.113,0.672-6.242,1.3-9.37,1.907l140.385,243.154C512.357,395.902,513.942,394.902,515.438,393.797z"/>
		<path class="st3" d="M491.065,403.442l-141.87-245.726c-4.987,1.015-9.877,2.102-14.598,3.358L475.68,405.436
			C480.953,405.008,486.126,404.389,491.065,403.442z"/>
		<path class="st3" d="M331.152,403.593l-63.1-109.292c0.16,11.612,1.276,23.015,3.567,34.236c0.067,0.315,0.139,0.629,0.208,0.944
			l36.505,63.228C315.145,397.533,322.908,401.049,331.152,403.593z"/>
		<path class="st3" d="M552.638,258.279c-3.941-13.797-13.465-26.04-24.347-38.847l25.623,44.38
			C553.574,261.943,553.156,260.097,552.638,258.279z"/>
		<path class="st3" d="M274.574,340.238c5.422,18.379,14.35,35.403,27.263,47.222L274.574,340.238z"/>
		<path class="st3" d="M353.873,408.306l-84.102-145.669c-0.996,8.678-1.593,17.236-1.709,25.681l67.241,116.466
			C341.345,406.39,347.592,407.523,353.873,408.306z"/>
		<path class="st3" d="M374.737,409.801l-100.747-174.5c-0.876,4.461-1.638,8.95-2.317,13.41c-0.477,3.008-0.903,5.999-1.293,8.978
			l87.203,151.041C363.349,409.328,369.111,409.652,374.737,409.801z"/>
		<path class="st4" d="M307.882,392.397c0.148,0.107,0.301,0.207,0.45,0.313l-36.505-63.228c0.789,3.617,1.701,7.212,2.747,10.756
			l27.263,47.222C303.765,389.223,305.776,390.878,307.882,392.397z"/>
		<path class="st4" d="M335.303,404.784l-67.241-116.466c-0.028,2-0.037,3.996-0.009,5.983l63.1,109.292
			C332.524,404.016,333.908,404.413,335.303,404.784z"/>
		<path class="st4" d="M357.582,408.731L270.379,257.69c-0.217,1.654-0.419,3.302-0.607,4.947l84.102,145.669
			C355.109,408.46,356.345,408.603,357.582,408.731z"/>
		<path class="st4" d="M377.854,409.869c0.13,0.001,0.257,0,0.386,0.001L274.9,230.879c-0.317,1.47-0.62,2.944-0.91,4.422
			l100.747,174.5C375.78,409.829,376.82,409.853,377.854,409.869z"/>
		<path class="st4" d="M398.002,409.458L281.518,207.701c-0.458,1.222-0.898,2.459-1.323,3.708l114.425,198.189
			C395.75,409.556,396.877,409.508,398.002,409.458z"/>
		<path class="st4" d="M417.358,408.342L290.779,189.101c-0.62,0.938-1.224,1.893-1.807,2.869l125.047,216.588
			C415.131,408.487,416.244,408.415,417.358,408.342z"/>
		<path class="st4" d="M436.672,407.154L302.943,175.528c-0.325,0.26-0.656,0.514-0.974,0.782c-0.459,0.387-0.905,0.789-1.35,1.192
			l132.695,229.834C434.426,407.272,435.548,407.213,436.672,407.154z"/>
		<path class="st4" d="M456.237,406.401L317.868,166.738c-0.927,0.403-1.837,0.824-2.739,1.256l137.705,238.512
			C453.965,406.471,455.099,406.436,456.237,406.401z"/>
		<path class="st4" d="M475.68,405.436L334.598,161.074c-1.004,0.267-1.998,0.545-2.986,0.828l140.747,243.782
			C473.47,405.61,474.577,405.526,475.68,405.436z"/>
		<path class="st4" d="M494.156,402.797L352.3,157.094c-1.039,0.204-2.073,0.412-3.104,0.622l141.87,245.726
			C492.107,403.243,493.137,403.027,494.156,402.797z"/>
		<path class="st4" d="M510.702,396.814L370.317,153.66c-1.04,0.202-2.079,0.402-3.117,0.599l140.826,243.918
			C508.937,397.746,509.831,397.294,510.702,396.814z"/>
		<path class="st4" d="M524.02,385.24L388.139,149.887c-1.019,0.234-2.039,0.467-3.062,0.696l136.902,237.122
			C522.68,386.908,523.363,386.09,524.02,385.24z"/>
		<path class="st4" d="M533.822,367.576l-128.068-221.82c-1.014,0.232-2.034,0.468-3.056,0.707l129.643,224.549
			C532.851,369.887,533.343,368.74,533.822,367.576z"/>
		<path class="st4" d="M541.109,345.556L423.71,142.216c-1.05,0.158-2.106,0.33-3.168,0.513l119.422,206.846
			C540.352,348.243,540.733,346.904,541.109,345.556z"/>
		<path class="st4" d="M547.389,321.793L443.067,141.102c-1.169-0.076-2.349-0.124-3.543-0.137l106.792,184.969
			C546.675,324.552,547.033,323.171,547.389,321.793z"/>
		<path class="st4" d="M553.018,296.903l-84.856-146.975c-1.761-1.241-3.562-2.366-5.406-3.364l89.414,154.869
			C552.472,299.917,552.756,298.407,553.018,296.903z"/>
		<path class="st4" d="M553.913,263.812l-25.623-44.38c-3.461-4.073-7.058-8.206-10.658-12.461l37.198,64.429
			C554.664,268.831,554.365,266.3,553.913,263.812z"/>
	</g>
	<path class="st5" d="M383.391,179.468c-0.492-1.944,0.685-3.918,2.627-4.411c7.407-1.876,15.049-2.782,22.702-2.715
		c23.653,0.233,45.798,9.661,62.358,26.549c1.404,1.431,1.381,3.729-0.051,5.133c-0.706,0.692-1.623,1.038-2.541,1.038
		c-0.94,0-1.88-0.363-2.592-1.089c-15.203-15.503-35.532-24.157-57.246-24.372c-7.038-0.112-14.048,0.77-20.847,2.494
		C385.856,182.584,383.881,181.409,383.391,179.468z M348.394,203.885c0.917,0,1.835-0.346,2.541-1.038
		c4.89-4.795,10.345-8.95,16.211-12.348c1.736-1.004,2.327-3.226,1.321-4.96c-1.002-1.737-3.227-2.321-4.96-1.321
		c-6.392,3.702-12.331,8.225-17.654,13.446c-1.432,1.404-1.455,3.702-0.051,5.133C346.514,203.522,347.454,203.885,348.394,203.885z
		 M455.629,216.74c0.929,0,1.857-0.354,2.566-1.063c1.418-1.418,1.418-3.715,0-5.133c-13.447-13.447-31.325-20.852-50.343-20.852
		c-19.017,0-36.896,7.405-50.345,20.852c-1.418,1.416-1.418,3.715,0,5.133c1.418,1.418,3.715,1.418,5.133,0
		c12.078-12.076,28.134-18.726,45.212-18.726c17.078,0,33.134,6.65,45.211,18.726C453.771,216.386,454.7,216.74,455.629,216.74z
		 M370.36,223.885c-1.418,1.418-1.418,3.715,0,5.133c1.418,1.418,3.715,1.418,5.133,0c8.643-8.643,20.135-13.403,32.359-13.403
		c12.224,0,23.715,4.76,32.359,13.403c0.709,0.709,1.638,1.063,2.566,1.063s1.857-0.354,2.566-1.063
		c1.418-1.418,1.418-3.715,0-5.133c-10.014-10.014-23.33-15.53-37.492-15.53S380.375,213.871,370.36,223.885z M422.575,292.885
		l-51.509,49.529c-1.446,1.389-1.49,3.686-0.101,5.131c0.712,0.742,1.663,1.114,2.616,1.114c0.906,0,1.812-0.336,2.515-1.014
		l51.509-49.529c1.446-1.389,1.49-3.686,0.101-5.131C426.318,291.539,424.019,291.494,422.575,292.885z M357.136,353.007
		c-2.249,2.162-2.319,5.738-0.157,7.987c2.162,2.249,5.738,2.319,7.987,0.156c2.249-2.162,2.319-5.738,0.156-7.987
		C362.96,350.914,359.384,350.844,357.136,353.007z M471.583,343.308c4.201,4.2,6.385,10.031,5.991,15.998
		c-0.391,5.948-3.336,11.442-8.078,15.075c-3.607,2.765-7.934,4.117-12.293,4.117c-5.52,0-11.091-2.171-15.317-6.397l-32.658-32.658
		l-34.501,33.174c-3.854,3.706-8.996,5.752-14.329,5.752c-0.593,0-1.187-0.026-1.782-0.077c-5.94-0.508-11.376-3.559-14.915-8.371
		c-6.103-8.297-4.89-20.146,2.822-27.56l41.556-39.959l-25.444-25.444l-9.259-5.033c-2.959-1.609-5.372-4.022-6.982-6.982
		l-3.988-7.336c-1.526-2.805-1.015-6.342,1.245-8.601l4.384-4.384c2.253-2.259,5.789-2.775,8.602-1.245l7.336,3.988
		c2.958,1.608,5.371,4.022,6.98,6.982l5.033,9.259l25.706,25.705l13.198-12.69c-1.256-10.633,2.565-21.353,10.281-28.771
		c8.288-7.97,19.955-11.228,31.219-8.724c2.083,0.462,3.738,2.033,4.317,4.099c0.584,2.083-0.018,4.305-1.572,5.799l-13.609,13.084
		c-0.139,0.135-0.197,0.336-0.15,0.525l2.592,10.492c0.047,0.19,0.191,0.34,0.377,0.394l10.385,3.002
		c0.193,0.058,0.393,0.004,0.532-0.132l13.606-13.084c1.554-1.494,3.799-2.009,5.854-1.343c2.043,0.659,3.548,2.375,3.929,4.475
		c2.063,11.35-1.652,22.883-9.941,30.851c-7.715,7.421-18.573,10.82-29.152,9.145l-4.512,4.338L471.583,343.308z M393.311,297.37
		l3.148-3.027l-26.349-26.347l-5.535-10.18c-0.939-1.727-2.347-3.135-4.071-4.072l-7.338-3.988l-4.384,4.384l3.988,7.336
		c0.939,1.726,2.347,3.133,4.072,4.072l10.18,5.535L393.311,297.37z M438.942,300.802c1.395-1.344,3.392-1.945,5.337-1.608
		c8.479,1.483,17.219-1.194,23.401-7.139c5.859-5.635,8.818-13.535,8.187-21.564l-11.576,11.13c-2.005,1.928-4.91,2.647-7.577,1.872
		l-10.383-3.002c-2.671-0.771-4.744-2.928-5.411-5.627l-2.59-10.489c-0.668-2.695,0.162-5.569,2.164-7.498l11.578-11.132
		c-1.063-0.125-2.128-0.187-3.187-0.187c-6.906,0-13.602,2.639-18.682,7.523c-6.182,5.945-9.192,14.581-8.051,23.101
		c0.262,1.957-0.415,3.927-1.815,5.273l-68.784,66.137c-5.096,4.902-5.958,12.652-2.005,18.027c2.334,3.173,5.775,5.106,9.687,5.44
		c3.886,0.319,7.686-1.01,10.461-3.675L438.942,300.802z M470.331,358.828c0.255-3.879-1.16-7.665-3.881-10.387l-32.637-32.638
		l-7.06,6.788l31.831,31.83c1.418,1.418,1.418,3.715,0,5.133c-0.709,0.709-1.638,1.063-2.566,1.063s-1.857-0.354-2.566-1.063
		l-31.931-31.931l-7.059,6.788l32.558,32.557c5.001,5.001,12.765,5.707,18.062,1.65
		C468.208,366.222,470.071,362.746,470.331,358.828z"/>
</g>
</svg>
