<svg xmlns="http://www.w3.org/2000/svg" width="850.475" height="523.335" viewBox="0 0 850.475 523.335">
  <defs>
    <style>
      .cls-1 {
        fill: #2bd4ee;
      }
    </style>
  </defs>
  <path id="Subtraction_49" data-name="Subtraction 49" class="cls-1" d="M583.837,1141.835h-.009a140.814,140.814,0,0,1-18.922-1.323,174.823,174.823,0,0,1-19.127-3.754,262.276,262.276,0,0,1-38.935-13.512c-26.283-11.249-52.892-26.208-81.064-42.046l-.008,0c-14.674-8.249-29.847-16.78-45.162-24.858-15.618-8.37-31.7-16.439-47.251-24.243l-.019-.01c-15.057-7.556-30.627-15.369-45.353-23.255-16.483-8.827-30.3-16.9-42.246-24.674a290.931,290.931,0,0,1-36.785-27.89,201.524,201.524,0,0,1-15.615-15.715,166.816,166.816,0,0,1-13.374-17.2,164.715,164.715,0,0,1-13.151-23.765,198.086,198.086,0,0,1-9.545-25.99,249.4,249.4,0,0,1-6.346-27.819c-1.576-9.232-2.772-19.073-3.556-29.25-.738-9.589-1.133-19.779-1.173-30.285-.037-9.8.232-20.2.8-30.923,1-18.824,2.93-39.16,5.9-62.171,1.588-12.935,3.4-25.653,5.373-37.8,2.049-12.593,4.348-24.99,6.832-36.848H996.606c.227,18.9-.225,38.623-.662,57.694v.009c-.072,3.149-.147,6.406-.218,9.652q-.08,3.217-.158,6.433l0,.179c-.448,18.335-.912,37.289-1.863,55.534-1.065,20.44-2.648,37.9-4.839,53.366a307.409,307.409,0,0,1-10.8,49.475,212.106,212.106,0,0,1-8.569,22.739,175.173,175.173,0,0,1-11.18,21.12,169.205,169.205,0,0,1-10.487,14.911c-3.665,4.667-7.735,9.37-12.1,13.977a283.785,283.785,0,0,1-28.3,25.817c-20.453,16.482-43.544,31.662-67.99,47.733l-.005,0c-16.337,10.74-33.231,21.846-49.889,33.739-13.861,9.708-27.813,20.154-41.3,30.256l-.022.017c-12.658,9.477-25.747,19.278-38.59,28.333-14.4,10.152-27.015,18.316-38.575,24.959a244.057,244.057,0,0,1-38.792,18.4,163.108,163.108,0,0,1-19.557,5.745,132.222,132.222,0,0,1-19.706,2.914C589.988,1141.723,586.908,1141.835,583.837,1141.835Z" transform="translate(-146.191 -618.5)"/>
</svg>
