<svg xmlns="http://www.w3.org/2000/svg" xmlns:xlink="http://www.w3.org/1999/xlink" width="899.635" height="442.546" viewBox="0 0 899.635 442.546">
  <defs>
    <style>
      .cls-1 {
        fill: url(#linear-gradient);
      }
    </style>
    <linearGradient id="linear-gradient" x1="0.5" x2="0.5" y2="1" gradientUnits="objectBoundingBox">
      <stop offset="0" stop-color="#f98700"/>
      <stop offset="1" stop-color="#eea908"/>
    </linearGradient>
  </defs>
  <path id="Subtraction_48" data-name="Subtraction 48" class="cls-1" d="M483.36,896.046a128.594,128.594,0,0,1-13.587-.711,131.362,131.362,0,0,1-20.332-3.854,162.622,162.622,0,0,1-20.171-6.979,253.564,253.564,0,0,1-40.444-21.958c-27.2-17.735-55.462-41.318-85.38-66.286-12.385-10.336-25.188-21.02-38.479-31.769-9.871-7.86-20.2-15.9-30.185-23.683-17.52-13.647-35.635-27.757-52.475-41.781-9.073-7.556-17.031-14.46-24.329-21.1-8.2-7.469-15.357-14.415-21.874-21.234a274,274,0,0,1-18.533-21.353,169.6,169.6,0,0,1-14.306-21.461,107.435,107.435,0,0,1-9.191-21.559,75.708,75.708,0,0,1-3.191-21.647,73.88,73.88,0,0,1,1.6-14.643,91.493,91.493,0,0,1,4.436-14.651,121.817,121.817,0,0,1,6.989-14.656,167.766,167.766,0,0,1,9.259-14.656,271.4,271.4,0,0,1,24.2-29.3c8.485-9.061,18.262-18.631,29.89-29.258H970.071a292.112,292.112,0,0,1,16.206,57.053,270.373,270.373,0,0,1,4.02,58.071,223.5,223.5,0,0,1-9.091,55.362,177,177,0,0,1-23.128,48.926,169.99,169.99,0,0,1-17,20.807A210.707,210.707,0,0,1,920.8,712.257a276.109,276.109,0,0,1-23.061,16.578c-7.752,5.013-16.274,10.035-25.329,14.928-35.058,18.94-75.1,34.416-113.828,49.382C739.3,800.6,719.358,808.3,700.727,816.2c-24.09,10.127-46.54,20.695-68.251,30.915C576.7,873.368,528.521,896.045,483.36,896.046Z" transform="translate(-90.881 -453.5)"/>
</svg>
