<svg xmlns="http://www.w3.org/2000/svg" width="778.047" height="414.908" viewBox="0 0 778.047 414.908">
  <defs>
    <style>
      .cls-1 {
        fill: #2bd4ee;
      }
    </style>
  </defs>
  <path id="Subtraction_49" data-name="Subtraction 49" class="cls-1" d="M773.073,868.408c-12.447,0-26.174-1.054-43.2-3.319-15.027-2-30.218-4.614-46.3-7.383h-.006c-25.1-4.321-51.048-8.789-76.018-10.652-9.64-.7-19.407-1.034-29.858-1.034-12.009,0-24.946.463-39.55,1.415-13.379.872-26.822,2.063-38.682,3.114l-1.1.1c-25.73,2.279-50.033,4.431-74.9,4.432a339.833,339.833,0,0,1-37.521-1.938,310.792,310.792,0,0,1-106.852-32.134,280.988,280.988,0,0,1-47.437-30.594,235.381,235.381,0,0,1-55.41-62.921,269.95,269.95,0,0,1-13.375-25.021c-3.97-8.449-7.665-17.4-10.981-26.61-3.212-8.917-6.155-18.309-8.746-27.914-9.562-35.443-14.879-75.489-15.8-119.028a511.557,511.557,0,0,1,4.052-75.417H893.481c.261,4.812.661,12.037,1.122,19.2,1.138,15.911,2.641,32.149,4.094,47.852,4.411,47.65,8.972,96.921,5.22,151.928A513.874,513.874,0,0,1,897.269,729a334.067,334.067,0,0,1-13.945,54.032c-13.472,37.546-32.564,62.759-56.744,74.938a86.715,86.715,0,0,1-12.05,4.846,106.422,106.422,0,0,1-13,3.229A155.766,155.766,0,0,1,773.073,868.408Z" transform="translate(-127.261 -453.5)"/>
</svg>
