<svg xmlns="http://www.w3.org/2000/svg" xmlns:xlink="http://www.w3.org/1999/xlink" width="819.009" height="493.133" viewBox="0 0 819.009 493.133">
  <defs>
    <style>
      .cls-1 {
        fill: url(#linear-gradient);
      }
    </style>
    <linearGradient id="linear-gradient" x1="0.5" x2="0.5" y2="1" gradientUnits="objectBoundingBox">
      <stop offset="0" stop-color="#2bd4ee"/>
      <stop offset="1" stop-color="#1a98ff"/>
    </linearGradient>
  </defs>
  <path id="Subtraction_48" data-name="Subtraction 48" class="cls-1" d="M504.522,1111.633h-.011c-20.541,0-38.483-1.339-54.85-4.093a217.8,217.8,0,0,1-25.622-5.861,176.277,176.277,0,0,1-24.136-9.069,169.2,169.2,0,0,1-16.078-8.591c-5.08-3.07-10.243-6.536-15.347-10.3a283.761,283.761,0,0,1-29.074-24.945c-18.853-18.293-36.735-39.363-55.667-61.67l0,0c-12.651-14.906-25.732-30.319-39.564-45.4-11.319-12.568-23.387-25.142-35.057-37.3l-.008-.008-.008-.008c-10.953-11.413-22.279-23.214-32.837-34.862-11.831-13.053-21.472-24.582-29.474-35.246A244.086,244.086,0,0,1,123.8,798.008a163.091,163.091,0,0,1-8.086-18.711,132.224,132.224,0,0,1-5.294-19.2,128.68,128.68,0,0,1-2.143-16.417,150.243,150.243,0,0,1-.144-16.814A204.479,204.479,0,0,1,112.97,692.1a354.173,354.173,0,0,1,10.209-36.162c3.675-10.99,8.07-22.888,13.833-37.443H926.975c-1.048,10.882-2.438,22.428-4.13,34.319-2.842,18.949-6.446,38.943-11.017,61.125-4.086,19.827-8.6,39.745-12.957,59.006l-.008.035c-5.746,25.375-11.687,51.613-17.052,79.222-1.338,6.825-2.676,13.864-3.971,20.671-6.192,32.552-12.593,66.211-22.427,96.629a253.669,253.669,0,0,1-17.729,42.659,164.037,164.037,0,0,1-11.551,18.491,128.556,128.556,0,0,1-13.745,16.056,125.427,125.427,0,0,1-17.5,14.154,154.537,154.537,0,0,1-20.041,11.322c-13.31,6.307-28.443,11.465-46.265,15.769a504.4,504.4,0,0,1-52.119,9.3c-18.027,2.382-36.873,4.259-55.1,6.074h-.008c-2.983.3-6.365.634-9.6.959l-6.607.647c-16.812,1.648-34.2,3.353-51.025,4.606C535.264,1110.951,519.041,1111.633,504.522,1111.633Z" transform="translate(-107.967 -618.5)"/>
</svg>
