<svg xmlns="http://www.w3.org/2000/svg" xmlns:xlink="http://www.w3.org/1999/xlink" width="716.859" height="682.053" viewBox="0 0 716.859 682.053">
  <defs>
    <linearGradient id="linear-gradient" x1="0.329" y1="0.037" x2="0.841" y2="0.875" gradientUnits="objectBoundingBox">
      <stop offset="0" stop-color="#44acff" stop-opacity="0.2"/>
      <stop offset="1" stop-color="#44acff" stop-opacity="0"/>
    </linearGradient>
  </defs>
  <g id="Group_1827" data-name="Group 1827" transform="translate(21.858 -1874.368)">
    <g id="Group_1828" data-name="Group 1828">
      <path id="blob_4_" data-name="blob (4)" d="M294.254,5.976C334.463,31.563,383.311,39.87,419.2,67.451s58.485,74.1,58.485,120.625c.332,46.522-22.264,93.376-56.823,123.284C386.634,341.6,340.444,354.891,299.9,364.2A715.414,715.414,0,0,1,188.582,382.14c-36.221,2.658-74.1,2.658-108-10.634C46.358,358.547,16.451,332.3-13.124,299.4c-29.907-32.9-58.817-72.109-66.46-115.973C-87.56,139.893-74.268,91.377-49.345,50.5-24.755,9.3,11.8-24.264,53.668-49.186,95.538-73.776,142.725-89.394,182.6-76.1,222.145-62.478,253.713-19.611,294.254,5.976Z" transform="translate(89.547 2183.328) rotate(-30)" fill="url(#linear-gradient)"/>
      <path id="blob_4_2" data-name="blob (4)" d="M294.254,5.976C334.463,31.563,383.311,39.87,419.2,67.451s58.485,74.1,58.485,120.625c.332,46.522-22.264,93.376-56.823,123.284C386.634,341.6,340.444,354.891,299.9,364.2A715.414,715.414,0,0,1,188.582,382.14c-36.221,2.658-74.1,2.658-108-10.634C46.358,358.547,16.451,332.3-13.124,299.4c-29.907-32.9-58.817-72.109-66.46-115.973C-87.56,139.893-74.268,91.377-49.345,50.5-24.755,9.3,11.8-24.264,53.668-49.186,95.538-73.776,142.725-89.394,182.6-76.1,222.145-62.478,253.713-19.611,294.254,5.976Z" transform="translate(527.527 2400.35) rotate(-175)" fill="url(#linear-gradient)"/>
    </g>
  </g>
</svg>
