<?xml version="1.0" encoding="utf-8"?>
<!-- Generator: Adobe Illustrator 25.0.0, SVG Export Plug-In . SVG Version: 6.00 Build 0)  -->
<svg version="1.1" id="Layer_1" xmlns="http://www.w3.org/2000/svg" xmlns:xlink="http://www.w3.org/1999/xlink" x="0px" y="0px"
	 viewBox="0 0 899.635 442.546" style="enable-background:new 0 0 899.635 442.546;" xml:space="preserve">
<style type="text/css">
	.st0{fill:url(#Subtraction_48_8_);}
	.st1{fill:#2BD4EE;}
	.st2{fill:url(#blob_3_);}
	.st3{fill:none;}
	.st4{opacity:0.5;fill:#FFFFFF;}
	.st5{fill:#002C8F;}
	.st6{fill:url(#Subtraction_48_9_);}
	.st7{fill:url(#Subtraction_48_10_);}
	.st8{fill:url(#Subtraction_48_11_);}
	.st9{fill:url(#Subtraction_48_12_);}
	.st10{fill:url(#Subtraction_48_13_);}
	.st11{fill:url(#Subtraction_48_14_);}
</style>
<linearGradient id="Subtraction_48_8_" gradientUnits="userSpaceOnUse" x1="-3466.7556" y1="605.6339" x2="-3466.7556" y2="604.6339" gradientTransform="matrix(899.6168 0 0 -442.539 3119201.5 268016.6562)">
	<stop  offset="0" style="stop-color:#F98700"/>
	<stop  offset="1" style="stop-color:#EEA908"/>
</linearGradient>
<path id="Subtraction_48_7_" class="st0" d="M392.479,442.546c-4.538,0.003-9.074-0.234-13.587-0.711
	c-6.868-0.748-13.667-2.037-20.332-3.854c-6.869-1.882-13.607-4.213-20.171-6.979c-14.119-6.078-27.656-13.428-40.444-21.958
	c-27.2-17.735-55.462-41.318-85.38-66.286c-12.385-10.336-25.188-21.02-38.479-31.769c-9.871-7.86-20.2-15.9-30.185-23.683
	c-17.52-13.647-35.635-27.757-52.475-41.781c-9.073-7.556-17.031-14.46-24.329-21.1c-8.2-7.469-15.357-14.415-21.874-21.234
	c-6.541-6.794-12.727-13.921-18.533-21.353c-5.306-6.78-10.089-13.955-14.306-21.461c-3.841-6.83-6.923-14.059-9.191-21.559
	c-2.106-7.023-3.181-14.315-3.191-21.647c0.044-4.922,0.58-9.828,1.6-14.643c1.067-4.999,2.551-9.9,4.436-14.651
	c2.001-5.035,4.336-9.932,6.989-14.656c2.832-5.042,5.922-9.933,9.259-14.656c7.372-10.32,15.459-20.111,24.2-29.3
	c8.485-9.061,18.262-18.631,29.89-29.258H879.19c7.324,18.419,12.754,37.535,16.206,57.053c3.426,19.156,4.774,38.626,4.02,58.071
	c-0.693,18.763-3.747,37.363-9.091,55.362c-5.156,17.398-12.956,33.899-23.128,48.926c-5.109,7.373-10.793,14.331-17,20.807
	c-6.349,6.612-13.123,12.802-20.278,18.531c-7.398,5.918-15.095,11.451-23.061,16.578c-7.752,5.013-16.274,10.035-25.329,14.928
	c-35.058,18.94-75.1,34.416-113.828,49.382c-19.282,7.455-39.224,15.155-57.855,23.055c-24.09,10.127-46.54,20.695-68.251,30.915
	C485.819,419.868,437.64,442.545,392.479,442.546z"/>
<g>
	<path class="st3" d="M287.62,206.43c-2.664,3.554-4.837,7.467-6.602,11.653l109.859,190.281c5.102-0.71,10.134-1.624,15.01-2.644
		L289.49,204.115C288.846,204.872,288.217,205.639,287.62,206.43z"/>
	<path class="st3" d="M275.103,242.479l96.645,167.393c5.293-0.052,10.628-0.448,15.909-1.086l-108.03-187.113
		C277.332,228.136,275.904,235.159,275.103,242.479z"/>
	<path class="st3" d="M291.969,353.095c6.086,13.094,14.087,25.413,23.809,35.117l-30.842-53.419
		C286.934,341.041,289.256,347.146,291.969,353.095z"/>
	<path class="st3" d="M281.592,323.001l41.347,71.616c4.962,3.945,10.295,7.214,15.985,9.607c2.475,1.041,5.023,1.915,7.625,2.644
		L275.39,283.616C276.507,297.274,278.461,310.414,281.592,323.001z"/>
	<path class="st3" d="M274.876,276.727l75.719,131.148c5.716,1.253,11.657,1.861,17.681,1.982L274.64,247.677
		C273.972,257.169,274.221,267.037,274.876,276.727z"/>
	<path class="st3" d="M383.484,153.072l128.039,221.77c4.513-2.088,8.684-4.474,12.343-7.263L396.845,147.573
		C392.465,149.117,388.012,150.997,383.484,153.072z"/>
	<path class="st3" d="M423.323,143.683c-1.798-0.228-3.612-0.321-5.439-0.31l119.351,206.721c2.507-5.991,4.051-12.733,5.04-19.913
		L436.868,147.614C432.423,145.632,427.918,144.246,423.323,143.683z"/>
	<path class="st3" d="M291.6,201.772L408.958,405.04c4.946-1.13,9.739-2.347,14.441-3.629l-120.644-208.96
		C298.637,195.272,294.878,198.343,291.6,201.772z"/>
	<path class="st3" d="M535.918,228.741c-5.22-9.449-13.491-17.241-23.072-24.812l31.147,53.948
		C542.957,247.236,540.656,237.324,535.918,228.741z"/>
	<path class="st3" d="M305.262,190.794l121.124,209.792c4.758-1.33,9.451-2.716,14.155-4.125L317.745,183.773
		C313.367,185.975,309.175,188.288,305.262,190.794z"/>
	<path class="st3" d="M367.848,160.632l127.229,220.367c4.729-1.47,9.338-3.086,13.687-4.936l-128.01-221.719
		C376.515,156.339,372.214,158.473,367.848,160.632z"/>
	<path class="st3" d="M320.44,182.441l123.054,213.135c4.647-1.396,9.323-2.807,14.111-4.201L333.515,176.447
		C329.063,178.408,324.677,180.383,320.44,182.441z"/>
	<path class="st3" d="M336.278,175.233l124.296,215.286c3.035-0.87,6.114-1.732,9.268-2.575c1.655-0.445,3.329-0.887,5.013-1.331
		L349.453,169.411C345.067,171.4,340.65,173.318,336.278,175.233z"/>
	<path class="st3" d="M353.999,167.316c-0.601,0.282-1.204,0.561-1.806,0.84l125.669,217.666c4.746-1.25,9.547-2.53,14.267-3.93
		l-126.977-219.93C361.479,163.771,357.761,165.579,353.999,167.316z"/>
	<path class="st3" d="M399.748,146.603l126.474,219.059c1.508-1.312,2.912-2.705,4.188-4.195c2.069-2.441,3.81-5.136,5.283-8.041
		L414.505,143.521C409.685,143.902,404.766,145.003,399.748,146.603z"/>
	<path class="st4" d="M284.937,334.793l30.842,53.419c2.292,2.288,4.679,4.431,7.161,6.404l-41.347-71.616
		C282.583,326.988,283.698,330.918,284.937,334.793z"/>
	<path class="st4" d="M275.077,279.553c0.094,1.361,0.202,2.713,0.313,4.064l71.159,123.251c1.334,0.374,2.684,0.709,4.045,1.007
		l-75.719-131.148C274.939,277.671,275.006,278.613,275.077,279.553z"/>
	<path class="st4" d="M274.64,247.677l93.635,162.181c1.155,0.023,2.312,0.026,3.472,0.015l-96.645-167.393
		C274.914,244.196,274.763,245.93,274.64,247.677z"/>
	<path class="st4" d="M279.627,221.673l108.03,187.113c1.076-0.13,2.149-0.272,3.22-0.421L281.018,218.084
		C280.522,219.259,280.059,220.456,279.627,221.673z"/>
	<path class="st4" d="M289.49,204.115l116.397,201.605c0.4-0.084,0.801-0.167,1.199-0.252c0.63-0.14,1.248-0.286,1.872-0.429
		L291.6,201.772C290.871,202.534,290.169,203.316,289.49,204.115z"/>
	<path class="st4" d="M302.755,192.451l120.644,208.96c0.999-0.272,1.994-0.548,2.987-0.826L305.262,190.794
		C304.413,191.337,303.577,191.889,302.755,192.451z"/>
	<path class="st4" d="M317.745,183.773l122.796,212.688c0.983-0.294,1.968-0.589,2.953-0.885L320.44,182.441
		C319.534,182.881,318.636,183.325,317.745,183.773z"/>
	<path class="st4" d="M333.515,176.447l124.089,214.928c0.983-0.286,1.976-0.571,2.969-0.856L336.278,175.233
		C335.354,175.637,334.434,176.042,333.515,176.447z"/>
	<path class="st4" d="M349.453,169.411l125.402,217.202c0.999-0.263,2.001-0.527,3.007-0.791L352.192,168.156
		C351.281,168.578,350.368,168.996,349.453,169.411z"/>
	<path class="st4" d="M365.152,161.962l126.977,219.93c0.987-0.293,1.97-0.59,2.948-0.894L367.848,160.632
		C366.952,161.074,366.053,161.518,365.152,161.962z"/>
	<path class="st4" d="M380.753,154.343l128.01,221.719c0.931-0.396,1.854-0.801,2.76-1.22l-128.039-221.77
		C382.577,153.488,381.666,153.913,380.753,154.343z"/>
	<path class="st4" d="M396.845,147.573l127.021,220.005c0.811-0.619,1.598-1.257,2.357-1.917L399.748,146.603
		C398.784,146.91,397.817,147.231,396.845,147.573z"/>
	<path class="st4" d="M414.505,143.521l121.189,209.905c0.549-1.083,1.063-2.193,1.54-3.332L417.884,143.374
		C416.763,143.381,415.637,143.431,414.505,143.521z"/>
	<path class="st4" d="M436.868,147.614l105.406,182.567c0.225-1.636,0.419-3.297,0.592-4.975L441.724,150.025
		C440.112,149.15,438.495,148.339,436.868,147.614z"/>
	<path class="st4" d="M470.349,170.963l73.912,128.018c0.028-0.952,0.057-1.904,0.086-2.856c0.027-0.952,0.054-1.903,0.081-2.854
		l-67.415-116.766C474.785,174.668,472.565,172.811,470.349,170.963z"/>
	<path class="st4" d="M512.846,203.929c-2.021-1.597-4.099-3.185-6.221-4.776l37.867,65.587c-0.117-2.316-0.279-4.606-0.498-6.862
		L512.846,203.929z"/>
</g>
<path class="st5" d="M343.543,256.586c0.818,1.83-0.001,3.977-1.832,4.795c-1.826,0.818-3.977,0-4.795-1.832
	c-1.445-3.231-3.711-6.027-6.551-8.086c-4.564-3.309-10.244-4.534-15.98-3.443c-2.735,0.519-5.321,1.548-7.676,2.99l12.268,8.895
	c1.622,1.177,1.984,3.447,0.808,5.07c-0.71,0.978-1.819,1.499-2.942,1.499c-0.739,0-1.485-0.224-2.128-0.691l-13.685-9.922
	c-0.43,0.503-0.849,1.017-1.242,1.559c-0.393,0.542-0.751,1.101-1.095,1.665l13.684,9.922c1.622,1.177,1.984,3.447,0.808,5.07
	c-0.71,0.978-1.819,1.499-2.942,1.499c-0.739,0-1.485-0.224-2.128-0.69l-12.267-8.895c-0.638,2.687-0.813,5.465-0.456,8.225
	c0.747,5.793,3.674,10.807,8.239,14.116c2.823,2.047,6.165,3.329,9.663,3.706c1.992,0.214,3.434,2.005,3.219,3.998
	c-0.2,1.86-1.774,3.24-3.604,3.24c-0.13,0-0.261-0.007-0.394-0.021c-4.753-0.512-9.298-2.257-13.144-5.045
	c-6.202-4.496-10.172-11.266-11.179-19.065c-0.599-4.632-0.086-9.292,1.416-13.679l-4.845-3.513
	c-1.622-1.177-1.984-3.447-0.808-5.07c1.18-1.622,3.451-1.982,5.07-0.808l3.789,2.747c0.355-0.56,0.701-1.124,1.094-1.665
	c0.393-0.542,0.822-1.047,1.243-1.558l-3.79-2.748c-1.622-1.177-1.984-3.447-0.808-5.07c1.178-1.621,3.448-1.984,5.07-0.808
	l4.845,3.513c3.703-2.792,7.972-4.728,12.561-5.598c7.725-1.465,15.394,0.2,21.594,4.696
	C338.496,248.39,341.58,252.195,343.543,256.586z M573.487,286.602l-62.356,50.747c-1.965,1.598-4.334,2.376-6.69,2.376
	c-3.087,0.001-6.148-1.336-8.245-3.91l-36.079-44.333l0.113,61.582c0.004,2.837-1.095,5.504-3.097,7.512
	c-2.001,2.009-4.665,3.118-7.501,3.122l-80.394,0.147c-0.009,0-0.016,0-0.023,0c-2.827,0-5.487-1.099-7.491-3.095
	c-2.009-2.001-3.118-4.665-3.122-7.501l-0.113-61.609l-35.95,44.175c-2.096,2.575-5.158,3.91-8.245,3.91
	c-2.355,0-4.724-0.777-6.69-2.376l-62.357-50.747c-4.54-3.695-5.226-10.393-1.533-14.933l61.876-76.032
	c3.796-4.666,9.85-6.975,15.787-6.017l38.67,6.222c5.94,0.956,10.962,5.042,13.104,10.664l9.492,24.909l18.083-10.485
	c5.206-3.014,11.681-3.029,16.894-0.03l18.437,10.6l9.525-24.995c2.142-5.622,7.165-9.708,13.104-10.664l38.668-6.222
	c5.935-0.958,11.99,1.351,15.788,6.017l61.876,76.032C578.715,276.208,578.027,282.907,573.487,286.602z M366.846,240.575
	l8.163-4.733l-9.997-26.235c-1.036-2.722-3.47-4.702-6.346-5.165l-38.668-6.222c-2.88-0.464-5.809,0.654-7.647,2.915l-61.876,76.032
	c-0.434,0.533-0.448,1.103-0.418,1.397c0.03,0.292,0.16,0.848,0.692,1.28l62.357,50.747c0.814,0.664,2.015,0.537,2.678-0.275
	l42.683-52.448l-0.042-22.648C358.413,249.204,361.64,243.592,366.846,240.575z M451.519,353.08l-0.18-98.028
	c-0.006-2.915-1.578-5.628-4.105-7.078l-33.954-19.523c-1.259-0.723-2.668-1.085-4.078-1.085c-1.421,0-2.84,0.367-4.106,1.1
	l-33.882,19.646c-2.522,1.46-4.085,4.178-4.079,7.092l0.18,98.029c0.001,0.686,0.352,1.137,0.56,1.346
	c0.207,0.207,0.658,0.554,1.343,0.554c0.001,0,0.003,0,0.004,0l80.395-0.147c0.688-0.001,1.139-0.352,1.346-0.56
	C451.172,354.218,451.521,353.766,451.519,353.08z M568.263,277.168l-61.876-76.032c-1.84-2.263-4.771-3.377-7.648-2.915
	l-38.667,6.222c-2.877,0.462-5.309,2.442-6.346,5.165l-10.018,26.289l7.869,4.524c5.216,2.997,8.463,8.597,8.475,14.614
	l0.041,22.614l42.862,52.668c0.432,0.532,0.99,0.662,1.283,0.692c0.292,0.03,0.865,0.016,1.395-0.417l62.356-50.747
	C568.802,279.182,568.925,277.982,568.263,277.168z M532.703,265.439l-15.372,12.51l-4.253-5.225l15.372-12.51
	c1.554-1.266,1.789-3.552,0.525-5.107c-1.265-1.554-3.55-1.789-5.107-0.525l-13.255,10.787l-4.668-30.952
	c-0.298-1.981-2.148-3.359-4.13-3.047c-1.982,0.299-3.346,2.148-3.047,4.13l4.712,31.243l-29.604-10.983
	c-1.87-0.695-3.967,0.261-4.665,2.141c-0.698,1.879,0.261,3.967,2.141,4.665l29.333,10.883l-12.727,10.357
	c-1.554,1.266-1.789,3.552-0.525,5.107c0.717,0.882,1.764,1.338,2.819,1.338c0.804,0,1.615-0.267,2.288-0.814l14.907-12.131
	l4.252,5.225l-14.905,12.131c-1.555,1.266-1.789,3.552-0.525,5.107c0.717,0.882,1.764,1.338,2.819,1.338
	c0.804,0,1.615-0.267,2.288-0.814l14.906-12.131l5.577,6.852c0.717,0.882,1.764,1.338,2.819,1.338c0.804,0,1.615-0.267,2.288-0.814
	c1.555-1.266,1.789-3.552,0.525-5.107l-5.577-6.853l15.372-12.51c1.555-1.266,1.789-3.552,0.525-5.107
	C536.545,264.411,534.26,264.174,532.703,265.439z M397.546,249.644c-0.011-6.444,5.222-11.698,11.666-11.71c0.007,0,0.014,0,0.02,0
	c6.437,0,11.679,5.229,11.69,11.666c0.007,3.122-1.204,6.06-3.407,8.272c-2.205,2.212-5.137,3.433-8.259,3.438
	c-0.007,0-0.014,0-0.021,0C402.801,261.31,397.559,256.081,397.546,249.644z M403.354,249.632c0.007,3.238,2.644,5.87,5.881,5.87
	c0.004,0,0.007,0,0.01,0c1.571-0.003,3.047-0.617,4.156-1.73c1.109-1.113,1.717-2.59,1.714-4.161
	c-0.006-3.238-2.643-5.87-5.881-5.87c-0.004,0-0.007,0-0.01,0C405.981,243.748,403.348,246.391,403.354,249.632z M470.381,236.265
	c-6.437,0-11.678-5.229-11.689-11.666c-0.007-3.122,1.204-6.06,3.407-8.272c2.205-2.212,5.137-3.433,8.259-3.438
	c0.007,0,0.014,0,0.021,0c6.434,0,11.676,5.229,11.689,11.666c0.011,6.444-5.222,11.698-11.668,11.71
	C470.394,236.265,470.387,236.265,470.381,236.265z M470.38,230.457c0.003,0,0.007,0,0.01,0c3.243-0.007,5.877-2.649,5.871-5.891
	c-0.007-3.238-2.644-5.87-5.881-5.87c-0.004,0-0.007,0-0.01,0c-1.571,0.003-3.047,0.617-4.156,1.73
	c-1.109,1.113-1.717,2.59-1.714,4.161c0.003,1.571,0.617,3.046,1.73,4.154C467.34,229.849,468.813,230.457,470.38,230.457z
	 M356.459,216.297c2.212,2.203,3.433,5.136,3.438,8.258c0.011,6.444-5.222,11.698-11.666,11.71c-0.007,0-0.014,0-0.021,0
	c-6.434,0-11.676-5.229-11.689-11.666c-0.011-6.446,5.222-11.699,11.666-11.71c0.007,0,0.014,0,0.021,0
	C351.323,212.888,354.253,214.097,356.459,216.297z M354.09,224.566c-0.003-1.571-0.617-3.047-1.73-4.156
	c-1.11-1.106-2.585-1.714-4.152-1.714c-0.003,0-0.007,0-0.01,0c-3.243,0.006-5.876,2.649-5.87,5.891
	c0.007,3.238,2.644,5.87,5.881,5.87c0.004,0,0.007,0,0.01,0C351.462,230.45,354.095,227.807,354.09,224.566z M427.523,317.418
	c2.425,8.529-3.892,16.334-11.4,18.953c-1.092,0.381-2.172,0.653-3.236,0.83v3.77c0,2.005-1.625,3.63-3.63,3.63
	s-3.63-1.625-3.63-3.63v-3.956c-5.098-1.026-9.561-3.729-12.934-6.121c-1.635-1.16-2.02-3.426-0.861-5.06
	c1.161-1.636,3.43-2.02,5.06-0.861c3.272,2.321,6.116,3.822,8.734,4.603v-18.124c-2.153-0.542-4.286-1.172-6.213-2.103
	c-5.937-2.867-9.289-8.168-8.965-14.18c0.337-6.29,4.604-11.642,11.13-13.969c1.318-0.471,2.676-0.737,4.048-0.911v-3.686
	c0-2.005,1.625-3.63,3.63-3.63s3.63,1.625,3.63,3.63v4.069c4.146,0.964,8.292,3.129,12.134,6.47
	c1.513,1.316,1.673,3.609,0.357,5.121c-1.314,1.514-3.607,1.672-5.121,0.357c-1.688-1.468-4.293-3.336-7.37-4.415v17.538
	C418.918,307.296,425.36,309.81,427.523,317.418z M405.628,303.932v-16.284c-0.535,0.112-1.067,0.196-1.609,0.389
	c-3.721,1.327-6.142,4.208-6.319,7.522c-0.164,3.036,1.612,5.679,4.872,7.254C403.475,303.249,404.516,303.606,405.628,303.932z
	 M420.541,319.404c-0.948-3.333-3.553-4.888-7.654-6.124v16.465c0.281-0.078,0.564-0.129,0.844-0.227
	C417.969,328.038,421.776,323.752,420.541,319.404z"/>
</svg>
