<?xml version="1.0" encoding="utf-8"?>
<!-- Generator: Adobe Illustrator 25.0.0, SVG Export Plug-In . SVG Version: 6.00 Build 0)  -->
<svg version="1.1" id="Layer_1" xmlns="http://www.w3.org/2000/svg" xmlns:xlink="http://www.w3.org/1999/xlink" x="0px" y="0px"
	 viewBox="0 0 899.635 442.546" style="enable-background:new 0 0 899.635 442.546;" xml:space="preserve">
<style type="text/css">
	.st0{fill:url(#Subtraction_48_8_);}
	.st1{fill:#2BD4EE;}
	.st2{fill:url(#blob_3_);}
	.st3{fill:none;}
	.st4{opacity:0.5;fill:#FFFFFF;}
	.st5{fill:#002C8F;}
	.st6{fill:url(#Subtraction_48_9_);}
	.st7{fill:url(#Subtraction_48_10_);}
	.st8{fill:url(#Subtraction_48_11_);}
	.st9{fill:url(#Subtraction_48_12_);}
	.st10{fill:url(#Subtraction_48_13_);}
	.st11{fill:url(#Subtraction_48_14_);}
</style>
<linearGradient id="Subtraction_48_8_" gradientUnits="userSpaceOnUse" x1="-1433.9459" y1="605.6339" x2="-1433.9459" y2="604.6339" gradientTransform="matrix(899.6168 0 0 -442.539 1290451.75 268016.6562)">
	<stop  offset="0" style="stop-color:#F98700"/>
	<stop  offset="1" style="stop-color:#EEA908"/>
</linearGradient>
<path id="Subtraction_48_5_" class="st0" d="M392.479,442.546c-4.538,0.003-9.074-0.234-13.587-0.711
	c-6.868-0.748-13.667-2.037-20.332-3.854c-6.869-1.882-13.607-4.213-20.171-6.979c-14.119-6.078-27.656-13.428-40.444-21.958
	c-27.2-17.735-55.462-41.318-85.38-66.286c-12.385-10.336-25.188-21.02-38.479-31.769c-9.871-7.86-20.2-15.9-30.185-23.683
	c-17.52-13.647-35.635-27.757-52.475-41.781c-9.073-7.556-17.031-14.46-24.329-21.1c-8.2-7.469-15.357-14.415-21.874-21.234
	c-6.541-6.794-12.727-13.921-18.533-21.353c-5.306-6.78-10.089-13.955-14.306-21.461c-3.841-6.83-6.923-14.059-9.191-21.559
	c-2.106-7.023-3.181-14.315-3.191-21.647c0.044-4.922,0.58-9.828,1.6-14.643c1.067-4.999,2.551-9.9,4.436-14.651
	c2.001-5.035,4.336-9.932,6.989-14.656c2.832-5.042,5.922-9.933,9.259-14.656c7.372-10.32,15.459-20.111,24.2-29.3
	c8.485-9.061,18.262-18.631,29.89-29.258H879.19c7.324,18.419,12.754,37.535,16.206,57.053c3.426,19.156,4.774,38.626,4.02,58.071
	c-0.693,18.763-3.747,37.363-9.091,55.362c-5.156,17.398-12.956,33.899-23.128,48.926c-5.109,7.373-10.793,14.331-17,20.807
	c-6.349,6.612-13.123,12.802-20.278,18.531c-7.398,5.918-15.095,11.451-23.061,16.578c-7.752,5.013-16.274,10.035-25.329,14.928
	c-35.058,18.94-75.1,34.416-113.828,49.382c-19.282,7.455-39.224,15.155-57.855,23.055c-24.09,10.127-46.54,20.695-68.251,30.915
	C485.819,419.868,437.64,442.545,392.479,442.546z"/>
<g>
	<g>
		<g>
			<path class="st3" d="M504.995,399.01L364.169,155.091c-5.003,0.952-9.991,1.869-14.9,2.835L491.126,403.63
				C496.073,402.513,500.743,401.021,504.995,399.01z"/>
			<path class="st3" d="M469.329,406.516L328.582,162.734c-4.801,1.377-9.409,2.953-13.744,4.836l138.369,239.662
				C458.561,407.065,463.981,406.873,469.329,406.516z"/>
			<path class="st3" d="M488.035,404.275l-141.87-245.726c-4.986,1.015-9.877,2.102-14.598,3.358L472.65,406.269
				C477.923,405.841,483.095,405.221,488.035,404.275z"/>
			<path class="st3" d="M549.14,302.265l-89.413-154.868c-1.945-1.053-3.939-1.965-5.992-2.711c-4.32-1.59-8.902-2.441-13.698-2.752
				l104.321,180.69C546.124,315.766,547.807,308.958,549.14,302.265z"/>
			<path class="st3" d="M529.311,371.844L399.668,147.296c-4.782,1.117-9.644,2.294-14.56,3.424l135.881,235.352
				C524.219,381.892,526.939,377.083,529.311,371.844z"/>
			<path class="st3" d="M542.292,330.58c0.331-1.273,0.662-2.544,0.993-3.814L436.494,141.797
				c-5.066-0.056-10.352,0.427-15.814,1.251l117.398,203.34C539.528,341.181,540.9,335.872,542.292,330.58z"/>
			<path class="st3" d="M512.407,394.629c2.385-1.78,4.55-3.829,6.541-6.093L382.047,151.415c-1.791,0.401-3.588,0.793-5.39,1.17
				c-3.113,0.672-6.242,1.3-9.37,1.907l140.385,243.154C509.327,396.734,510.911,395.735,512.407,394.629z"/>
			<path class="st3" d="M443.679,407.54c2.022-0.073,4.067-0.138,6.125-0.201L312.099,168.826
				c-4.407,2.111-8.497,4.585-12.187,7.534l133.729,231.626C436.935,407.813,440.272,407.659,443.679,407.54z"/>
			<path class="st3" d="M536.934,350.406L417.512,143.561c-4.814,0.825-9.753,1.877-14.788,3.028l128.067,221.819
				C533.118,362.756,535.106,356.683,536.934,350.406z"/>
			<path class="st3" d="M350.843,409.138l-84.102-145.67c-0.996,8.678-1.593,17.236-1.71,25.681l67.242,116.467
				C338.315,407.223,344.562,408.355,350.843,409.138z"/>
			<path class="st3" d="M430.283,408.168L297.588,178.333c-3.725,3.371-6.981,7.278-9.839,11.6l126.579,219.241
				C419.584,408.83,424.876,408.476,430.283,408.168z"/>
			<path class="st3" d="M549.607,259.112c-3.941-13.796-13.464-26.038-24.345-38.845l25.62,44.376
				C550.543,262.775,550.125,260.929,549.607,259.112z"/>
			<path class="st3" d="M391.589,410.431l-114.425-198.19c-2.128,6.246-3.857,12.801-5.295,19.47l103.341,178.991
				C380.805,410.741,386.238,410.632,391.589,410.431z"/>
			<path class="st3" d="M410.988,409.391L285.941,192.802c-2.899,4.846-5.356,10.14-7.454,15.731L394.972,410.29
				C400.347,410.051,405.66,409.733,410.988,409.391z"/>
			<path class="st3" d="M371.706,410.634L270.958,236.133c-0.876,4.461-1.638,8.951-2.317,13.411
				c-0.476,3.008-0.903,5.998-1.293,8.977l87.204,151.042C360.319,410.16,366.081,410.484,371.706,410.634z"/>
			<path class="st3" d="M328.122,404.426l-63.1-109.293c0.16,11.612,1.276,23.016,3.568,34.237c0.067,0.314,0.138,0.628,0.207,0.942
				l36.506,63.231C312.115,398.366,319.878,401.882,328.122,404.426z"/>
			<path class="st3" d="M271.543,341.068c5.422,18.381,14.351,35.406,27.265,47.225L271.543,341.068z"/>
			<path class="st4" d="M394.972,410.29L278.487,208.533c-0.458,1.222-0.898,2.459-1.323,3.708l114.425,198.19
				C392.72,410.388,393.847,410.341,394.972,410.29z"/>
			<path class="st4" d="M354.552,409.563l-87.204-151.042c-0.217,1.654-0.419,3.303-0.607,4.947l84.102,145.67
				C352.079,409.293,353.315,409.435,354.552,409.563z"/>
			<path class="st4" d="M332.273,405.617l-67.242-116.467c-0.028,2-0.037,3.996-0.009,5.983l63.1,109.293
				C329.493,404.849,330.878,405.246,332.273,405.617z"/>
			<path class="st4" d="M530.791,368.408L402.724,146.589c-1.015,0.232-2.034,0.468-3.056,0.707l129.643,224.548
				C529.82,370.719,530.312,369.571,530.791,368.408z"/>
			<path class="st4" d="M374.823,410.702c0.13,0.001,0.257,0,0.387,0.001L271.869,231.711c-0.317,1.47-0.62,2.944-0.91,4.422
				l100.748,174.501C372.75,410.661,373.79,410.685,374.823,410.702z"/>
			<path class="st4" d="M304.851,393.229c0.149,0.107,0.302,0.208,0.451,0.314l-36.506-63.231c0.789,3.617,1.701,7.212,2.746,10.756
				l27.265,47.225C300.735,390.056,302.745,391.711,304.851,393.229z"/>
			<path class="st4" d="M507.672,397.646L367.287,154.492c-1.04,0.202-2.079,0.402-3.118,0.599L504.995,399.01
				C505.906,398.579,506.8,398.126,507.672,397.646z"/>
			<path class="st4" d="M544.358,322.625l-104.321-180.69c-1.169-0.076-2.349-0.124-3.543-0.137l106.791,184.968
				C543.645,325.384,544.003,324.003,544.358,322.625z"/>
			<path class="st4" d="M520.989,386.072L385.109,150.719c-1.019,0.234-2.039,0.467-3.062,0.696l136.902,237.121
				C519.649,387.74,520.332,386.922,520.989,386.072z"/>
			<path class="st4" d="M491.126,403.63L349.27,157.926c-1.039,0.204-2.073,0.412-3.105,0.622l141.87,245.726
				C489.076,404.075,490.107,403.86,491.126,403.63z"/>
			<path class="st4" d="M414.327,409.174L287.749,189.933c-0.62,0.938-1.224,1.893-1.807,2.869l125.047,216.589
				C412.1,409.319,413.213,409.247,414.327,409.174z"/>
			<path class="st4" d="M538.078,346.388L420.68,143.049c-1.049,0.158-2.106,0.331-3.168,0.513l119.422,206.845
				C537.321,349.075,537.703,347.735,538.078,346.388z"/>
			<path class="st4" d="M549.988,297.735l-84.855-146.974c-1.761-1.241-3.562-2.366-5.406-3.364l89.413,154.868
				C549.441,300.749,549.725,299.238,549.988,297.735z"/>
			<path class="st4" d="M550.882,264.643l-25.62-44.376c-3.461-4.073-7.058-8.206-10.658-12.461l37.196,64.426
				C551.633,269.662,551.334,267.131,550.882,264.643z"/>
			<path class="st4" d="M433.641,407.986L299.912,176.36c-0.325,0.26-0.656,0.514-0.975,0.782c-0.458,0.387-0.905,0.789-1.35,1.191
				l132.695,229.835C431.396,408.105,432.518,408.045,433.641,407.986z"/>
			<path class="st4" d="M453.207,407.233L314.838,167.571c-0.927,0.403-1.837,0.824-2.739,1.256l137.705,238.512
				C450.935,407.304,452.069,407.269,453.207,407.233z"/>
			<path class="st4" d="M472.65,406.269L331.567,161.906c-1.004,0.267-1.997,0.545-2.986,0.828l140.748,243.782
				C470.44,406.442,471.546,406.358,472.65,406.269z"/>
		</g>
	</g>
	<path class="st5" d="M440.223,346.641c-0.009,0.482-0.115,0.953-0.304,1.386c-0.191,0.434-0.464,0.822-0.8,1.147
		c-0.004,0.004-0.005,0.009-0.009,0.013l-10.532,10.125c-0.703,0.678-1.609,1.014-2.515,1.014c-0.953,0-1.904-0.373-2.617-1.114
		c-1.388-1.445-1.343-3.743,0.102-5.131l4.214-4.051l-13.616-0.267c-2.005-0.04-3.597-1.697-3.559-3.701
		c0.041-2.005,1.737-3.508,3.701-3.559l13.617,0.267l-4.052-4.215c-1.39-1.445-1.344-3.742,0.101-5.131
		c1.442-1.391,3.743-1.346,5.131,0.101l10.124,10.53c0.326,0.339,0.585,0.741,0.76,1.185
		C440.144,345.679,440.233,346.155,440.223,346.641z M384.688,302.969c-1.39-1.446-3.688-1.49-5.131-0.101l-13.144,12.639
		c-1.446,1.39-1.49,3.686-0.101,5.131c0.712,0.742,1.663,1.114,2.616,1.114c0.906,0,1.812-0.336,2.515-1.014l13.144-12.639
		C386.033,306.71,386.077,304.413,384.688,302.969z M431.03,258.407c0.712,0.742,1.663,1.114,2.616,1.114
		c0.906,0,1.812-0.336,2.515-1.014l13.107-12.604c1.446-1.39,1.49-3.686,0.101-5.131c-1.388-1.446-3.689-1.49-5.131-0.101
		l-13.107,12.604C429.684,254.666,429.64,256.963,431.03,258.407z M399.541,342.211l-18.936-0.37
		c-1.961,0.006-3.66,1.555-3.701,3.559c-0.038,2.005,1.554,3.661,3.559,3.701l18.936,0.37c0.024,0,0.048,0,0.072,0
		c1.971,0,3.589-1.578,3.628-3.559C403.139,343.907,401.546,342.251,399.541,342.211z M415.035,220.249l13.616,0.267l-4.213,4.052
		c-1.446,1.39-1.49,3.686-0.101,5.131c0.712,0.742,1.663,1.114,2.616,1.114c0.906,0,1.812-0.336,2.515-1.014l10.531-10.127
		c0.004-0.003,0.005-0.008,0.008-0.012c0.339-0.328,0.613-0.72,0.804-1.16c0.171-0.395,0.249-0.817,0.273-1.241
		c0.003-0.047,0.028-0.085,0.029-0.133c0.001-0.035-0.018-0.065-0.018-0.1c-0.004-0.438-0.073-0.877-0.235-1.292
		c-0.176-0.449-0.434-0.856-0.763-1.198l-10.124-10.528c-1.39-1.448-3.688-1.492-5.131-0.101c-1.446,1.39-1.49,3.686-0.101,5.131
		l4.052,4.214l-13.617-0.267c-1.914,0.007-3.661,1.555-3.701,3.559C411.437,218.552,413.03,220.21,415.035,220.249z
		 M381.353,219.587l18.936,0.371c0.024,0.001,0.048,0.001,0.072,0.001c1.971,0,3.589-1.578,3.628-3.559
		c0.038-2.003-1.554-3.661-3.559-3.699l-18.936-0.371c-1.911-0.038-3.661,1.553-3.701,3.557
		C377.756,217.891,379.348,219.549,381.353,219.587z M416.323,308.307c-2.313,2.226-5.299,3.332-8.28,3.332
		c-3.138,0-6.273-1.225-8.616-3.661l-18.079-18.804c-4.566-4.75-4.418-12.33,0.329-16.897l18.805-18.079
		c2.298-2.213,5.316-3.394,8.516-3.335c3.192,0.062,6.168,1.364,8.38,3.665l18.081,18.803c2.213,2.301,3.397,5.327,3.335,8.517
		c-0.064,3.192-1.365,6.168-3.667,8.38L416.323,308.307z M410.285,302.029l18.804-18.079c0-0.001,0-0.001,0-0.001
		c0.624-0.6,0.977-1.405,0.994-2.27c0.017-0.865-0.305-1.686-0.905-2.31l-18.079-18.803c-0.6-0.622-1.407-0.975-2.271-0.993
		c-0.021-0.001-0.044-0.001-0.065-0.001c-0.841,0-1.635,0.32-2.242,0.905l-18.805,18.079c-1.286,1.238-1.326,3.294-0.088,4.581
		l18.078,18.803C406.946,303.227,409,303.266,410.285,302.029z M493.784,326.193c2.212,2.301,3.396,5.326,3.332,8.516l-0.51,26.081
		c-0.062,3.192-1.364,6.168-3.664,8.381c-2.243,2.157-5.175,3.336-8.278,3.336c-0.079,0-0.16,0-0.24-0.003l-26.081-0.512
		c-3.192-0.062-6.168-1.364-8.381-3.664c-2.212-2.301-3.397-5.327-3.333-8.517l0.512-26.081c0.128-6.508,5.463-11.716,11.944-11.716
		c0.078,0,0.157,0,0.237,0.003l26.081,0.51C488.594,322.591,491.57,323.892,493.784,326.193z M488.407,334.539
		c0.017-0.865-0.305-1.684-0.905-2.308c-0.598-0.624-1.405-0.977-2.27-0.994l-26.081-0.51c-1.717-0.043-3.267,1.388-3.302,3.175
		l-0.512,26.081c-0.017,0.865,0.305,1.684,0.905,2.308s1.407,0.977,2.271,0.994l26.081,0.512c0.917-0.001,1.686-0.303,2.308-0.905
		c0.624-0.6,0.977-1.407,0.994-2.271L488.407,334.539z M319.688,227.797l0.512-26.082c0.062-3.192,1.364-6.168,3.665-8.381
		c2.3-2.209,5.358-3.434,8.516-3.332l26.081,0.51c3.192,0.062,6.168,1.364,8.381,3.665c2.212,2.301,3.396,5.326,3.332,8.516
		l-0.51,26.081c-0.062,3.192-1.364,6.168-3.665,8.381c-2.243,2.155-5.174,3.335-8.276,3.335c-0.079,0-0.16,0-0.24-0.003
		l-26.081-0.51C324.815,239.847,319.56,234.384,319.688,227.797z M328.396,227.965c-0.034,1.785,1.391,3.267,3.176,3.302
		l26.081,0.51c0.961,0.004,1.686-0.303,2.308-0.905c0.624-0.598,0.977-1.405,0.994-2.27l0.51-26.081
		c0.017-0.865-0.305-1.684-0.905-2.308c-0.598-0.624-1.405-0.977-2.27-0.994l-26.081-0.51c-0.021,0-0.044,0-0.065,0
		c-0.841,0-1.635,0.319-2.243,0.905c-0.624,0.598-0.977,1.405-0.994,2.27L328.396,227.965z M369.257,345.25
		c-0.286,14.634-12.283,26.341-26.855,26.341c-0.179,0-0.356-0.001-0.535-0.006c-14.813-0.291-26.626-12.577-26.336-27.389
		c0.289-14.813,12.677-26.72,27.388-26.336C357.731,318.151,369.546,330.437,369.257,345.25z M360.548,345.08
		c0.194-10.01-7.79-18.313-17.799-18.51c-0.122-0.001-0.244-0.003-0.366-0.003c-4.714,0-9.167,1.792-12.574,5.069
		c-3.496,3.36-5.473,7.882-5.569,12.731c-0.196,10.01,7.788,18.313,17.797,18.51c4.842,0.03,9.444-1.704,12.941-5.066
		C358.475,354.449,360.452,349.927,360.548,345.08z M447.548,217.256c0.291-14.813,12.676-26.682,27.389-26.337
		c14.813,0.291,26.626,12.577,26.336,27.389c-0.286,14.634-12.283,26.341-26.855,26.341c-0.179,0-0.356-0.001-0.535-0.006
		C459.071,244.353,447.257,232.067,447.548,217.256z M456.257,217.425c-0.196,10.01,7.788,18.313,17.797,18.51
		c10,0.058,18.313-7.791,18.51-17.797c0.095-4.849-1.704-9.445-5.066-12.941c-3.362-3.496-7.883-5.473-12.731-5.569
		c-0.121-0.001-0.242-0.003-0.362-0.003C464.557,199.625,456.451,207.537,456.257,217.425z"/>
</g>
</svg>
