<svg xmlns="http://www.w3.org/2000/svg" xmlns:xlink="http://www.w3.org/1999/xlink" width="64" height="64" viewBox="0 0 64 64">
  <defs>
    <style>
      .cls-1 {
        fill: url(#linear-gradient);
      }

      .cls-2 {
        fill: #fff;
      }
    </style>
    <linearGradient id="linear-gradient" x1="0.5" x2="0.5" y2="1" gradientUnits="objectBoundingBox">
      <stop offset="0" stop-color="#1a98ff"/>
      <stop offset="1" stop-color="#002c8f"/>
    </linearGradient>
  </defs>
  <g id="Group_1927" data-name="Group 1927" transform="translate(-775 -1344)">
    <circle id="Ellipse_468" data-name="Ellipse 468" class="cls-1" cx="32" cy="32" r="32" transform="translate(775 1344)"/>
    <path id="Path_2676" data-name="Path 2676" class="cls-2" d="M50.761,31.1V28.968C50.761,21.1,43.5,14.7,34.579,14.7S18.4,21.1,18.4,28.968v2.156a4.292,4.292,0,0,0-3.8,4.257v5.605a4.292,4.292,0,0,0,4.287,4.287h.352a4.292,4.292,0,0,0,4.287-4.287V35.381a4.291,4.291,0,0,0-3.319-4.173v-2.24c0-6.871,6.447-12.461,14.371-12.461S48.95,22.1,48.95,28.968v2.338a4.293,4.293,0,0,0-2.962,4.075v5.605a4.291,4.291,0,0,0,3.56,4.221v1.77c0,2.779-2.876,5.039-6.423,5.063l-5.873-.091A2.345,2.345,0,0,0,34.991,50.2H31.732a2.348,2.348,0,1,0,0,4.7h3.259a2.341,2.341,0,0,0,2-1.138l6.077.094v.014c.081,0,.159-.008.24-.01l.666.01v-.043c4.151-.376,7.392-3.3,7.392-6.844V45.205a4.291,4.291,0,0,0,3.545-4.219V35.381A4.29,4.29,0,0,0,50.761,31.1ZM21.716,35.381v5.605a2.48,2.48,0,0,1-2.477,2.477h-.352a2.479,2.479,0,0,1-2.477-2.477V35.381A2.479,2.479,0,0,1,18.887,32.9h.352A2.48,2.48,0,0,1,21.716,35.381Zm13.275,17.7H31.732a.537.537,0,1,1,0-1.075h3.259a.537.537,0,0,1,0,1.075ZM53.1,40.987a2.479,2.479,0,0,1-2.477,2.477h-.352A2.48,2.48,0,0,1,47.8,40.987V35.381A2.48,2.48,0,0,1,50.275,32.9h.352A2.479,2.479,0,0,1,53.1,35.381Z" transform="translate(772.4 1341.303)"/>
  </g>
</svg>
