<?xml version="1.0" encoding="utf-8"?>
<!-- Generator: Adobe Illustrator 25.0.0, SVG Export Plug-In . SVG Version: 6.00 Build 0)  -->
<svg version="1.1" id="Layer_1" xmlns="http://www.w3.org/2000/svg" xmlns:xlink="http://www.w3.org/1999/xlink" x="0px" y="0px"
	 viewBox="0 0 899.635 442.546" style="enable-background:new 0 0 899.635 442.546;" xml:space="preserve">
<style type="text/css">
	.st0{fill:url(#Subtraction_48_8_);}
	.st1{fill:#2BD4EE;}
	.st2{fill:url(#blob_3_);}
	.st3{fill:none;}
	.st4{opacity:0.5;fill:#FFFFFF;}
	.st5{fill:#002C8F;}
	.st6{fill:url(#Subtraction_48_9_);}
	.st7{fill:url(#Subtraction_48_10_);}
	.st8{fill:url(#Subtraction_48_11_);}
	.st9{fill:url(#Subtraction_48_12_);}
	.st10{fill:url(#Subtraction_48_13_);}
	.st11{fill:url(#Subtraction_48_14_);}
</style>
<linearGradient id="Subtraction_48_8_" gradientUnits="userSpaceOnUse" x1="-414.8089" y1="605.6339" x2="-414.8089" y2="604.6339" gradientTransform="matrix(899.6168 0 0 -442.539 373618.875 268016.6562)">
	<stop  offset="0" style="stop-color:#F98700"/>
	<stop  offset="1" style="stop-color:#EEA908"/>
</linearGradient>
<path id="Subtraction_48_4_" class="st0" d="M392.479,442.546c-4.538,0.003-9.074-0.234-13.587-0.711
	c-6.868-0.748-13.667-2.037-20.332-3.854c-6.869-1.882-13.607-4.213-20.171-6.979c-14.119-6.078-27.656-13.428-40.444-21.958
	c-27.2-17.735-55.462-41.318-85.38-66.286c-12.385-10.336-25.188-21.02-38.479-31.769c-9.871-7.86-20.2-15.9-30.185-23.683
	c-17.52-13.647-35.635-27.757-52.475-41.781c-9.073-7.556-17.031-14.46-24.329-21.1c-8.2-7.469-15.357-14.415-21.874-21.234
	c-6.541-6.794-12.727-13.921-18.533-21.353c-5.306-6.78-10.089-13.955-14.306-21.461c-3.841-6.83-6.923-14.059-9.191-21.559
	c-2.106-7.023-3.181-14.315-3.191-21.647c0.044-4.922,0.58-9.828,1.6-14.643c1.067-4.999,2.551-9.9,4.436-14.651
	c2.001-5.035,4.336-9.932,6.989-14.656c2.832-5.042,5.922-9.933,9.259-14.656c7.372-10.32,15.459-20.111,24.2-29.3
	c8.485-9.061,18.262-18.631,29.89-29.258H879.19c7.324,18.419,12.754,37.535,16.206,57.053c3.426,19.156,4.774,38.626,4.02,58.071
	c-0.693,18.763-3.747,37.363-9.091,55.362c-5.156,17.398-12.956,33.899-23.128,48.926c-5.109,7.373-10.793,14.331-17,20.807
	c-6.349,6.612-13.123,12.802-20.278,18.531c-7.398,5.918-15.095,11.451-23.061,16.578c-7.752,5.013-16.274,10.035-25.329,14.928
	c-35.058,18.94-75.1,34.416-113.828,49.382c-19.282,7.455-39.224,15.155-57.855,23.055c-24.09,10.127-46.54,20.695-68.251,30.915
	C485.819,419.868,437.64,442.545,392.479,442.546z"/>
<g>
	<g>
		<path class="st3" d="M292.227,214.082l113.845,197.186c5.653,0.508,11.166,0.546,16.489-0.083L297.687,194.897
			C295.245,200.979,293.485,207.456,292.227,214.082z"/>
		<path class="st3" d="M298.689,363.839l7.414,12.842c6.341,7.339,15.496,12.387,25.984,16.364l-39.292-68.056
			C293.326,338.728,294.41,352.542,298.689,363.839z"/>
		<path class="st3" d="M305.716,180.08c-2.55,3.537-4.712,7.358-6.55,11.379l126.594,219.268c1.907-0.33,3.789-0.754,5.64-1.282
			c2.841-0.812,5.611-1.883,8.333-3.158l-132.069-228.75C306.994,178.37,306.34,179.214,305.716,180.08z"/>
		<path class="st3" d="M289.378,243.79l94.508,163.693c6.269,1.442,12.453,2.651,18.494,3.391l-110.949-192.17
			C290.134,227.081,289.563,235.603,289.378,243.79z"/>
		<path class="st3" d="M292.305,310.178c0.101,2.774,0.183,5.594,0.272,8.434l43.882,76.006c6.354,2.177,13.093,4.047,19.917,5.856
			l-65.295-113.095C291.563,294.77,292.03,302.285,292.305,310.178z"/>
		<path class="st3" d="M290.64,280.615l69.822,120.935c1.321,0.346,2.643,0.693,3.964,1.04c5.175,1.346,10.336,2.704,15.45,3.945
			l-90.539-156.818C289.391,260.362,289.98,270.442,290.64,280.615z"/>
		<path class="st3" d="M411.196,143.014l113.613,196.783c3.765-3.777,7.068-7.704,9.686-11.866L428.6,144.517
			C422.741,143.818,416.94,143.303,411.196,143.014z"/>
		<path class="st3" d="M372.281,144.893l125.401,217.201c3.85-2.929,7.718-5.836,11.473-8.77L387.809,143.147
			C382.589,143.493,377.415,144.074,372.281,144.893z"/>
		<path class="st3" d="M309.719,175.097l132.708,229.857c4.107-2.152,8.117-4.761,12.102-7.68L320.557,165.228
			C316.575,168.199,312.932,171.485,309.719,175.097z"/>
		<path class="st3" d="M391.167,142.965l120.367,208.482c3.895-3.102,7.632-6.246,11.057-9.49L407.647,142.867
			C402.103,142.677,396.611,142.705,391.167,142.965z"/>
		<path class="st3" d="M365.56,146.098c-3.694,0.782-7.366,1.706-10.982,2.773l129.356,224.052c1.241-1.021,2.495-2.037,3.765-3.046
			c2.479-2.007,5.019-3.985,7.579-5.947L369.123,145.424C367.934,145.639,366.745,145.856,365.56,146.098z"/>
		<path class="st3" d="M440.366,146.146c-2.691-0.426-5.366-0.808-8.032-1.161l103.901,179.962c0.926-1.738,1.731-3.517,2.395-5.346
			c1.677-4.554,2.479-9.418,2.665-14.531l-90.766-157.212C447.142,147.227,443.745,146.661,440.366,146.146z"/>
		<path class="st3" d="M502.728,168.988c-6.8-5.946-15.237-10.409-24.525-13.836l52.899,91.624
			c-3.312-15.48-5.525-31.331-9.645-45.348L502.728,168.988z"/>
		<path class="st3" d="M338.105,154.981l132.407,229.336c3.615-3.099,7.291-6.283,11.08-9.451L351.637,149.778
			C346.993,151.264,342.458,152.995,338.105,154.981z"/>
		<path class="st3" d="M323.008,163.474l133.938,231.988c3.735-2.851,7.463-5.945,11.245-9.164L335.382,156.263
			C331.025,158.396,326.878,160.799,323.008,163.474z"/>
		<path class="st3" d="M454.431,148.618l86.814,150.366c-0.65-13.044-4.509-27.479-7.987-42.475l-59.39-102.866
			C467.625,151.597,461.071,149.966,454.431,148.618z"/>
		<path class="st4" d="M428.6,144.517l105.894,183.415c0.618-0.982,1.203-1.975,1.741-2.984L432.334,144.986
			C431.087,144.821,429.842,144.665,428.6,144.517z"/>
		<path class="st4" d="M508.215,174.538c-1.676-1.985-3.516-3.826-5.487-5.55l18.729,32.44
			C518.451,191.2,514.43,181.948,508.215,174.538z"/>
		<path class="st4" d="M297.687,194.897L422.56,411.185c1.074-0.127,2.141-0.275,3.199-0.458L299.165,191.459
			C298.648,192.59,298.153,193.735,297.687,194.897z"/>
		<path class="st4" d="M304.404,374.584c0.539,0.722,1.111,1.416,1.7,2.097l-7.414-12.842
			C300.174,367.759,302.037,371.381,304.404,374.584z"/>
		<path class="st4" d="M473.868,153.643l59.39,102.866c-0.702-3.026-1.389-6.074-2.03-9.14c-0.043-0.198-0.083-0.396-0.126-0.594
			l-52.899-91.624C476.777,154.625,475.332,154.122,473.868,153.643z"/>
		<path class="st4" d="M291.081,287.379l65.295,113.095c1.359,0.36,2.721,0.719,4.085,1.076L290.64,280.615
			C290.786,282.862,290.934,285.116,291.081,287.379z"/>
		<path class="st4" d="M450.529,147.858l90.766,157.212c0.073-1.992,0.053-4.021-0.05-6.086l-86.814-150.366
			C453.133,148.354,451.832,148.101,450.529,147.858z"/>
		<path class="st4" d="M289.342,245.651c-0.011,1.365-0.012,2.719-0.005,4.065l90.539,156.818c1.34,0.325,2.677,0.641,4.011,0.948
			L289.378,243.79C289.364,244.412,289.352,245.033,289.342,245.651z"/>
		<path class="st4" d="M292.795,324.989l39.292,68.056c1.433,0.543,2.893,1.066,4.372,1.573l-43.882-76.006
			C292.643,320.729,292.713,322.858,292.795,324.989z"/>
		<path class="st4" d="M320.557,165.228l133.972,232.047c0.807-0.591,1.613-1.196,2.418-1.811L323.008,163.474
			C322.18,164.048,321.359,164.629,320.557,165.228z"/>
		<path class="st4" d="M307.664,177.537l132.069,228.75c0.903-0.423,1.802-0.865,2.694-1.332L309.719,175.097
			C309.011,175.893,308.329,176.709,307.664,177.537z"/>
		<path class="st4" d="M335.382,156.263l132.811,230.035c0.77-0.656,1.544-1.317,2.319-1.982L338.105,154.981
			C337.189,155.398,336.28,155.823,335.382,156.263z"/>
		<path class="st4" d="M369.123,145.424l126.154,218.505c0.8-0.613,1.602-1.224,2.404-1.835L372.281,144.893
			C371.227,145.061,370.174,145.235,369.123,145.424z"/>
		<path class="st4" d="M387.809,143.147l121.345,210.177c0.799-0.624,1.592-1.25,2.38-1.878L391.167,142.965
			C390.046,143.018,388.926,143.074,387.809,143.147z"/>
		<path class="st4" d="M407.647,142.867l114.944,199.089c0.755-0.715,1.495-1.434,2.217-2.159L411.196,143.014
			C410.01,142.955,408.828,142.908,407.647,142.867z"/>
		<path class="st4" d="M291.432,218.704l110.949,192.17c1.237,0.152,2.467,0.284,3.691,0.394L292.227,214.082
			C291.935,215.615,291.671,217.157,291.432,218.704z"/>
		<path class="st4" d="M351.637,149.778l129.954,225.088c0.776-0.649,1.555-1.297,2.342-1.944L354.577,148.871
			C353.593,149.162,352.613,149.466,351.637,149.778z"/>
	</g>
	<path class="st5" d="M512.798,212.505c-0.414-1.51-1.608-2.681-3.126-3.067l-21.46-5.457l-5.456-21.458
		c-0.386-1.519-1.557-2.712-3.067-3.126c-1.51-0.418-3.125,0.013-4.234,1.12l-27.382,27.382c-1.086,1.086-1.52,2.664-1.141,4.153
		l5.483,21.567l-2.586,2.586c-14.628-13.141-33.332-20.335-53.147-20.335c-39.686,0-73.615,29.614-78.919,68.883
		c-0.322,2.383,1.348,4.577,3.733,4.899c0.197,0.027,0.394,0.04,0.588,0.04c2.147,0,4.015-1.587,4.31-3.773
		c4.724-34.968,34.941-61.338,70.287-61.338c17.486,0,33.997,6.298,46.973,17.798l-34.154,34.155
		c-3.756-2.548-8.18-3.924-12.819-3.924c-12.628,0-22.9,10.273-22.9,22.9s10.273,22.9,22.9,22.9c11.76,0,21.552-8.809,22.775-20.491
		c0.251-2.392-1.484-4.534-3.878-4.785c-2.392-0.264-4.534,1.486-4.785,3.878c-0.759,7.233-6.826,12.687-14.112,12.687
		c-7.824,0-14.189-6.365-14.189-14.189c0-7.824,6.365-14.189,14.189-14.189c2.281,0,4.453,0.594,6.427,1.604l-8.085,8.086
		c-1.701,1.7-1.701,4.459,0,6.159c0.851,0.851,1.965,1.276,3.08,1.276c1.114,0,2.229-0.425,3.08-1.276l11.693-11.693
		c0,0,0,0,0.001,0s0,0,0-0.001l16.639-16.639c6.132,7.52,9.472,16.839,9.472,26.673c0,23.327-18.978,42.305-42.305,42.305
		c-23.327,0-42.304-18.978-42.304-42.305c0-23.327,18.977-42.304,42.304-42.304c6.368,0,12.487,1.378,18.187,4.096
		c0.342,0.163,0.681,0.33,1.017,0.502c2.142,1.097,4.767,0.245,5.862-1.894c1.096-2.142,0.247-4.766-1.894-5.862
		c-0.407-0.208-0.817-0.41-1.232-0.608c-6.882-3.281-14.264-4.946-21.939-4.946c-28.129,0-51.015,22.886-51.015,51.015
		c0,28.131,22.886,51.017,51.015,51.017c28.131,0,51.017-22.886,51.017-51.017c0-12.162-4.253-23.657-12.014-32.843l17.31-17.31
		c0.001-0.001,0.002-0.001,0.002-0.002c0.001-0.001,0.001-0.002,0.002-0.002l5.575-5.575l21.569,5.484
		c0.356,0.091,0.716,0.135,1.073,0.135c1.14,0,2.253-0.449,3.08-1.276l27.382-27.382
		C512.785,215.632,513.214,214.015,512.798,212.505z M455.985,212.307l20.216-20.216l3.596,14.146l-20.216,20.216L455.985,212.307z
		 M479.888,236.209l-14.148-3.597l20.217-20.217l14.147,3.598L479.888,236.209z M462.721,250.979
		c8.899,13.174,13.603,28.572,13.603,44.531c0,43.915-35.728,79.642-79.642,79.642c-39.686,0-73.615-29.614-78.919-68.884
		c-0.322-2.383,1.348-4.577,3.733-4.899c2.388-0.322,4.577,1.35,4.899,3.733c4.724,34.968,34.941,61.338,70.287,61.338
		c39.111,0,70.931-31.82,70.931-70.931c0-14.214-4.188-27.927-12.112-39.654c-1.346-1.994-0.822-4.702,1.171-6.049
		C458.666,248.463,461.373,248.987,462.721,250.979z"/>
</g>
</svg>
