<svg xmlns="http://www.w3.org/2000/svg" xmlns:xlink="http://www.w3.org/1999/xlink" width="30.155" height="30.516" viewBox="0 0 30.155 30.516">
  <defs>
    <style>
      .cls-1 {
        fill: url(#linear-gradient);
      }
    </style>
    <linearGradient id="linear-gradient" x1="0.5" y1="1" x2="0.5" y2="0.038" gradientUnits="objectBoundingBox">
      <stop offset="0" stop-color="#2bd4ee"/>
      <stop offset="1" stop-color="#1a98ff"/>
    </linearGradient>
  </defs>
  <path id="Path_2753" data-name="Path 2753" class="cls-1" d="M388.065,724.768l0,0-5.664-5.661a13.107,13.107,0,1,0-3.539,3.4l5.726,5.728a2.454,2.454,0,0,0,3.472-3.47Zm-16.316-5.044a8.179,8.179,0,1,1,8.179-8.18A8.191,8.191,0,0,1,371.749,719.724Zm4.162-9.716h-2.579v-2.613a1.554,1.554,0,0,0-1.482-1.482,1.53,1.53,0,0,0-1.111.409,1.552,1.552,0,0,0-.5,1.105v2.581h-2.668a1.547,1.547,0,0,0,.086,3.091l2.583,0v2.609a1.553,1.553,0,0,0,1.482,1.481h.064a1.555,1.555,0,0,0,1.545-1.513v-2.581h2.624a1.544,1.544,0,0,0-.045-3.085Zm-8.254,2.327Z" transform="translate(-358.608 -698.42)"/>
</svg>
