<?xml version="1.0" encoding="utf-8"?>
<!-- Generator: Adobe Illustrator 16.0.0, SVG Export Plug-In . SVG Version: 6.00 Build 0)  -->
<!DOCTYPE svg PUBLIC "-//W3C//DTD SVG 1.1//EN" "http://www.w3.org/Graphics/SVG/1.1/DTD/svg11.dtd">
<svg version="1.1" id="Layer_1" xmlns="http://www.w3.org/2000/svg" xmlns:xlink="http://www.w3.org/1999/xlink" x="0px" y="0px"
	 width="130px" height="130px" viewBox="0 0 130 130" enable-background="new 0 0 130 130" xml:space="preserve">
<path fill="#01A79D" d="M64.505,45.388c-10.825,0-19.724,8.884-19.724,19.734c0,10.85,8.899,19.724,19.724,19.724
	c10.858,0,19.758-8.874,19.758-19.724C84.263,54.271,75.363,45.388,64.505,45.388 M64.505,80.843L64.505,80.843
	c-8.66,0-15.704-7.062-15.704-15.721c0-8.66,7.044-15.721,15.704-15.721c8.66,0,15.737,7.061,15.737,15.721
	C80.242,73.781,73.165,80.843,64.505,80.843 M107.596,63.644L107.596,63.644C99.52,47.348,82.683,36.866,64.505,36.866
	S29.488,47.348,21.448,63.644c-0.447,0.895-0.48,1.984,0,2.956c8.04,16.288,24.879,26.777,43.057,26.777S99.52,82.888,107.596,66.6
	C108.043,65.697,108.076,64.605,107.596,63.644 M64.505,86.692L64.505,86.692c-15.051,0-29.105-8.342-36.322-21.57
	C35.4,51.893,49.454,43.55,64.505,43.55c15.085,0,29.139,8.343,36.355,21.572C93.644,78.352,79.59,86.692,64.505,86.692
	 M72.029,62.004L72.029,62.004c-1.236-3.042-4.262-5.035-7.524-5.035c-1.101,0-1.993,0.893-1.993,2.002
	c0,1.108,0.893,2.011,1.993,2.011c1.685,0,3.194,1.004,3.848,2.552l0.035,0.059c0.171,0.465,0.275,0.98,0.275,1.53
	c0,1.656-0.996,3.194-2.543,3.832l-0.068,0.032c-0.998,0.379-2.131,0.36-3.129-0.032c-1.546-0.646-2.542-2.176-2.542-3.832
	c0-1.109-0.894-2.003-2.027-2.003c-1.099,0-1.993,0.894-1.993,2.003c0,2.139,0.859,4.243,2.405,5.756
	c0.721,0.746,1.615,1.348,2.646,1.77c1.958,0.808,4.158,0.824,6.116,0.034l0.104-0.034c0.995-0.422,1.89-1.022,2.646-1.77
	c1.512-1.513,2.371-3.617,2.371-5.756c0-1.05-0.173-2.062-0.551-3.017L72.029,62.004z"/>
</svg>
