<?xml version="1.0" encoding="UTF-8"?>
<svg width="133px" height="143px" viewBox="0 0 133 143" version="1.1" xmlns="http://www.w3.org/2000/svg" xmlns:xlink="http://www.w3.org/1999/xlink">
    <!-- Generator: Sketch 58 (84663) - https://sketch.com -->
    <title>Icon - smarter IT</title>
    <desc>Created with Sketch.</desc>
    <g id="Page-1" stroke="none" stroke-width="1" fill="none" fill-rule="evenodd" stroke-linecap="round" stroke-linejoin="round">
        <g id="BMC-Helix-Option-3A-V3" transform="translate(-253.000000, -1690.000000)">
            <g id="Inro-Bmc-Helix" transform="translate(0.000000, 1292.000000)">
                <g id="Group-18" transform="translate(132.000000, 286.000000)">
                    <g id="Icon---smarter-IT" transform="translate(125.005236, 116.000000)">
                        <path d="M62.2518508,134.956356 C36.6032371,135.724356 38.2262558,118.036357 38.2262558,118.036357 C-0.873740181,104.188358 8.10204505,76.1323597 8.10204505,76.1323597 C-18.358078,33.4603622 28.4635524,18.0763631 28.4635524,18.0763631 C40.2673247,-0.763635743 62.2518508,0.00436421122 62.2518508,0.00436421122 L62.2518508,134.956356 Z" id="Path" stroke="#414042" stroke-width="7.19999957"></path>
                        <path d="M62.276442,134.956356 C87.9250557,135.724356 86.302037,118.036357 86.302037,118.036357 C125.402033,104.188358 116.426248,76.1323597 116.426248,76.1323597 C142.886371,33.4603622 96.0647404,18.0763631 96.0647404,18.0763631 C84.260968,-0.763635743 62.276442,0.00436421122 62.276442,0.00436421122 L62.276442,134.956356 Z" id="Path" stroke="#414042" stroke-width="7.19999957"></path>
                        <path d="M63.0633601,51.5563611 C63.0633601,51.5563611 83.8183265,55.0123609 88.3185147,40.4203618" id="Path" stroke="#FFFFFF" stroke-width="7.19999957"></path>
                        <path d="M81.3837985,25.3963627 C81.3837985,25.3963627 86.2774458,16.1803632 96.4581994,18.1003631" id="Path" stroke="#414042" stroke-width="7.19999957"></path>
                        <path d="M62.915813,79.2283595 C62.915813,79.2283595 80.0066917,75.0043597 86.1298986,85.3723591" id="Path" stroke="#FFFFFF" stroke-width="7.19999957"></path>
                        <path d="M97.2697088,49.6363613 C97.2697088,49.6363613 103.786375,60.3883606 95.6466901,69.2443601" id="Path" stroke="#414042" stroke-width="7.19999957"></path>
                        <path d="M116.770524,75.8443597 C116.770524,75.8443597 114.999959,63.7243604 99.9255576,62.1883605" id="Path" stroke="#414042" stroke-width="7.19999957"></path>
                        <path d="M77.7197108,104.596358 C77.7197108,104.596358 88.7119738,107.668358 94.8105895,97.6843584" id="Path" stroke="#414042" stroke-width="7.19999957"></path>
                        <path d="M87.0397727,104.620358 L85.9577603,120.748357" id="Path" stroke="#F98700" stroke-width="5.99999964"></path>
                        <path d="M87.0397727,104.620358 L85.9577603,120.748357" id="Path" stroke="#FFFFFF" stroke-width="4.79999971"></path>
                        <ellipse id="Oval" stroke="#414042" stroke-width="5.99999964" cx="45.5544311" cy="27.3643626" rx="6.36911884" ry="6.02399964"></ellipse>
                        <ellipse id="Oval" stroke="#414042" stroke-width="5.99999964" cx="23.3485844" cy="46.9963614" rx="6.36911884" ry="6.02399964"></ellipse>
                        <ellipse id="Oval" stroke="#414042" stroke-width="5.99999964" cx="45.7757518" cy="78.6523595" rx="6.36911884" ry="6.02399964"></ellipse>
                        <ellipse id="Oval" stroke="#414042" stroke-width="5.99999964" cx="38.4475765" cy="102.940358" rx="6.36911884" ry="6.02399964"></ellipse>
                        <polyline id="Path" stroke="#D6F0F5" stroke-width="5.99999964" points="61.2927943 40.9243618 45.923299 40.9243618 45.923299 33.3883622"></polyline>
                        <polyline id="Path" stroke="#D6F0F5" stroke-width="5.99999964" points="61.514115 60.9883606 24.455188 60.9883606 24.455188 53.0203611"></polyline>
                        <path d="M45.7757518,72.6283599 L45.7757518,61.6603605" id="Path" stroke="#D6F0F5" stroke-width="5.99999964"></path>
                        <path d="M8.07745386,76.1563597 L19.9549998,76.1563597" id="Path" stroke="#414042" stroke-width="5.99999964"></path>
                        <path d="M38.2262558,118.060357 L38.4237405,108.5" id="Path" stroke="#D6F0F5" stroke-width="5.99999964"></path>
                        <path d="M62.2518508,134.956356 C36.6032371,135.724356 38.2262558,118.036357 38.2262558,118.036357 C-0.873740181,104.188358 8.10204505,76.1323597 8.10204505,76.1323597 C-18.358078,33.4603622 28.4635524,18.0763631 28.4635524,18.0763631 C40.2673247,-0.763635743 62.2518508,0.00436421122 62.2518508,0.00436421122 L62.2518508,134.956356 Z" id="Path" stroke="#FFFFFF" stroke-width="7.19999957"></path>
                        <path d="M62.276442,134.956356 C87.9250557,135.724356 86.302037,118.036357 86.302037,118.036357 C125.402033,104.188358 116.426248,76.1323597 116.426248,76.1323597 C142.886371,33.4603622 96.0647404,18.0763631 96.0647404,18.0763631 C84.260968,-0.763635743 62.276442,0.00436421122 62.276442,0.00436421122 L62.276442,134.956356 Z" id="Path" stroke="#FFFFFF" stroke-width="7.19999957"></path>
                        <path d="M81.3837985,25.3963627 C81.3837985,25.3963627 86.2774458,16.1803632 96.4581994,18.1003631" id="Path" stroke="#FFFFFF" stroke-width="7.19999957"></path>
                        <path d="M97.2697088,49.6363613 C97.2697088,49.6363613 103.786375,60.3883606 95.6466901,69.2443601" id="Path" stroke="#FFFFFF" stroke-width="7.19999957"></path>
                        <path d="M116.770524,75.8443597 C116.770524,75.8443597 114.999959,63.7243604 99.9255576,62.1883605" id="Path" stroke="#FFFFFF" stroke-width="7.19999957"></path>
                        <path d="M77.7197108,104.596358 C77.7197108,104.596358 88.7119738,107.668358 94.8105895,97.6843584" id="Path" stroke="#FFFFFF" stroke-width="7.19999957"></path>
                        <ellipse id="Oval" stroke="#FFFFFF" stroke-width="5.99999964" cx="45.5544311" cy="27.3643626" rx="6.36911884" ry="6.02399964"></ellipse>
                        <ellipse id="Oval" stroke="#FFFFFF" stroke-width="5.99999964" cx="23.3485844" cy="46.9963614" rx="6.36911884" ry="6.02399964"></ellipse>
                        <ellipse id="Oval" stroke="#FFFFFF" stroke-width="5.99999964" cx="45.7757518" cy="78.6523595" rx="6.36911884" ry="6.02399964"></ellipse>
                        <ellipse id="Oval" stroke="#FFFFFF" stroke-width="5.99999964" cx="38.4475765" cy="102.940358" rx="6.36911884" ry="6.02399964"></ellipse>
                        <path d="M8.07745386,76.1563597 L19.9549998,76.1563597" id="Path" stroke="#FFFFFF" stroke-width="5.99999964"></path>
                    </g>
                </g>
            </g>
        </g>
    </g>
</svg>