<?xml version="1.0" encoding="utf-8"?>
<!-- Generator: Adobe Illustrator 19.1.0, SVG Export Plug-In . SVG Version: 6.00 Build 0)  -->
<!DOCTYPE svg PUBLIC "-//W3C//DTD SVG 1.1//EN" "http://www.w3.org/Graphics/SVG/1.1/DTD/svg11.dtd">
<svg version="1.1" id="Layer_1" xmlns="http://www.w3.org/2000/svg" xmlns:xlink="http://www.w3.org/1999/xlink" x="0px" y="0px"
	 width="44.6px" height="37.1px" viewBox="0 0 44.6 37.1" style="enable-background:new 0 0 44.6 37.1;" xml:space="preserve">
<style type="text/css">
	.st0{fill:#FFFFFF;}
</style>
<g>
	<g>
		<path class="st0" d="M39.4,4.5H4.5C3.1,4.5,2,5.6,2,6.9v0c0,1.3,1.2,2.4,2.6,2.4h34.9C40.8,9.3,42,8.3,42,7v0
			C42,5.6,40.8,4.5,39.4,4.5z M39.4,16.2H4.5c-1.4,0-2.6,1.1-2.6,2.4v0c0,1.3,1.2,2.4,2.6,2.4h34.9c1.4,0,2.6-1.1,2.6-2.4v0
			C42,17.2,40.8,16.2,39.4,16.2z M39.4,27.8H4.5c-1.4,0-2.6,1.1-2.6,2.4v0c0,1.3,1.2,2.4,2.6,2.4h34.9c1.4,0,2.6-1.1,2.6-2.4v0
			C42,28.8,40.8,27.8,39.4,27.8z"/>
	</g>
</g>
</svg>
