<?xml version="1.0" encoding="utf-8"?>
<!-- Generator: Adobe Illustrator 19.1.0, SVG Export Plug-In . SVG Version: 6.00 Build 0)  -->
<!DOCTYPE svg PUBLIC "-//W3C//DTD SVG 1.1//EN" "http://www.w3.org/Graphics/SVG/1.1/DTD/svg11.dtd">
<svg version="1.1" id="Layer_1" xmlns="http://www.w3.org/2000/svg" xmlns:xlink="http://www.w3.org/1999/xlink" x="0px" y="0px"
	 width="44.6px" height="37.1px" viewBox="0 0 44.6 37.1" style="enable-background:new 0 0 44.6 37.1;" xml:space="preserve">
<style type="text/css">
	.st0{fill:#FFFFFF;}
</style>
<g>
	<g>
		<path class="st0" d="M36.8,5L36.8,5c-1-1-2.5-0.9-3.5,0.1L8.7,29.8c-1,1-1.1,2.6-0.1,3.5l0,0c0.9,0.9,2.5,0.9,3.5-0.1L36.7,8.5
			C37.7,7.5,37.8,5.9,36.8,5z"/>
	</g>
</g>
<path class="st0" d="M33.3,33.2L8.7,8.5c-1-1-1.1-2.6-0.1-3.5l0,0c0.9-0.9,2.5-0.9,3.5,0.1l24.6,24.6c1,1,1.1,2.6,0.1,3.5l0,0
	C35.9,34.2,34.3,34.2,33.3,33.2z"/>
</svg>
