<?xml version="1.0" encoding="utf-8"?>
<!-- Generator: Adobe Illustrator 16.0.0, SVG Export Plug-In . SVG Version: 6.00 Build 0)  -->
<!DOCTYPE svg PUBLIC "-//W3C//DTD SVG 1.1//EN" "http://www.w3.org/Graphics/SVG/1.1/DTD/svg11.dtd">
<svg version="1.1" id="Layer_1" xmlns="http://www.w3.org/2000/svg" xmlns:xlink="http://www.w3.org/1999/xlink" x="0px" y="0px"
	 width="130px" height="130px" viewBox="0 0 130 130" enable-background="new 0 0 130 130" xml:space="preserve">
<path fill="#F37021" d="M59.303,68.762c3.935-1.276,8.38-1.295,12.315,0c3.62-6.071,10.259-9.938,17.432-9.938
	c6.614,0,12.815,3.289,16.575,8.624h1.462l-6.911-23.896c-0.604-2.081-1.338-4.425-2.501-6.14c-0.997-1.435-2.414-2.466-4.557-2.466
	c-2.013,0-3.893,1.259-5.3,3.289c-1.559,2.221-2.521,5.37-2.521,8.851c0,1.138-0.91,2.048-2.039,2.048
	c-1.128,0-2.037-0.91-2.037-2.048c0-4.339,1.25-8.291,3.254-11.195c2.16-3.098,5.205-5.021,8.643-5.021
	c3.743,0,6.202,1.769,7.896,4.233c1.532,2.205,2.361,4.917,3.062,7.313l7.724,26.713c0.313,0.507,0.48,1.084,0.48,1.715
	c0,1.872-1.53,3.41-3.402,3.41h-0.139c0.383,1.538,0.585,3.167,0.585,4.846c0,5.58-2.267,10.652-5.949,14.327h0.019
	c-3.664,3.674-8.746,5.946-14.346,5.946c-11.142,0-20.273-9.13-20.273-20.273c0-1.364,0.14-2.693,0.403-3.988
	c-2.197-0.596-5.277-0.596-7.437,0c0.254,1.295,0.385,2.624,0.385,3.988c0,11.16-9.115,20.273-20.266,20.273
	c-5.598,0-10.664-2.272-14.345-5.946l-0.175-0.191c-4.864-4.987-6.84-12.264-5.17-18.98H22.04c-1.881,0-3.393-1.538-3.393-3.41
	c0-0.893,0.35-1.698,0.908-2.327l7.567-26.101c0.692-2.396,1.523-5.108,3.053-7.313c1.714-2.465,4.147-4.233,7.889-4.233
	c3.437,0,6.49,1.924,8.659,5.021c1.996,2.904,3.237,6.856,3.237,11.195c0,1.138-0.901,2.048-2.03,2.048
	c-1.128,0-2.045-0.91-2.045-2.048c0-3.48-0.955-6.63-2.521-8.851c-1.399-2.03-3.28-3.289-5.3-3.289
	c-2.143,0-3.551,1.031-4.549,2.466c-1.162,1.715-1.897,4.059-2.5,6.14l-6.911,23.896h1.182c3.76-5.335,9.962-8.624,16.575-8.624
	c5.598,0,10.671,2.274,14.335,5.948C57.388,65.961,58.436,67.309,59.303,68.762 M30.22,72.276L30.22,72.276
	c-0.062,0.156-0.132,0.297-0.227,0.438c-2.757,5.089-1.89,11.579,2.176,15.76l0.167,0.142c2.44,2.449,5.808,3.954,9.526,3.954
	c7.434,0,13.461-6.037,13.461-13.472c0-3.708-1.496-7.085-3.945-9.517c-2.422-2.432-5.799-3.954-9.516-3.954
	C37.069,65.629,32.608,68.236,30.22,72.276 M89.05,65.629L89.05,65.629c-7.425,0-13.469,6.036-13.469,13.471
	c0,7.418,6.044,13.472,13.469,13.472c3.727,0,7.095-1.505,9.535-3.954v0.018l0.008-0.018c2.423-2.414,3.946-5.791,3.946-9.518
	C102.539,71.752,96.547,65.629,89.05,65.629"/>
</svg>
