<?xml version="1.0" encoding="UTF-8"?>
<svg width="587px" height="607px" viewBox="0 0 587 607" version="1.1" xmlns="http://www.w3.org/2000/svg" xmlns:xlink="http://www.w3.org/1999/xlink">
    <!-- Generator: Sketch 58 (84663) - https://sketch.com -->
    <title>illustration - future ready</title>
    <desc>Created with Sketch.</desc>
    <g id="Page-1" stroke="none" stroke-width="1" fill="none" fill-rule="evenodd">
        <g id="BMC-Helix-Option-3A-V2" transform="translate(-721.000000, -4949.000000)">
            <g id="Future-ready" transform="translate(62.000000, 4948.000000)">
                <g id="illustration---future-ready" transform="translate(659.000000, 0.000000)">
                    <path d="M182.28,416.3 L178.67,434.66 L211.29,434.66 C211.278818,431.206782 209.053124,428.150485 205.77,427.08 L193.4,423.08 L195,412.53 L182.28,416.3 Z" id="Path" fill="#222747"></path>
                    <path d="M190.85,217.54 C190.85,217.54 188.36,235.39 187.09,252.54 C185.82,269.69 194.75,320.25 194.75,320.25 L179.84,418.84 C179.84,418.84 188.33,422.7 192.24,421.58 L196.15,420.46 L220.72,319.65 L236.91,228.44 L190.85,217.54 Z" id="Path" fill="#303D72" fill-rule="nonzero"></path>
                    <path d="M236.91,228.46 L191.58,217.71 L190.79,217.94 C190.62,219.17 190.08,223.25 189.42,228.83 L219.73,241.45 L205.8,298.56 L211.8,356.09 L220.68,319.67 L236.91,228.46 Z" id="Path" fill="#27345E" fill-rule="nonzero"></path>
                    <path d="M272.74,92.56 L287.23,148.67 L335.17,156.12 C335.485203,159.930159 335.485203,163.759841 335.17,167.57 L334.59,171.89 C334.59,171.89 287.09,168.89 276.9,165.38 C266.71,161.87 259,109.23 259,109.23 L272.74,92.56 Z" id="Path" fill="#F89900" fill-rule="nonzero"></path>
                    <rect id="Rectangle" fill="#1A2249" fill-rule="nonzero" transform="translate(174.370776, 492.608456) rotate(-85.750000) translate(-174.370776, -492.608456) " x="60.7357765" y="492.108456" width="227.27" height="1"></rect>
                    <rect id="Rectangle" fill="#1A2249" fill-rule="nonzero" transform="translate(254.251304, 492.608139) rotate(-85.750000) translate(-254.251304, -492.608139) " x="140.616304" y="492.108139" width="227.27" height="1"></rect>
                    <rect id="Rectangle" fill="#1A2249" fill-rule="nonzero" x="162.01" y="555.12" width="87.59" height="1"></rect>
                    <rect id="Rectangle" fill="#1A2249" fill-rule="nonzero" x="166.68" y="492.13" width="87.59" height="1"></rect>
                    <rect id="Rectangle" fill="#1A2249" fill-rule="nonzero" x="170.89" y="434.16" width="87.59" height="1"></rect>
                    <path d="M404.5,491.77 C419.096223,507.108454 443.362782,507.711018 458.702287,493.115901 C474.041793,478.520783 474.646106,454.254267 460.052093,438.91371 C445.45808,423.573154 421.191608,422.967093 405.85,437.56 C390.516188,452.160727 389.911953,476.424125 404.5,491.77 L404.5,491.77 Z" id="Path" fill="#4C9B00" opacity="0.8"></path>
                    <path d="M404.47,491.77 C416.594236,504.511799 435.831825,507.372893 451.139328,498.710856 C466.446832,490.048818 473.899875,472.084331 469.22,455.13 L394,467.45 C394.477273,476.546041 398.190736,485.171773 404.47,491.77 L404.47,491.77 Z" id="Path" fill="#70AF33" opacity="0.8"></path>
                    <rect id="Rectangle" fill="#303D72" fill-rule="nonzero" transform="translate(431.822318, 525.246079) rotate(-1.820000) translate(-431.822318, -525.246079) " x="431.322318" y="444.501079" width="1" height="161.49"></rect>
                    <rect id="Rectangle" fill="#303D72" fill-rule="nonzero" transform="translate(441.540862, 462.650920) rotate(-41.600000) translate(-441.540862, -462.650920) " x="426.310862" y="462.15092" width="30.46" height="1"></rect>
                    <rect id="Rectangle" fill="#303D72" fill-rule="nonzero" transform="translate(423.552641, 457.709785) rotate(-66.530000) translate(-423.552641, -457.709785) " x="423.052641" y="450.954785" width="1" height="13.51"></rect>
                    <polygon id="Path" fill="#3980B2" points="342.48 454.44 401.1 507.89 401.1 605.96 328.07 575.12"></polygon>
                    <polygon id="Path" fill="#3980B2" points="373.27 482.51 354.5 586.35 328.07 575.12 342.48 454.44"></polygon>
                    <polygon id="Path" fill="#3980B2" points="240.9 454.44 182.28 507.89 182.28 605.96 255.31 575.12"></polygon>
                    <polygon id="Path" fill="#3980B2" points="240.9 454.44 205.8 486.56 217.5 591.06 255.31 575.12"></polygon>
                    <path d="M225.68,80.71 L197.09,89.71 C194.8,90.43 190.93,93.44 190.85,96.11 L187.09,221.65 C217.069375,233.71281 250.706829,232.814942 280,219.17 C277.58,176.97 275.166667,134.766667 272.76,92.56 L246.29,81 L225.68,80.71 Z" id="Path" fill="#F9C200" fill-rule="nonzero"></path>
                    <g id="Group" transform="translate(187.000000, 119.000000)" fill="#EDB607" fill-rule="nonzero">
                        <polygon id="Path" points="3.11 1.92 2.43 24.64 11.25 0.39"></polygon>
                        <path d="M93,100.18 C92.28,87.64 91.5633333,75.1033333 90.85,62.57 L54.38,67.4 L45.74,98.54 L28.94,96.54 L37.17,42.81 L2.24,31.71 L0.11,102.58 C12.4167554,107.554592 25.4793463,110.401784 38.74,111 C57.4274253,111.729965 76.0219187,108.022032 93,100.18 L93,100.18 Z" id="Path"></path>
                    </g>
                    <path d="M224.7,80.71 C224.7,80.71 227.41,92.08 237.46,91.22 C247.51,90.36 247.460002,81.55 247.460002,81.55 L224.7,80.71 Z" id="Path" fill="#FFFFFF" fill-rule="nonzero"></path>
                    <path d="M224.7,51 L224.7,81 C224.7,81 229.7,84.94 238.46,84.43 C246.58,83.96 247.46,81.54 247.46,81.54 L251.2,65.61 L224.7,51 Z" id="Path" fill="#A55B3A" fill-rule="nonzero"></path>
                    <path d="M248.44,78.42 C244.08,79.42 239.03,76.68 235.26,73.68 C228.31,68.16 225.5,57.2 225.5,57.2 L248.5,64.11 L251.24,65.62 L248.44,78.42 Z" id="Path" fill="#8E4A2F" fill-rule="nonzero"></path>
                    <path d="M265.22,15.26 C265.22,15.26 269.15,16.73 268.88,26.12 C268.538556,30.4455148 267.937473,34.746601 267.08,39 L256.82,12.81 L265.22,15.26 Z" id="Path" fill="#1A2249" fill-rule="nonzero"></path>
                    <path d="M265.7,64.4 C257.58,81.47 237.45,71.4 228.83,62.79 C220.21,54.18 221.4,21.3 223.83,15.07 C226.26,8.84 246.1,3.79 256.61,7.81 C267.12,11.83 273.81,47.34 265.7,64.4 Z" id="Path" fill="#A55B3A" fill-rule="nonzero"></path>
                    <path d="M235.1,35.89 C235.1,35.89 237.34,54.78 242.51,56.29 C246.93,57.59 253.07,51.29 261.04,50.93 C265.47,50.75 267.04,51.17 268.88,52.39 C268.4687,56.5343469 267.395052,60.5858475 265.7,64.39 C257.59,81.46 237.46,71.39 228.84,62.78 C224.67,58.61 222.79,48.78 222.24,38.99 L235.1,35.89 Z" id="Path" fill="#1A2249" fill-rule="nonzero"></path>
                    <path d="M231.71,42.67 C231.71,42.67 234.2,42.91 235.22,41.43 C236.24,39.95 233.32,31.6 236.22,22.75 C238.32,16.42 247.88,12.75 255.69,14.3 C263.5,15.85 265.48,16.52 266.28,14.25 C267.08,11.98 264,6.64 261.27,4.52 C258.54,2.4 245.84,-1.33 235.27,3 C224.7,7.33 222.55,10.2 220.18,17.07 C217.81,23.94 219.33,41.14 220.18,42.24 C221.03,43.34 231.71,42.67 231.71,42.67 Z" id="Path" fill="#1A2249" fill-rule="nonzero"></path>
                    <path d="M219.73,41.26 C219.73,45.66 225.57,49.57 229.16,49.57 C232.75,49.57 232.720004,45.66 232.720004,41.26 C232.720004,36.86 229.81,33.26 226.22,33.26 C222.63,33.26 219.73,36.86 219.73,41.26 Z" id="Path" fill="#A55B3A" fill-rule="nonzero"></path>
                    <path d="M268.88,52.39 C268.88,52.39 268.88,73.07 266.44,76.8 C264,80.53 256.01,81.34 252.44,79.8 C248.87,78.26 242.94,72.64 241.44,67.89 C239.94,63.14 262.87,56.36 262.87,56.36 L268.88,52.39 Z" id="Path" fill="#1A2249" fill-rule="nonzero"></path>
                    <path d="M222.1,39.21 C221.68,41.21 223.93,43.48 225.54,43.82 C227.15,44.16 223.69,41.47 224.11,39.5 C224.53,37.53 227.37,36.6 225.76,36.26 C224.15,35.92 222.52,37.24 222.1,39.21 Z" id="Path" fill="#8E4A2F" fill-rule="nonzero"></path>
                    <path d="M264.7,59.15 C264.7,59.15 256.12,59.38 254.7,58.92 L253.27,58.47 C253.35517,60.980855 254.928561,63.1993355 257.27,64.11 C261.27,65.56 263.43,62.89 263.96,61.41 C264.49,59.93 264.7,59.15 264.7,59.15 Z" id="Path" fill="#FFFFFF" fill-rule="nonzero"></path>
                    <path d="M269.67,33.22 C269.577293,33.2352958 269.482707,33.2352958 269.39,33.22 C267.265243,32.6173238 265.014757,32.6173238 262.89,33.22 C262.387525,33.3487908 261.869991,33.0719917 261.698168,32.5825579 C261.526346,32.0931241 261.757285,31.5535632 262.23,31.34 C264.746357,30.5974051 267.423643,30.5974051 269.94,31.34 C270.469179,31.4904033 270.777491,32.0400015 270.63,32.57 C270.481057,32.9689832 270.095763,33.2298592 269.67,33.22 Z" id="Path" fill="#1A2249" fill-rule="nonzero"></path>
                    <path d="M248.08,35.3500379 C247.691456,35.3461562 247.340315,35.1175869 247.179526,34.7638519 C247.018737,34.4101168 247.077415,33.9952663 247.33,33.7 C247.48,33.52 251.22,29.32 257.83,31.43 C258.192229,31.5200699 258.474144,31.8043792 258.561148,32.1673566 C258.648152,32.5303339 258.52576,32.9115536 258.243725,33.1560501 C257.96169,33.4005466 257.566963,33.4676181 257.22,33.33 C251.91,31.64 248.96,34.88 248.84,35.01 C248.648134,35.22842 248.370712,35.3525296 248.08,35.3500379 Z" id="Path" fill="#1A2249" fill-rule="nonzero"></path>
                    <rect id="Rectangle" fill="#1A2249" fill-rule="nonzero" x="269.3" y="39.23" width="5.3" height="1"></rect>
                    <path d="M268.35,50.22 C264.62,50.22 261.59,46.31 261.59,41.51 C261.59,36.71 264.59,32.8 268.35,32.8 C272.11,32.8 275.1,36.71 275.1,41.51 C275.1,46.31 272.07,50.22 268.35,50.22 Z M268.35,33.8 C265.17,33.8 262.59,37.26 262.59,41.51 C262.59,45.76 265.17,49.22 268.35,49.22 C271.53,49.22 274.1,45.76 274.1,41.51 C274.1,37.26 271.52,33.8 268.35,33.8 Z" id="Shape" fill="#1A2249" fill-rule="nonzero"></path>
                    <path d="M252.71,50.22 C248.99,50.22 245.96,46.31 245.96,41.51 C245.96,36.71 248.96,32.8 252.71,32.8 C256.46,32.8 259.47,36.71 259.47,41.51 C259.47,46.31 256.44,50.22 252.71,50.22 Z M252.71,33.8 C249.54,33.8 246.96,37.26 246.96,41.51 C246.96,45.76 249.54,49.22 252.71,49.22 C255.88,49.22 258.47,45.76 258.47,41.51 C258.47,37.26 255.89,33.8 252.71,33.8 Z" id="Shape" fill="#1A2249" fill-rule="nonzero"></path>
                    <rect id="Rectangle" fill="#1A2249" fill-rule="nonzero" x="232.72" y="39.23" width="13.89" height="1"></rect>
                    <rect id="Rectangle" fill="#1A2249" fill-rule="nonzero" x="258.97" y="39.23" width="3.13" height="1"></rect>
                    <path d="M244.79,197.82 C227.63,240.6 212.33,295.54 212.33,355.46 C212.33,451.1 229.78,534.04 255.33,575.12 L328.1,575.12 C353.63,534.04 371.1,451.12 371.1,355.46 C371.1,295.54 355.8,240.6 338.64,197.82 C323.190228,200.845058 307.483135,202.362183 291.74,202.35 C275.98016,202.365422 260.256166,200.848283 244.79,197.82 Z" id="Path" fill="#E2E2E2" fill-rule="nonzero"></path>
                    <path d="M371.58,355.46 C371.58,295.54 356.28,240.6 339.12,197.82 C323.670228,200.845058 307.963135,202.362183 292.22,202.35 C288.64,202.35 285.08,202.26 281.55,202.11 C272.934719,239.126664 268.506931,276.994319 268.35,315 C268.35,421.94 285.12,516.69 310.91,575.12 L328.6,575.12 C354.13,534 371.58,451.1 371.58,355.46 Z" id="Path" fill="#F8F8F8" fill-rule="nonzero"></path>
                    <path d="M247.81,174.62 C262.028264,181.380962 276.871807,186.739642 292.13,190.62 C307.383502,194.524387 322.979957,196.939041 338.7,197.83 C330.97,139.44 315.38,99.53 315.38,99.53 C315.38,99.53 282.58,127.08 247.81,174.62 Z" id="Path" fill="#3980B2"></path>
                    <path d="M315.65,99.52 L315.56,99.6 C313.56,101.27 281.76,128.6 248.08,174.6 C259.225376,179.897797 270.762961,184.327615 282.59,187.85 L315.65,99.52 Z" id="Path" fill="#0091DD"></path>
                    <rect id="Rectangle" fill="#3980B2" x="283.98" y="471.96" width="15.41" height="134"></rect>
                    <rect id="Rectangle" fill="#3980B2" x="283.98" y="543.68" width="15.41" height="62.27"></rect>
                    <path d="M414.89,527.24 C414.89,558.024352 439.845648,582.98 470.63,582.98 C501.414352,582.98 526.37,558.024352 526.37,527.24 C526.37,496.455648 501.414352,471.5 470.63,471.5 C439.847935,471.505521 414.895521,496.457935 414.89,527.24 Z" id="Path" fill="#4C9B00"></path>
                    <rect id="Rectangle" fill="#303D72" fill-rule="nonzero" transform="translate(468.762079, 553.350324) rotate(-80.670000) translate(-468.762079, -553.350324) " x="415.497079" y="552.850324" width="106.53" height="1"></rect>
                    <path d="M392.42,579.23 L394,607.12 L352.59,607.12 C352.588968,602.820503 355.365858,599.01289 359.46,597.7 L376.72,592.13 L376.14,579.23 L392.42,579.23 Z" id="Path" fill="#303D72" fill-rule="nonzero"></path>
                    <path d="M439.39,580.53 L443.72,599.72 L426.88,607.12 L407.479887,607.12 C407.462226,603.914825 409.540055,601.074044 412.6,600.12 L422.23,597.12 L425.6,581.55 L439.39,580.53 Z" id="Path" fill="#1A2249" fill-rule="nonzero"></path>
                    <rect id="Rectangle" fill="#303D72" fill-rule="nonzero" transform="translate(491.010798, 532.634470) rotate(-25.060000) translate(-491.010798, -532.634470) " x="468.500798" y="532.13447" width="45.02" height="1"></rect>
                    <rect id="Rectangle" fill="#303D72" fill-rule="nonzero" transform="translate(456.575975, 515.089603) rotate(-53.540000) translate(-456.575975, -515.089603) " x="456.075975" y="494.589603" width="1" height="41"></rect>
                    <path d="M325.460001,260.87 C325.454478,279.519353 310.332689,294.633681 291.683335,294.63 C273.033982,294.626318 257.918161,279.506022 257.920002,260.856668 C257.921842,242.207314 273.040646,227.09 291.69,227.09 C300.648094,227.09 309.239141,230.649273 315.572532,236.984539 C321.905923,243.319806 325.462653,251.911907 325.460001,260.87 Z" id="Path" fill="#A9C2DC" fill-rule="nonzero"></path>
                    <path d="M313.540001,260.87 C313.540001,279.526179 298.416179,294.65 279.76,294.65 C261.103821,294.65 245.98,279.526179 245.98,260.87 C245.98,242.213821 261.103821,227.089999 279.76,227.089999 C288.719826,227.087346 297.313443,230.645448 303.648997,236.981003 C309.984552,243.316557 313.542654,251.910174 313.540001,260.87 Z" id="Path" fill="#3980B2"></path>
                    <path d="M246,259.51 C246,259.96 246,260.41 246,260.87 C245.99809,274.844899 254.604167,287.377288 267.647635,292.393836 C280.691103,297.410384 295.477031,293.874615 304.84,283.5 L246,259.51 Z" id="Path" fill="#3980B2"></path>
                    <circle id="Oval" fill="#303D72" fill-rule="nonzero" cx="291.69" cy="332" r="7.78"></circle>
                    <circle id="Oval" fill="#303D72" fill-rule="nonzero" cx="291.69" cy="363.13" r="7.78"></circle>
                    <circle id="Oval" fill="#60D6E6" fill-rule="nonzero" cx="426.35" cy="233.34" r="3.67"></circle>
                    <path d="M435.31,272.71 L384,286.22 L360.51,243.1 L351.32,246.64 C351.32,246.64 367.66,293.13 372.51,301.56 C377.36,309.99 437.35,294.37 437.35,294.37 L435.31,272.71 Z" id="Path" fill="#0CBFD1" fill-rule="nonzero"></path>
                    <path d="M441,392.56 L429.5,480.69 L441.69,582.6 C441.69,582.6 437.63,587.23 432.13,586.2 C428.791578,585.569402 425.591814,584.350444 422.68,582.6 C422.68,582.6 409.4,496.7 406.52,480.69 C403.64,464.68 402.77,395.64 402.77,395.64 L441,392.56 Z" id="Path" fill="#1A2249" fill-rule="nonzero"></path>
                    <path d="M406.52,244.71 C402.8,244.71 399.77,240.81 399.77,236 C399.77,231.19 402.77,227.29 406.52,227.29 C410.27,227.29 413.28,231.2 413.28,236 C413.28,240.8 410.25,244.71 406.52,244.71 Z M406.52,228.29 C403.35,228.29 400.77,231.75 400.77,236 C400.77,240.25 403.35,243.71 406.52,243.71 C409.69,243.71 412.28,240.26 412.28,236 C412.28,231.74 409.7,228.29 406.52,228.29 L406.52,228.29 Z" id="Shape" fill="#1A2249" fill-rule="nonzero"></path>
                    <path d="M390.75,246.15 C387.37,246.15 384.62,242.61 384.62,238.25 C384.62,233.89 387.37,230.36 390.75,230.36 C394.13,230.36 396.88,233.9 396.88,238.25 C396.88,242.6 394.13,246.15 390.75,246.15 Z M390.75,231.36 C387.92,231.36 385.62,234.45 385.62,238.25 C385.62,242.05 387.92,245.15 390.75,245.15 C393.58,245.15 395.88,242.05 395.88,238.25 C395.88,234.45 393.58,231.36 390.75,231.36 Z" id="Shape" fill="#1A2249" fill-rule="nonzero"></path>
                    <path d="M405.52,253.16 L405.86,265.74 C405.86,265.74 407.3,268.74 416.33,269.59 C419.222295,269.743021 422.054673,268.726824 424.19,266.77 L426,246.64 L405.52,253.16 Z" id="Path" fill="#FBAD83" fill-rule="nonzero"></path>
                    <path d="M405.31,255.45 L405.82,264.21 C406.657481,264.386831 407.528841,264.306666 408.32,263.98 C412.63,262.34 412.11,257.5 414.79,248.69 L405.31,255.45 Z" id="Path" fill="#E68D5C" fill-rule="nonzero"></path>
                    <path d="M391.19,217.33 C391.19,217.33 389.08,238.33 392.03,248.44 C394.98,258.55 404.17,262.88 412.27,261.02 C415.27,260.32 426.19,248.07 427.56,232.93 C428.93,217.79 427.63,213.22 425.16,210.02 C422.69,206.82 400.32,202.83 396.26,206.33 C392.2,209.83 391.19,217.33 391.19,217.33 Z" id="Path" fill="#FBAD83" fill-rule="nonzero"></path>
                    <path d="M428.12,206.09 C428.12,206.09 432.49,211.15 432.12,223.75 C431.75,236.35 428.87,245.66 425.23,249.52 C421.59,253.38 409.02,253.18 405.16,251.08 C401.3,248.98 394.19,240.84 394.58,236 C394.74,233.93 394.94,231.23 395.12,228.82 C395.363084,225.428302 393.109425,222.361292 389.8,221.58 L388.26,221.21 C388.26,221.21 387.26,208.77 394,203.6 C400.74,198.43 408.75,198.05 416.79,200.15 C424.83,202.25 428.12,206.09 428.12,206.09 Z" id="Path" fill="#1A2249" fill-rule="nonzero"></path>
                    <path d="M404.56,241.33 C404.56,244.33 400.56,246.96 398.17,246.96 C395.78,246.96 395.76,244.31 395.76,241.33 C395.76,238.35 397.76,235.94 400.16,235.94 C402.56,235.94 404.56,238.35 404.56,241.33 Z" id="Path" fill="#FBAD83" fill-rule="nonzero"></path>
                    <path d="M402.64,240 C402.36,238.54 400.17,237.62 398.98,237.85 C397.79,238.08 400.91,238.91 401.19,240.37 C401.47,241.83 399.81,243.29 401,243.06 C402.292208,242.660985 403.023248,241.296971 402.64,240 L402.64,240 Z" id="Path" fill="#E68D5C" fill-rule="nonzero"></path>
                    <path d="M411.71,215.57 C411.71,225.395146 419.674854,233.36 429.5,233.36 C439.325146,233.36 447.29,225.395146 447.29,215.57 C447.29,205.744854 439.325146,197.78 429.5,197.78 C419.674854,197.78 411.71,205.744854 411.71,215.57 L411.71,215.57 Z" id="Path" fill="#1A2249" fill-rule="nonzero"></path>
                    <rect id="Rectangle" fill="#1A2249" fill-rule="nonzero" x="385.12" y="236.03" width="12.4" height="1"></rect>
                    <path d="M440.26,374.31 C440.26,374.31 443.94,384.04 439.51,398.31 C436.35,408.52 419.22,409.54 419.22,409.54 L391.42,487.14 L395,582.6 C395,582.6 386.09,588.25 379.91,586.2 L373.74,584.15 C373.74,584.15 367.09,491.15 367.56,480.48 C368.03,469.81 379.91,374.31 379.91,374.31 L440.26,374.31 Z" id="Path" fill="#303D72" fill-rule="nonzero"></path>
                    <path d="M368.92,466.5 L390.75,396.06 L423.57,383.15 L417.77,374.31 L379.93,374.31 C379.93,374.31 372.13,437 368.92,466.5 Z" id="Path" fill="#27345E" fill-rule="nonzero"></path>
                    <path d="M300.52,296.45 L294.65,291.16 C292.468517,292.265764 290.161952,293.105126 287.78,293.66 C285.676718,294.140923 283.527493,294.392393 281.37,294.41 C280.97,290.15 279.59,288.83 278.53,288.09 C276.97,287.01 273.94,287.56 273.94,287.56 C273.94,287.56 275.94,296.56 277.35,299.71 C278.76,302.86 290.47,303.86 292.35,303.6 C293.309966,303.392704 294.312774,303.553296 295.16,304.05 L300.52,296.45 Z" id="Path" fill="#FBAD83" fill-rule="nonzero"></path>
                    <path d="M405.86,265.74 L383.73,274.74 L373,376.38 C373,376.38 426,396.89 445.52,376.38 L440,280.68 C439.718616,275.81991 436.621575,271.573211 432.08,269.82 L424.15,266.77 L405.86,265.74 Z" id="Path" fill="#60D6E6" fill-rule="nonzero"></path>
                    <path d="M359.21,243.61 C359.21,243.61 358.82,237.01 355.72,233.03 C352.62,229.05 350.11,228.46 350.11,228.46 L352.18,237.1 C352.18,237.1 352.67,238.35 350.65,238.46 C348.63,238.57 348.42,234.54 345.98,234.16 C343.54,233.78 343.31,234.16 343.31,234.16 C343.31,234.16 345.81,240.16 347.88,242.37 C349.95,244.58 351.58,246.55 351.58,246.55 L359.21,243.61 Z" id="Path" fill="#FBAD82" fill-rule="nonzero"></path>
                    <path d="M246.29,167.8 C246.29,167.8 258.9,174.36 263.59,176.07 C268.28,177.78 272.39,175.58 275.24,172.58 C278.09,169.58 269.73,163.95 265.24,160.81 L260.73,157.67 L264.86,152.57 C264.86,152.57 262.19,151.4 258.18,153.51 C255.831203,154.77088 253.254035,155.549471 250.6,155.8 L246.29,167.8 Z" id="Path" fill="#A55B3A" fill-rule="nonzero"></path>
                    <path d="M212.85,96.28 C219.97,102.4 194.2,144.91 194.2,144.91 L252.2,154.41 C253.413677,157.410462 253.169979,160.803762 251.54,163.6 C248.76,168.16 246.63,169.79 246.63,169.79 C246.63,169.79 192.28,171.96 178.54,162.25 C164.8,152.54 189.83,94.17 192.61,92 C195.39,89.83 205.73,90.16 212.85,96.28 Z" id="Path" fill="#F9C200" fill-rule="nonzero"></path>
                    <path d="M337.700085,157.7 C337.711185,155.888975 336.62371,154.251831 334.95,153.56 C332.49,152.56 328.85,151.56 326.24,152.95 C321.91,155.33 324.42,167.19 327.77,169.84 C331.12,172.49 335.17,171.38 336.56,169.84 C337.55,168.75 337.700085,161.71 337.700085,157.7 Z" id="Path" fill="#A55B3A" fill-rule="nonzero"></path>
                    <circle id="Oval" fill="#4C9B00" cx="78.06" cy="477.75" r="78.06"></circle>
                    <rect id="Rectangle" fill="#303D72" fill-rule="nonzero" transform="translate(82.480465, 515.674810) rotate(-8.400000) translate(-82.480465, -515.674810) " x="81.9804647" y="424.30981" width="1" height="182.73"></rect>
                    <rect id="Rectangle" fill="#303D72" fill-rule="nonzero" transform="translate(96.718357, 477.227800) rotate(-50.710000) translate(-96.718357, -477.227800) " x="70.3483572" y="476.7278" width="52.74" height="1"></rect>
                    <polygon id="Path" fill="#303D72" fill-rule="nonzero" points="75.89 471.76 18.18 454.91 18.46 453.95 76.17 470.81"></polygon>
                    <path d="M373.15,376.38 C380.943213,379.240957 388.943018,381.50417 397.08,383.15 L394.46,287.42 L382.15,290.83 L373.15,376.38 Z" id="Path" fill="#50CAD3" fill-rule="nonzero"></path>
                    <path d="M383.73,274.7 L343.4,315.34 L299.75,295 C298.082689,296.772799 296.705736,298.79773 295.67,301 L293.62,305.08 C293.62,305.08 336.75,330.63 345.69,333.55 C354.63,336.47 402.77,287.55 402.77,287.55 L383.73,274.7 Z" id="Path" fill="#60D6E6" fill-rule="nonzero"></path>
                    <rect id="Rectangle" fill="#303D72" fill-rule="nonzero" x="0" y="605.46" width="586.51" height="1"></rect>
                </g>
            </g>
        </g>
    </g>
</svg>