<?xml version="1.0" encoding="utf-8"?>
<!-- Generator: Adobe Illustrator 15.0.0, SVG Export Plug-In . SVG Version: 6.00 Build 0)  -->
<!DOCTYPE svg PUBLIC "-//W3C//DTD SVG 1.0//EN" "http://www.w3.org/TR/2001/REC-SVG-20010904/DTD/svg10.dtd">
<svg version="1.0" xmlns="http://www.w3.org/2000/svg" xmlns:xlink="http://www.w3.org/1999/xlink" x="0px" y="0px" width="150px"
	 height="50px" viewBox="0 0 150 50" enable-background="new 0 0 150 50" xml:space="preserve">
<g id="Layer_1" display="none">
	<rect x="-120.864" y="-112.377" display="inline" fill="none" width="355.565" height="274.755"/>
	<g id="g3003" transform="translate(370.6411,282.0449)" display="inline">
		<path id="path3005" fill="#434244" d="M-322.831-248.44c0.678,1.503,2.288,2.531,4.082,2.531c3.253,0,5.197-2.627,5.197-6.075
			c0-3.495-1.943-6.121-5.197-6.121c-1.749,0-3.406,1.068-4.082,2.526V-248.44z M-322.831-241.152h-6.074v-31.58h6.074v11.661
			c0.977-1.166,3.113-2.29,5.44-2.29c6.318,0,9.861,5.155,9.861,11.373c0,6.22-3.543,11.319-9.861,11.319
			c-2.327,0-4.464-1.118-5.44-2.28V-241.152z"/>
	</g>
	<g id="g3007" transform="translate(486.7666,323.5801)" display="inline">
		<path id="path3009" fill="#434244" d="M-397.25-304.896c4.467,0,7.138,3.116,7.138,8.016v14.192h-6.024v-12.923
			c0-2.333-1.017-3.888-3.105-3.888c-1.553,0-2.966,0.971-3.354,2.817v13.993h-6.074v-12.923c0-2.333-0.967-3.888-3.058-3.888
			c-1.552,0-3.011,0.971-3.405,2.817v13.993h-6.021v-21.718h6.021v1.799c1.072-1.361,3.066-2.291,5.496-2.291
			c2.571,0,4.615,1.172,5.825,2.772C-402.401-303.679-400.305-304.896-397.25-304.896"/>
	</g>
	<g id="g3011" transform="translate(542.3926,323.5801)" display="inline">
		<path id="path3013" fill="#434244" d="M-432.898-304.896c5.448,0,8.898,3.209,9.523,7.825h-5.924c-0.344-1.65-1.648-2.67-3.6-2.67
			c-2.761,0-4.461,2.526-4.461,6.218c0,3.644,1.7,6.174,4.461,6.174c1.951,0,3.256-1.025,3.6-2.672h5.924
			c-0.625,4.657-4.075,7.817-9.523,7.817c-6.165,0-10.442-4.615-10.442-11.319C-443.341-300.276-439.063-304.896-432.898-304.896"/>
	</g>
	<g id="g3015" transform="translate(251.0923,359.4775)" display="inline">
		<path id="path3017" fill="#F15625" d="M-246.22-353.684v6.356c0,1.069,0.902,2.656,1.823,3.204l12.126,7.185l7.112-4.214
			L-246.22-353.684z M-232.27-331.282l-12.146,7.204c-0.92,0.547-1.823,2.13-1.823,3.202v6.296l21.063-12.486L-232.27-331.282z
			 M-247.02-309.226c-2.033,0-4.091-1.573-4.091-4.589v-7.061c0-2.795,1.814-5.967,4.218-7.391l9.846-5.843l-9.835-5.827
			c-2.401-1.422-4.208-4.6-4.208-7.391v-7.127c0-3.012,2.054-4.587,4.086-4.587c0.871,0,1.749,0.26,2.608,0.776l22.241,13.226
			c1.548,0.919,2.435,2.343,2.435,3.886c0,1.554-0.893,2.97-2.438,3.889l-5.333,3.155l5.33,3.154
			c1.551,0.918,2.441,2.339,2.441,3.889c0,1.545-0.893,2.964-2.441,3.882l-22.25,13.193
			C-245.272-309.484-246.149-309.226-247.02-309.226"/>
	</g>
</g>
<g id="Layer_1_copy">
	<rect x="-120.864" y="-112.377" fill="none" width="355.565" height="274.755"/>
	<g id="g3003_1_" transform="translate(370.6411,282.0449)">
		<path id="path3005_1_" fill="#FFFFFF" d="M-322.831-248.44c0.678,1.503,2.288,2.531,4.082,2.531c3.253,0,5.197-2.627,5.197-6.075
			c0-3.495-1.943-6.121-5.197-6.121c-1.749,0-3.406,1.068-4.082,2.526V-248.44z M-322.831-241.152h-6.074v-31.58h6.074v11.661
			c0.977-1.166,3.113-2.29,5.44-2.29c6.318,0,9.861,5.155,9.861,11.373c0,6.22-3.543,11.319-9.861,11.319
			c-2.327,0-4.464-1.118-5.44-2.28V-241.152z"/>
	</g>
	<g id="g3007_1_" transform="translate(486.7666,323.5801)">
		<path id="path3009_1_" fill="#FFFFFF" d="M-397.25-304.896c4.467,0,7.138,3.116,7.138,8.016v14.192h-6.024v-12.923
			c0-2.333-1.017-3.888-3.105-3.888c-1.553,0-2.966,0.971-3.354,2.817v13.993h-6.074v-12.923c0-2.333-0.967-3.888-3.058-3.888
			c-1.552,0-3.011,0.971-3.405,2.817v13.993h-6.021v-21.718h6.021v1.799c1.072-1.361,3.066-2.291,5.496-2.291
			c2.571,0,4.615,1.172,5.825,2.772C-402.401-303.679-400.305-304.896-397.25-304.896"/>
	</g>
	<g id="g3011_1_" transform="translate(542.3926,323.5801)">
		<path id="path3013_1_" fill="#FFFFFF" d="M-432.898-304.896c5.448,0,8.898,3.209,9.523,7.825h-5.924
			c-0.344-1.65-1.648-2.67-3.6-2.67c-2.761,0-4.461,2.526-4.461,6.218c0,3.644,1.7,6.174,4.461,6.174c1.951,0,3.256-1.025,3.6-2.672
			h5.924c-0.625,4.657-4.075,7.817-9.523,7.817c-6.165,0-10.442-4.615-10.442-11.319
			C-443.341-300.276-439.063-304.896-432.898-304.896"/>
	</g>
	<g id="g3015_1_" transform="translate(251.0923,359.4775)">
		<path id="path3017_1_" fill="#F15625" d="M-246.22-353.684v6.356c0,1.069,0.902,2.656,1.823,3.204l12.126,7.185l7.112-4.214
			L-246.22-353.684z M-232.27-331.282l-12.146,7.204c-0.92,0.547-1.823,2.13-1.823,3.202v6.296l21.063-12.486L-232.27-331.282z
			 M-247.02-309.226c-2.033,0-4.091-1.573-4.091-4.589v-7.061c0-2.795,1.814-5.967,4.218-7.391l9.846-5.843l-9.835-5.827
			c-2.401-1.422-4.208-4.6-4.208-7.391v-7.127c0-3.012,2.054-4.587,4.086-4.587c0.871,0,1.749,0.26,2.608,0.776l22.241,13.226
			c1.548,0.919,2.435,2.343,2.435,3.886c0,1.554-0.893,2.97-2.438,3.889l-5.333,3.155l5.33,3.154
			c1.551,0.918,2.441,2.339,2.441,3.889c0,1.545-0.893,2.964-2.441,3.882l-22.25,13.193
			C-245.272-309.484-246.149-309.226-247.02-309.226"/>
	</g>
</g>
</svg>
