<?xml version="1.0" encoding="utf-8"?>
<!-- Generator: Adobe Illustrator 22.1.0, SVG Export Plug-In . SVG Version: 6.00 Build 0)  -->
<svg version="1.1" id="Layer_1" xmlns="http://www.w3.org/2000/svg" xmlns:xlink="http://www.w3.org/1999/xlink" x="0px" y="0px"
	 viewBox="0 0 1000 200" style="enable-background:new 0 0 1000 200;" xml:space="preserve">
<style type="text/css">
	.st0{fill:#A7A9AC;}
	.st1{fill:#FE5000;}
	.st2{fill:#FFFFFF;}
</style>
<g>
	<path class="st0" d="M522.3,78v28.4h-4.2V78h-11v-3.7h26.1V78H522.3z"/>
	<path class="st0" d="M541.3,86.3c1.6-2.3,4.1-3.4,6.8-3.4c5.2,0,8.3,3.2,8.3,9.4v14h-4V92.7c0-4.8-2-6.5-5.3-6.5c-3.2,0-6,2.4-6,7
		v13.1h-4V74.3h4L541.3,86.3L541.3,86.3z"/>
	<path class="st0" d="M578.3,99.5h4.1c-0.8,4-4.2,7.5-10.1,7.5c-6.8,0-10.8-4.9-10.8-12.4c0-6.8,4-11.8,10.6-11.8
		c5.2,0,8.8,3.1,10,8c0.3,1.3,0.5,2.9,0.5,4.9h-17.1c0.2,5.6,3.1,8.2,6.8,8.2C575.6,103.9,577.8,102.1,578.3,99.5z M565.5,92.7h13.2
		c-0.4-4.5-3-6.8-6.5-6.8C568.5,85.9,566,88.3,565.5,92.7z"/>
	<path class="st0" d="M628.6,106.4V90c0-4.1,0-8.2,0.1-12.3h-0.1c-1.4,4.1-2.9,8.2-4.4,12.3l-6,16.3h-4.8l-6-16.3
		c-1.5-4.1-3-8.2-4.4-12.3h-0.1c0,4.1,0.1,8.2,0.1,12.3v16.3h-4.1V74.3h6.7l5.8,15.8c1.4,4.1,2.9,8.3,4.2,12.3h0.1
		c1.4-4.1,2.8-8.3,4.2-12.3l5.8-15.8h6.7v32.1H628.6z"/>
	<path class="st0" d="M640.3,97.4v-14h4v13.7c0,4.8,2,6.5,5.3,6.5c3.2,0,6-2.4,6-7V83.5h4v22.9h-3.8v-3h-0.1c-1.4,2.1-3.9,3.5-7,3.5
		C643.3,106.9,640.3,103.7,640.3,97.4z"/>
	<path class="st0" d="M666.5,106.4V74.3h4v32.1H666.5z"/>
	<path class="st0" d="M687.2,103v3.2c-0.7,0.2-1.7,0.3-2.5,0.3c-4.4,0-6.2-1.8-6.2-6.6V86.6h-4v-3.2h4v-5.5h4v5.5h4.6v3.2h-4.6v12.9
		c0,2.6,0.9,3.7,3.2,3.7C686.1,103.2,686.7,103.2,687.2,103z"/>
	<path class="st0" d="M691.9,78.7v-4.5h4v4.5H691.9z M691.9,106.4V83.5h4v22.9H691.9z"/>
	<path class="st0" d="M700.7,95v-3.5h10.8V95H700.7z"/>
	<path class="st0" d="M742.6,85.1h-4.3c-0.4-4.7-3.7-7.7-8.5-7.7c-6,0-9.7,4.9-9.7,12.9s3.7,12.9,9.6,12.9c4.8,0,8.1-3,8.7-7.9h4.3
		c-0.7,7.2-5.5,11.7-13.1,11.7c-8.6,0-13.9-6.3-13.9-16.7c0-10.3,5.4-16.7,14.1-16.7C737.5,73.6,742.2,78.5,742.6,85.1z"/>
	<path class="st0" d="M748.4,106.4V74.3h4v32.1H748.4z"/>
	<path class="st0" d="M779.5,94.9c0,7.5-4.2,12.1-10.9,12.1c-6.7,0-10.9-4.6-10.9-12.1c0-7.5,4.1-12.1,10.9-12.1
		C775.3,82.8,779.5,87.4,779.5,94.9z M761.9,94.9c0,5.5,2.6,8.8,6.7,8.8c4.2,0,6.8-3.4,6.8-8.8c0-5.5-2.6-8.8-6.8-8.8
		C764.4,86.1,761.9,89.5,761.9,94.9z"/>
	<path class="st0" d="M784.6,97.4v-14h4v13.7c0,4.8,2,6.5,5.3,6.5c3.2,0,6-2.4,6-7V83.5h4v22.9H800v-3h-0.1c-1.4,2.1-3.9,3.5-7,3.5
		C787.7,106.9,784.6,103.7,784.6,97.4z"/>
	<path class="st0" d="M825.9,106.4V103h-0.1c-1.3,2.4-3.9,3.9-7,3.9c-5.9,0-9.6-4.7-9.6-12s3.7-12,9.6-12c3.1,0,5.7,1.4,7,3.7h0.1
		V74.3h4v32.1H825.9z M813.3,94.9c0,5.4,2.5,8.8,6.4,8.8c3.8,0,6.3-3.4,6.3-8.8c0-5.4-2.5-8.8-6.3-8.8
		C815.8,86.1,813.3,89.5,813.3,94.9z"/>
	<path class="st0" d="M536.9,151.4v-16.3c0-4.1,0-8.2,0.1-12.3h-0.1c-1.4,4.1-2.9,8.2-4.4,12.3l-6,16.3h-4.8l-6-16.3
		c-1.5-4.1-3-8.2-4.4-12.3h-0.1c0,4.1,0.1,8.2,0.1,12.3v16.3h-4.1v-32.1h6.7l5.8,15.8c1.4,4.1,2.9,8.3,4.2,12.3h0.1
		c1.4-4.1,2.8-8.2,4.2-12.3l5.8-15.8h6.7v32.1H536.9z"/>
	<path class="st0" d="M565.9,136.8v8.8c0,2.5,0.2,4.5,0.5,5.9h-3.6c-0.2-1-0.3-2.3-0.3-3.3h-0.1c-1.6,2.4-4.2,3.8-7.9,3.8
		c-4.8,0-7.8-2.8-7.8-6.7c0-3.8,2.1-6.2,8.7-7.2c2-0.3,4.8-0.6,6.6-0.8v-0.9c0-3.8-2.1-5.4-5.2-5.4c-3.3,0-5.1,1.8-5.2,4.6h-4
		c0.2-4.3,3.4-7.6,9.2-7.6C562.5,127.9,565.9,130.8,565.9,136.8z M562.1,140.3c-1.8,0.1-4.2,0.4-6,0.7c-3.9,0.6-5.3,1.7-5.3,4
		c0,2.3,1.7,3.9,4.7,3.9c1.8,0,3.6-0.6,4.7-1.8c1.4-1.4,1.8-2.7,1.8-5.4V140.3z"/>
	<path class="st0" d="M591.8,137.5v14h-4v-13.7c0-4.8-2-6.5-5.3-6.5c-3.2,0-6,2.4-6,7v13.1h-4v-22.9h3.8v3h0.1
		c1.4-2.1,3.9-3.5,6.9-3.5C588.8,128,591.8,131.2,591.8,137.5z"/>
	<path class="st0" d="M615.8,136.8v8.8c0,2.5,0.2,4.5,0.5,5.9h-3.6c-0.2-1-0.3-2.3-0.3-3.3h-0.1c-1.6,2.4-4.2,3.8-7.9,3.8
		c-4.8,0-7.8-2.8-7.8-6.7c0-3.8,2.1-6.2,8.7-7.2c2-0.3,4.8-0.6,6.6-0.8v-0.9c0-3.8-2.1-5.4-5.2-5.4c-3.3,0-5.1,1.8-5.2,4.6h-4
		c0.2-4.3,3.4-7.6,9.2-7.6C612.4,127.9,615.8,130.8,615.8,136.8z M612,140.3c-1.8,0.1-4.2,0.4-6,0.7c-3.9,0.6-5.3,1.7-5.3,4
		c0,2.3,1.7,3.9,4.7,3.9c1.8,0,3.6-0.6,4.7-1.8c1.4-1.4,1.8-2.7,1.8-5.4V140.3z"/>
	<path class="st0" d="M637.5,131.9L637.5,131.9l0.1-3.3h3.8V150c0,6.7-3.6,10.1-10,10.1c-5.9,0-9.3-2.8-9.5-7.3h4
		c0.1,2.7,2.2,4.2,5.5,4.2c4.1,0,6.1-2.1,6.1-7.2v-2.5h-0.1c-1.6,2.5-3.9,3.8-6.8,3.8c-5.9,0-9.7-4.6-9.7-11.6
		c0-7.1,3.8-11.6,9.7-11.6C633.5,128,635.9,129.3,637.5,131.9z M625.1,139.6c0,5,2.4,8.3,6.2,8.3c4,0,6.4-3.2,6.4-8.3
		c0-5.1-2.4-8.3-6.4-8.3C627.5,131.2,625.1,134.5,625.1,139.6z"/>
	<path class="st0" d="M663.6,144.6h4.1c-0.8,4-4.2,7.5-10.1,7.5c-6.8,0-10.8-4.9-10.8-12.4c0-6.8,4-11.8,10.6-11.8
		c5.2,0,8.8,3.1,10,8c0.3,1.3,0.5,2.9,0.5,4.9h-17.1c0.2,5.6,3.1,8.2,6.8,8.2C660.9,149,663,147.2,663.6,144.6z M650.8,137.8h13.2
		c-0.4-4.5-3-6.8-6.5-6.8C653.7,131,651.2,133.4,650.8,137.8z"/>
	<path class="st0" d="M705.3,137.3v14.2h-4v-13.8c0-4.6-1.8-6.3-4.7-6.3c-3.3,0-5.4,2.8-5.4,7.2v13h-4V137c0-3.6-1.7-5.7-4.6-5.7
		c-3.4,0-5.5,2.8-5.5,7.4v12.7h-4v-22.9h3.8v2.8h0.1c1.6-2.2,3.7-3.3,6.4-3.3c3.2,0,5.6,1.5,6.8,4.3c1.5-2.8,3.9-4.3,7.3-4.3
		C702.5,128,705.3,131.1,705.3,137.3z"/>
	<path class="st0" d="M727.3,144.6h4.1c-0.8,4-4.2,7.5-10.1,7.5c-6.8,0-10.8-4.9-10.8-12.4c0-6.8,4-11.8,10.6-11.8
		c5.2,0,8.8,3.1,10,8c0.3,1.3,0.5,2.9,0.5,4.9h-17.1c0.2,5.6,3.1,8.2,6.8,8.2C724.6,149,726.7,147.2,727.3,144.6z M714.5,137.8h13.2
		c-0.4-4.5-3-6.8-6.5-6.8C717.5,131,714.9,133.4,714.5,137.8z"/>
	<path class="st0" d="M756.1,137.5v14h-4v-13.7c0-4.8-2-6.5-5.3-6.5c-3.2,0-6,2.4-6,7v13.1h-4v-22.9h3.8v3h0.1
		c1.4-2.1,3.9-3.5,6.9-3.5C753,128,756.1,131.2,756.1,137.5z"/>
	<path class="st0" d="M772.1,148.1v3.2c-0.7,0.2-1.7,0.3-2.5,0.3c-4.4,0-6.2-1.8-6.2-6.6v-13.3h-4v-3.2h4V123h4v5.5h4.6v3.2h-4.6
		v12.9c0,2.6,0.9,3.7,3.2,3.7C771.1,148.3,771.7,148.2,772.1,148.1z"/>
	<path class="st0" d="M812.5,130.2h-4.3c-0.4-4.7-3.7-7.7-8.5-7.7c-6,0-9.7,4.9-9.7,12.9s3.7,12.9,9.6,12.9c4.8,0,8.1-3,8.7-7.9h4.3
		c-0.7,7.2-5.5,11.7-13.1,11.7c-8.6,0-13.9-6.3-13.9-16.7c0-10.3,5.4-16.7,14.1-16.7C807.4,118.7,812.1,123.6,812.5,130.2z"/>
	<path class="st0" d="M838.4,140c0,7.5-4.2,12.1-10.9,12.1c-6.7,0-10.9-4.6-10.9-12.1c0-7.5,4.1-12.1,10.9-12.1
		C834.2,127.9,838.4,132.5,838.4,140z M820.8,140c0,5.5,2.6,8.8,6.7,8.8c4.2,0,6.8-3.4,6.8-8.8c0-5.5-2.6-8.8-6.8-8.8
		C823.4,131.2,820.8,134.5,820.8,140z"/>
	<path class="st0" d="M875.9,137.3v14.2h-4v-13.8c0-4.6-1.8-6.3-4.7-6.3c-3.3,0-5.4,2.8-5.4,7.2v13h-4V137c0-3.6-1.7-5.7-4.6-5.7
		c-3.4,0-5.5,2.8-5.5,7.4v12.7h-4v-22.9h3.8v2.8h0.1c1.6-2.2,3.7-3.3,6.4-3.3c3.2,0,5.6,1.5,6.8,4.3c1.5-2.8,3.9-4.3,7.3-4.3
		C873.1,128,875.9,131.1,875.9,137.3z"/>
	<path class="st0" d="M903.3,139.9c0,7.3-3.7,12-9.6,12c-3.1,0-5.7-1.5-7-3.8h-0.1v11.6h-4v-31.2h3.9v3.3h0.1c1.2-2.4,3.9-3.9,7-3.9
		C899.6,128,903.3,132.6,903.3,139.9z M886.5,139.9c0,5.5,2.4,8.8,6.2,8.8c3.9,0,6.4-3.5,6.4-8.8c0-5.4-2.5-8.8-6.4-8.8
		C888.9,131.2,886.5,134.5,886.5,139.9z"/>
	<path class="st0" d="M925.9,136.8v8.8c0,2.5,0.2,4.5,0.5,5.9h-3.6c-0.2-1-0.3-2.3-0.3-3.3h-0.1c-1.6,2.4-4.2,3.8-7.9,3.8
		c-4.8,0-7.8-2.8-7.8-6.7c0-3.8,2.1-6.2,8.7-7.2c2-0.3,4.8-0.6,6.6-0.8v-0.9c0-3.8-2.1-5.4-5.2-5.4c-3.3,0-5.1,1.8-5.2,4.6h-4
		c0.2-4.3,3.4-7.6,9.2-7.6C922.4,127.9,925.9,130.8,925.9,136.8z M922,140.3c-1.8,0.1-4.2,0.4-6,0.7c-3.9,0.6-5.3,1.7-5.3,4
		c0,2.3,1.7,3.9,4.7,3.9c1.8,0,3.6-0.6,4.7-1.8c1.4-1.4,1.8-2.7,1.8-5.4V140.3z"/>
	<path class="st0" d="M951.8,137.5v14h-4v-13.7c0-4.8-2-6.5-5.3-6.5c-3.2,0-6,2.4-6,7v13.1h-4v-22.9h3.8v3h0.1
		c1.4-2.1,3.9-3.5,6.9-3.5C948.7,128,951.8,131.2,951.8,137.5z"/>
	<path class="st0" d="M966.5,152.5c-2.3,5.9-4.5,7.5-9.4,7.5c-0.8,0-1.5,0-2.1-0.2v-3.3c0.5,0.2,1.2,0.3,1.9,0.3
		c3,0,4.2-1.1,5.7-5.1l-8.7-23h4.3l6.6,18.2h0.1l6.7-18.2h4.2L966.5,152.5z"/>
</g>
<g>
	<path class="st1" d="M44.4,30.7v21.7c0,3.7,3.1,9.1,6.2,11l41.5,24.6l24.3-14.4L44.4,30.7z M92.1,107.3l-41.5,24.6
		c-3.2,1.9-6.2,7.3-6.2,11v21.5l72.1-42.7L92.1,107.3z M41.7,182.7c-7,0-14-5.4-14-15.7v-24.1c0-9.6,6.2-20.4,14.4-25.3l33.7-20
		L42.2,77.7c-8.2-4.9-14.4-15.7-14.4-25.3V28c0-10.3,7-15.7,14-15.7c3,0,6,0.9,8.9,2.6l76.1,45.2c5.3,3.1,8.3,8,8.3,13.3
		c0,5.3-3,10.2-8.3,13.3l-18.2,10.8l18.2,10.8c5.3,3.2,8.4,8,8.4,13.3c0,5.3-3,10.2-8.4,13.3l-76.1,45.1
		C47.7,181.8,44.7,182.7,41.7,182.7"/>
	<path class="st2" d="M191.3,125.8c2.3,5.1,7.8,8.6,14,8.6c11.1,0,17.8-9,17.8-20.8c0-12-6.6-20.9-17.8-20.9c-6,0-11.6,3.7-14,8.6
		V125.8z M191.3,150.7h-20.8v-108h20.8v39.9c3.3-4,10.6-7.8,18.6-7.8c21.6,0,33.7,17.6,33.7,38.9c0,21.3-12.1,38.7-33.7,38.7
		c-8,0-15.3-3.8-18.6-7.8V150.7z"/>
	<path class="st2" d="M333.9,74.7c15.3,0,24.4,10.6,24.4,27.4v48.5h-20.6v-44.2c0-8-3.5-13.3-10.6-13.3c-5.3,0-10.1,3.3-11.5,9.6
		v47.9h-20.8v-44.2c0-8-3.3-13.3-10.5-13.3c-5.3,0-10.3,3.3-11.7,9.6v47.9h-20.6V76.4h20.6v6.1c3.7-4.6,10.5-7.8,18.8-7.8
		c8.8,0,15.8,4,19.9,9.5C316.3,78.9,323.4,74.7,333.9,74.7"/>
	<path class="st2" d="M402.2,74.7c18.6,0,30.4,11,32.6,26.8h-20.3c-1.2-5.6-5.6-9.1-12.3-9.1c-9.4,0-15.3,8.6-15.3,21.3
		c0,12.4,5.8,21.1,15.3,21.1c6.7,0,11.1-3.5,12.3-9.1h20.3c-2.1,15.9-13.9,26.7-32.6,26.7c-21.1,0-35.7-15.8-35.7-38.7
		C366.5,90.5,381.2,74.7,402.2,74.7"/>
</g>
<g>
	<rect x="472.2" y="64.4" class="st0" width="2" height="97.5"/>
</g>
</svg>
