<?xml version="1.0" encoding="UTF-8" standalone="no"?>
<svg width="61px" height="60px" viewBox="0 0 61 60" version="1.1" xmlns="http://www.w3.org/2000/svg" xmlns:xlink="http://www.w3.org/1999/xlink" xmlns:sketch="http://www.bohemiancoding.com/sketch/ns">
    <!-- Generator: Sketch 3.3.2 (12043) - http://www.bohemiancoding.com/sketch -->
    <title>s-DollarSign</title>
    <desc>Created with Sketch.</desc>
    <defs></defs>
    <g id="Page-1" stroke="none" stroke-width="1" fill="none" fill-rule="evenodd" sketch:type="MSPage">
        <path d="M51.3364302,8.80971026 L51.2894451,8.7862177 C45.8626635,3.35943618 38.3685367,-3.55271368e-15 30.0756628,-3.55271368e-15 C21.8062814,-3.55271368e-15 14.3356471,3.35943618 8.90886558,8.76272514 L8.88537302,8.80971026 C3.4585915,14.2364918 0.0756627598,21.7306186 0.0756627598,30 C0.0756627598,38.2458888 3.41160638,45.7400157 8.8383879,51.1667972 L8.88537302,51.2137823 C14.3121545,56.6405638 21.7827888,60 30.0756628,60 C38.3450441,60 45.839171,56.6640564 51.2424599,51.2372749 L51.2894451,51.1902897 C56.7162266,45.7635082 60.0756628,38.2693814 60.0756628,30 C60.0521702,21.7071261 56.7162266,14.2364918 51.3364302,8.80971026 L51.3364302,8.80971026 L51.3364302,8.80971026 Z M48.3058899,48.2067345 L48.3058899,48.2067345 C43.6308703,52.8582616 37.1939086,55.7478465 30.0756628,55.7478465 C22.9574169,55.7478465 16.5204552,52.8582616 11.8689282,48.2067345 C7.19390865,43.5552075 4.32781624,37.0947533 4.32781624,29.9765074 C4.32781624,22.8582616 7.19390865,16.3978074 11.8689282,11.7462803 C16.5204552,7.09475333 22.9809094,4.20516836 30.0756628,4.20516836 C37.1939086,4.20516836 43.6308703,7.09475333 48.3058899,11.7462803 C52.9809094,16.3978074 55.8470018,22.8582616 55.8470018,29.9765074 C55.8470018,37.0947533 52.9809094,43.531715 48.3058899,48.2067345 L48.3058899,48.2067345 L48.3058899,48.2067345 Z M45.5572603,14.5184025 L45.5572603,14.5184025 C41.6105101,10.5716523 36.1132509,8.128426 30.0756628,8.128426 C24.0615672,8.128426 18.5878006,10.5716523 14.6175578,14.5184025 C10.6708076,18.4651527 8.20408876,23.9389193 8.20408876,29.9765074 C8.20408876,36.0140955 10.6708076,41.4878622 14.6175578,45.4346124 C18.564308,49.3813626 24.0615672,51.8480814 30.0756628,51.8480814 C36.1132509,51.8480814 41.5870175,49.4048551 45.5572603,45.4346124 C49.5040104,41.4878622 51.9472368,36.0140955 51.9472368,29.9765074 C51.9237442,23.9389193 49.5040104,18.4651527 45.5572603,14.5184025 L45.5572603,14.5184025 L45.5572603,14.5184025 Z M43.7483331,43.6491778 L43.7483331,43.6491778 C40.2714341,47.1495693 35.4319666,49.3108849 30.0756628,49.3108849 C24.7428515,49.3108849 19.903384,47.1495693 16.4029924,43.6491778 C12.9026009,40.1487862 10.7412853,35.3093187 10.7412853,29.9765074 C10.7412853,24.6436962 12.9026009,19.8042287 16.4029924,16.3038371 C19.903384,12.8034456 24.7428515,10.64213 30.0756628,10.64213 C35.4319666,10.64213 40.2714341,12.8034456 43.7483331,16.3038371 C47.2487246,19.7807361 49.4100402,24.6436962 49.4100402,29.9765074 C49.4100402,35.3093187 47.2487246,40.1487862 43.7483331,43.6491778 L43.7483331,43.6491778 L43.7483331,43.6491778 Z M33.2236659,21.9420517 L33.2236659,21.9420517 C33.5995469,21.9420517 33.9284427,22.083007 34.1633683,22.3179327 C34.3982939,22.5528583 34.5627419,22.8817541 34.5627419,23.2341425 C34.5627419,23.9389193 35.1265633,24.5027408 35.8313401,24.5027408 C36.5361169,24.5027408 37.0999384,23.9389193 37.0999384,23.2341425 C37.0999384,22.2004699 36.6535798,21.2137823 35.9722955,20.532498 C35.2675187,19.8277212 34.3043237,19.4048551 33.2471585,19.4048551 L31.344261,19.4048551 L31.344261,18.3007048 C31.344261,17.595928 30.8039321,17.0321065 30.0756628,17.0321065 C29.3708859,17.0321065 28.8070645,17.595928 28.8070645,18.3007048 L28.8070645,19.4048551 L26.9276596,19.4048551 C25.893987,19.4048551 24.930792,19.8277212 24.2260151,20.532498 C23.4977458,21.2372749 23.0748797,22.2004699 23.0748797,23.2341425 L23.0748797,27.3688332 C23.0748797,28.4259984 23.5212383,29.3891934 24.2025226,30.0704777 C24.8838068,30.7282694 25.8000167,31.174628 26.7867043,31.1981206 L26.9276596,31.1981206 L28.8070645,31.1981206 L28.8070645,37.9639781 L26.9276596,37.9639781 C26.5752712,37.9639781 26.2463754,37.8230227 26.0114498,37.5880971 C25.7765242,37.3531715 25.6120762,37.0242756 25.6120762,36.6718872 C25.6120762,35.9671104 25.0482548,35.403289 24.343478,35.403289 C23.6152086,35.403289 23.0513871,35.9671104 23.0513871,36.6718872 C23.0513871,37.7055599 23.4977458,38.6922475 24.2025226,39.3735317 C24.9072994,40.054816 25.8470018,40.5011746 26.9041671,40.5011746 L28.7835719,40.5011746 L28.7835719,41.605325 C28.7835719,42.3101018 29.3473934,42.8739233 30.0521702,42.8739233 C30.7804396,42.8739233 31.3207685,42.3101018 31.3207685,41.605325 L31.3207685,40.5011746 L33.2236659,40.5011746 C34.2573386,40.5011746 35.2205336,40.0783085 35.9253104,39.3735317 C36.6300872,38.6687549 37.0529533,37.7055599 37.0529533,36.6718872 L37.0529533,32.5371966 C37.0529533,31.4800313 36.6065946,30.5168363 35.9253104,29.8355521 C35.2440261,29.1777604 34.3278162,28.7314017 33.3411287,28.7079092 L33.2001733,28.7079092 L31.2972759,28.7079092 L31.2972759,21.9420517 L33.2236659,21.9420517 L33.2236659,21.9420517 Z M28.8070645,28.7079092 L28.8070645,28.7079092 L26.9276596,28.7079092 C26.5752712,28.7079092 26.2463754,28.5669538 26.0114498,28.3320282 C25.7765242,28.0971026 25.6120762,27.7447142 25.6120762,27.4158183 L25.6120762,23.2811276 C25.6120762,22.9287392 25.7530316,22.5998434 26.0114498,22.3649178 C26.2463754,22.1299922 26.5752712,21.9890368 26.9276596,21.9890368 L28.8070645,21.9890368 L28.8070645,28.7079092 L28.8070645,28.7079092 Z M33.2236659,31.2451057 L33.2236659,31.2451057 C33.5995469,31.2451057 33.9284427,31.3860611 34.1633683,31.6444792 C34.3982939,31.8794049 34.5627419,32.2083007 34.5627419,32.5606891 L34.5627419,36.6953798 C34.5627419,37.0477682 34.4217865,37.3766641 34.1633683,37.6115897 C33.9284427,37.8465153 33.5995469,37.9874706 33.2471585,37.9874706 L31.344261,37.9874706 L31.344261,31.2216132 L33.2236659,31.2216132 L33.2236659,31.2451057 L33.2236659,31.2451057 Z" id="s-DollarSign" fill="#00A79D" sketch:type="MSShapeGroup"></path>
    </g>
</svg>