<?xml version="1.0" encoding="UTF-8" standalone="no"?>
<svg width="67px" height="72px" viewBox="0 0 67 72" version="1.1" xmlns="http://www.w3.org/2000/svg" xmlns:xlink="http://www.w3.org/1999/xlink" xmlns:sketch="http://www.bohemiancoding.com/sketch/ns">
    <!-- Generator: Sketch 3.3.3 (12072) - http://www.bohemiancoding.com/sketch -->
    <title>s-ITOps</title>
    <desc>Created with Sketch.</desc>
    <defs></defs>
    <g id="Page-1" stroke="none" stroke-width="1" fill="none" fill-rule="evenodd" sketch:type="MSPage">
        <g id="s-ITOps" sketch:type="MSLayerGroup" fill="#F86E00">
            <path d="M18.5,17.5 C23.1,17.5 26.9,13.8 26.9,9.1 C26.9,4.4 23.2,0.7 18.5,0.7 C13.8,0.7 10.1,4.4 10.1,9.1 C10.1,13.8 13.9,17.5 18.5,17.5 L18.5,17.5 Z M18.5,4 C21.4,4 23.6,6.4 23.6,9.1 C23.6,11.8 21.2,14.2 18.5,14.2 C15.8,14.2 13.4,11.8 13.4,9.1 C13.4,6.4 15.7,4 18.5,4 L18.5,4 Z" id="Shape" sketch:type="MSShapeGroup"></path>
            <path d="M31.6,17.8 L26,17.8 C24.6,17.8 23.2,18.5 22.5,19.8 L19.6,23.1 L19.5,23.2 C19,24 18,24 17.6,23.3 L14.7,19.9 C13.8,18.6 12.5,17.9 11.1,17.9 L6,17.9 C5.1,17.9 4.2,18.2 3.4,18.8 C2.3,19.7 0.4,21.5 0.4,24.5 L0.4,44.4 C0.4,45.5 0.7,46.5 1.3,47.3 C2.1,48.5 3.7,50.1 6.6,50.6 C7.3,50.7 7.7,51.4 7.7,52.3 L7.7,66.4 C7.7,69.4 10.1,71.6 12.8,71.2 C13.3,71.1 13.8,71.1 14.2,71 C15.6,70.8 16.7,70.6 18.3,70.6 C20.1,70.6 22.3,70.8 25.5,71.3 L26.1,71.3 C27.3,71.3 28.5,70.8 29.4,69.8 C30.2,68.9 30.7,67.6 30.7,66.4 L30.7,51.4 C30.7,50.7 31,50 31.5,49.8 C31.6,49.7 31.8,49.7 32,49.6 C33.1,49.2 34.7,48.5 35.6,47.4 C36.4,46.5 36.9,45.2 36.9,44 L36.9,25 C36.8,22.7 35.7,18.2 31.6,17.8 L31.6,17.8 Z M33.7,43.9 C33.7,44.4 33.4,44.9 33.2,45.2 C32.7,45.8 30.5,46.6 30.1,46.7 C28.4,47.4 27.3,49.2 27.3,51.2 L27.3,66.4 C27.3,66.9 27.1,67.3 26.8,67.7 C26.6,67.9 26.3,68.2 25.8,68.1 C22.5,67.6 20.1,67.4 18.1,67.4 C16.2,67.4 14.9,67.6 13.5,67.8 C13.1,67.9 12.6,67.9 12.1,68 C11.3,68.1 10.7,67.3 10.7,66.3 L10.7,52.3 C10.7,49.9 9.1,48 7.1,47.5 C5.2,47.1 4.2,46.1 3.8,45.4 C3.6,45.1 3.5,44.7 3.5,44.3 L3.5,24.4 C3.5,22.8 4.4,21.8 5.2,21.2 C5.4,21.1 5.6,21 5.8,21 L10.9,21 C11.3,21 11.6,21.2 11.9,21.6 L14.8,25 C15.7,26.3 17,27 18.4,27 C19.8,27 21.2,26.3 21.9,25 L24.8,21.7 L24.9,21.6 C25.2,21.2 25.5,21 25.9,21 L31.3,21 C33.4,21.2 33.7,24.3 33.7,24.9 L33.7,43.9 L33.7,43.9 Z" id="Shape" sketch:type="MSShapeGroup"></path>
            <path d="M15.8,28.7 L8.6,28.7 C7.7,28.7 7,29.4 7,30.3 L7,35.3 C7,36.2 7.7,36.9 8.6,36.9 L15.8,36.9 C16.7,36.9 17.4,36.2 17.4,35.3 L17.4,30.3 C17.4,29.4 16.7,28.7 15.8,28.7 L15.8,28.7 Z M14.2,33.8 L10.2,33.8 L10.2,31.9 L14.2,31.9 L14.2,33.8 L14.2,33.8 Z" id="Shape" sketch:type="MSShapeGroup"></path>
            <path d="M61.3,37 L46.5,37 C43.6,37 41.4,39.4 41.4,42.1 L41.4,65.2 C41.4,68.1 43.8,70.3 46.5,70.3 L61.3,70.3 C64.2,70.3 66.4,67.9 66.4,65.2 L66.4,42.2 C66.4,39.3 64.2,37 61.3,37 L61.3,37 Z M63.1,65.2 C63.1,66.2 62.3,67 61.3,67 L46.5,67 C45.5,67 44.7,66.2 44.7,65.2 L44.7,55.3 L63,55.3 L63,65.2 L63.1,65.2 Z M63.1,51.9 L44.7,51.9 L44.7,46.1 L63,46.1 L63,51.9 L63.1,51.9 Z M63.1,42.8 L44.7,42.8 L44.7,42.2 C44.7,41.2 45.5,40.4 46.5,40.4 L61.3,40.4 C62.3,40.4 63.1,41.2 63.1,42.2 C63.1,42.2 63.1,42.8 63.1,42.8 L63.1,42.8 Z" id="Shape" sketch:type="MSShapeGroup"></path>
            <path d="M54.6,65.4 L58.7,65.4 C59.6,65.4 60.4,64.6 60.4,63.7 C60.4,62.8 59.6,62 58.7,62 L54.6,62 C53.7,62 52.9,62.8 52.9,63.7 C52.9,64.6 53.6,65.4 54.6,65.4 L54.6,65.4 Z" id="Shape" sketch:type="MSShapeGroup"></path>
            <path d="M54.6,60.8 L58.7,60.8 C59.6,60.8 60.4,60 60.4,59.1 C60.4,58.2 59.6,57.4 58.7,57.4 L54.6,57.4 C53.7,57.4 52.9,58.2 52.9,59.1 C52.9,60.1 53.6,60.8 54.6,60.8 L54.6,60.8 Z" id="Shape" sketch:type="MSShapeGroup"></path>
            <circle id="Oval" sketch:type="MSShapeGroup" cx="49.1" cy="63.7" r="1.7"></circle>
            <circle id="Oval" sketch:type="MSShapeGroup" cx="49.1" cy="59.1" r="1.7"></circle>
            <path d="M50,50.6 L57.8,50.6 C58.7,50.6 59.5,49.8 59.5,48.9 C59.5,48 58.7,47.2 57.8,47.2 L50,47.2 C49.1,47.2 48.3,48 48.3,48.9 C48.3,50 49.1,50.6 50,50.6 L50,50.6 Z" id="Shape" sketch:type="MSShapeGroup"></path>
        </g>
    </g>
</svg>