<?xml version="1.0" encoding="UTF-8" standalone="no"?>
<svg width="67px" height="67px" viewBox="0 0 67 67" version="1.1" xmlns="http://www.w3.org/2000/svg" xmlns:xlink="http://www.w3.org/1999/xlink" xmlns:sketch="http://www.bohemiancoding.com/sketch/ns">
    <!-- Generator: Sketch 3.3.3 (12072) - http://www.bohemiancoding.com/sketch -->
    <title>s-ITAuto</title>
    <desc>Created with Sketch.</desc>
    <defs></defs>
    <g id="Page-1" stroke="none" stroke-width="1" fill="none" fill-rule="evenodd" sketch:type="MSPage">
        <g id="Biz_Icon_IT_Mang" sketch:type="MSLayerGroup" fill="#F98700">
            <g id="server_automation_2_1_" sketch:type="MSShapeGroup">
                <g id="s-ITAuto">
                    <path d="M19.1,52.9 C15.4,54 11.5,52 10.3,48.2 C9.1,44.4 11.2,40.6 15,39.4 C18.8,38.2 22.6,40.3 23.8,44.1 C24.8,47.9 22.7,51.8 19.1,52.9 L19.1,52.9 Z M16,42.8 C14,43.4 13,45.4 13.6,47.4 C14.2,49.4 16.2,50.4 18.2,49.8 C20.2,49.2 21.2,47.2 20.6,45.2 C20,43.3 17.9,42.2 16,42.8 L16,42.8 Z" id="Shape"></path>
                    <path d="M13.9,33.1 C14.6,33.1 14.6,33.6 16.2,36.5 L16.4,36.5 C17.4,36.5 18.3,36.6 18.8,36.7 C19.1,36.7 19.3,36.8 19.5,36.8 C21.5,34.4 21.8,33.8 22.3,33.8 L22.5,33.8 L24.2,34.6 C24.5,35 24.2,35.6 23.5,38.7 C24.8,40 25.4,41 25.6,41.3 C27.5,41.1 28.4,41 28.9,41 C29.4,41 29.5,41.1 29.6,41.3 L30.2,43.1 C30.1,43.6 29.5,43.8 26.8,45.4 C26.8,45.6 26.8,46.6 26.7,47.3 C26.6,47.8 26.5,48.8 26.4,49 C28.7,51.1 29.3,51.4 29.4,52 L28.6,53.7 C28.5,53.8 28.3,53.9 28.1,53.9 C27.6,53.9 26.8,53.6 24.5,53 C24.4,53.2 24,53.5 23.5,53.9 C22.8,54.6 22.3,54.8 22,55 C22.3,58.4 22.5,58.8 22,59.2 L20.2,59.8 C19.7,59.7 19.5,59.1 17.9,56.4 C17.9,56.4 17.9,56.4 17.8,56.4 C17.5,56.4 16.6,56.4 16.1,56.3 C15.5,56.2 14.5,56.1 14.3,56 C12.2,58.3 11.9,58.9 11.3,59 L9.7,58.2 C9.2,57.7 9.5,57.5 10.4,54.1 C8.9,52.7 8.4,51.5 8.3,51.5 C6.5,51.6 5.5,51.7 4.9,51.7 C4.4,51.7 4.2,51.6 4.1,51.5 L3.5,49.7 C3.5,49 4,49 6.9,47.4 C6.9,47.2 6.9,46.7 7,45.8 C7.1,45 7.2,44.3 7.3,44.1 C4.7,41.9 4.2,41.8 4.4,41.1 L5.2,39.4 C5.3,39.3 5.4,39.3 5.6,39.3 C6.1,39.3 7,39.6 9.3,40.1 C9.4,40 10.2,39.2 10.8,38.7 C11,38.5 11.8,38 12,37.9 C11.8,34.7 11.7,34.1 12,33.7 L13.9,33.1 L13.9,33.1 Z M14,30.3 L13.2,30.4 L11.3,31 L10.1,31.8 C9.1,32.9 9.2,34 9.3,36.2 L9.3,36.5 L9.2,36.6 C9,36.7 8.8,36.9 8.6,37.1 C8.5,37.1 8.4,37 8.3,37 C7,36.6 6.3,36.5 5.7,36.5 C5,36.5 4.5,36.7 3.9,37 L2.9,38.1 L2.1,39.8 L1.8,40.6 C1.4,42.6 2.7,43.7 4.1,44.9 C4.2,44.9 4.3,45 4.4,45.1 L4.4,45.5 L4.4,45.6 C4.3,45.7 4.1,45.7 4,45.8 C2.3,46.7 0.9,47.5 0.9,49.5 L1,50.3 L1.6,52.2 L2.3,53.4 C3.3,54.2 4.4,54.2 4.9,54.2 C5.4,54.2 5.8,54.2 6.6,54.1 L6.9,54.1 C7,54.3 7.2,54.5 7.4,54.7 C7.4,54.9 7.3,55 7.3,55.1 C6.7,56.9 6.3,58.5 7.8,59.9 L8.5,60.5 L10.2,61.3 L11.7,61.6 C13.2,61.5 13.9,60.7 15.3,59.1 C15.4,59 15.4,58.9 15.5,58.9 C15.7,58.9 15.8,58.9 16,59 L16.4,59 C16.5,59.1 16.5,59.2 16.6,59.3 C17.6,61.1 18.3,62.1 19.7,62.5 L21,62.5 L22.8,61.9 L23.5,61.5 C25.2,60.3 25,58.7 24.8,56.8 L24.8,56.4 C24.9,56.3 25.1,56.2 25.2,56.1 C25.4,56.1 25.5,56.2 25.6,56.2 C26.8,56.6 27.4,56.8 28.1,56.8 C28.8,56.8 29.7,56.6 30.5,55.9 L31,55.2 L31.8,53.5 L32.1,52 C32,50.5 31.2,49.8 29.6,48.4 C29.5,48.3 29.4,48.3 29.4,48.2 L29.4,47.9 L29.4,47.3 C29.5,47.2 29.6,47.2 29.7,47.1 C31.5,46.1 32.5,45.4 32.9,44 L32.9,42.5 L32.3,40.5 L32,39.8 C31.3,38.9 30.3,38.3 29,38.3 C28.5,38.3 28.1,38.4 27.3,38.4 L27,38.4 C26.9,38.2 26.7,38.1 26.6,37.9 C26.6,37.8 26.7,37.7 26.7,37.6 C27.3,35.6 27.5,34.5 26.7,33.2 L25.6,32.2 L24,31.4 L23.2,31.1 C23,31.1 22.8,31 22.6,31 C20.9,31 20.1,32 19,33.4 C18.9,33.5 18.8,33.6 18.7,33.7 C18.5,33.7 18.2,33.6 18,33.6 C17.9,33.5 17.9,33.3 17.8,33.2 C16.8,31.8 16,30.4 14,30.3 L14,30.3 L14,30.3 Z" id="Shape"></path>
                    <path d="M61.7,0.1 L22.4,0.1 C19.6,0.1 17.3,2.4 17.3,5.2 L17.3,29.1 C17.3,29.8 17.9,30.4 18.6,30.4 L19.3,30.4 C20,30.4 20.6,29.8 20.6,29.1 L20.6,5.2 C20.6,4.2 21.4,3.4 22.4,3.4 L61.7,3.4 C62.7,3.4 63.5,4.2 63.5,5.2 L63.5,61 C63.5,62 62.7,62.8 61.7,62.8 L24,62.8 C23.1,62.8 22.3,63.5 22.3,64.5 L22.3,64.5 C22.3,65.4 23,66.2 24,66.2 L61.7,66.2 C64.5,66.2 66.8,63.9 66.8,61.1 L66.8,5.3 C66.8,2.3 64.5,0.1 61.7,0.1 L61.7,0.1 Z" id="Shape"></path>
                    <path d="M34.2,52.2 C34.2,53.1 34.9,53.9 35.9,53.9 L57.3,53.9 C58.2,53.9 59,53.2 59,52.2 C59,51.3 58.3,50.5 57.3,50.5 L35.9,50.5 C34.9,50.5 34.2,51.3 34.2,52.2 L34.2,52.2 Z" id="Shape"></path>
                    <path d="M34.2,43.9 C34.2,44.8 34.9,45.6 35.9,45.6 L57.3,45.6 C58.2,45.6 59,44.9 59,43.9 C59,43 58.3,42.2 57.3,42.2 L35.9,42.2 C34.9,42.3 34.2,43.1 34.2,43.9 L34.2,43.9 Z" id="Shape"></path>
                    <path d="M34.2,35.7 C34.2,36.6 34.9,37.4 35.9,37.4 L57.3,37.4 C58.2,37.4 59,36.7 59,35.7 C59,34.8 58.3,34 57.3,34 L35.9,34 C34.9,34 34.2,34.8 34.2,35.7 L34.2,35.7 Z" id="Shape"></path>
                    <path d="M18.7,24.7 C18.7,25.6 19.4,26.4 20.4,26.4 L63.8,26.4 C64.7,26.4 65.5,25.7 65.5,24.7 C65.5,23.7 64.8,23 63.8,23 L20.3,23 C19.4,23.1 18.7,23.8 18.7,24.7 L18.7,24.7 Z" id="Shape"></path>
                    <path d="M25.9,18.3 C25.9,19.2 26.7,20 27.6,20 L57.3,20 C58.2,20 59,19.2 59,18.3 C59,17.4 58.3,16.6 57.3,16.6 L27.6,16.6 C26.7,16.7 25.9,17.5 25.9,18.3 L25.9,18.3 Z" id="Shape"></path>
                    <path d="M18.7,12 C18.7,12.9 19.4,13.7 20.4,13.7 L63.8,13.7 C64.7,13.7 65.5,13 65.5,12 C65.5,11 64.8,10.3 63.8,10.3 L20.3,10.3 C19.4,10.3 18.7,11.1 18.7,12 L18.7,12 Z" id="Shape"></path>
                </g>
            </g>
        </g>
    </g>
</svg>