<?xml version="1.0" encoding="UTF-8" standalone="no"?>
<svg width="68px" height="67px" viewBox="0 0 68 67" version="1.1" xmlns="http://www.w3.org/2000/svg" xmlns:xlink="http://www.w3.org/1999/xlink" xmlns:sketch="http://www.bohemiancoding.com/sketch/ns">
    <!-- Generator: Sketch 3.3.3 (12072) - http://www.bohemiancoding.com/sketch -->
    <title>s-Mainframe</title>
    <desc>Created with Sketch.</desc>
    <defs></defs>
    <g id="Page-1" stroke="none" stroke-width="1" fill="none" fill-rule="evenodd" sketch:type="MSPage">
        <g id="Biz_Icon_Mainframe" sketch:type="MSLayerGroup" fill="#D7DF0F">
            <g id="s-Mainframe" sketch:type="MSShapeGroup">
                <path d="M56.8,50.8 C57.7,50.8 58.5,50 58.5,49.1 L58.5,42.2 C58.5,41.3 57.7,40.5 56.8,40.5 C55.9,40.5 55.1,41.3 55.1,42.2 L55.1,49.1 C55.1,50.1 55.9,50.8 56.8,50.8 L56.8,50.8 Z" id="Shape"></path>
                <path d="M10.2,50.8 C11.1,50.8 11.9,50 11.9,49.1 L11.9,42.2 C11.9,41.3 11.1,40.5 10.2,40.5 C9.3,40.5 8.5,41.3 8.5,42.2 L8.5,49.1 C8.6,50.1 9.3,50.8 10.2,50.8 L10.2,50.8 Z" id="Shape"></path>
                <path d="M56.8,27.1 C57.7,27.1 58.5,26.3 58.5,25.4 L58.5,18.5 C58.5,17.6 57.7,16.8 56.8,16.8 C55.9,16.8 55.1,17.6 55.1,18.5 L55.1,25.4 C55.1,26.3 55.9,27.1 56.8,27.1 L56.8,27.1 Z" id="Shape"></path>
                <path d="M10.2,27.1 C11.1,27.1 11.9,26.3 11.9,25.4 L11.9,18.5 C11.9,17.6 11.1,16.8 10.2,16.8 C9.3,16.8 8.5,17.6 8.5,18.5 L8.5,25.4 C8.6,26.3 9.3,27.1 10.2,27.1 L10.2,27.1 Z" id="Shape"></path>
                <path d="M61.9,67 L6.1,67 C3.3,67 0.9,64.7 0.9,61.8 L0.9,53.5 C0.9,50.7 3.2,48.3 6.1,48.3 L61.9,48.3 C64.7,48.3 67.1,50.6 67.1,53.5 L67.1,61.8 C67,64.7 64.7,67 61.9,67 L61.9,67 Z M6.1,51.8 C5.1,51.8 4.3,52.6 4.3,53.6 L4.3,61.9 C4.3,62.9 5.1,63.7 6.1,63.7 L61.9,63.7 C62.9,63.7 63.7,62.9 63.7,61.9 L63.7,53.6 C63.7,52.6 62.9,51.8 61.9,51.8 C61.9,51.8 6.1,51.8 6.1,51.8 L6.1,51.8 Z" id="Shape"></path>
                <path d="M61.9,43.2 L6.1,43.2 C3.3,43.2 0.9,40.9 0.9,38 L0.9,28.9 C0.9,26.1 3.2,24.7 6.1,24.7 L61.9,24.7 C64.7,24.7 67.1,26.1 67.1,28.9 L67.1,38 C67,41 64.7,43.2 61.9,43.2 L61.9,43.2 Z M6.1,28.1 C5.1,28.1 4.3,28 4.3,28.9 L4.3,38 C4.3,39 5.1,39.8 6.1,39.8 L61.9,39.8 C62.9,39.8 63.7,39 63.7,38 L63.7,28.9 C63.7,27.9 62.9,28.1 61.9,28.1 L6.1,28.1 L6.1,28.1 Z" id="Shape"></path>
                <path d="M61.9,19.5 L6.1,19.5 C3.3,19.5 0.9,17.2 0.9,14.3 L0.9,6.1 C0.9,3.3 3.2,0.9 6.1,0.9 L61.9,0.9 C64.7,0.9 67.1,3.2 67.1,6.1 L67.1,14.4 C67,17.1 64.7,19.5 61.9,19.5 L61.9,19.5 Z M6.1,4.3 C5.1,4.3 4.3,5.1 4.3,6.1 L4.3,14.4 C4.3,15.4 5.1,16.2 6.1,16.2 L61.9,16.2 C62.9,16.2 63.7,15.4 63.7,14.4 L63.7,6.1 C63.7,5.1 62.9,4.3 61.9,4.3 L6.1,4.3 L6.1,4.3 Z" id="Shape"></path>
                <path d="M29.8,58.6 C29.8,59.5 30.6,60.3 31.5,60.3 L38.4,60.3 C39.3,60.3 40.1,59.5 40.1,58.6 C40.1,57.7 39.3,56.9 38.4,56.9 L31.5,56.9 C30.5,56.9 29.8,57.7 29.8,58.6 L29.8,58.6 Z" id="Shape"></path>
                <path d="M29.8,33.9 C29.8,34.8 30.6,35.6 31.5,35.6 L38.4,35.6 C39.3,35.6 40.1,34.8 40.1,33.9 C40.1,33 39.3,32.2 38.4,32.2 L31.5,32.2 C30.5,32.2 29.8,33 29.8,33.9 L29.8,33.9 Z" id="Shape"></path>
                <path d="M29.8,10.2 C29.8,11.1 30.6,11.9 31.5,11.9 L38.4,11.9 C39.3,11.9 40.1,11.1 40.1,10.2 C40.1,9.3 39.3,8.5 38.4,8.5 L31.5,8.5 C30.5,8.5 29.8,9.2 29.8,10.2 L29.8,10.2 Z" id="Shape"></path>
                <path d="M8.7,58.6 C8.7,59.5 9.5,60.3 10.4,60.3 L23.6,60.3 C24.5,60.3 25.3,59.5 25.3,58.6 C25.3,57.7 24.5,56.9 23.6,56.9 L10.4,56.9 C9.5,56.9 8.7,57.7 8.7,58.6 L8.7,58.6 Z" id="Shape"></path>
                <path d="M8.7,33.9 C8.7,34.8 9.5,35.6 10.4,35.6 L23.6,35.6 C24.5,35.6 25.3,34.8 25.3,33.9 C25.3,33 24.5,32.2 23.6,32.2 L10.4,32.2 C9.5,32.2 8.7,33 8.7,33.9 L8.7,33.9 Z" id="Shape"></path>
                <path d="M8.7,10.2 C8.7,11.1 9.5,11.9 10.4,11.9 L23.6,11.9 C24.5,11.9 25.3,11.1 25.3,10.2 C25.3,9.3 24.5,8.5 23.6,8.5 L10.4,8.5 C9.5,8.5 8.7,9.2 8.7,10.2 L8.7,10.2 Z" id="Shape"></path>
                <circle id="Oval" cx="51.7" cy="58.6" r="1.7"></circle>
                <circle id="Oval" cx="51.7" cy="33.9" r="1.7"></circle>
                <circle id="Oval" cx="51.7" cy="10.2" r="1.7"></circle>
                <circle id="Oval" cx="57.1" cy="58.6" r="1.7"></circle>
                <circle id="Oval" cx="57.1" cy="33.9" r="1.7"></circle>
                <circle id="Oval" cx="57.1" cy="10.2" r="1.7"></circle>
            </g>
        </g>
    </g>
</svg>