<?xml version="1.0" encoding="UTF-8" standalone="no"?>
<svg width="53px" height="60px" viewBox="0 0 53 60" version="1.1" xmlns="http://www.w3.org/2000/svg" xmlns:xlink="http://www.w3.org/1999/xlink" xmlns:sketch="http://www.bohemiancoding.com/sketch/ns">
    <!-- Generator: Sketch 3.3.2 (12043) - http://www.bohemiancoding.com/sketch -->
    <title>s-Ribbon</title>
    <desc>Created with Sketch.</desc>
    <defs></defs>
    <g id="Page-1" stroke="none" stroke-width="1" fill="none" fill-rule="evenodd" sketch:type="MSPage">
        <path d="M52.2031428,49.9218893 L45.2621315,37.9086004 C48.3321942,33.9486645 50.1341875,28.9653743 50.1341875,23.5593943 C50.1341875,17.0633196 47.5090614,11.1679093 43.2376698,6.89651768 C38.9662782,2.64737292 33.0931148,0 26.5970401,0 C20.1009653,0 14.1833082,2.64737292 9.95641029,6.89651768 C5.68501869,11.1456625 3.03764577,17.0410727 3.03764577,23.5593943 C3.03764577,28.9653743 4.86188593,33.9486645 7.93194865,37.9086004 L0.990937299,49.9218893 C0.746222156,50.2333449 0.679481662,50.6560347 0.768468987,51.0787245 C0.990937299,51.8351168 1.72508273,52.2800534 2.50372182,52.0798319 L11.8473909,49.56594 L14.3612829,58.9318559 C14.4502702,59.2878052 14.6727385,59.5992609 15.006441,59.7994824 C15.6738459,60.1776785 16.5414723,59.9552102 16.9419153,59.2878052 L24.0164076,47.0075544 C24.8617872,47.0965417 25.7294136,47.1410354 26.5970401,47.1410354 C27.4646665,47.1410354 28.3322929,47.0965417 29.1776725,47.0075544 L36.2521648,59.2878052 C36.6303609,59.9552102 37.4757405,60.1999253 38.1653923,59.8217292 C38.4990948,59.6215077 38.7215631,59.3100521 38.8105504,58.9541028 L41.3466892,49.5881868 L50.6903583,52.1020788 C51.4467505,52.3023002 52.2031428,51.8573636 52.4033643,51.1009714 C52.5145984,50.6560347 52.4033643,50.2333449 52.2031428,49.9218893 L52.2031428,49.9218893 L52.2031428,49.9218893 Z M16.1632762,54.9274263 L16.1632762,54.9274263 L14.1833082,47.4747379 C13.9608399,46.7405924 13.2044476,46.2956558 12.4480554,46.4958773 L12.4258086,46.5181241 L4.99536692,48.4980921 L9.8229293,40.1555304 L9.91191663,40.2445177 C12.9152388,43.2478399 16.7639406,45.4725231 21.0353322,46.4958773 L16.1632762,54.9274263 L16.1632762,54.9274263 Z M26.5747932,42.4247072 L26.5747932,42.4247072 C21.3690347,42.4247072 16.6527065,40.3112582 13.2266945,36.907493 C9.80068247,33.481481 7.70948033,28.7651528 7.70948033,23.5593943 C7.70948033,18.3536358 9.80068247,13.6373075 13.2266945,10.2112955 C16.6527065,6.78528353 21.3690347,4.67183456 26.5747932,4.67183456 C31.7805517,4.67183456 36.49688,6.78528353 39.922892,10.2112955 C43.3266571,13.6373075 45.4401061,18.3536358 45.4401061,23.5593943 C45.4401061,28.7651528 43.3266571,33.5037278 39.922892,36.907493 C36.49688,40.3112582 31.7805517,42.4247072 26.5747932,42.4247072 L26.5747932,42.4247072 L26.5747932,42.4247072 Z M40.7237779,46.4958773 L40.7237779,46.4958773 L40.6792842,46.4736305 C39.922892,46.273409 39.1664997,46.7183456 38.9662782,47.452491 L36.9640634,54.9051795 L32.0920074,46.4513836 C36.3856458,45.4280294 40.2121008,43.2033463 43.215423,40.200024 L43.2821635,40.1110367 L48.1319727,48.4535984 L40.7237779,46.4958773 L40.7237779,46.4958773 Z M36.49688,13.6150607 L36.49688,13.6150607 C33.9384944,11.078922 30.423495,9.49939694 26.5747932,9.49939694 C22.7038446,9.49939694 19.1665984,11.078922 16.6527065,13.6150607 C14.1165677,16.1734463 12.5370427,19.6661988 12.5370427,23.5371474 C12.5370427,27.4080961 14.1165677,30.9230954 16.6527065,33.4592342 C19.1888453,36.0176198 22.7038446,37.574898 26.5747932,37.574898 C30.423495,37.574898 33.9384944,36.0176198 36.49688,33.4592342 C39.0330187,30.9230954 40.5902969,27.4080961 40.5902969,23.5371474 C40.6125437,19.6661988 39.0330187,16.1734463 36.49688,13.6150607 L36.49688,13.6150607 L36.49688,13.6150607 Z M34.516912,31.4792662 L34.516912,31.4792662 C32.4924503,33.5037278 29.6671028,34.7717972 26.5970401,34.7717972 C23.4824837,34.7717972 20.7016298,33.5259747 18.6771681,31.4792662 C16.6304597,29.4325577 15.3846371,26.6517038 15.3846371,23.5371474 C15.3846371,20.4448379 16.6304597,17.6417372 18.6771681,15.5950287 C20.7016298,13.5705671 23.5047305,12.3024977 26.5970401,12.3024977 C29.6893496,12.3024977 32.4924503,13.5705671 34.516912,15.5950287 C36.5413736,17.6194903 37.7871962,20.4225911 37.7871962,23.5371474 C37.7871962,26.6517038 36.5191268,29.4548046 34.516912,31.4792662 L34.516912,31.4792662 L34.516912,31.4792662 Z" id="s-Ribbon" fill="#F98700" sketch:type="MSShapeGroup"></path>
    </g>
</svg>