<?xml version="1.0" encoding="UTF-8" standalone="no"?>
<svg width="96px" height="76px" viewBox="0 0 96 76" version="1.1" xmlns="http://www.w3.org/2000/svg" xmlns:xlink="http://www.w3.org/1999/xlink">
    <!-- Generator: Sketch 40 (33762) - http://www.bohemiancoding.com/sketch -->
    <title>s-agile-application</title>
    <desc>Created with Sketch.</desc>
    <defs></defs>
    <g id="Page-1" stroke="none" stroke-width="1" fill="none" fill-rule="evenodd">
        <g id="s-agile-application" fill="#FE5000">
            <path d="M84.6027907,0 L29.9051163,0 C24.0612624,0.0897831507 19.3455971,4.80544845 19.255814,10.6493023 L19.255814,27.627907 C19.2402281,28.1683951 19.4480889,28.6914138 19.8304306,29.0737554 C20.2127723,29.4560971 20.735791,29.6639579 21.2762791,29.6483721 C22.4565289,29.689075 23.4643252,28.8035841 23.575814,27.627907 L23.575814,10.6493023 C23.6061285,7.16635915 26.4221731,4.35031454 29.9051163,4.32 L84.6027907,4.32 C88.0857339,4.35031454 90.9017785,7.16635915 90.932093,10.6493023 L90.932093,65.3469767 C90.9770175,67.0659081 90.3339408,68.7316621 89.1456088,69.9744856 C87.9572767,71.217309 86.3220086,71.9343742 84.6027907,71.9665116 L26.187907,71.9665116 C25.0751174,71.9665116 24.1730233,72.8686058 24.1730233,73.9813953 C24.1730233,75.0941849 25.0751174,75.9962791 26.187907,75.9962791 L84.6027907,75.9962791 C87.4289792,76.0022227 90.1411256,74.8821546 92.1395471,72.8837331 C94.1379686,70.8853117 95.2580367,68.1731652 95.252093,65.3469767 L95.252093,10.6493023 C95.1623099,4.80544845 90.4466446,0.0897831507 84.6027907,0" id="Shape"></path>
            <path d="M22.7386047,57.8455814 C20.5241102,58.5329031 18.1272567,58.3121319 16.0755733,57.2318578 C14.0238899,56.1515837 12.4855282,54.3003436 11.7990698,52.0855814 C10.2994322,47.3977032 12.8755685,42.3802284 17.5590698,40.8669767 C19.7735642,40.179655 22.1704178,40.4004262 24.2221011,41.4807003 C26.2737845,42.5609744 27.8121462,44.4122145 28.4986047,46.6269767 C29.9982422,51.3148549 27.4221059,56.3323297 22.7386047,57.8455814 M18.7088372,44.8967442 C16.3489048,45.7217221 15.0728601,48.2738115 15.8288372,50.6567442 C16.4093023,53.2465116 18.9990698,54.3962791 21.5888372,53.8269767 C23.9487696,53.0019988 25.2248143,50.4499095 24.4688372,48.0669767 C23.8883721,45.4772093 21.2986047,44.3274419 18.7088372,44.8967442" id="Shape"></path>
            <path d="M16.1190698,32.8074419 C16.9786047,32.8074419 16.9786047,33.3767442 19.2893023,37.1274419 L22.4595349,37.1274419 C22.7716796,37.3819877 23.1792164,37.4879473 23.575814,37.4176744 C26.1655814,34.5376744 26.455814,33.6781395 27.0251163,33.6781395 L27.3153488,33.6781395 L29.3246512,34.7944186 C29.6148837,35.3748837 29.3246512,36.2344186 28.4651163,39.9739535 C29.3963836,40.9732649 30.2614758,42.0322571 31.0548837,43.144186 C32.3899922,42.9560625 33.7363638,42.8590939 35.0846512,42.8539535 C35.6651163,42.8539535 35.944186,42.8539535 35.944186,43.144186 L36.8372093,45.4660465 C36.5469767,46.0465116 35.9776744,46.3255814 32.5172093,48.3460465 L32.5172093,50.6455814 C32.2269767,51.5051163 32.2269767,52.6548837 31.9367442,52.6548837 C35.1069767,55.5460465 35.7209302,55.8139535 35.7209302,56.4055814 L34.6046512,58.7051163 L33.9572093,58.7051163 C32.4772516,58.5096794 31.0265841,58.1348299 29.6372093,57.5888372 L28.1972093,59.0288372 C27.6691407,59.4714492 27.0879064,59.8464391 26.4669767,60.1451163 C26.7572093,64.4651163 27.0474419,65.0344186 26.4669767,65.6148837 L24.1674419,66.1953488 C23.5869767,65.9051163 23.307907,65.335814 20.9972093,61.8753488 L18.9767442,61.8753488 C18.2497148,61.6750615 17.4982595,61.5773723 16.744186,61.5851163 C14.1544186,64.4651163 13.5739535,65.0344186 13.0046512,65.0344186 L10.9953488,64.1748837 C10.4148837,63.6055814 10.7051163,63.0586047 11.8548837,58.9953488 C10.9053656,57.9129518 10.0396093,56.7598539 9.26511628,55.5460465 C7.8148125,55.740055 6.35244139,55.829588 4.88930233,55.8139535 C4.57462378,55.8432463 4.26227584,55.7377782 4.02976744,55.5237209 L3.44930233,53.2353488 C3.44930233,52.6548837 4.01860465,52.375814 7.76930233,50.3553488 C7.47906977,50.0651163 7.47906977,49.495814 7.76930233,48.3348837 C7.79907881,47.6571398 7.89630312,46.9840484 8.05953488,46.3255814 C4.61023256,43.4455814 4.32,43.4455814 4.32,42.5860465 L5.43627907,40.5655814 C5.43309516,40.4876744 5.46264943,40.4119882 5.51778395,40.3568537 C5.57291847,40.3017192 5.64860467,40.2721649 5.72651163,40.2753488 C6.58604651,40.2753488 7.73581395,40.8446512 10.615814,41.3916279 L12.3460465,39.6613953 C12.8778101,39.3613591 13.3629251,38.9853009 13.7860465,38.5451163 C13.7860465,34.8055814 13.495814,33.9348837 13.7860465,33.3655814 L16.0855814,32.7962791 M16.375814,29.3469767 L15.2595349,29.3469767 L12.96,30.2065116 L11.52,31.0660465 C10.0465116,32.5172093 10.0465116,33.9572093 10.3590698,36.5469767 L10.3590698,37.1274419 C10.0149213,37.2111355 9.71086618,37.4125227 9.49953488,37.6967442 C9.42162793,37.6999281 9.34594173,37.6703738 9.29080721,37.6152393 C9.23567269,37.5601048 9.20611841,37.4844186 9.20930233,37.4065116 C8.07265997,37.144351 6.92060155,36.9542054 5.76,36.8372093 C5.05844481,36.8959628 4.37550532,37.0932564 3.75069767,37.4176744 L2.29953488,38.8465116 L1.18325581,40.855814 L0.893023256,41.972093 C0.580465116,44.6511628 2.00930233,45.7674419 4.02976744,47.4865116 L4.32,47.7767442 L4.32,48.3572093 C4.08491363,48.3234013 3.85354032,48.439088 3.73953488,48.6474419 C1.73023256,49.7860465 0,50.6455814 0,53.2353488 L0,54.3516279 L0.580465116,56.6511628 L1.69674419,58.0911628 C2.57648776,58.8469978 3.70775298,59.2453306 4.86697674,59.2074419 L7.47906977,59.2074419 C7.73724468,59.3174925 7.94449238,59.5207546 8.05953488,59.7767442 C8.09009241,60.0112936 7.97527635,60.2409257 7.76930233,60.3572093 C7.18883721,62.6567442 6.65302326,64.3869767 8.34976744,66.3962791 L9.20930233,66.9655814 L11.5088372,68.0818605 L13.2390698,68.372093 C15.2595349,68.372093 16.1190698,67.255814 17.8493023,65.2130233 C17.9272093,65.2162072 18.0028955,65.1866529 18.05803,65.1315184 C18.1131645,65.0763839 18.1427188,65.0006977 18.1395349,64.9227907 C18.1395349,65.2130233 18.4297674,65.2130233 18.7088372,65.2130233 L19.2893023,65.2130233 L19.2893023,65.5032558 C20.7293023,67.8027907 21.2986047,68.9525581 23.3190698,69.5330233 L25.0493023,69.2427907 L27.3488372,68.6623256 L28.4651163,68.0930233 C30.4744186,66.6530233 30.1953488,64.6437209 29.9051163,62.3330233 L29.9051163,61.8753488 C30.1953488,61.8753488 30.1953488,61.5851163 30.4744186,61.5851163 L31.0548837,61.5851163 C31.9551385,62.0046503 32.9424022,62.2036337 33.9348837,62.1655814 C35.1050936,62.2838271 36.2671575,61.8746497 37.1051163,61.0493023 L37.6855814,60.1897674 L38.8018605,58.1804651 L39.092093,56.4502326 C39.092093,54.4409302 37.975814,53.5702326 35.9218605,51.8511628 C35.9218605,51.5609302 35.9218605,51.5609302 35.6316279,51.5609302 L35.6316279,50.935814 C35.9218605,50.935814 35.9218605,50.6455814 35.9218605,50.3665116 L36.212093,50.0762791 C38.5116279,48.96 39.6613953,48.055814 39.9516279,46.3367442 L39.9516279,44.3162791 L39.4269767,42.3069767 L38.8576744,41.1906977 C37.9896416,40.0117054 36.5786815,39.3588731 35.1181395,39.4604651 L32.5172093,39.4604651 C32.3610836,39.3073426 32.2591827,39.1074601 32.2269767,38.8911628 L32.2269767,38.5674419 C32.8074419,35.9776744 33.3432558,34.827907 32.2269767,33.0976744 L31.1106977,31.6576744 L28.8111628,30.7981395 L27.9069767,30.2176744 L27.0474419,30.2176744 C25.0381395,30.2176744 23.8772093,31.6576744 22.4483721,33.387907 L22.1581395,33.6781395 L21.2986047,33.6781395 C21.2986047,33.387907 21.0083721,33.387907 21.0083721,33.0976744 C19.892093,31.0883721 18.987907,29.3581395 16.4093023,29.3581395" id="Shape"></path>
            <path d="M84.0334884,27.3376744 C83.7809933,26.5087064 83.1322238,25.859937 82.3032558,25.6074419 C81.6240285,25.3957595 80.8855141,25.5024338 80.2939535,25.8976744 L59.575814,40.2865116 L48.3460465,32.8074419 C47.9451894,32.4429194 47.4254499,32.2366106 46.8837209,32.2269767 C46.5934884,32.2269767 46.024186,32.5172093 45.7674419,32.5172093 L43.1776744,34.2474419 L40.8669767,35.7209302 C39.9532074,36.2334668 39.4958824,37.2944609 39.7506977,38.3106977 C39.7637303,39.2155487 40.3380254,40.0168907 41.1906977,40.32 C41.9656024,40.5286757 42.7914784,40.4244389 43.4902326,40.0297674 L44.3497674,39.4604651 L45.4660465,38.88 L46.3255814,38.3106977 L46.8837209,37.6967442 L58.1134884,45.5106977 C58.5987489,45.5792111 59.0795742,45.6761216 59.5534884,45.8009302 C60.0860344,45.7890285 60.5967755,45.5871076 60.9934884,45.2316279 L82.8837209,30.2176744 L83.1739535,30.2176744 C83.9209331,29.4599681 84.2429972,28.3808444 84.0334884,27.3376744" id="Shape"></path>
            <path d="M83.7209302,26.4781395 C84.0464867,27.1064721 84.2438039,27.7932876 84.3013953,28.4986047 L83.1851163,36.8483721 C83.1851163,37.9646512 82.0688372,38.5786047 80.8855814,38.5786047 C79.7024898,38.326627 78.9352726,37.1782761 79.1553488,35.9888372 L80.0037209,29.0232558 L72.8037209,28.1637209 C72.2440753,28.1474099 71.7222322,27.8774283 71.3856077,27.4300434 C71.0489832,26.9826586 70.9341282,26.406448 71.0734884,25.864186 C71.2666746,24.7730476 72.2710709,24.0173125 73.3730233,24.1339535 L81.7227907,24.9934884 C82.479499,25.1895918 83.1744576,25.5735468 83.7432558,26.1097674 L83.7432558,26.4 L83.7209302,26.4781395 Z" id="Shape"></path>
        </g>
    </g>
</svg>