<?xml version="1.0" encoding="UTF-8" standalone="no"?>
<svg width="96px" height="96px" viewBox="0 0 96 96" version="1.1" xmlns="http://www.w3.org/2000/svg" xmlns:xlink="http://www.w3.org/1999/xlink">
    <!-- Generator: Sketch 40 (33762) - http://www.bohemiancoding.com/sketch -->
    <title>s-gear</title>
    <desc>Created with Sketch.</desc>
    <defs></defs>
    <g id="Page-1" stroke="none" stroke-width="1" fill="none" fill-rule="evenodd">
        <g id="s-gear" fill="#FE5000">
            <path d="M89.6948148,38.957037 L82.1925926,37.1674074 C81.5072197,35.3162176 80.6708226,33.5245045 79.6918519,31.8103704 L83.9822222,25.0192593 C85.4162963,22.5185185 86.1274074,18.5837037 83.9822222,16.4385185 L79.6918519,12.1481481 C78.5266163,11.050222 77.0015222,10.414064 75.4014815,10.3585185 C73.864909,10.4702925 72.3850047,10.9853973 71.1111111,11.8518519 L64.32,16.1422222 C62.5303704,15.4311111 60.7644444,14.7081481 58.6074074,13.997037 L57.1733333,6.08 C56.4622222,3.21185185 53.9614815,0 50.7377778,0 L44.6696296,0 C41.4814815,0 39.3125926,3.21185185 38.5896296,6.08 L36.8,13.9377778 C34.8076662,14.5534679 32.8913053,15.3923728 31.0874074,16.4385185 L23.9407407,11.8518519 C22.6608688,11.0063794 21.1813976,10.5118601 19.6503704,10.4177778 C18.0748121,10.4694662 16.5697605,11.0832581 15.4074074,12.1481481 L11.0814815,16.4385185 C8.9362963,18.5837037 9.64740741,22.5185185 11.0814815,25.0192593 L15.7274074,32.1303704 C14.7157904,33.6540958 13.9889626,35.3486888 13.5822222,37.1318519 L5.71259259,38.957037 C2.8562963,39.6681481 0,41.8133333 0,45.3807407 L0,51.0933333 C0,54.6488889 2.8562963,56.4503704 5.71259259,57.1733333 L13.5703704,59.3185185 C14.2814815,60.7525926 14.637037,62.5303704 15.7155556,63.9644444 L11.0814815,71.1111111 C9.64740741,73.6118519 8.9362963,77.5466667 11.0814815,79.6918519 L15.4074074,83.9822222 C16.6075327,84.9805658 18.1385433,85.4923125 19.6977778,85.4162963 C21.1970265,85.4460607 22.6773896,85.0780146 23.9881481,84.3496296 L31.0992593,79.7037037 C32.9349697,80.6857213 34.8450537,81.5218784 36.8118519,82.2044444 L38.9451852,90.0740741 C39.3007407,92.9303704 41.4459259,95.7866667 44.6577778,95.7866667 L50.7377778,95.7866667 C53.9496296,95.7866667 56.4503704,92.9303704 57.1733333,90.0740741 L58.962963,82.2162963 L64.32,80.0711111 L71.1111111,84.3377778 C72.4218697,85.0661628 73.9022327,85.4342089 75.4014815,85.4044444 C76.960716,85.4804606 78.4917266,84.968714 79.6918519,83.9703704 L83.9822222,79.68 C86.1274074,77.5348148 85.4162963,73.6 83.9822222,71.0992593 L79.6918519,64.3081481 C80.402963,62.5185185 81.1259259,61.0962963 81.837037,59.3066667 L89.6948148,57.1614815 C92.5511111,56.4503704 95.7748148,54.6607407 95.7748148,51.0814815 L95.7748148,45.3807407 C95.7748148,41.8251852 92.562963,39.6681481 89.6948148,38.9451852 L89.6948148,38.957037 Z M90.7733333,51.0933333 C90.7733333,51.4488889 90.0622222,52.1718519 88.6281481,52.5274074 L80.7703704,54.6725926 L78.2696296,55.0281481 L77.202963,57.5288889 C76.8249111,59.1530772 76.2225868,60.7167271 75.4133333,62.1748148 L74.3348148,64.6755556 L75.7688889,66.8207407 L79.7037037,73.6118519 C80.7703704,75.0459259 80.7703704,76.1125926 80.4148148,76.4681481 L76.1244444,80.402963 C76.1244444,80.7585185 75.4133333,80.7585185 75.4133333,80.7585185 C74.7949974,80.8148167 74.1735588,80.6913521 73.6237037,80.402963 L73.6237037,80.0474074 L66.8325926,75.757037 L64.3318519,74.322963 L62.1866667,75.757037 C60.5797837,76.5102371 58.9051366,77.1094592 57.1851852,77.5466667 L54.6844444,78.6133333 L54.3288889,81.1140741 L52.5392593,88.9718519 C52.1837037,90.0503704 51.4725926,91.117037 50.7496296,91.117037 L44.6696296,91.117037 C44.0946997,90.3951184 43.7260877,89.5309281 43.602963,88.6162963 L41.4814815,81.1140741 L40.7703704,78.6133333 L38.2696296,77.5466667 C36.4577537,77.1489827 34.7343412,76.4218552 33.1851852,75.4014815 L30.6844444,74.322963 L28.5392593,75.757037 L21.4281481,80.0474074 L21.4281481,80.402963 C20.8916002,80.7272733 20.2582894,80.8530967 19.6385185,80.7585185 C19.6385185,80.7585185 18.9274074,80.7585185 18.9274074,80.402963 L14.637037,76.4681481 C14.2814815,76.1125926 14.637037,75.0340741 15.3481481,73.6118519 L19.6385185,66.5007407 L21.0725926,64.3555556 L20.0059259,61.8548148 C19.3288497,60.581351 18.731166,59.2672385 18.2162963,57.92 L17.1496296,55.0637037 L14.6488889,54.7081481 L6.79111111,52.5274074 C5.35703704,52.1718519 4.64592593,51.4607407 4.64592593,51.0933333 L4.64592593,45.3807407 C4.64592593,44.6696296 5.71259259,43.9466667 6.79111111,43.5911111 L14.6488889,41.8014815 L17.1496296,41.4459259 L17.8607407,38.5896296 C18.4305873,37.0913931 19.1492446,35.6540784 20.0059259,34.2992593 L21.0725926,31.7985185 L19.6503704,29.6296296 L15.4074074,22.1511111 C14.6962963,21.0844444 14.3288889,20.0059259 14.6962963,19.6503704 L18.962963,15.4074074 L19.6740741,15.4074074 C20.2938449,15.3128293 20.9271557,15.4386526 21.4637037,15.762963 L21.4637037,16.1185185 L28.5748148,20.4088889 L30.72,21.842963 L33.1851852,20.3733333 C34.9748148,19.6622222 36.397037,18.9392593 38.1866667,18.2281481 L40.6874074,17.517037 L41.4814815,15.0044444 L43.5911111,7.11111111 C43.5892449,6.2680276 43.9844295,5.47326739 44.6577778,4.96592593 L50.7377778,4.96592593 C51.5583863,5.37654315 52.0964613,6.1949597 52.1481481,7.11111111 L52.5037037,7.11111111 L53.9377778,14.9688889 L54.6488889,17.4696296 L57.1496296,18.5362963 C58.869581,18.9735038 60.5442281,19.5727259 62.1511111,20.3259259 L64.2962963,21.76 L66.797037,20.3259259 L73.5881481,16.0355556 L73.5881481,15.68 C74.1380032,15.3916109 74.7594418,15.2681463 75.3777778,15.3244444 C75.3777778,15.3244444 76.0888889,15.3244444 76.0888889,15.68 L80.3792593,19.6148148 C80.7348148,19.9703704 80.7348148,21.0488889 79.6681481,22.4711111 L75.7333333,29.2622222 L74.2992593,31.4074074 L75.3777778,33.9081481 C76.1722093,35.4188938 76.8882214,36.9695941 77.522963,38.5540741 L78.2222222,41.4814815 L81.0785185,41.837037 L88.5807407,43.6266667 L88.9362963,43.6266667 C89.6474074,43.9822222 90.7259259,44.6933333 90.7259259,45.4162963 L90.7259259,51.1288889 L90.7733333,51.0933333 Z" id="Shape"></path>
            <path d="M47.8814815,58.962963 C43.9023751,59.0942037 40.1680542,57.0462805 38.1396473,53.6204846 C36.1112404,50.1946888 36.1112404,45.9356816 38.1396473,42.5098857 C40.1680542,39.0840899 43.9023751,37.0361667 47.8814815,37.1674074 C53.7603148,37.3613058 58.4257496,42.1831551 58.4257496,48.0651852 C58.4257496,53.9472152 53.7603148,58.7690645 47.8814815,58.962963 M47.8814815,42.1688889 C44.7732162,42.27891 42.27891,44.7732162 42.1688889,47.8814815 C42.1495939,49.4023883 42.7452566,50.8666463 43.8207866,51.9421763 C44.8963167,53.0177064 46.3605747,53.6133691 47.8814815,53.5940741 C50.9897468,53.484053 53.484053,50.9897468 53.5940741,47.8814815 C53.3824847,44.8184228 50.9445402,42.3804782 47.8814815,42.1688889" id="Shape"></path>
            <path d="M47.5259259,73.2562963 C33.8261479,72.9591239 22.8753287,61.7681859 22.8753287,48.0651852 C22.8753287,34.3621845 33.8261479,23.1712465 47.5259259,22.8740741 C48.1940632,22.8576504 48.8397235,23.1158431 49.3123106,23.5884302 C49.7848977,24.0610172 50.0430903,24.7066776 50.0266667,25.3748148 C50.0834498,26.8397866 48.9855519,28.0937838 47.5259259,28.2311111 C40.4398937,28.231111 33.8921297,32.0114641 30.3491136,38.148148 C26.8060974,44.284832 26.8060974,51.8455384 30.3491136,57.9822223 C33.8921297,64.1189063 40.4398937,67.8992594 47.5259259,67.8992593 C48.9855519,68.0365866 50.0834498,69.2905837 50.0266667,70.7555556 C50.0430903,71.4236928 49.7848977,72.0693531 49.3123106,72.5419402 C48.8397235,73.0145273 48.1940632,73.2727199 47.5259259,73.2562963" id="Shape"></path>
            <path d="M70.0444444,50.7377778 C68.589542,50.5945873 67.4983311,49.3422929 67.5555556,47.8814815 C67.2911848,37.0189305 58.4094713,28.3507485 47.5437037,28.3507485 C36.6779361,28.3507485 27.7962226,37.0189305 27.5318519,47.8814815 C27.588635,49.3464533 26.4907371,50.6004505 25.0311111,50.7377778 C23.5667634,50.6063483 22.4621521,49.3506346 22.5185185,47.8814815 C22.8146243,34.2791331 33.9262809,23.4067307 47.5318519,23.4067307 C61.1374228,23.4067307 72.2490794,34.2791331 72.5451852,47.8814815 C72.6019683,49.3464533 71.5040704,50.6004505 70.0444444,50.7377778" id="Shape"></path>
            <path d="M47.5259259,73.2562963 C40.7981474,73.2450599 34.3542615,70.5437487 29.6296296,65.7540741 C29.1194064,65.3040995 28.8271119,64.656594 28.8271119,63.9762963 C28.8271119,63.2959986 29.1194064,62.6484931 29.6296296,62.1985185 C30.7221367,61.1263807 32.4719374,61.1263807 33.5644444,62.1985185 C37.291977,65.9724788 42.375542,68.0966144 47.68,68.0966144 C52.984458,68.0966144 58.068023,65.9724788 61.7955556,62.1985185 C62.7985517,61.3620895 64.2739248,61.4287534 65.1974005,62.3522291 C66.1208762,63.2757048 66.1875402,64.751078 65.3511111,65.7540741 C60.6438267,70.5262796 54.2290269,73.2261255 47.5259259,73.2562963" id="Shape"></path>
            <path d="M70.0444444,55.0281481 C69.0949815,55.0554322 68.1811705,54.665655 67.5437037,53.9614815 L62.1748148,48.5925926 C61.3383857,47.5895965 61.4050497,46.1142234 62.3285254,45.1907477 C63.2520011,44.2672719 64.7273743,44.200608 65.7303704,45.037037 L70.0207407,49.3274074 L74.322963,45.037037 C75.3259591,44.200608 76.8013322,44.2672719 77.7248079,45.1907477 C78.6482836,46.1142234 78.7149476,47.5895965 77.8785185,48.5925926 L72.877037,53.9496296 C72.1000467,54.6633721 71.0753773,55.0460287 70.0207407,55.0162963" id="Shape"></path>
        </g>
    </g>
</svg>