<?xml version="1.0" encoding="UTF-8" standalone="no"?>
<svg width="95px" height="67px" viewBox="0 0 95 67" version="1.1" xmlns="http://www.w3.org/2000/svg" xmlns:xlink="http://www.w3.org/1999/xlink">
    <!-- Generator: Sketch 40 (33762) - http://www.bohemiancoding.com/sketch -->
    <title>s-multi-source</title>
    <desc>Created with Sketch.</desc>
    <defs></defs>
    <g id="Page-1" stroke="none" stroke-width="1" fill="none" fill-rule="evenodd">
        <g id="s-multi-source" fill="#FE5000">
            <path d="M65.1060465,45.3209302 C65.1762527,45.8683381 65.0088981,46.4196279 64.6462307,46.8356287 C64.2835634,47.2516295 63.7602402,47.4925877 63.2083721,47.4976744 L52.8939535,47.4976744 C52.3420854,47.4925877 51.8187622,47.2516295 51.4560948,46.8356287 C51.0934275,46.4196279 50.9260729,45.8683381 50.9962791,45.3209302 C50.983908,44.8139444 51.1798657,44.3240422 51.5384656,43.9654423 C51.8970655,43.6068425 52.3869676,43.4108847 52.8939535,43.4232558 L63.2083721,43.4232558 C63.715358,43.4108847 64.2052601,43.6068425 64.56386,43.9654423 C64.9224598,44.3240422 65.1184176,44.8139444 65.1060465,45.3209302" id="Shape"></path>
            <path d="M68.3655814,45.3209302 C68.3885589,46.125073 68.0960964,46.9063084 67.5506977,47.4976744 L63.744186,51.5609302 C62.8245639,52.1027243 61.6833431,52.1027243 60.7637209,51.5609302 C59.9540024,50.7324272 59.9540024,49.4089681 60.7637209,48.5804651 L64.0232558,45.3209302 L60.7637209,42.3404651 C59.9540024,41.5119621 59.9540024,40.188503 60.7637209,39.36 C61.5858859,38.8153447 62.6541141,38.8153447 63.4762791,39.36 L67.5506977,43.4344186 C68.0431945,43.9474065 68.3327521,44.6217185 68.3655814,45.332093" id="Shape"></path>
            <path d="M51.532093,28.7553488 C51.5197219,29.2623347 51.7156797,29.7522369 52.0742796,30.1108367 C52.4328794,30.4694366 52.9227816,30.6653943 53.4297674,30.6530233 L63.744186,30.6530233 C64.7922427,30.6530232 65.6418604,29.8034054 65.6418604,28.7553488 C65.6418604,27.7072922 64.7922427,26.8576745 63.744186,26.8576744 L53.4297674,26.8576744 C52.9227816,26.8453033 52.4328794,27.0412611 52.0742796,27.3998609 C51.7156797,27.7584608 51.5197219,28.248363 51.532093,28.7553488" id="Shape"></path>
            <path d="M68.3655814,28.7553488 C68.3845382,29.4766373 68.0867698,30.1700707 67.5506977,30.6530233 L63.744186,34.7274419 C62.915683,35.5371604 61.5922239,35.5371604 60.7637209,34.7274419 C60.374468,34.3841531 60.1514745,33.8901666 60.1514745,33.3711628 C60.1514745,32.8521589 60.374468,32.3581725 60.7637209,32.0148837 L64.0232558,28.7553488 L60.7637209,25.495814 C60.0708858,24.7378498 60.0971106,23.568906 60.8232408,22.8427757 C61.5493711,22.1166454 62.7183149,22.0904206 63.4762791,22.7832558 L67.5506977,26.5786047 C68.093368,27.1671767 68.3856287,27.9438697 68.3655814,28.744186" id="Shape"></path>
            <path d="M41.7646512,40.6995349 C41.3825823,40.3449233 40.8667714,40.1712088 40.348022,40.2224433 C39.8292725,40.2736778 39.35741,40.5449403 39.052093,40.9674419 L35.8372093,44.2269767 C35.3476164,44.7531694 35.1907495,45.5077235 35.4300556,46.1854494 C35.6693618,46.8631754 36.2652439,47.3519326 36.9766894,47.4540367 C37.6881349,47.5561407 38.3974237,47.2546967 38.8176744,46.6716279 L42.0772093,43.412093 C42.4353267,43.0316282 42.6113803,42.514864 42.5600257,41.9948984 C42.5086711,41.4749328 42.2349282,41.0025929 41.8093023,40.6995349" id="Shape"></path>
            <path d="M54.2446512,27.1255814 C53.8185546,26.8185864 53.2837742,26.7031021 52.7689656,26.8069112 C52.2541571,26.9107204 51.8059212,27.2244261 51.532093,27.6725581 L48.2725581,30.664186 C47.6682745,31.6016726 47.7786821,32.8299571 48.5404651,33.6446512 C49.5173196,34.3035136 50.8416826,34.0604657 51.5209302,33.0976744 L54.8139535,29.8493023 C55.3084078,28.9313409 55.0785338,27.7913536 54.2669767,27.1367442" id="Shape"></path>
            <path d="M25.7906977,45.3209302 C25.7204915,45.8683381 25.8878461,46.4196279 26.2505135,46.8356287 C26.6131808,47.2516295 27.136504,47.4925877 27.6883721,47.4976744 L36.92,47.4976744 C37.4718681,47.4925877 37.9951913,47.2516295 38.3578586,46.8356287 C38.720526,46.4196279 38.8878806,45.8683381 38.8176744,45.3209302 C38.8300455,44.8139444 38.6340878,44.3240422 38.2754879,43.9654423 C37.916888,43.6068425 37.4269859,43.4108847 36.92,43.4232558 L27.6437209,43.4232558 C27.1444336,43.4231108 26.6662147,43.6244569 26.3173929,43.9816841 C25.9685711,44.3389112 25.7786666,44.8217878 25.7906977,45.3209302" id="Shape"></path>
            <path d="M23.0334884,45.3209302 C23.0105109,46.125073 23.3029733,46.9063084 23.8483721,47.4976744 L27.9227907,51.572093 C28.7449556,52.1167483 29.8131839,52.1167483 30.6353488,51.572093 C31.4450674,50.74359 31.4450674,49.4201309 30.6353488,48.5916279 L27.375814,45.3209302 L30.6353488,42.3404651 C31.4450674,41.5119621 31.4450674,40.188503 30.6353488,39.36 C29.8122972,38.8182967 28.7458423,38.8182967 27.9227907,39.36 L23.8483721,43.4344186 C23.3558752,43.9474065 23.0663177,44.6217185 23.0334884,45.332093" id="Shape"></path>
            <path d="M53.6976744,46.9395349 C52.7834852,47.4584339 51.6267751,47.2251878 50.9851163,46.3925581 L36.6074419,29.8493023 C36.0094331,28.9492066 36.2543229,27.734753 37.1544186,27.1367442 C38.0545143,26.5387354 39.268968,26.7836252 39.8669767,27.6837209 L54.2446512,44.2269767 C54.6211651,44.6275107 54.7803022,45.1856326 54.6716407,45.7245045 C54.5629793,46.2633763 54.1999865,46.7162127 53.6976744,46.9395349" id="Shape"></path>
            <path d="M39.8669767,28.7553488 C39.8793478,29.2623347 39.6833901,29.7522369 39.3247902,30.1108367 C38.9661904,30.4694366 38.4762882,30.6653943 37.9693023,30.6530233 L27.6437209,30.6530233 C26.5956643,30.6530232 25.7460466,29.8034054 25.7460466,28.7553488 C25.7460466,27.7072922 26.5956643,26.8576745 27.6437209,26.8576744 L37.9581395,26.8576744 C38.4651254,26.8453033 38.9550276,27.0412611 39.3136274,27.3998609 C39.6722273,27.7584608 39.868185,28.248363 39.855814,28.7553488" id="Shape"></path>
            <path d="M23.0334884,28.7553488 C23.0145316,29.4766373 23.3123,30.1700707 23.8483721,30.6530233 L27.9227907,34.7274419 C28.6807549,35.420277 29.8496987,35.3940522 30.575829,34.667922 C31.3019592,33.9417917 31.328184,32.7728479 30.6353488,32.0148837 L27.375814,28.7553488 L30.6353488,25.495814 C31.328184,24.7378498 31.3019592,23.568906 30.575829,22.8427757 C29.8496987,22.1166454 28.6807549,22.0904206 27.9227907,22.7832558 L23.8483721,26.5786047 C23.3057018,27.1671767 23.013441,27.9438697 23.0334884,28.744186" id="Shape"></path>
            <path d="M76.8269767,66.5637209 L18.467907,66.5637209 C18.3009983,66.5826181 18.1324901,66.5826181 17.9655814,66.5637209 C17.7981395,66.5637209 1.29953488,62.7237209 0.105116279,44.8855814 C0.105116279,37.0716279 3.45395349,27.7953488 12.7748837,24.2567442 C13.5396489,20.3721914 15.8583419,16.9687533 19.1934884,14.8353488 C21.5934884,13.4623256 25.455814,12.4911628 30.8362791,14.8353488 C36.6074419,2.23255814 48.8083721,-1.51813953 58.2186047,0.524651163 C67.8632558,2.61209302 77.0613953,11.2855814 76.8381395,26.0762791 C80.9639246,26.2529897 84.8859613,27.9185664 87.8781395,30.7646512 C92.7674419,35.5088372 94.1069767,42.7646512 94.1069767,46.3032558 C93.3813953,60.1451163 82.7209302,65.5702326 77.2288372,66.5302326 C77.0951193,66.541467 76.9606947,66.541467 76.8269767,66.5302326 M18.7804651,61.8418605 L76.6037209,61.8418605 C83.9870107,60.2193824 89.2897057,53.7388239 89.4186047,46.1804651 C89.4186047,43.7023256 88.4139535,37.8083721 84.6297674,34.1469767 C82.1293023,31.735814 78.7134884,30.5860465 74.4716279,30.7311628 C73.7990016,30.7610619 73.146788,30.4961001 72.6855814,30.0055814 C72.2266768,29.5202737 71.9953964,28.8629503 72.0493023,28.1972093 C73.2325581,13.7860465 64.8604651,6.75348837 57.2251163,5.11255814 C49.1655814,3.34883721 38.5386047,6.92093023 34.252093,18.8651163 C34.0136695,19.5086233 33.5052392,20.0153378 32.8609298,20.2515846 C32.2166205,20.4878313 31.5011467,20.4298817 30.9032558,20.0930233 C27.1302326,17.8604651 23.9934884,17.4586047 21.5823256,18.8427907 C18.6018605,20.5506977 17.3404651,24.6139535 17.3404651,25.9423256 C17.3328618,26.9769458 16.6478662,27.8842248 15.6548837,28.1748837 C5.58604651,31.1553488 4.80465116,41.5590698 4.80465116,44.6511628 C5.21596266,52.8085868 10.85969,59.7616589 18.7581395,61.8418605" id="Shape"></path>
        </g>
    </g>
</svg>