<?xml version="1.0" encoding="utf-8"?>
<!-- Generator: Adobe Illustrator 24.3.0, SVG Export Plug-In . SVG Version: 6.00 Build 0)  -->
<svg version="1.1" id="Layer_1" xmlns="http://www.w3.org/2000/svg" xmlns:xlink="http://www.w3.org/1999/xlink" x="0px" y="0px"
	 viewBox="0 0 548 85.002" style="enable-background:new 0 0 548 85.002;" xml:space="preserve">
<style type="text/css">
	.st0{fill:#2BD4EE;}
	.st1{fill:#FFFFFF;}
	.st2{fill:#F98700;}
	.st3{fill:#BDBDBD;}
	.st4{fill:#FE5000;}
</style>
<g id="Path_545">
	<path class="st0" d="M20.225,31.112c-0.699,0-1.377-0.367-1.745-1.02c-0.541-0.962-0.2-2.181,0.763-2.723
		C43.24,13.873,72.482,5.803,103.811,4.035c29.072-1.643,59.209,2.067,87.146,10.725c5.403,1.675,10.817,3.553,16.093,5.583
		c1.031,0.396,1.544,1.553,1.148,2.583s-1.556,1.543-2.583,1.148c-5.193-1.998-10.523-3.847-15.841-5.495
		C131.41,0.493,66.82,5.197,21.203,30.855C20.894,31.03,20.557,31.112,20.225,31.112z"/>
</g>
<g id="Path_545-2">
	<path class="st0" d="M54.225,34.242c-0.858,0-1.651-0.557-1.913-1.42c-0.32-1.057,0.277-2.173,1.334-2.493
		c15.073-4.567,30.686-7.432,46.405-8.514c1.107-0.068,2.056,0.756,2.132,1.857c0.076,1.102-0.756,2.056-1.857,2.132
		c-15.419,1.062-30.735,3.872-45.521,8.352C54.612,34.214,54.417,34.242,54.225,34.242z"/>
</g>
<g id="Path_545-3">
	<path class="st1" d="M325.702,77.959l-0.538-0.06l0.689-5.959l0.474,0.054L325.702,77.959z M313.053,75.914
		c-1.991-0.423-4.001-0.899-5.974-1.418l1.523-5.801c1.882,0.494,3.798,0.949,5.694,1.352L313.053,75.914z M295.37,70.819
		c-1.909-0.699-3.832-1.455-5.713-2.248l2.328-5.527c1.795,0.756,3.627,1.478,5.447,2.145L295.37,70.819z M278.582,63.277
		c-1.793-0.964-3.589-1.985-5.337-3.034l3.088-5.143c1.667,1.001,3.379,1.975,5.089,2.894L278.582,63.277z M262.945,54.138
		c-1.746-1.035-3.453-2.045-5.148-3.039l3.033-5.174c1.704,0.998,3.42,2.014,5.174,3.055L262.945,54.138z M247.457,45.186
		c-1.696-0.938-3.429-1.88-5.224-2.834l2.814-5.296c1.825,0.97,3.588,1.928,5.313,2.882L247.457,45.186z M231.641,36.954
		c-1.714-0.839-3.499-1.696-5.366-2.577l2.56-5.424c1.894,0.893,3.703,1.763,5.442,2.613L231.641,36.954z"/>
</g>
<g id="Path_545-4">
	<path class="st2" d="M352.053,78.569c-1.009,0-1.876-0.762-1.985-1.788c-0.116-1.099,0.68-2.083,1.777-2.199
		c52.565-5.57,68.836-16.806,89.436-31.031c1.052-0.727,2.114-1.46,3.191-2.2c3.391-2.233,6.674-4.633,9.849-6.953
		c16.528-12.082,33.612-24.582,74.196-22.983c1.104,0.043,1.963,0.973,1.92,2.076c-0.044,1.103-0.971,1.968-2.076,1.919
		c-39.19-1.532-55.704,10.539-71.681,22.216c-3.213,2.349-6.536,4.778-9.977,7.043c-1.042,0.716-2.102,1.447-3.15,2.172
		c-20.233,13.973-37.708,26.04-91.286,31.718C352.194,78.566,352.124,78.569,352.053,78.569z"/>
</g>
<g id="Path_545-4_2_">
	<path class="st0" d="M367.499,59.82c18.391-3.56,30.887-8.217,41.258-13.652"/>
	<path class="st0" d="M367.497,61.82c-0.938,0-1.776-0.664-1.961-1.62c-0.21-1.084,0.499-2.133,1.583-2.343
		c16.255-3.146,29.191-7.423,40.71-13.46c0.979-0.514,2.186-0.137,2.698,0.843c0.513,0.978,0.136,2.186-0.843,2.698
		c-11.873,6.223-25.157,10.622-41.806,13.845C367.751,61.808,367.623,61.82,367.497,61.82z"/>
</g>
<g id="Ellipse_383">
	<circle class="st1" cx="328.052" cy="76.438" r="5.852"/>
</g>
<g id="Rectangle_908">
	<path class="st3" d="M547.766,11.778l0.06,1.706c0.097,2.759-2.061,5.073-4.82,5.17l-6.701,0.235l0,0l-0.41-11.696l0,0l6.701-0.235
		C545.355,6.861,547.669,9.019,547.766,11.778z"/>
</g>
<g id="Rectangle_909">
	<rect y="29.393" class="st4" width="12" height="13"/>
</g>
</svg>
