<?xml version="1.0" encoding="utf-8"?>
<!-- Generator: Adobe Illustrator 24.3.0, SVG Export Plug-In . SVG Version: 6.00 Build 0)  -->
<svg version="1.1" id="Layer_1" xmlns="http://www.w3.org/2000/svg" xmlns:xlink="http://www.w3.org/1999/xlink" x="0px" y="0px"
	 viewBox="0 0 548 85.002" style="enable-background:new 0 0 548 85.002;" xml:space="preserve">
<style type="text/css">
	.st0{fill:none;stroke:#2BD4EE;stroke-width:3.9985;stroke-linecap:round;stroke-miterlimit:3.9985;}
	.st1{fill:none;stroke:#FFFFFF;stroke-width:5.9977;stroke-miterlimit:3.9985;stroke-dasharray:5.9977,11.9954;}
	.st2{fill:none;stroke:#F98700;stroke-width:3.9985;stroke-linecap:round;stroke-miterlimit:3.9985;}
	.st3{fill:#2BD4EE;stroke:#2BD4EE;stroke-width:3.9985;stroke-linecap:round;stroke-miterlimit:3.9985;}
	.st4{fill:#FFFFFF;}
	.st5{fill:#BDBDBD;}
	.st6{fill:#FE5000;}
</style>
<path id="Path_545" class="st0" d="M20.223,29.113C70.462,0.854,136.47-0.032,190.364,16.67c5.381,1.668,10.704,3.514,15.967,5.539"
	/>
<path id="Path_545-2" class="st0" d="M54.225,32.242c14.955-4.531,30.373-7.359,45.963-8.433"/>
<path id="Path_545-3" class="st1" d="M227.555,31.665c19.821,9.351,30.383,16.087,46.954,25.838
	c15.703,9.48,33.276,15.441,51.506,17.474"/>
<path id="Path_545-4" class="st2" d="M352.056,76.57c55.791-5.912,71.473-18.413,93.547-33.571
	c20.378-13.417,34.971-31.464,82.835-29.587"/>
<path id="Path_545-4_2_" class="st3" d="M367.499,59.82c18.391-3.56,30.887-8.217,41.258-13.652"/>
<circle id="Ellipse_383" class="st4" cx="328.052" cy="76.438" r="5.852"/>
<path id="Rectangle_908" class="st5" d="M547.766,11.778l0.06,1.706c0.097,2.759-2.061,5.073-4.82,5.17l-6.701,0.235l0,0
	l-0.41-11.696l0,0l6.701-0.235C545.355,6.861,547.669,9.019,547.766,11.778z"/>
<rect id="Rectangle_909" y="29.393" class="st6" width="12" height="13"/>
</svg>
