<?xml version="1.0" encoding="utf-8"?>
<!-- Generator: Adobe Illustrator 24.3.0, SVG Export Plug-In . SVG Version: 6.00 Build 0)  -->
<svg version="1.1" id="Layer_1" xmlns="http://www.w3.org/2000/svg" xmlns:xlink="http://www.w3.org/1999/xlink" x="0px" y="0px"
	 viewBox="0 0 1890.327 350.191" style="enable-background:new 0 0 1890.327 350.191;" xml:space="preserve">
<style type="text/css">
	.st0{fill:#D2D7D9;}
	.st1{fill:#2BD4EE;}
</style>
<g id="Group_660" transform="translate(-17.966 -1447.735)">
	<g id="Path_545">
		<path class="st0" d="M684.74,1676.778l-1.051-0.435l2.292-5.545l1.048,0.433L684.74,1676.778z M668.902,1670.252l-5.549-2.277
			l2.276-5.551l5.552,2.277L668.902,1670.252z M648.549,1661.924l-5.556-2.26l2.259-5.559l5.559,2.262L648.549,1661.924z
			 M628.171,1653.657l-5.562-2.244l2.244-5.564l5.565,2.246L628.171,1653.657z M607.768,1645.449l-5.567-2.228l2.227-5.572
			l5.573,2.231L607.768,1645.449z M587.345,1637.298l-5.576-2.212l2.212-5.578l5.577,2.214L587.345,1637.298z M566.895,1629.208
			l-5.58-2.196l2.194-5.584l5.586,2.198L566.895,1629.208z M546.423,1621.175l-5.588-2.181l2.18-5.59l5.591,2.182L546.423,1621.175z
			 M525.928,1613.201l-5.594-2.164l2.163-5.597l5.598,2.166L525.928,1613.201z M505.411,1605.287l-5.601-2.148l2.147-5.603
			l5.604,2.149L505.411,1605.287z M484.87,1597.432l-5.606-2.132l2.131-5.608l5.61,2.133L484.87,1597.432z M464.307,1589.635
			l-5.613-2.116l2.115-5.615l5.616,2.118L464.307,1589.635z M443.721,1581.898l-5.619-2.1l2.1-5.621l5.622,2.101L443.721,1581.898z
			 M423.113,1574.22l-5.625-2.084l2.083-5.627l5.628,2.085L423.113,1574.22z M402.483,1566.601l-5.63-2.067l2.065-5.634l5.635,2.069
			L402.483,1566.601z M381.832,1559.042l-5.636-2.051l2.049-5.64l5.641,2.053L381.832,1559.042z M361.157,1551.542l-5.642-2.035
			l2.033-5.646l5.646,2.037L361.157,1551.542z M340.463,1544.102l-5.647-2.019l2.017-5.651l5.652,2.021L340.463,1544.102z
			 M319.746,1536.721l-5.653-2.003l2.001-5.656l5.658,2.004L319.746,1536.721z M299.009,1529.399l-5.66-1.986l1.984-5.662
			l5.664,1.987L299.009,1529.399z M278.251,1522.138l-5.666-1.97l1.969-5.668l5.669,1.971L278.251,1522.138z M257.471,1514.935
			l-5.667-1.951l1.944-5.676l5.68,1.955L257.471,1514.935z M236.67,1507.891c-1.895-0.626-3.792-1.25-5.689-1.869l1.861-5.704
			c1.905,0.622,3.809,1.247,5.711,1.876L236.67,1507.891z M215.775,1501.148c-1.903-0.599-3.809-1.194-5.715-1.786l1.778-5.73
			c1.914,0.594,3.827,1.192,5.738,1.793L215.775,1501.148z M194.784,1494.71c-1.913-0.571-3.826-1.139-5.741-1.703l1.695-5.756
			c1.922,0.566,3.843,1.136,5.763,1.709L194.784,1494.71z M173.702,1488.578c-1.921-0.543-3.843-1.083-5.766-1.619l1.611-5.779
			c1.93,0.538,3.859,1.08,5.787,1.625L173.702,1488.578z M152.534,1482.754c-1.928-0.514-3.858-1.025-5.791-1.532l1.523-5.804
			c1.94,0.509,3.878,1.022,5.813,1.539L152.534,1482.754z M131.276,1477.255c-1.935-0.485-3.873-0.966-5.812-1.443l1.433-5.826
			c1.948,0.479,3.894,0.962,5.838,1.449L131.276,1477.255z M109.937,1472.085c-1.943-0.455-3.887-0.906-5.834-1.354l1.344-5.848
			c1.955,0.449,3.908,0.902,5.858,1.359L109.937,1472.085z M88.521,1467.24c-1.95-0.425-3.9-0.847-5.854-1.265l1.255-5.867
			c1.961,0.419,3.92,0.843,5.879,1.27L88.521,1467.24z M67.035,1462.72c-1.956-0.396-3.914-0.788-5.873-1.176l1.167-5.886
			c1.967,0.39,3.932,0.784,5.896,1.181L67.035,1462.72z M45.483,1458.525c-1.962-0.367-3.924-0.729-5.889-1.088l1.078-5.902
			c1.972,0.36,3.943,0.724,5.914,1.093L45.483,1458.525z M23.871,1454.653c-1.967-0.337-3.936-0.671-5.905-1l0.99-5.918
			c1.977,0.331,3.953,0.666,5.928,1.004L23.871,1454.653z"/>
	</g>
	<g id="Path_545-2">
		<path class="st1" d="M1772.39,1657.502c-1.172,0-2.286-0.691-2.768-1.841c-0.641-1.528,0.078-3.286,1.606-3.927
			c54.593-22.895,97.993-43.53,129.684-58.597l1.988-0.945c1.499-0.711,3.286-0.074,3.997,1.421
			c0.712,1.497,0.075,3.286-1.421,3.998l-1.988,0.945c-31.743,15.093-75.218,35.763-129.939,58.711
			C1773.17,1657.426,1772.776,1657.502,1772.39,1657.502z"/>
	</g>
	<g id="Path_545-3">
		<path class="st0" d="M1143.594,1797.927c-183.477,0-320.948-24.341-458.852-81.149c-121.889-50.341-246.72-98.178-371.025-142.184
			c-1.562-0.553-2.38-2.268-1.827-3.829c0.553-1.562,2.265-2.38,3.83-1.827c124.402,44.041,249.329,91.915,371.311,142.294
			c138.341,56.987,276.321,81.146,461.408,80.689c153.431-0.349,318.63-30.574,491.009-89.837c1.57-0.539,3.273,0.296,3.812,1.861
			c0.539,1.567-0.295,3.274-1.861,3.812c-173.004,59.478-338.854,89.813-492.946,90.163
			C1146.828,1797.925,1145.209,1797.927,1143.594,1797.927z"/>
	</g>
	<g id="Ellipse_390">
		<circle class="st1" cx="297" cy="1566" r="10"/>
	</g>
	<g id="Path_545-4">
		<path class="st0" d="M1148.443,1757.922c-1.653,0-2.996-1.339-3-2.993c-0.004-1.657,1.336-3.003,2.993-3.007
			c335.895-0.764,638.33-144.524,752.184-198.645l2.387-1.134c1.498-0.71,3.287-0.075,3.998,1.422
			c0.711,1.496,0.074,3.286-1.422,3.997l-2.387,1.134c-114.187,54.278-417.505,198.459-754.746,199.226
			C1148.448,1757.922,1148.445,1757.922,1148.443,1757.922z"/>
	</g>
</g>
</svg>
